<?xml version="1.0" encoding="UTF-8" standalone="no"?><!DOCTYPE svg PUBLIC "-//W3C//DTD SVG 1.1//EN" "http://www.w3.org/Graphics/SVG/1.1/DTD/svg11.dtd"><svg width="100%" height="100%" viewBox="0 0 200 200" version="1.1" xmlns="http://www.w3.org/2000/svg" xmlns:xlink="http://www.w3.org/1999/xlink" xml:space="preserve" xmlns:serif="http://www.serif.com/" style="fill-rule:evenodd;clip-rule:evenodd;stroke-linejoin:round;stroke-miterlimit:2;"><g id="Trophy"><path d="M72.917,166.667l54.166,-0l0,-8.334c-6.857,0 -12.5,-5.642 -12.5,-12.5l0,-14l-29.166,0l-0,14c-0,6.858 -5.643,12.5 -12.5,12.5l-0,8.334Z" style="fill:#8c583f;fill-rule:nonzero;"/><path d="M141.667,158.333l-83.334,0c-9.143,0 -16.666,7.524 -16.666,16.667c-0,4.572 3.761,8.333 8.333,8.333l100,0c4.572,0 8.333,-3.761 8.333,-8.333c0,-9.143 -7.523,-16.667 -16.666,-16.667Z" style="fill:#d19b43;fill-rule:nonzero;"/><path d="M58.333,175c0,-9.143 7.524,-16.667 16.667,-16.667l-16.667,0c-9.143,0 -16.666,7.524 -16.666,16.667c-0,4.572 3.761,8.333 8.333,8.333l16.667,0c-4.572,0 -8.334,-3.761 -8.334,-8.333Z" style="fill:#a76b2d;fill-rule:nonzero;"/><path d="M152.083,112.5l-6.25,0c-2.285,0 -4.166,-1.881 -4.166,-4.167c-0,-2.285 1.881,-4.166 4.166,-4.166l6.25,-0c12.567,-0.014 22.903,-10.35 22.917,-22.917l0,-18.75c0,-2.286 -1.881,-4.167 -4.167,-4.167l-20.833,0c-2.286,0 -4.167,-1.881 -4.167,-4.166c0,-2.286 1.881,-4.167 4.167,-4.167l20.833,0c6.858,0 12.5,5.643 12.5,12.5l0,18.75c-0.018,17.136 -14.113,31.232 -31.25,31.25Z" style="fill:#a76b2d;fill-rule:nonzero;"/><path d="M54.167,112.5l-6.25,0c-17.137,-0.018 -31.232,-14.114 -31.25,-31.25l-0,-18.75c-0,-6.857 5.642,-12.5 12.5,-12.5l20.833,0c2.286,0 4.167,1.881 4.167,4.167c-0,2.285 -1.881,4.166 -4.167,4.166l-20.833,0c-2.286,0 -4.167,1.881 -4.167,4.167l0,18.75c0.014,12.567 10.35,22.903 22.917,22.917l6.25,-0c2.285,-0 4.166,1.881 4.166,4.166c0,2.286 -1.881,4.167 -4.166,4.167Z" style="fill:#a76b2d;fill-rule:nonzero;"/><path d="M145.833,16.667l-91.666,-0c-6.858,-0 -12.5,5.642 -12.5,12.5l-0,53.162c-0.237,32.262 26.072,59.024 58.333,59.338c32.261,-0.314 58.57,-27.076 58.333,-59.338l0,-53.162c0,-6.858 -5.642,-12.5 -12.5,-12.5Z" style="fill:#d19b43;fill-rule:nonzero;"/><path d="M116.667,129.167c-32.261,-0.314 -58.57,-27.076 -58.334,-59.338l0,-53.162l-4.166,-0c-6.858,-0 -12.5,5.642 -12.5,12.5l-0,53.162c-0.237,32.262 26.072,59.024 58.333,59.338c16.084,-0.032 31.444,-6.793 42.329,-18.634c-7.957,4.021 -16.747,6.121 -25.662,6.134Z" style="fill:#a76b2d;fill-rule:nonzero;"/><path d="M124.825,64.925c-0.364,-1.117 -1.257,-1.986 -2.383,-2.321l-12.267,-3.612l-7.229,-10.55c-0.701,-0.917 -1.792,-1.456 -2.946,-1.456c-1.154,-0 -2.245,0.539 -2.946,1.456l-7.229,10.55l-12.267,3.612c-1.513,0.449 -2.559,1.849 -2.559,3.428c-0,0.787 0.259,1.552 0.738,2.176l7.8,10.125l-0.35,12.784c-0,0.032 -0.001,0.065 -0.001,0.098c0,1.959 1.612,3.571 3.571,3.571c0.408,-0 0.813,-0.07 1.197,-0.207l12.046,-4.275l12.046,4.279c0.384,0.135 0.788,0.204 1.196,0.205c0.002,-0 0.003,-0 0.005,-0c1.957,-0 3.567,-1.611 3.567,-3.567c-0,-0.034 -0.001,-0.067 -0.002,-0.1l-0.35,-12.788l7.8,-10.133c0.713,-0.933 0.923,-2.158 0.563,-3.275Z" style="fill:#a97142;fill-rule:nonzero;"/></g></svg>