<?xml version="1.0" encoding="UTF-8" standalone="no"?><!DOCTYPE svg PUBLIC "-//W3C//DTD SVG 1.1//EN" "http://www.w3.org/Graphics/SVG/1.1/DTD/svg11.dtd"><svg width="100%" height="100%" viewBox="0 0 924 1189" version="1.1" xmlns="http://www.w3.org/2000/svg" xmlns:xlink="http://www.w3.org/1999/xlink" xml:space="preserve" xmlns:serif="http://www.serif.com/" style="fill-rule:evenodd;clip-rule:evenodd;stroke-miterlimit:10;"><path d="M354.635,34.625c10.269,-7.543 20.144,-15.609 29.584,-24.167c1.129,-1.161 2.681,-1.816 4.301,-1.816c2.302,-0 4.409,1.325 5.407,3.4c1.792,3.875 2.5,10.208 -0.667,20.833c-12.893,-1.213 -25.893,-0.624 -38.625,1.75Z" style="fill:#f7a48b;fill-rule:nonzero;"/><path d="M897.302,380.458l-133.333,119.25c-0,0 -70.625,40.792 -67.459,210.209c0,-0 -4.708,43.5 4.167,123.416c1.375,12.5 3.083,25.625 5.208,39.75c3.848,28.79 5.38,57.841 4.584,86.875c-0.43,24.561 -2.967,49.04 -7.584,73.167c-4.617,24.127 -7.916,19.875 1.75,47.458c0.834,2.417 1.834,4.917 2.959,7.459c-0,-0 37.5,31.333 -21.917,31.416l-4.75,0c-18.778,-5.114 -36.665,-13.067 -53.042,-23.583c-16.52,-10.264 -31.443,-22.899 -44.291,-37.5c-12.849,-14.601 -47.834,-39.25 -107.75,-46.167c-7.977,-0.942 -16.018,-1.235 -24.042,-0.875c-8.024,0.36 -7.917,0 -20.292,-0.25c-34.791,-0.875 -104.958,-5.208 -135.041,-25c-7.835,2.544 -16.169,3.159 -24.292,1.792c-9.375,-2.083 -18.25,-8.542 -19.625,-25.333l6.25,-136.459l-3.458,-51.375l-12.209,-180.833c0,0 0,-17.25 -36.083,-45.5c-0,0 -60.167,-49.583 -112.25,-99.417c-28.167,-26.916 -54.167,-53.916 -66.667,-73.166c0,-0 -61.166,-76.875 -3.125,-114.542l217.542,-111.375c-0,0 24.083,12.5 58.583,72.167c-17.822,9.746 -34.086,22.105 -48.25,36.666c-3.577,3.761 -6.917,7.741 -10,11.917c-3.082,4.176 -29.833,37.5 -40.791,43.917c-0,-0 12.041,2.041 32.125,18.083c19.61,15.898 41.733,28.417 65.458,37.042l1.5,0.541c14.327,5.386 29.386,8.575 44.667,9.459l209.25,87.083l59.25,-84.5l69.416,-36.333c0,-0 31.375,-29.792 61.167,-36.084l-84.542,-94.125c0,0 28.25,-54.916 59.625,-76.875l150.584,109.834c-0,-0 98.958,56.458 26.708,131.791Z" style="fill:#0998b7;fill-rule:nonzero;"/><path d="M594.552,236.125c-0,47.042 -12.208,89.792 -32.125,121.333c-21.125,33.334 -50.958,54.167 -83.958,54.167c-33,-0 -62.084,-20.333 -83.334,-53.083c-20.375,-31.625 -32.958,-75 -32.958,-122.625c-0,-97.084 52,-175.75 116.125,-175.75c64.125,-0 116.25,78.875 116.25,175.958Z" style="fill:#f9b499;fill-rule:nonzero;"/><path d="M347.545,215.618c14.566,-4.183 31.24,9.308 37.212,30.108c5.972,20.799 -1.005,41.081 -15.571,45.263c-14.566,4.182 -31.241,-9.309 -37.213,-30.108c-5.972,-20.799 1.006,-41.081 15.572,-45.263Z" style="fill:#f9b499;"/><path d="M574.318,241.921c7.754,-20.202 25.537,-32.195 39.685,-26.764c14.148,5.431 19.339,26.242 11.584,46.445c-7.755,20.202 -25.538,32.195 -39.686,26.764c-14.148,-5.431 -19.338,-26.242 -11.583,-46.445Z" style="fill:#f9b499;"/><path d="M347.969,133.417c3.458,14.833 11.625,28.083 30,27.375c-0,-0 17.25,-1.542 28.25,-25c-0,-0 14.125,10.958 -3.167,31.375c-0,-0 65.917,14.125 76.875,-58.042c-0,-0 -0,-9.417 15.708,4.708c0,0 43.917,37.5 51.75,59.584c-0.626,-15.47 -3.259,-30.793 -7.833,-45.584c22.425,14.003 47.559,23.105 73.75,26.709c26.191,3.603 14.125,-114.625 -117.667,-111.417c0,-0 0,-18.833 12.5,-23.542c0,0 -14.125,-3.125 -31.375,12.5c0,0 -3.125,-15.708 -25,-14.125l10.959,12.5l-42.334,-20.416c0,-0 0,23.541 18.792,34.541c-24.898,-6.465 -51.442,0.763 -69.625,18.959c-19.085,17.774 -27.32,44.433 -21.583,69.875Z" style="fill-rule:nonzero;"/><path d="M346.094,123.25c-0,-0 -10.375,106.583 38.208,151.333c-0,0 -14.167,-80.75 -6.333,-113.708c-0.084,-0.125 -25.625,-0.125 -31.875,-37.625Z" style="fill-rule:nonzero;"/><path d="M346.094,123.25c-0,-0 -10.375,106.583 38.208,151.333c-0,0 -14.167,-80.75 -6.333,-113.708c-0.084,-0.125 -25.625,-0.125 -31.875,-37.625Z" style="fill-opacity:0.2;fill-rule:nonzero;"/><path d="M578.094,145.792c-0,-0 3.083,8.333 5.875,17.583c1.875,6.562 1.875,13.521 -0,20.083c-5.917,21.125 -17.209,72.209 8.791,80.875c0,0 -10.5,-41 17.5,-50.291c0,-0 6.042,-39.125 2.917,-59.5c0.125,-0 -23.167,-3.375 -35.083,-8.75Z" style="fill-rule:nonzero;"/><path d="M578.094,145.792c-0,-0 3.083,8.333 5.875,17.583c1.875,6.562 1.875,13.521 -0,20.083c-5.917,21.125 -17.209,72.209 8.791,80.875c0,0 -10.5,-41 17.5,-50.291c0,-0 6.042,-39.125 2.917,-59.5c0.125,-0 -23.167,-3.375 -35.083,-8.75Z" style="fill-opacity:0.2;fill-rule:nonzero;"/><path d="M562.885,357.5c-3.375,57.042 -57.833,100 -57.833,100l-12.5,34.5l-14.125,-0l-11,-37.5c-53.833,-29.833 -70.583,-89.542 -72.167,-95.458c21.084,32.75 50.584,53.083 83.334,53.083c32.75,0 62.833,-20.833 83.958,-54.167l0.333,-0.458Z" style="fill:#f7a48b;fill-rule:nonzero;"/><path d="M386.844,344.875l-46.459,23.042l73.75,169.416c25.139,-22.225 43.608,-51.01 53.334,-83.125c9.725,-32.114 -48.584,-23 -72.167,-95.458l-8.458,-13.875Z" style="fill:#0998b7;fill-rule:nonzero;"/><path d="M467.385,454.208c-4.402,14.036 -10.414,27.514 -17.916,40.167c-2.25,3.792 -4.542,7.375 -6.834,10.667c-7.977,12.042 -17.598,22.911 -28.583,32.291l-73.667,-169.416l46.542,-23.042l8.333,13.875c23.542,72.458 72.125,95.458 72.125,95.458Z" style="fill:#fff;fill-opacity:0.4;fill-rule:nonzero;"/><path d="M505.052,457.333c-0,0 -0,18.834 18.833,42.375l20.375,26.667c0,-0 56.042,-53.125 72.875,-153.125c0.515,-3.037 -1.256,-6.031 -4.166,-7.042l-46.875,-14.666l-3.542,5.875c-0,-0 0.042,48.125 -57.5,99.916Z" style="fill:#0998b7;fill-rule:nonzero;"/><path d="M505.052,457.333c-0,0 -0,18.834 18.833,42.375l20.375,26.667c0,-0 56.042,-53.125 72.875,-153.125c0.515,-3.037 -1.256,-6.031 -4.166,-7.042l-46.875,-14.666l-3.542,5.875c-0,-0 0.042,48.125 -57.5,99.916Z" style="fill:#fff;fill-opacity:0.4;fill-rule:nonzero;"/><path d="M301.344,370.208c-49.084,6.834 -100.667,-19.583 -100.667,-19.583c-33.054,-12.569 -68.51,-17.567 -103.75,-14.625c68.458,-8.833 155.958,-77.708 155.958,-77.708l0.25,0.416c-3.552,3.772 -6.877,7.752 -9.958,11.917c-3.081,4.165 -29.833,37.5 -40.792,43.917c0,-0 12.042,2.041 32.125,18.083c19.61,15.898 41.733,28.417 65.459,37.042l1.375,0.541Z" style="fill-opacity:0.2;fill-rule:nonzero;"/><path d="M569.552,857.417l-36.083,45.5c-0,-0 -28.334,-26.084 -49.375,-37.75c-15.977,-8.635 -27.951,-23.197 -33.334,-40.542c-4.203,-14.897 -6.003,-30.369 -5.333,-45.833c0.67,-15.464 14.125,-213.375 15.708,-262c0,-0 -13.916,-2.625 -18.5,-11.917c2.292,-3.292 4.584,-6.875 6.834,-10.667c2.583,2.375 11.125,7.625 28.916,-2.541l14.125,-0c0,-0 10.875,6.916 23.459,-4.417l7.916,12.292c0,-0 -11,10.958 -23.541,9.375c-0,0.166 7.833,215.125 69.208,348.5Z" style="fill:#32c477;fill-rule:nonzero;"/><path d="M271.26,625.208c-9.548,49.919 -14.306,100.635 -14.208,151.459l-1.708,-2l-12.209,-180.834c0,0 0,-17.25 -36.083,-45.5c-0,0 -60.167,-49.583 -112.292,-99.416l-0.375,-1.459c37.751,36.906 85.715,61.657 137.667,71.042c51.952,9.385 64.333,-14.125 39.208,106.708Z" style="fill-opacity:0.2;fill-rule:nonzero;"/><path d="M696.469,709.917c-0,-0 -4.709,43.5 4.166,123.416l-0.458,2.25c-121.75,-377.958 63.708,-335.875 63.708,-335.875c0,0 -70.583,40.792 -67.416,210.209Z" style="fill-opacity:0.2;fill-rule:nonzero;"/><path d="M431.385,1010.75c-34.75,-0.875 -104.916,-5.208 -135,-25c0,0.292 104.834,-12.5 135,25Z" style="fill-opacity:0.2;fill-rule:nonzero;"/><path d="M495.635,43.125c0,-0 55.167,-19.625 67.75,-43.125c0,-0 5.875,38.042 -12.75,49.625" style="fill-rule:nonzero;"/><path d="M495.635,43.125c0,-0 55.167,-19.625 67.75,-43.125c0,-0 5.875,38.042 -12.75,49.625" style="fill-opacity:0.2;fill-rule:nonzero;"/><path d="M660.385,215.708c0,0 -28.833,-5.708 -37.125,-19.625c-2.661,-4.696 -2.11,-10.587 1.375,-14.708c17.084,-21.337 30.683,-45.244 40.292,-70.833c1.264,-3.167 4.598,-5.035 7.958,-4.459c11.959,2.167 38.5,9.5 47.084,32.917c-23.738,22.307 -43.842,48.19 -59.584,76.708Z" style="fill:#0998b7;fill-rule:nonzero;"/><path d="M660.385,215.708c0,0 -28.833,-5.708 -37.125,-19.625c-2.661,-4.696 -2.11,-10.587 1.375,-14.708c17.084,-21.337 30.683,-45.244 40.292,-70.833c1.264,-3.167 4.598,-5.035 7.958,-4.459c11.959,2.167 38.5,9.5 47.084,32.917c-23.738,22.307 -43.842,48.19 -59.584,76.708Z" style="fill-opacity:0.2;fill-rule:nonzero;"/><path d="M664.927,110.375c-5.093,-12.705 -11.429,-24.875 -18.917,-36.333c-7.43,-11.131 -19.754,-18.06 -33.125,-18.625c-23.541,-1.042 -63.083,-2.084 -87.166,1.041c-0,0 -9.417,12.5 21.958,12.5c-0,0 40.792,11 40.792,39.25c-0,0 12.5,60.542 39.916,67.917c15.604,-19.831 27.94,-42.028 36.542,-65.75Z" style="fill:#f7a48b;fill-rule:nonzero;"/><path d="M560.219,34.5c-0,-0 -0,-29.792 17.25,-21.958l35.208,25l-35.208,14.25l-17.25,-17.292Z" style="fill:#f7a48b;fill-rule:nonzero;"/><path d="M290.052,122.917l27,-50.75c-0,-0 75.292,-20.417 95.833,-6.292c0,-0 6.25,4.708 -17.25,7.833c0,0 -22,1.584 -31.375,43.959c0,-0 -13.166,56.208 -43.958,62.75l-30.25,-57.5Z" style="fill:#f7a48b;fill-rule:nonzero;"/><path d="M291.927,119.083c-0,0 32.958,50 51.792,14.125c-0,0 17.25,-51.75 34.5,-59.625c7.907,-2.794 16.449,-3.285 24.625,-1.416c8.176,1.868 36.583,1.416 5.208,-18.959c-0,0 48.625,20.375 54.917,4.709c-0,-0 36.625,-13.75 -43.709,-20.125c-2.107,-0.173 -4.189,-0.578 -6.208,-1.209c-13.625,-4.166 -72.875,-18.875 -99.125,32.292l-22,50.208Z" style="fill:#f9b499;fill-rule:nonzero;"/><path d="M423.719,45.5l39.25,12.542" style="fill:none;fill-rule:nonzero;stroke:#f7a48b;stroke-width:4.17px;"/><path d="M627.885,1095.88c-16.52,-10.264 -31.443,-22.899 -44.291,-37.5c-12.849,-14.601 -47.834,-39.25 -107.75,-46.167l-0,-0.375c-0,0 123.833,-46.916 152.041,84.042Z" style="fill-opacity:0.2;fill-rule:nonzero;"/><path d="M704.469,1080.58c-14.483,-15.656 -22.331,-36.343 -21.875,-57.666c-0,-26.667 11.166,-50 27.875,-62.959c-0.43,24.561 -2.967,49.04 -7.584,73.167c-4.617,24.127 -8.083,19.875 1.584,47.458Z" style="fill-opacity:0.2;fill-rule:nonzero;"/><path d="M687.219,1187.88l-0.709,0c-55.708,9.792 -140.416,-50.542 -140.416,-50.542c-83.334,-65.916 -273.542,-89.083 -273.542,-89.083l-1.458,-3.458c0.708,-35.084 1.25,-55.625 1.25,-55.625l-0.25,-1.459c8.123,1.367 16.457,0.752 24.291,-1.791c30.084,19.666 100.25,24 135.042,25c12.5,0.333 20.292,0.25 20.292,0.25c70.583,-3.167 131.791,47.041 131.791,47.041c25.829,29.357 59.61,50.619 97.25,61.209l4.75,-0l1.709,68.458Z" style="fill-opacity:0.2;fill-rule:nonzero;"/><path d="M240.594,153.417c-1.396,-0.926 -2.237,-2.493 -2.237,-4.167c0,-1.674 0.841,-3.241 2.237,-4.167l41.458,-24.375c0.884,-0.527 1.895,-0.806 2.925,-0.806c2.103,-0 4.041,1.161 5.033,3.015l42.042,78.333c2.273,4.266 1.08,9.606 -2.792,12.5l-18.75,14.042c-0.933,0.72 -2.079,1.111 -3.258,1.111c-2.308,-0 -4.366,-1.498 -5.075,-3.695l-1.042,-3.166c0,-0 -33.416,-56.375 -60.541,-68.625Z" style="fill:#0998b7;fill-rule:nonzero;"/><path d="M240.594,153.417c-1.396,-0.926 -2.237,-2.493 -2.237,-4.167c0,-1.674 0.841,-3.241 2.237,-4.167l41.458,-24.375c0.884,-0.527 1.895,-0.806 2.925,-0.806c2.103,-0 4.041,1.161 5.033,3.015l42.042,78.333c2.273,4.266 1.08,9.606 -2.792,12.5l-18.75,14.042c-0.933,0.72 -2.079,1.111 -3.258,1.111c-2.308,-0 -4.366,-1.498 -5.075,-3.695l-1.042,-3.166c0,-0 -33.416,-56.375 -60.541,-68.625Z" style="fill:#fff;fill-opacity:0.4;fill-rule:nonzero;"/><path d="M656.427,100.417c-5.708,14.083 -22.833,50 -42.208,33.333c-4.103,-3.669 -7.008,-8.491 -8.334,-13.833c-1.958,-7.417 -5.708,-21.5 -10.208,-38.584c-2.362,-9.324 -7.812,-17.58 -15.458,-23.416c-9.81,-8.077 -23.599,-9.431 -34.792,-3.417c-11.193,6.014 -49.125,26.542 -48.583,-12.5c-0.002,-2.041 1.627,-3.745 3.666,-3.833l88.084,-4.459c17.949,-1.012 35.406,6.257 47.333,19.709c9.068,10.84 16.124,23.216 20.833,36.541c1.182,3.407 1.064,7.134 -0.333,10.459Z" style="fill:#f9b499;fill-rule:nonzero;"/></svg>