<?xml version="1.0" encoding="UTF-8" standalone="no"?><!DOCTYPE svg PUBLIC "-//W3C//DTD SVG 1.1//EN" "http://www.w3.org/Graphics/SVG/1.1/DTD/svg11.dtd"><svg width="100%" height="100%" viewBox="0 0 3700 2016" version="1.1" xmlns="http://www.w3.org/2000/svg" xmlns:xlink="http://www.w3.org/1999/xlink" xml:space="preserve" xmlns:serif="http://www.serif.com/" style="fill-rule:evenodd;clip-rule:evenodd;stroke-linejoin:round;stroke-miterlimit:2;"><path d="M4.167,1756.39l3695.83,0l0,-8.333l-3695.83,-0c-2.301,-0 -4.167,1.865 -4.167,4.166c0,2.302 1.865,4.167 4.167,4.167Z" style="fill:#3f3d56;fill-rule:nonzero;"/><path d="M1691.67,1827.23c20.833,100 139.583,-22.916 139.583,-22.916l141.667,-16.667c-0,0 89.583,2.083 147.916,47.917c58.334,45.833 97.917,-14.584 97.917,-14.584c65.72,21.907 146.237,21.818 215.969,14.803c100.484,-10.11 181.026,-87.669 194.836,-187.71c77.903,-564.34 -350.389,-841.676 -350.389,-841.676l-125,-337.5c0,0 39.584,-97.917 52.084,-185.417c12.5,-87.5 -79.167,-170.833 -191.667,-254.166c-49.219,-36.459 -105.615,-33.838 -153.488,-19.354c-53.704,16.247 -100.551,49.659 -135.166,93.817c-28.677,36.583 -77.863,88.394 -131.929,97.37c-18.709,3.083 -37.167,10.5 -54.417,24c-17.833,13.958 -25.708,37.25 -25.958,66.209c-1.334,126.499 103.125,278.791 194.708,302.541c112.5,29.167 52.083,306.25 52.083,306.25c-183.333,258.334 -54.166,545.834 -54.166,545.834l-33.334,233.333c0,-0 -2.083,47.916 18.75,147.916l0.001,0l-0,0Z" style="fill:#3f3d56;fill-rule:nonzero;"/><path d="M2304.17,1289.73l-45.834,570.834c0,-0 62.5,158.333 -150,150c-212.5,-8.334 -87.5,-333.334 -87.5,-333.334l66.667,-425" style="fill:#3f3d56;fill-rule:nonzero;"/><path d="M2124.15,2015.05c-5.197,-0 -10.515,-0.106 -15.975,-0.322c-47.042,-1.843 -81.682,-19.169 -102.963,-51.493c-60.844,-92.424 6.828,-274.609 11.577,-287.081l66.597,-424.569c0.358,-2.274 2.474,-3.804 4.765,-3.47c2.27,0.358 3.825,2.49 3.471,4.764l-66.667,425c-0.049,0.289 -0.122,0.574 -0.228,0.851c-0.728,1.884 -71.883,189.815 -12.549,279.931c19.719,29.944 52.124,46.009 96.322,47.742c69.385,2.706 116.052,-12.097 138.741,-44.035c29.684,-41.784 7.446,-99.695 7.219,-100.276c-0.232,-0.59 -0.326,-1.229 -0.277,-1.86l45.833,-570.833c0.183,-2.291 2.153,-3.963 4.488,-3.821c2.295,0.187 4.004,2.193 3.821,4.488l-45.76,569.897c3.027,8.171 22.009,64.185 -8.496,107.182c-22.571,31.816 -66.244,47.905 -129.919,47.905l-0.001,-0Z" style="fill:#2f2e41;fill-rule:nonzero;"/><path d="M1925,1406.39c0,0 12.5,529.167 -250,516.667c-262.5,-12.5 -25,-179.167 -25,-179.167l22.917,-64.583" style="fill:#3f3d56;fill-rule:nonzero;"/><path d="M1684.01,1927.44c-3.048,0 -6.112,-0.073 -9.208,-0.22c-74.952,-3.568 -117.3,-20.361 -125.867,-49.91c-15.434,-53.247 85.164,-127.173 97.579,-136.056l22.477,-63.338c0.769,-2.173 3.149,-3.304 5.318,-2.535c2.169,0.769 3.304,3.15 2.535,5.318l-22.916,64.584c-0.289,0.818 -0.826,1.521 -1.534,2.018c-1.099,0.773 -109.906,77.852 -95.453,127.69c7.468,25.752 47.255,40.523 118.259,43.904c47.286,2.275 88.737,-13.627 123.129,-47.204c128.967,-125.9 122.587,-461.825 122.505,-465.202c-0.053,-2.299 1.766,-4.208 4.069,-4.265c2.177,0.005 4.208,1.77 4.265,4.069c0.329,13.941 6.551,342.908 -125.013,471.355c-33.866,33.064 -74.251,49.792 -120.145,49.792l-0,0Z" style="fill:#2f2e41;fill-rule:nonzero;"/><path d="M1513.62,291.354c29.917,3.583 76.75,3.416 115.542,-22.459c41.541,-27.708 -1.584,-53.542 -35.167,-67.75c-18.708,3.083 -37.167,10.5 -54.417,24c-17.833,13.958 -25.708,37.25 -25.958,66.209Z" style="fill:#2f2e41;fill-rule:nonzero;"/><path d="M1997.08,216.433c-0,-0 -72.707,-186.735 31.427,-189.348c104.133,-2.613 186.385,159.208 186.385,159.208c0,0 261.367,476.427 -96.724,450.735c-358.09,-25.692 -186.974,-215.878 -186.974,-215.878c0,0 81.674,-100.414 65.886,-204.717l-0,-0l-0,-0l-0,-0Z" style="fill:#2f2e41;fill-rule:nonzero;"/><path d="M2395.99,1611.88c46.116,20.515 94.299,41.45 144.732,39.447c50.434,-2.002 103.507,-34.481 111.366,-84.339c4.057,-25.738 -3.989,-53.35 5.865,-77.47c13.259,-32.453 56.028,-44.968 89.274,-33.847c33.246,11.122 57.67,39.8 75.182,70.169c32.763,56.82 45.892,131.395 10.762,186.783c-30.453,48.015 -88.211,69.713 -141.938,88.323c-71.564,24.788 -151.463,49.391 -220.808,18.942c-69.742,-30.623 -107.732,-119.101 -81.906,-190.759" style="fill:#3f3d56;fill-rule:nonzero;"/><path d="M2242.14,712.173c-0.001,-0 91.666,45.833 45.833,95.833c-45.834,50 -329.167,191.667 -433.333,170.833c-104.167,-20.833 -129.167,-83.333 -129.167,-100c-0,-16.666 7.857,-218.277 41.191,-209.944c33.333,8.333 242.142,197.444 475.475,43.278Z" style="fill:#cc584b;fill-rule:nonzero;"/></svg>