<?xml version="1.0" encoding="UTF-8" standalone="no"?>
<!DOCTYPE svg PUBLIC "-//W3C//DTD SVG 1.1//EN" "http://www.w3.org/Graphics/SVG/1.1/DTD/svg11.dtd">
<svg width="100%" height="100%" viewBox="0 0 1024 1024" version="1.1" xmlns="http://www.w3.org/2000/svg" xmlns:xlink="http://www.w3.org/1999/xlink" xml:space="preserve" xmlns:serif="http://www.serif.com/" style="fill-rule:evenodd;clip-rule:evenodd;stroke-linejoin:round;stroke-miterlimit:2;">
    <g transform="matrix(1,0,0,1,186,384)">
        <g transform="matrix(1.53687,0,0,1.53687,-88.6725,-120.277)">
            <path d="M330.747,158.557C331.365,202.305 325.516,241.448 313.202,275.987C300.888,310.527 277.107,327.192 241.857,325.983C206.608,324.774 174.766,319.457 146.331,310.032C117.896,300.607 84.659,280.215 46.62,248.856C8.581,217.497 8.482,187.224 46.322,158.037C84.162,128.85 119.392,102.578 152.011,79.223C184.631,55.867 222.42,52.314 265.38,68.562C308.34,84.811 330.129,114.809 330.747,158.557Z" style="fill:rgb(50,196,135);fill-rule:nonzero;stroke:white;stroke-width:6.51px;"/>
        </g>
        <g transform="matrix(1.53687,0,0,1.53687,160.301,-300.092)">
            <path d="M330.747,158.557C331.365,202.305 325.516,241.448 313.202,275.987C300.888,310.527 277.107,327.192 241.857,325.983C206.608,324.774 174.766,319.457 146.331,310.032C117.896,300.607 84.659,280.215 46.62,248.856C8.581,217.497 8.482,187.224 46.322,158.037C84.162,128.85 119.392,102.578 152.011,79.223C184.631,55.867 222.42,52.314 265.38,68.562C308.34,84.811 330.129,114.809 330.747,158.557Z" style="fill:rgb(132,94,194);fill-rule:nonzero;stroke:white;stroke-width:6.51px;"/>
        </g>
        <g transform="matrix(1.53687,0,0,1.53687,206.407,-48.0444)">
            <path d="M330.747,158.557C331.365,202.305 325.516,241.448 313.202,275.987C300.888,310.527 277.107,327.192 241.857,325.983C206.608,324.774 174.766,319.457 146.331,310.032C117.896,300.607 84.659,280.215 46.62,248.856C8.581,217.497 8.482,187.224 46.322,158.037C84.162,128.85 119.392,102.578 152.011,79.223C184.631,55.867 222.42,52.314 265.38,68.562C308.34,84.811 330.129,114.809 330.747,158.557Z" style="fill:rgb(9,152,183);fill-rule:nonzero;stroke:white;stroke-width:6.51px;"/>
        </g>
    </g>
</svg>
