<?xml version="1.0" encoding="iso-8859-1"?>
<!-- Uploaded to: SVG Repo, www.svgrepo.com, Generator: SVG Repo Mixer Tools -->
<svg height="800px" width="800px" version="1.1" id="Layer_1" xmlns="http://www.w3.org/2000/svg" xmlns:xlink="http://www.w3.org/1999/xlink" 
	 viewBox="0 0 512 512" xml:space="preserve">
<circle style="fill:#263740;" cx="256" cy="256" r="256"/>
<path style="fill:#E6E6E6;" d="M15.608,344.208C51.556,442.132,145.616,512,256,512c2.752,0,5.472-0.12,8.204-0.208
	C228.256,413.868,134.196,344,23.812,344C21.064,344,18.34,344.12,15.608,344.208z"/>
<g>
	<path style="fill:#CC584C;" d="M264.916,161.58c-7.884-9.888-30.012-5.18-55.332,11.76c-17.596,12.416-46.92,64.916-50.1,77.16
		c-3.18,12.244,19.608,9.228,24.484,6.36c7.716-4.532,29.5-38.08,31.676-41.428c2.18-3.352,16.596-3.532,27.668-5.884
		C246.484,197.304,260.564,168.288,264.916,161.58z"/>
	<path style="fill:#CC584C;" d="M352.136,218.228c12.248,3.176,16.948,25.308,11.76,55.328
		c-4.192,21.128-40.224,69.272-50.104,77.156c-9.896,7.896-16.404-14.156-15.772-19.768c1.004-8.9,22.788-42.436,24.968-45.792
		c2.18-3.352-3.528-16.596-5.888-27.664C326.996,249.588,347.78,224.932,352.136,218.228z"/>
</g>
<path style="fill:#E6E6E6;" d="M430.532,2.04c-10.072-6.536-75.46-1.304-125.58,75.852c-41.392,63.744-65.004,129.48-66.008,138.368
	c10.068,6.544,36.904,23.964,36.904,23.964s26.84,17.424,36.904,23.96c7.72-4.528,60.344-56.2,99.568-116.584
	C462.416,70.436,440.584,8.58,430.532,2.04z"/>
<circle style="fill:#263740;" cx="365.16" cy="102.68" r="40"/>
<path style="fill:#C2E2F2;" d="M352.092,122.808c-11.092-7.216-14.26-22.1-7.06-33.2c7.216-11.1,22.096-14.264,33.208-7.064
	c11.088,7.212,14.252,22.096,7.056,33.204C378.084,126.852,363.204,130.016,352.092,122.808z"/>
<g>
	<path style="fill:#CC584C;" d="M404.384,42.296c12.32,8,25.796,12.796,39.452,14.632c1.408-30.712-7.744-51.272-13.304-54.9
		c-5.58-3.608-28.084-3.6-55.568,10.168C382.196,23.928,392.064,34.292,404.384,42.296z"/>
	<path style="fill:#CC584C;" d="M306.392,288.668c-2.4,3.692-7.38,4.752-11.072,2.356l-73.8-47.92
		c-3.692-2.404-4.752-7.384-2.356-11.076l8.72-13.416c2.4-3.688,7.376-4.752,11.072-2.352l73.796,47.928
		c3.696,2.4,4.752,7.376,2.36,11.076L306.392,288.668z"/>
</g>
<path style="fill:#BF5347;" d="M250.36,242.752c-2.4,3.7-5.344,8.388-8.416,13.608l36.316,23.584
	c3.524-4.932,6.604-9.54,9.008-13.236s5.344-8.384,8.416-13.6l-36.308-23.584C255.844,234.452,252.756,239.052,250.36,242.752z"/>
<path style="fill:#FFD464;" d="M228.228,247.452c-26.468,40.752-59.796,123.324-42.196,134.752
	c17.592,11.428,79.464-52.592,105.936-93.364L228.228,247.452z"/>
<path style="fill:#F2B255;" d="M234.936,251.808c-26.468,40.752-36.66,81.12-22.768,90.14c13.896,9.024,46.62-16.712,73.088-57.46
	L234.936,251.808z"/>
<ellipse transform="matrix(-0.5446 0.8387 -0.8387 -0.5446 628.9253 167.9466)" style="fill:#CC584C;" cx="268.866" cy="254.723" rx="67.996" ry="14"/>
<ellipse transform="matrix(-0.3765 0.9264 -0.9264 -0.3765 483.8303 446.2663)" style="fill:#CCCCCC;" cx="91.742" cy="385.947" rx="18" ry="24"/>
<path style="fill:#B3B3B3;" d="M93.04,402.676c-12.28-4.988-19.204-16.5-15.46-25.712c2.14-5.272,7.36-8.576,13.696-9.56
	c-9.752-1.4-18.696,2.18-21.696,9.56c-3.744,9.212,3.18,20.724,15.46,25.712c5.252,2.132,10.584,2.644,15.316,1.916
	C97.928,404.24,95.476,403.668,93.04,402.676z"/>
<ellipse transform="matrix(-0.7133 0.7008 -0.7008 -0.7133 549.9464 582.2459)" style="fill:#CCCCCC;" cx="155.891" cy="403.599" rx="11.803" ry="15.743"/>
<path style="fill:#B3B3B3;" d="M152.204,413.828c-6.084-6.196-7.252-14.928-2.6-19.5c2.656-2.62,6.656-3.244,10.732-2.188
	c-5.504-3.38-11.82-3.568-15.548,0.092c-4.652,4.58-3.484,13.304,2.604,19.504c2.604,2.652,5.688,4.356,8.728,5.14
	C154.744,416.048,153.416,415.064,152.204,413.828z"/>
<ellipse transform="matrix(-0.2718 0.9624 -0.9624 -0.2718 618.3947 426.9582)" style="fill:#CCCCCC;" cx="147.659" cy="447.448" rx="17.905" ry="23.873"/>
<path style="fill:#B3B3B3;" d="M150.844,463.824c-12.676-3.584-20.78-14.208-18.084-23.724c1.528-5.448,6.328-9.272,12.484-10.944
	c-9.788-0.312-18.248,4.2-20.404,11.824c-2.692,9.512,5.416,20.14,18.1,23.72c5.424,1.536,10.752,1.452,15.356,0.216
	C155.868,464.836,153.368,464.54,150.844,463.824z"/>
<g>
	<path style="fill:#FFD464;" d="M111.812,84c0,16-4,20-20,20c16,0,20,4,20,20c0-16,4-20,20-20C115.812,104,111.812,100,111.812,84z"
		/>
	<path style="fill:#FFD464;" d="M59.812,200c0,16-4,20-20,20c16,0,20,4,20,20c0-16,4-20,20-20C63.812,220,59.812,216,59.812,200z"/>
	<path style="fill:#FFD464;" d="M115.812,272c0,16-4,20-20,20c16,0,20,4,20,20c0-16,4-20,20-20C119.812,292,115.812,288,115.812,272
		z"/>
	<path style="fill:#FFD464;" d="M327.812,404c0,16-4,20-20,20c16,0,20,4,20,20c0-16,4-20,20-20C331.812,424,327.812,420,327.812,404
		z"/>
	<path style="fill:#FFD464;" d="M471.812,312c0,16-4,20-20,20c16,0,20,4,20,20c0-16,4-20,20-20C475.812,332,471.812,328,471.812,312
		z"/>
	<path style="fill:#FFD464;" d="M459.812,172c0,16-4,20-20,20c16,0,20,4,20,20c0-16,4-20,20-20C463.812,192,459.812,188,459.812,172
		z"/>
	<path style="fill:#FFD464;" d="M259.812,28c0,16-4,20-20,20c16,0,20,4,20,20c0-16,4-20,20-20C263.812,48,259.812,44,259.812,28z"/>
	<path style="fill:#FFD464;" d="M191.812,112c0,16-4,20-20,20c16,0,20,4,20,20c0-16,4-20,20-20C195.812,132,191.812,128,191.812,112
		z"/>
</g>
</svg>