<?xml version="1.0" encoding="UTF-8" standalone="no"?><!DOCTYPE svg PUBLIC "-//W3C//DTD SVG 1.1//EN" "http://www.w3.org/Graphics/SVG/1.1/DTD/svg11.dtd"><svg width="100%" height="100%" viewBox="0 0 3608 2846" version="1.1" xmlns="http://www.w3.org/2000/svg" xmlns:xlink="http://www.w3.org/1999/xlink" xml:space="preserve" xmlns:serif="http://www.serif.com/" style="fill-rule:evenodd;clip-rule:evenodd;stroke-miterlimit:10;"><path d="M324.333,2398.29c-27.697,-5.465 -54.441,-14.969 -79.375,-28.209c-81.666,-43.833 -177.625,-149.708 244.5,-329.583c0,0 262.125,-101.708 623.209,-157.375c-0,0 256.791,-36.833 431.833,-33.875l710.708,18.375c0,0 995.459,133.875 1074.17,383.125c0,0 97.083,202 -705.708,301.708c-0,0 -419.75,26.209 -343.667,-141.666c0,-0.042 -1014.92,178.541 -1955.67,-12.5Z" style="fill:#0998b7;fill-rule:nonzero;"/><path d="M324.333,2398.29c-27.697,-5.465 -54.441,-14.969 -79.375,-28.209c-81.666,-43.833 -177.625,-149.708 244.5,-329.583c0,0 262.125,-101.708 623.209,-157.375c-0,0 256.791,-36.833 431.833,-33.875l710.708,18.375c0,0 995.459,133.875 1074.17,383.125c0,0 97.083,202 -705.708,301.708c-0,0 -419.75,26.209 -343.667,-141.666c0,-0.042 -1014.92,178.541 -1955.67,-12.5Z" style="fill:#fff;fill-opacity:0.8;fill-rule:nonzero;"/><path d="M2849.29,1740.54c199.625,-99.709 226.5,-496.709 228.833,-663.209c1.552,-82.543 -19.827,-163.92 -61.75,-235.041c-172.333,-288.125 -573.875,-219.375 -573.875,-219.375c-328.042,60.416 -562.708,-109.209 -562.708,-109.209c-289.959,-144.625 -453.292,-185.25 -453.292,-185.25c-636.583,-100.791 -980.25,341.667 -980.25,341.667c-473.208,661.583 86.333,1356 86.333,1356c0,0 492.917,-196.375 1134.58,-175.417l884.333,20.125l297.792,-130.291Z" style="fill:#0998b7;fill-rule:nonzero;"/><path d="M2849.29,1740.54c199.625,-99.709 226.5,-496.709 228.833,-663.209c1.552,-82.543 -19.827,-163.92 -61.75,-235.041c-172.333,-288.125 -573.875,-219.375 -573.875,-219.375c-328.042,60.416 -562.708,-109.209 -562.708,-109.209c-289.959,-144.625 -453.292,-185.25 -453.292,-185.25c-636.583,-100.791 -980.25,341.667 -980.25,341.667c-473.208,661.583 86.333,1356 86.333,1356c0,0 492.917,-196.375 1134.58,-175.417l884.333,20.125l297.792,-130.291Z" style="fill:#fff;fill-opacity:0.7;fill-rule:nonzero;"/><g><clipPath id="_clip1"><path d="M2849.29,1740.54c199.625,-99.709 226.5,-496.709 228.833,-663.209c1.552,-82.543 -19.827,-163.92 -61.75,-235.041c-172.333,-288.125 -573.875,-219.375 -573.875,-219.375c-328.042,60.416 -562.708,-109.209 -562.708,-109.209c-289.959,-144.625 -453.292,-185.25 -453.292,-185.25c-636.583,-100.791 -980.25,341.667 -980.25,341.667c-473.208,661.583 86.333,1356 86.333,1356c0,0 492.917,-196.375 1134.58,-175.417l884.333,20.125l297.792,-130.291Z"/></clipPath><g clip-path="url(#_clip1)"><path d="M1576.71,537.5l598,0l0,1195.42c0,12.594 -10.363,22.958 -22.958,22.958l-575,0c-11.04,0 -20.125,-9.085 -20.125,-20.125l0,-1178.29c0.091,-10.961 9.122,-19.936 20.083,-19.958Z" style="fill:#0998b7;fill-rule:nonzero;"/><path d="M1576.71,537.5l598,0l0,1195.42c0,12.594 -10.363,22.958 -22.958,22.958l-575,0c-11.04,0 -20.125,-9.085 -20.125,-20.125l0,-1178.29c0.091,-10.961 9.122,-19.936 20.083,-19.958Z" style="fill:#fff;fill-opacity:0.3;fill-rule:nonzero;"/><path d="M1641.08,537.5l662.5,0l0,1195.42c0,12.594 -10.363,22.958 -22.958,22.958l-639.542,0c-11.04,0 -20.125,-9.085 -20.125,-20.125l0,-1178.29c0.091,-10.977 9.148,-19.958 20.125,-19.958Z" style="fill:#0998b7;fill-rule:nonzero;"/><path d="M1641.08,537.5l662.5,0l0,1195.42c0,12.594 -10.363,22.958 -22.958,22.958l-639.542,0c-11.04,0 -20.125,-9.085 -20.125,-20.125l0,-1178.29c0.091,-10.977 9.148,-19.958 20.125,-19.958Z" style="fill:#fff;fill-opacity:0.2;fill-rule:nonzero;"/><path d="M2128.12,1330.25c0,-12.142 -9.858,-22 -22,-22l-426.25,0c-12.142,0 -22,9.858 -22,22l0,327.25c0,12.142 9.858,22 22,22l426.25,0c12.142,0 22,-9.858 22,-22l0,-327.25Z" style="fill:#fff;fill-opacity:0.2;"/><path d="M1556.54,1033.75l-0,357.083l501.333,-853.5l-203,0l-298.333,496.417Z" style="fill:#fff;fill-opacity:0.2;fill-rule:nonzero;"/><path d="M2128.12,873.208c0,-12.142 -9.858,-22 -22,-22l-426.25,0c-12.142,0 -22,9.858 -22,22l0,133.084c0,12.142 9.858,22 22,22l426.25,-0c12.142,-0 22,-9.858 22,-22l0,-133.084Z" style="fill:#fff;fill-opacity:0.2;"/><path d="M1558.58,1742.17l616.417,-1033.42l0,442.833l-367.5,603.709l-228.667,-0c0,-0 -7.541,3.5 -20.25,-13.125Z" style="fill:#fff;fill-opacity:0.2;fill-rule:nonzero;"/><path d="M2074.33,633.125c0,-12.142 -9.858,-22 -22,-22l-372.458,0c-12.142,0 -22,9.858 -22,22l0,133.083c0,12.142 9.858,22 22,22l372.458,0c12.142,0 22,-9.858 22,-22l0,-133.083Z" style="fill:#fff;fill-opacity:0.2;"/><path d="M2128.12,1111.46c0,-12.142 -9.858,-22 -22,-22l-426.25,0c-12.142,0 -22,9.858 -22,22l0,133.084c0,12.142 9.858,22 22,22l426.25,-0c12.142,-0 22,-9.858 22,-22l0,-133.084Z" style="fill:#fff;fill-opacity:0.2;"/><path d="M649.208,968.333c0,-18.052 -14.656,-32.708 -32.708,-32.708l-513.708,0c-18.053,0 -32.709,14.656 -32.709,32.708l0,1190.5c0,18.053 14.656,32.709 32.709,32.709l513.708,-0c18.052,-0 32.708,-14.656 32.708,-32.709l0,-1190.5Z" style="fill:#0998b7;"/><path d="M649.208,968.333c0,-18.052 -14.656,-32.708 -32.708,-32.708l-513.708,0c-18.053,0 -32.709,14.656 -32.709,32.708l0,1190.5c0,18.053 14.656,32.709 32.709,32.709l513.708,-0c18.052,-0 32.708,-14.656 32.708,-32.709l0,-1190.5Z" style="fill-opacity:0.2;"/><path d="M597,968.333c0,-18.052 -14.656,-32.708 -32.708,-32.708l-461.5,0c-18.053,0 -32.709,14.656 -32.709,32.708l0,1158.54c0,18.052 14.656,32.708 32.709,32.708l461.5,0c18.052,0 32.708,-14.656 32.708,-32.708l0,-1158.54Z" style="fill:#0998b7;"/><path d="M649.208,1095.58l-579.166,948.417l-0,111.542c-0,-0 -1.334,36.125 36.041,36.125l129.917,-0l413.208,-678.834l0,-417.25Z" style="fill:#fff;fill-opacity:0.2;fill-rule:nonzero;"/><path d="M472.125,935.625l-402.042,685.333l0,-440.75l148.209,-244.583l253.833,0Z" style="fill:#fff;fill-opacity:0.2;fill-rule:nonzero;"/><path d="M525.917,1018.12c-0,-8.003 -6.498,-14.5 -14.5,-14.5l-356.167,0c-8.003,0 -14.5,6.497 -14.5,14.5l0,82.875c0,8.003 6.497,14.5 14.5,14.5l356.167,0c8.002,0 14.5,-6.497 14.5,-14.5l-0,-82.875Z" style="fill:#fff;fill-opacity:0.2;"/><path d="M526.125,1195.5c0,-8.003 -6.497,-14.5 -14.5,-14.5l-356.167,0c-8.002,0 -14.5,6.497 -14.5,14.5l0,82.875c0,8.003 6.498,14.5 14.5,14.5l356.167,0c8.003,0 14.5,-6.497 14.5,-14.5l0,-82.875Z" style="fill:#fff;fill-opacity:0.2;"/><path d="M526.042,1372.92c-0,-8.003 -6.498,-14.5 -14.5,-14.5l-356.167,-0c-8.003,-0 -14.5,6.497 -14.5,14.5l0,82.875c0,8.002 6.497,14.5 14.5,14.5l356.167,-0c8.002,-0 14.5,-6.498 14.5,-14.5l-0,-82.875Z" style="fill:#fff;fill-opacity:0.2;"/><path d="M526.208,1550.33c0,-8.002 -6.497,-14.5 -14.5,-14.5l-356.166,0c-8.003,0 -14.5,6.498 -14.5,14.5l-0,82.875c-0,8.003 6.497,14.5 14.5,14.5l356.166,0c8.003,0 14.5,-6.497 14.5,-14.5l0,-82.875Z" style="fill:#fff;fill-opacity:0.2;"/><path d="M532.417,1727.71c-0,-8.002 -6.498,-14.5 -14.5,-14.5l-356.167,0c-8.003,0 -14.5,6.498 -14.5,14.5l0,82.875c0,8.003 6.497,14.5 14.5,14.5l356.167,0c8.002,0 14.5,-6.497 14.5,-14.5l-0,-82.875Z" style="fill:#fff;fill-opacity:0.2;"/><path d="M532.583,1905.12c0,-8.003 -6.497,-14.5 -14.5,-14.5l-356.166,0c-8.003,0 -14.5,6.497 -14.5,14.5l-0,82.875c-0,8.003 6.497,14.5 14.5,14.5l356.166,0c8.003,0 14.5,-6.497 14.5,-14.5l0,-82.875Z" style="fill:#fff;fill-opacity:0.2;"/></g></g><path d="M532.583,2026.12c-10.666,-7.958 -20.833,-16.667 -30.583,-25.667c-9.75,-9 -19.375,-18.25 -28.667,-27.791c-18.541,-19.084 -36.125,-39.125 -52.875,-59.875c-16.75,-20.75 -32.583,-41.959 -47.5,-64.209c-7.625,-10.916 -14.625,-22.25 -21.875,-33.333c-7.25,-11.083 -14.083,-22.667 -20.541,-34.333c-52.907,-92.753 -93.699,-191.91 -121.375,-295.042c-14.05,-51.441 -25.179,-103.635 -33.334,-156.333c-9.24,-52.636 -13.509,-106.024 -12.75,-159.459c1.375,-106.666 18.917,-213.708 56.75,-313.833c18.876,-50.085 42.791,-98.123 71.375,-143.375l11,-16.667c3.75,-5.541 7.084,-11.375 11.292,-16.666l24.125,-32.084c8.333,-10.416 17.375,-20.333 26.042,-30.5c8.666,-10.166 18.166,-19.625 27.541,-29.166c18.25,-19.625 39.042,-36.542 58.959,-54.417l31.833,-24.417c5.375,-3.958 10.458,-8.333 16.042,-12l16.666,-11.083l16.667,-11.125l8.333,-5.542c2.75,-1.875 5.584,-3.666 8.542,-5.291l34.792,-19.875c5.875,-3.25 11.541,-6.834 17.541,-9.75l18,-8.792l36.042,-17.583c12.292,-5.25 24.667,-10.209 37.042,-15.334l18.5,-7.625l9.291,-3.791l9.459,-3.25l37.75,-13.042c12.5,-4.167 25.25,-8.792 38.125,-12.5c51.246,-15.018 103.267,-27.258 155.833,-36.667c52.54,-9.578 105.542,-16.421 158.792,-20.5c13.333,-0.791 26.625,-2.041 40,-2.458l40.166,-1.083l50.084,-0l10.041,0.458l20,1c107.232,5.45 212.386,31.717 309.584,77.333c24.333,11.167 48.041,23.625 71.208,36.959c23.167,13.333 45.833,26.708 69.75,38.375c47.426,23.766 96.546,43.988 146.958,60.5c25,8.333 50.709,15.583 76.417,22.166l38.708,9.084l39.084,7.416c52.351,8.856 105.258,14.035 158.333,15.5l39.792,0c6.625,0 13.25,0 19.875,-0.333l19.833,-1.208l19.875,-1.167c6.625,-0.375 13.25,-0.708 19.792,-1.458c13.125,-1.334 26.25,-3.209 39.333,-5.292c52.756,-8.7 106.158,-12.882 159.625,-12.5c53.535,0.097 106.912,5.823 159.25,17.083c52.501,11.138 102.887,30.592 149.25,57.625c23.021,13.739 44.578,29.795 64.333,47.917c19.611,18.113 37.391,38.112 53.084,59.708c31.635,43.366 56.827,91.084 74.791,141.667c9.018,25.148 16.34,50.873 21.917,77c5.43,26.132 9.271,52.57 11.5,79.167c2.09,26.598 2.66,53.294 1.708,79.958c-0.791,13.333 -1.208,26.667 -2.708,39.917c-1.5,13.25 -2.333,26.541 -4.167,39.75c-8.07,52.682 -19.637,104.77 -34.625,155.916c-14.666,51.209 -31.833,101.667 -51.125,151.292c18.945,-49.75 35.611,-100.278 50,-151.583c14.569,-51.187 25.705,-103.289 33.334,-155.959c1.875,-13.125 2.833,-26.375 4.166,-39.625c1.334,-13.25 1.709,-26.541 2.417,-39.791c0.737,-26.564 -0.028,-53.148 -2.292,-79.625c-2.401,-26.439 -6.394,-52.709 -11.958,-78.667c-5.733,-25.896 -13.18,-51.383 -22.292,-76.292c-18.082,-49.92 -43.242,-96.985 -74.708,-139.75c-15.592,-21.36 -33.231,-41.149 -52.667,-59.083c-19.57,-17.838 -40.933,-33.603 -63.75,-47.042c-45.895,-26.546 -95.751,-45.566 -147.666,-56.333c-51.889,-10.983 -104.795,-16.444 -157.834,-16.292c-53.056,-0.137 -106.028,4.268 -158.333,13.167c-13.167,2.208 -26.458,4.167 -39.792,5.458c-6.666,0.792 -13.333,1.084 -20,1.5l-40,2.417c-6.666,0.542 -13.375,0.25 -20.041,0.417l-40.084,0.25c-53.433,-1.423 -106.701,-6.574 -159.416,-15.417l-39.542,-7.417l-39.042,-9.083c-25.875,-6.667 -51.583,-13.875 -76.958,-22.25c-50.839,-16.585 -100.378,-36.919 -148.208,-60.833c-24,-11.667 -47.292,-25 -70.25,-38.459c-22.959,-13.458 -46.459,-25.541 -70.542,-36.541c-96.246,-45.037 -200.331,-70.948 -306.458,-76.292l-19.875,-0.958l-9.917,-0.5l-9.917,-0l-39.791,-0.25l-39.792,1.208c-13.25,0.417 -26.458,1.625 -39.708,2.417c-52.869,3.935 -105.496,10.625 -157.667,20.041c-52.283,9.275 -104.026,21.377 -155,36.25c-12.5,3.625 -25.25,8.042 -37.792,12.5l-37.708,12.834l-9.417,3.208l-9.208,3.75l-18.417,7.542c-12.25,5.083 -24.541,10 -36.75,15.166l-35.75,17.417l-18.041,8.667c-5.959,2.916 -11.584,6.458 -17.375,9.666l-34.542,19.5c-2.863,1.596 -5.644,3.334 -8.333,5.209l-8.334,5.5l-16.666,10.958l-16.667,11c-5.542,3.625 -10.583,7.917 -15.917,11.875l-31.583,24.125c-19.708,17.667 -40.333,34.375 -58.333,53.792c-9.25,9.458 -18.917,18.541 -27.292,28.833c-8.375,10.292 -17.458,19.917 -25.792,30.208l-23.916,31.667c-4.167,5.167 -7.5,10.958 -11.25,16.417l-10.917,16.666c-28.485,44.689 -52.357,92.155 -71.25,141.667c-37.917,99.083 -55.792,205.333 -57.542,311.375c-0.998,53.109 3.034,106.193 12.042,158.542c2.208,13.125 4.167,26.291 6.542,39.375l7.625,39.125l8.75,38.875c3.083,12.916 6.541,25.75 9.75,38.666c26.927,103.03 66.948,202.186 119.083,295.042c6.375,11.667 13.458,22.917 20.208,34.375c6.75,11.458 14.084,22.583 21.625,33.333c14.75,22.223 30.417,43.709 47,64.459c16.667,20.833 34,41 52.417,60.208c9.208,9.583 18.667,18.958 28.458,27.958c9.683,9.184 19.82,17.876 30.375,26.042Z" style="fill:#0998b7;fill-rule:nonzero;"/><path d="M1138.38,1905.71l-738.542,381.334l1485.54,-0l124.75,-382.959l-871.75,1.625Z" style="fill:#0998b7;fill-rule:nonzero;"/><ellipse cx="1389.29" cy="2026.12" rx="338" ry="106.083" style="fill-opacity:0.3;"/><path d="M1166.38,1980.92c0,-0 -3.333,14.75 1.583,22.958c0,0 49.5,76.75 114.75,109.833c0,0 34.459,18.375 88.25,-14.416c0,-0 25,-14.417 -5.083,-26.25l-153.083,-57.75l-46.417,-34.375Z" style="fill:#2f2e41;fill-rule:nonzero;"/><path d="M1482.33,2045.25l-95.583,-114.375l0,-10.792l82.708,93.042c15.276,17.717 37.403,28.106 60.792,28.542c11.936,0.088 23.737,-2.548 34.5,-7.709c5.692,-1.938 9.543,-7.318 9.543,-13.331c-0,-1.967 -0.412,-3.912 -1.21,-5.71l1.209,0.583c20.5,37 -39.5,41.042 -68.459,40.958c-9.1,-0.077 -17.712,-4.185 -23.5,-11.208Z" style="fill:#2f2e41;fill-rule:nonzero;"/><path d="M1185.04,1870.83l-0,62.959c-0,-0 15.75,21.416 62.958,15l0,-72.209l-62.958,-5.75Z" style="fill:#f9b499;fill-rule:nonzero;"/><path d="M1394.12,1853.38l2.458,27.458c0,0 35.292,37.75 62.25,2.459l0,-50.5l-64.708,20.583Z" style="fill:#f9b499;fill-rule:nonzero;"/><path d="M707.333,537.5l598,0l0,1195.42c0,12.594 -10.363,22.958 -22.958,22.958l-575,0c-11.04,0 -20.125,-9.085 -20.125,-20.125l-0,-1178.29c0.091,-10.961 9.122,-19.936 20.083,-19.958Z" style="fill:#0998b7;fill-rule:nonzero;"/><path d="M707.333,537.5l598,0l0,1195.42c0,12.594 -10.363,22.958 -22.958,22.958l-575,0c-11.04,0 -20.125,-9.085 -20.125,-20.125l-0,-1178.29c0.091,-10.961 9.122,-19.936 20.083,-19.958Z" style="fill:#fff;fill-opacity:0.3;fill-rule:nonzero;"/><path d="M771.708,537.5l598.042,0l0,1195.42c0,12.594 -10.364,22.958 -22.958,22.958l-575,0c-11.041,0 -20.125,-9.085 -20.125,-20.125l-0,-1178.29c0.09,-10.945 9.095,-19.913 20.041,-19.958Z" style="fill:#0998b7;fill-rule:nonzero;"/><path d="M771.708,537.5l598.042,0l0,1195.42c0,12.594 -10.364,22.958 -22.958,22.958l-575,0c-11.041,0 -20.125,-9.085 -20.125,-20.125l-0,-1178.29c0.09,-10.945 9.095,-19.913 20.041,-19.958Z" style="fill:#fff;fill-opacity:0.2;fill-rule:nonzero;"/><path d="M1258.79,1330.25c-0,-12.142 -9.858,-22 -22,-22l-426.25,0c-12.142,0 -22,9.858 -22,22l-0,327.25c-0,12.142 9.858,22 22,22l426.25,0c12.142,0 22,-9.858 22,-22l-0,-327.25Z" style="fill:#fff;fill-opacity:0.2;"/><path d="M687.208,1033.75l0,357.083l501.292,-853.5l-203,0l-298.292,496.417Z" style="fill:#fff;fill-opacity:0.2;fill-rule:nonzero;"/><path d="M1258.79,873.208c-0,-12.142 -9.858,-22 -22,-22l-426.25,0c-12.142,0 -22,9.858 -22,22l-0,133.084c-0,12.142 9.858,22 22,22l426.25,-0c12.142,-0 22,-9.858 22,-22l-0,-133.084Z" style="fill:#fff;fill-opacity:0.2;"/><path d="M689.208,1742.17l616.25,-1033.33l0,442.75l-367.5,603.709l-228.458,-0c-0,-0 -7.542,3.5 -20.292,-13.125Z" style="fill:#fff;fill-opacity:0.2;fill-rule:nonzero;"/><path d="M1205,633.125c0,-12.142 -9.858,-22 -22,-22l-372.458,0c-12.142,0 -22,9.858 -22,22l-0,133.083c-0,12.142 9.858,22 22,22l372.458,0c12.142,0 22,-9.858 22,-22l0,-133.083Z" style="fill:#fff;fill-opacity:0.2;"/><path d="M1258.79,1111.46c-0,-12.142 -9.858,-22 -22,-22l-426.25,0c-12.142,0 -22,9.858 -22,22l-0,133.084c-0,12.142 9.858,22 22,22l426.25,-0c12.142,-0 22,-9.858 22,-22l-0,-133.084Z" style="fill:#fff;fill-opacity:0.2;"/><path d="M1475.38,868.792l18.542,58.666l64.75,-21.208l-17.917,-51c0,-0 -22.375,19.375 -65.375,13.542Z" style="fill:#f9b499;fill-rule:nonzero;"/><path d="M1475.38,868.792l7.125,22.541c0,0 44.25,-0.916 61.042,-28.166l-2.792,-7.917c-0,0 -18.958,18.875 -65.375,13.542Z" style="fill:#f7a48b;fill-rule:nonzero;"/><path d="M1363.88,762.5c-35.625,2.417 -78.292,-71.792 -78.292,-71.792l-5.875,-105.916l11.125,-6.584l76.667,70.625l1.458,48.667c27.542,58.25 -5.083,65 -5.083,65Z" style="fill:#f9b499;fill-rule:nonzero;"/><path d="M1548.21,847.042c-21.416,30.416 -72.833,21.75 -72.833,21.75c1.226,23.92 -4.818,47.661 -17.333,68.083l-19.334,101.417l-13.375,54.166c-123.458,23.334 -227.583,-27.375 -227.583,-27.375c-17.333,-8.666 -3.958,-28.041 -3.958,-28.041l55.333,-124.084c-108.042,28 -111.417,-25.416 -111.417,-29.375c0,-3.958 47.375,-141.458 47.375,-141.458c6.667,-55.417 100.5,-51.167 100.5,-51.167c0,0 42.667,74.209 78.292,71.792c0,0 32.625,-6.917 5.083,-65l49.042,1c33.695,-0.177 64.743,18.707 80.083,48.708l50.542,79.417c3.93,6.18 3.765,14.154 -0.417,20.167Z" style="fill:#0998b7;fill-rule:nonzero;"/><path d="M1249.12,912.875c2.12,-0.31 4.221,-0.741 6.292,-1.292c6.94,-1.842 11.668,-8.373 11.25,-15.541l-4.167,-77.959c0,0 11.375,2 30.042,80.084c-0,-0 29.375,128.791 132.791,120.125l17.125,0.416l-17.125,73.667c-76.91,12.79 -155.899,3.289 -227.583,-27.375c-71.684,-30.664 -17.833,-6.208 -3.958,-28.042l55.333,-124.083Z" style="fill-opacity:0.2;fill-rule:nonzero;"/><path d="M1483.88,1153.62l0,239.417l-9.625,424.166c-2.083,67 -54.833,51.834 -70.833,45.834c-2.875,-1.125 -4.542,-1.917 -4.542,-1.917c-8.39,-0.721 -16.735,-1.889 -25,-3.5c-3.914,-0.758 -6.88,-4.031 -7.25,-8l-20.833,-225.5l-0,-174.125c-0,2.083 -0,4.167 -0.459,6.583l0,0.917c-4.583,47.583 -32.833,144.583 -32.833,144.583l-37.5,278.375c-3.458,29.834 -28.583,28.792 -54.167,19.375c-20.38,-8.269 -39.744,-18.852 -57.708,-31.541c-3.667,-189.625 24.375,-418.292 24.375,-418.292c-37.5,-334.25 10.333,-385.167 10.333,-385.167c20.211,8.148 40.936,14.954 62.042,20.375c133.333,32.042 193.792,-7.125 193.792,-7.125l30.208,75.542Z" style="fill:#2f2e41;fill-rule:nonzero;"/><path d="M1197.12,1267.83l4.875,198.125c0,0 -8.125,338.209 18.833,434.042c-20.38,-8.269 -39.744,-18.852 -57.708,-31.542c-3.667,-189.791 24.375,-418.458 24.375,-418.458c-37.5,-334.25 10.333,-385.167 10.333,-385.167c20.285,7.943 40.998,14.746 62.042,20.375l3,3.625c0,0 -63.333,47.75 -65.75,179Z" style="fill-opacity:0.2;fill-rule:nonzero;"/><path d="M1345.46,1456.75l0.375,-6.75c0,2.25 0,4.375 -0.375,6.75Z" style="fill:none;fill-rule:nonzero;stroke:#ed1c24;stroke-width:1.04px;"/><path d="M1403.46,1862.92c-2.875,-1.125 -4.541,-1.917 -4.541,-1.917c-8.39,-0.721 -16.735,-1.889 -25,-3.5c-3.914,-0.758 -6.88,-4.031 -7.25,-8l-20.834,-225.5l0,-174l33.334,-271.708c-1.125,13.625 -26.209,318 -6,479.541l30.291,205.084Z" style="fill-opacity:0.2;fill-rule:nonzero;"/><path d="M1366.21,2079.83c-12.25,10.417 -50.541,37.959 -93.25,17.917c-6.881,-3.32 -13.343,-7.446 -19.25,-12.292c-5.906,-4.845 -65.958,-63.333 -85.333,-98.625c-1.249,-2.289 -1.922,-4.85 -1.958,-7.458c-0.225,-17.33 1.891,-34.611 6.291,-51.375c0.409,-1.324 1.641,-2.233 3.026,-2.233c1.036,0 2.008,0.508 2.599,1.358c5.042,7.5 17.125,19.292 43.625,21.958c8.68,0.827 17.422,0.743 26.084,-0.25c8.662,-0.992 8.791,-2.875 14.791,23.625c0,0 33.834,51.417 103.042,100.584c1.199,0.764 1.928,2.091 1.928,3.514c-0,1.278 -0.589,2.488 -1.595,3.277Z" style="fill:#0998b7;fill-rule:nonzero;"/><path d="M1272.96,2097.75c-6.881,-3.32 -13.343,-7.446 -19.25,-12.292c-5.906,-4.845 -65.958,-63.333 -85.333,-98.625c-1.249,-2.289 -1.922,-4.85 -1.958,-7.458c-0.225,-17.33 1.891,-34.611 6.291,-51.375c0.409,-1.324 1.641,-2.233 3.026,-2.233c1.036,0 2.008,0.508 2.599,1.358c5.042,7.5 17.125,19.292 43.625,21.958c-1.125,26.125 1.125,96.125 51,148.667Z" style="fill-opacity:0.2;fill-rule:nonzero;"/><path d="M1564.75,2033.79c-20.082,9.609 -43.328,10.261 -63.917,1.791c-12.023,-5.014 -22.752,-12.694 -31.375,-22.458l-82.708,-93.042l0,-21.75c-0.958,-24.125 9.792,-17.458 9.792,-17.458l18.625,0.708l43.625,1.709c6.291,-6 12.75,3.041 16.958,11.375c4.802,9.325 10.767,18.006 17.75,25.833l71.208,80.917c3.579,3.891 6.404,8.412 8.334,13.333c0.801,1.801 1.215,3.751 1.215,5.723c-0,5.999 -3.833,11.369 -9.507,13.319Z" style="fill:#0998b7;fill-rule:nonzero;"/><path d="M1500.83,2035.58c-12.023,-5.014 -22.752,-12.694 -31.375,-22.458l-82.708,-93.042l0,-21.75c-0.958,-24.125 9.792,-17.458 9.792,-17.458l18.625,0.708l0.833,13c0,0 31.25,112.834 84.833,141Z" style="fill-opacity:0.2;fill-rule:nonzero;"/><path d="M400,2287.04c0,-0 -10.333,38.666 26.708,38.666l1511.42,0l693.417,-492.916l-23.209,-19.834l-669.416,474.084l380.416,-1189.12l559.167,-203.25l-56.458,-0l-553.875,202.458l-382.792,1189.92l-1485.38,-0Z" style="fill:#2f2e41;fill-rule:nonzero;"/><path d="M1792,1009.62l35.625,-346.958l326.417,-117.459l-43.292,359.084l-318.75,105.333Z" style="fill:#fff;fill-rule:nonzero;"/><path d="M1847.12,920.167l25.542,-220.667l39.833,-13.542l-22.125,219.625l-43.25,14.584Z" style="fill:#0998b7;fill-rule:nonzero;"/><path d="M1926.79,740l40.333,-17.708l-19.292,161.875l-42.666,17.166l21.625,-161.333Z" style="fill:#2f2e41;fill-rule:nonzero;"/><path d="M1989.25,654.917l-22.125,223.791l41.333,-16.708l21.625,-225.292l-40.833,18.209Z" style="fill:#e6e7e8;fill-rule:nonzero;"/><path d="M2043.88,685.958l-16.5,171.375l40.583,-16.5l18.209,-170.666l-42.292,15.791Z" style="fill:#d1d3d4;fill-rule:nonzero;"/><path d="M3444.38,1419c0,0 -21.167,96.708 -123.583,196.292l-0.292,0.25c-7.875,7.708 -16.333,15.416 -25.25,23.083c-74.083,63.833 -183.583,125.708 -344.333,160.917l-0,-121.167c-0,0 47.5,-58.75 83.666,-88.792c2.792,-2.333 5.542,-4.5 8.334,-6.416c-0,-0 2.916,-3.5 8.333,-9.417c47.847,-50.639 104.816,-91.804 167.917,-121.333c8.527,-3.973 17.319,-7.681 26.375,-11.125c63.119,-24.947 131.757,-32.642 198.833,-22.292Z" style="fill:#0998b7;fill-rule:nonzero;"/><path d="M3320.83,1615.29l-0.291,0.25l-25.25,23.083c-0,0 -172.5,-5.167 -201.792,0.792c0,-0 -95.833,69.625 -142.542,114.416l0,-9.375c0,0 67.917,-63.958 83.667,-73.791l0,-81.125c2.792,-2.334 5.542,-4.5 8.333,-6.417c0,-0 2.917,-3.5 8.334,-9.417l-8.334,93.042c0,-0 87.834,-71.833 154.917,-110.208l21.458,-104.167c8.528,-3.972 17.32,-7.681 26.375,-11.125l-35.791,107.458c-0,0 153.125,-91.125 221.541,-126.625c-12.5,7.625 -278,172.167 -323.5,207.792c-0.208,0 185.125,-19.542 212.875,-14.583Z" style="fill:#fff;fill-rule:nonzero;"/><path d="M1367.5,649l0.833,28.042c0,-0 -26.458,1.958 -39.708,-28.792l38.875,0.75Z" style="fill:#f7a48b;fill-rule:nonzero;"/><ellipse cx="1363.88" cy="545.208" rx="84.125" ry="113.458" style="fill:#f9b499;"/><path d="M1461.21,512.5c0,0 15.417,-42.042 -42.541,-80.792c-0,0 -64.209,-79.416 -138.917,-16.958l-37.5,29.875l-0.208,0.417c-4.433,-8.203 -13.037,-13.334 -22.361,-13.334c-13.943,0 -25.417,11.474 -25.417,25.417c0,13.943 11.474,25.417 25.417,25.417l0.986,-0c-15.292,26.458 -47.875,100.708 32.208,150c3.953,2.454 8.881,2.783 13.125,0.875l16.667,-7.709l-2.292,-28.833l34.208,-55.208c0,-0 71.875,18.791 116.042,-65.292c10.419,20.258 16.333,42.533 17.333,65.292c1.001,22.758 22.334,-50 -16.666,-90.542c0.041,-0.125 28.125,10.75 29.916,61.375Z" style="fill:#2f2e41;fill-rule:nonzero;"/><circle cx="1264.12" cy="575.667" r="26.875" style="fill:#f9b499;"/><path d="M1197.75,1065c-4.251,5.97 -7.385,12.662 -9.25,19.75c-1.865,7.088 170.458,47.792 206.917,10.833c-0,0 -92.75,13.042 -197.667,-30.583Z" style="fill:#2f2e41;fill-rule:nonzero;"/><path d="M1197.75,1065c-4.251,5.97 -7.385,12.662 -9.25,19.75c-1.865,7.088 170.458,47.792 206.917,10.833c-0,0 -92.75,13.042 -197.667,-30.583Z" style="fill-opacity:0.4;fill-rule:nonzero;"/><path d="M1450.88,940.792c-4.934,1.456 -8.341,6.022 -8.333,11.166c-0,28.584 -2.917,121.709 -39.209,195.834c0,-0 -18.125,33.333 4.5,29.875l160.25,-34.417c0,0 37.125,-7.458 44.375,-45.375c0,0 35.209,-140 34.625,-213.458c-0.014,-3.236 -2.681,-5.89 -5.916,-5.89c-0.682,-0 -1.359,0.118 -2,0.348c-28.459,9.875 -129.542,44.542 -188.292,61.917Z" style="fill:#fff;fill-rule:nonzero;"/><path d="M1641.92,948.75c-0,0 20.833,84.875 -11.875,107.708c-1.243,0.875 -2.726,1.345 -4.245,1.345c-3.643,-0 -6.767,-2.699 -7.297,-6.303c-0.807,-4.354 0.153,-8.855 2.667,-12.5c2.513,-3.645 -4.167,-16.667 6.541,-23.25c0,0 -12.291,-21.167 8.334,-28.583l5.875,-38.417Z" style="fill:#f9b499;fill-rule:nonzero;"/><path d="M1627.71,1015.96c1.748,-2.412 3.7,-4.671 5.834,-6.75l3,-2.833c1.041,-0.958 2.041,-2 3.458,-3.125c0.551,3.423 -0.656,6.903 -3.208,9.25c-2.36,2.447 -5.694,3.716 -9.084,3.458Z" style="fill:#f7a48b;fill-rule:nonzero;"/><path d="M1621.17,1039.21c3.458,-2.166 6.458,-3.708 9.416,-5.5c1.5,-0.833 2.959,-1.708 4.459,-2.625c1.597,-1.026 3.252,-1.958 4.958,-2.791c-0.911,4.014 -3.509,7.448 -7.125,9.416c-1.755,0.997 -3.674,1.675 -5.667,2c-2.022,0.377 -4.109,0.204 -6.041,-0.5Z" style="fill:#f7a48b;fill-rule:nonzero;"/><path d="M1171.67,918.417c-0,-0 -14.209,53.791 16.666,68.291l198.542,104.167c0,0 73.333,36.208 108.625,12.5c0,0 20.833,-4.5 19,-14.458c0,-0 16.667,-9.042 0,-18.125c0,-0 8.917,-10.834 -29.167,-10.834c-36.125,0 -52,-16.666 -47.833,-40c0.017,-0.109 0.026,-0.219 0.026,-0.33c-0,-1.166 -0.959,-2.125 -2.125,-2.125c-0.281,0 -0.559,0.056 -0.818,0.164c-12.296,4.682 -24.046,10.69 -35.041,17.916c-5.42,3.857 -12.394,4.838 -18.667,2.625c-26.5,-9.541 -93.542,-39.166 -130,-105c-0,0 -6.917,-4.625 -2.125,-20.416c0.375,0.083 -45.333,13.416 -77.083,5.625Z" style="fill:#f9b499;fill-rule:nonzero;"/><path d="M1514.79,1070.83c-2.676,1.755 -5.682,2.946 -8.834,3.5c-3.091,0.575 -6.231,0.841 -9.375,0.792c-6.273,-0.051 -12.459,-1.474 -18.125,-4.167c3.073,-0.322 6.161,-0.461 9.25,-0.416l9,-0c6,0.291 11.625,0.291 18.084,0.291Z" style="fill:#f7a48b;fill-rule:nonzero;"/><path d="M1514.67,1089c-6.863,2.242 -14.031,3.408 -21.25,3.458c-3.594,0.062 -7.188,-0.147 -10.75,-0.625c-3.638,-0.402 -7.193,-1.358 -10.542,-2.833c7.25,-0.625 14.167,-0.958 21.208,-1.125c7.13,-0.224 14.267,0.152 21.334,1.125Z" style="fill:#f7a48b;fill-rule:nonzero;"/><path d="M1495.83,1103.46c-1.636,1.386 -3.556,2.396 -5.625,2.959c-1.985,0.612 -4.048,0.934 -6.125,0.958c-4.275,0.177 -8.471,-1.217 -11.791,-3.917c3.898,-0.478 7.823,-0.7 11.75,-0.666c3.941,-0.076 7.883,0.147 11.791,0.666Z" style="fill:#f7a48b;fill-rule:nonzero;"/><path d="M2319.33,1097.92l-380.416,1189.12l669.208,-474.084l116.208,-482.916l154.167,-435.375l-559.167,203.25Z" style="fill:#0998b7;fill-rule:nonzero;"/><path d="M2319.33,1097.92l-380.416,1189.12l669.208,-474.084l116.208,-482.916l154.167,-435.375l-559.167,203.25Z" style="fill-opacity:0.2;fill-rule:nonzero;"/><path d="M2950.96,1188.29c0,-18.053 -14.656,-32.709 -32.708,-32.709l-513.708,0c-18.053,0 -32.709,14.656 -32.709,32.709l0,1190.5c0,18.052 14.656,32.708 32.709,32.708l513.708,0c18.052,0 32.708,-14.656 32.708,-32.708l0,-1190.5Z" style="fill:#0998b7;"/><path d="M2950.96,1188.29c0,-18.053 -14.656,-32.709 -32.708,-32.709l-513.708,0c-18.053,0 -32.709,14.656 -32.709,32.709l0,1190.5c0,18.052 14.656,32.708 32.709,32.708l513.708,0c18.052,0 32.708,-14.656 32.708,-32.708l0,-1190.5Z" style="fill-opacity:0.2;"/><path d="M2898.75,1188.29c0,-18.053 -14.656,-32.709 -32.708,-32.709l-461.5,0c-18.053,0 -32.709,14.656 -32.709,32.709l0,1158.54c0,18.053 14.656,32.709 32.709,32.709l461.5,-0c18.052,-0 32.708,-14.656 32.708,-32.709l0,-1158.54Z" style="fill:#0998b7;"/><path d="M2950.96,1315.54l-579.166,948.375l-0,111.541c-0,0 -1.375,36.042 36,36.042l129.916,0l413.209,-678.833l0.041,-417.125Z" style="fill:#fff;fill-opacity:0.25;fill-rule:nonzero;"/><path d="M2773.88,1155.54l-402.042,685.333l0,-440.75l148.209,-244.583l253.833,-0Z" style="fill:#fff;fill-opacity:0.25;fill-rule:nonzero;"/><path d="M2827.67,1238.04c-0,-8.003 -6.498,-14.5 -14.5,-14.5l-356.167,-0c-8.003,-0 -14.5,6.497 -14.5,14.5l0,82.875c0,8.002 6.497,14.5 14.5,14.5l356.167,-0c8.002,-0 14.5,-6.498 14.5,-14.5l-0,-82.875Z" style="fill:#fff;fill-opacity:0.2;"/><path d="M2827.88,1415.46c0,-8.002 -6.497,-14.5 -14.5,-14.5l-356.167,0c-8.002,0 -14.5,6.498 -14.5,14.5l0,82.875c0,8.003 6.498,14.5 14.5,14.5l356.167,0c8.003,0 14.5,-6.497 14.5,-14.5l0,-82.875Z" style="fill:#fff;fill-opacity:0.2;"/><path d="M2827.75,1592.83c0,-8.002 -6.497,-14.5 -14.5,-14.5l-356.167,0c-8.002,0 -14.5,6.498 -14.5,14.5l0,82.875c0,8.003 6.498,14.5 14.5,14.5l356.167,0c8.003,0 14.5,-6.497 14.5,-14.5l0,-82.875Z" style="fill:#fff;fill-opacity:0.2;"/><path d="M2827.96,1770.25c0,-8.003 -6.497,-14.5 -14.5,-14.5l-356.166,0c-8.003,0 -14.5,6.497 -14.5,14.5l-0,82.875c-0,8.003 6.497,14.5 14.5,14.5l356.166,0c8.003,0 14.5,-6.497 14.5,-14.5l0,-82.875Z" style="fill:#fff;fill-opacity:0.2;"/><path d="M2834.17,1947.62c-0,-8.003 -6.498,-14.5 -14.5,-14.5l-356.167,0c-8.003,0 -14.5,6.497 -14.5,14.5l0,82.875c0,8.003 6.497,14.5 14.5,14.5l356.167,0c8.002,0 14.5,-6.497 14.5,-14.5l-0,-82.875Z" style="fill:#fff;fill-opacity:0.2;"/><path d="M2834.33,2125.04c0,-8.003 -6.497,-14.5 -14.5,-14.5l-356.166,-0c-8.003,-0 -14.5,6.497 -14.5,14.5l-0,82.875c-0,8.002 6.497,14.5 14.5,14.5l356.166,-0c8.003,-0 14.5,-6.498 14.5,-14.5l0,-82.875Z" style="fill:#fff;fill-opacity:0.2;"/><path d="M1854.58,1246.54l-92.833,152.666c0,0 63.375,85.75 150,-45.5c0,0 87.5,-141.666 46.417,-255.208l-101.792,141.667l-9.292,-156.209c0,0 -112.125,103.542 -101.25,256.334l108.75,-93.75Z" style="fill:#fff;fill-rule:nonzero;"/><path d="M1856.38,1240.29l-9.292,-156.209c0,0 69.125,-63.25 111.25,14.417l-101.958,141.792Z" style="fill:#0998b7;fill-rule:nonzero;"/><path d="M2950.96,1255.38c0,0 47.209,-284.167 352.167,-388.458c0,-0 92.5,382 -352.167,711.416l0,-322.958Z" style="fill:#0998b7;fill-rule:nonzero;"/><path d="M3093.58,995.833c0,0 6.875,119.042 16.667,148.542c0,0 136.75,-222.333 184.958,-267.583c0,-0 -227.291,341.375 -257.791,417.125l240.25,-138.292l-14.584,40.208l-231.458,108.084l-80.667,162.5l0,-28.917l29.5,-61l-29.5,-61l0,-56.042l34.417,108.334c0,-0 85.542,-170.167 120.833,-212.084l-35.958,-134.875c7.35,-8.722 15.138,-17.066 23.333,-25Z" style="fill:#fff;fill-rule:nonzero;"/></svg>