<?xml version="1.0" encoding="UTF-8" standalone="no"?><!DOCTYPE svg PUBLIC "-//W3C//DTD SVG 1.1//EN" "http://www.w3.org/Graphics/SVG/1.1/DTD/svg11.dtd"><svg width="100%" height="100%" viewBox="0 0 3700 1426" version="1.1" xmlns="http://www.w3.org/2000/svg" xmlns:xlink="http://www.w3.org/1999/xlink" xml:space="preserve" xmlns:serif="http://www.serif.com/" style="fill-rule:evenodd;clip-rule:evenodd;stroke-linejoin:round;stroke-miterlimit:2;"><path d="M2334.04,1407.25l-589.542,-16.75c0,0 44.375,-265.458 -98,-339.125c-97.042,-50.25 -183.167,-284.958 -158.667,-444.667c0.334,-2.125 0.667,-4.25 1.042,-6.333c12.417,-71.5 47.917,-126.875 115.792,-141.917c219.416,-48.583 376,-10.916 376,-10.916c-0,-0 36.25,0.458 89.958,10.541c1.917,0.334 3.833,0.709 5.75,1.125c152.042,29.792 433.083,135.875 445.25,512.542c16.75,517.5 -187.583,435.417 -187.583,435.417l-0,0.083Z" style="fill:#273740;fill-rule:nonzero;"/><path d="M2070.62,458.125c-1,27 -7.125,53.833 -18.292,79.333c-23.166,52.875 -65.416,93.25 -118.916,113.709c-160.25,61.333 -347.25,0.5 -441.834,-65.459c-0.375,2.084 -7.875,41.625 -8.208,43.75c41.875,28.667 246.833,56.292 285.708,56.292c59.042,0 115.875,-9.792 166.417,-29.167c54.958,-21.041 98.333,-62.541 122.125,-116.833c11.375,-25.917 17.625,-53.125 18.75,-80.542c-1.917,-0.416 -3.833,-0.791 -5.75,-1.125l0,0.042Z" style="fill:#cc584b;fill-rule:nonzero;"/><path d="M2114.21,492.5l-93.958,-236.292c0,0 112.792,-193.333 24.167,-214.791c-88.625,-21.5 -179.917,93.958 -179.917,93.958c0,0 -169.167,-59.083 -233.583,-10.75c-0,0 -107.417,-150.375 -171.834,-120.833c-64.458,29.541 22.917,242.416 22.917,242.416c0,0 -133,195.25 -30.958,308c102.041,112.792 486,204.084 663.208,-61.75l-0.042,0.042Z" style="fill:#273740;fill-rule:nonzero;"/><path d="M4.167,1400.33l3695.83,0l0,-8.333l-3695.83,0c-2.292,0 -4.167,1.875 -4.167,4.167c0,2.291 1.875,4.166 4.167,4.166Z" style="fill:#273740;fill-rule:nonzero;"/><path d="M2315.75,1265.83c32,14.25 65.417,28.75 100.417,27.375c35,-1.375 71.791,-23.916 77.25,-58.5c2.833,-17.875 -2.75,-37 4.083,-53.75c9.208,-22.5 38.875,-31.208 61.917,-23.5c23.083,7.709 40,27.625 52.166,48.667c22.75,39.417 31.834,91.167 7.459,129.583c-21.125,33.292 -61.209,48.375 -98.459,61.292c-49.666,17.208 -105.083,34.25 -153.208,13.125c-48.375,-21.25 -74.75,-82.625 -56.833,-132.333" style="fill:#273740;fill-rule:nonzero;"/><path d="M1786.42,386.292c-0,-0 -57.834,-23.125 -95.375,5.791l43.375,66.5l52.041,-72.25l-0.041,-0.041Z" style="fill:#cc584b;fill-rule:nonzero;"/><path d="M1482.88,689.792l106.958,569.5c0,-0 -161.875,164.791 46.25,161.875c208.125,-2.875 147.417,-109.834 147.417,-109.834l-66.5,-494.333" style="fill:#273740;fill-rule:nonzero;"/><path d="M1630.83,1425.38c-56.375,0 -90.458,-12.917 -101.375,-38.458c-19.875,-46.5 44.834,-117.375 55.917,-129.042l-71.917,-425.75l8.209,-1.375l72.625,429.917l-1.5,1.5c-0.75,0.75 -74.75,76.875 -55.667,121.458c9.792,22.917 43,34.125 98.917,33.333c77.708,-1.083 127.791,-17.375 144.875,-47.083c15.375,-26.75 -0.875,-56.25 -1.042,-56.542l-0.375,-0.708l-0.125,-0.792l-46.25,-344l8.25,-1.125l46.167,343.25c2.75,5.209 17.125,35.25 0.666,64c-18.875,32.917 -70.041,50.209 -152.041,51.334l-5.292,-0l-0.042,0.083Z" style="fill:#273740;fill-rule:nonzero;"/><path d="M1754.58,689.792l106.959,569.5c-0,-0 -161.875,164.791 46.25,161.875c208.125,-2.875 147.416,-109.834 147.416,-109.834l-66.5,-494.333" style="fill:#273740;fill-rule:nonzero;"/><path d="M1902.54,1425.38c-56.375,0 -90.459,-12.917 -101.375,-38.458c-19.875,-46.417 44.708,-117.209 55.875,-129l-42.959,-229.167l8.209,-1.542l43.75,233.417l-1.542,1.542c-0.75,0.75 -74.75,76.875 -55.667,121.458c9.792,22.917 43.042,34.167 98.917,33.333c77.75,-1.083 127.875,-17.375 144.917,-47.166c15.375,-26.834 -0.917,-56.167 -1.084,-56.459l-0.416,-0.708l-66.584,-495.125l8.25,-1.125l66.375,493.583c2.75,5.209 17.125,35.25 0.667,64c-18.875,32.917 -70.042,50.209 -152.042,51.334l-5.291,-0l-0,0.083Z" style="fill:#273740;fill-rule:nonzero;"/></svg>