<?xml version="1.0" encoding="UTF-8" standalone="no"?><!DOCTYPE svg PUBLIC "-//W3C//DTD SVG 1.1//EN" "http://www.w3.org/Graphics/SVG/1.1/DTD/svg11.dtd"><svg width="100%" height="100%" viewBox="0 0 3334 3334" version="1.1" xmlns="http://www.w3.org/2000/svg" xmlns:xlink="http://www.w3.org/1999/xlink" xml:space="preserve" xmlns:serif="http://www.serif.com/" style="fill-rule:evenodd;clip-rule:evenodd;stroke-linejoin:round;stroke-miterlimit:2;"><path d="M1278.96,1967.86c-108.807,-15.432 -208.724,-84.718 -291.191,-183.419c-54.634,-67.171 -93.981,-145.447 -115.296,-229.367l-6.5,1.628c-34.691,8.667 -62.003,-8.784 -81.336,-24.216c-24.238,-20.606 -43.742,-46.207 -57.172,-75.046c-28.501,-57.045 -40.775,-120.844 -35.473,-184.392c0.733,-16.246 4.874,-32.157 12.155,-46.698c12.715,-21.331 34.444,-35.782 59.033,-39.256c25.034,-3.66 50.459,3.78 69.571,20.357c19.113,16.577 45.673,-454.875 574.95,-454.875c529.277,-0 592.02,454.875 592.02,454.875c19.112,-16.577 44.537,-24.017 69.571,-20.357c24.589,3.474 46.319,17.925 59.033,39.256c7.281,14.541 11.423,30.452 12.155,46.698c5.306,63.563 -6.971,127.377 -35.483,184.434c-13.436,28.837 -32.938,54.436 -57.173,75.046c-18.888,15.073 -52.003,15.062 -76.98,18.656c-6.088,25.918 -14.185,48.474 -17.821,59.519c-22.461,60.957 -162.153,298.167 -327.667,334.95l-346.396,22.207Z" style="fill:#fff;fill-rule:nonzero;"/><path d="M664.73,1500.02c1.607,-4.932 3.457,-9.78 5.549,-14.544c9.664,-22.167 25.276,-41.234 45.102,-55.08c3.636,9.161 7.663,18.191 12.082,27.091c13.43,28.84 32.934,54.44 57.172,75.046c19.333,15.432 46.645,32.883 81.336,24.216l6.489,-1.659c21.322,83.919 60.672,162.194 115.307,229.366c12.304,14.728 24.988,28.768 38.052,42.121c-21.51,61.042 -76.378,119.821 -132.124,153.338c-43.569,26.181 -88.417,43.495 -142.82,36.994c-9.841,-1.173 -20.178,-1.786 -24.765,-10.569c-6.617,-12.684 14.163,-35.938 25.98,-58.706c14.027,-26.974 5.592,-70.607 -4.407,-99.357c-11.589,-28.111 -25.164,-55.362 -40.62,-81.546c-25.905,-50.171 -42.583,-104.592 -49.235,-160.663c-5.348,-35.433 -2.994,-71.606 6.902,-106.048Z" style="fill:#211715;fill-rule:nonzero;"/><path d="M2100.15,869.903c15.094,103.141 23.603,247.716 -16.436,340.075c-4.674,-1.696 -9.508,-2.911 -14.428,-3.625c-27.376,-4.096 -55.11,5.274 -74.391,25.135c-86.557,-27.482 -179.688,-155.303 -213.29,-212.751c-24.786,-42.438 -58.515,-139.522 -78.936,-211.398c-96.841,121.744 -257.018,199.771 -424.138,238.489c-40.028,9.703 -8.255,-84.686 0.687,-140.178c-104.019,89.442 -315.66,225.477 -433.239,318.26c-17.473,-26.981 -49.142,-41.449 -80.976,-36.995c-9.862,-48.241 -20.315,-99.41 -20.315,-99.41c-14.841,-64.339 -16.859,-202.266 -0.476,-282.85c60.47,-298.833 359.123,-536.032 672.319,-518.697c313.186,-17.335 611.839,219.854 672.309,518.697c3.763,18.56 7.695,40.715 11.31,65.248Z" style="fill:#211715;fill-rule:nonzero;"/><path d="M680.818,1426.15c-55.281,56.179 -56.518,137.409 -44.035,210.552c6.79,38.658 18.181,76.365 33.93,112.316c14.396,33.337 35.229,63.557 49.118,97.063c10.01,24.153 20.675,59.361 11.627,85.236c-9.386,26.858 -40.525,50.228 -29.849,81.758c12.303,36.318 67.88,32.566 97.94,28.729c33.743,-4.909 66.226,-16.275 95.668,-33.475c70.099,-38.044 124.762,-99.394 154.501,-173.399c3.579,-13.406 -4.369,-27.406 -17.716,-31.202c-13.39,-3.399 -27.265,4.476 -31.212,17.715c-20.284,54.224 -64.614,101.386 -112.876,132.219c-23.403,15.689 -49.229,27.42 -76.442,34.722c-13.119,3.213 -26.596,4.737 -40.102,4.534c-6.865,0.024 -13.723,-0.425 -20.527,-1.342c0.529,0.074 -8.107,-0.983 -7.61,-1.522c4.303,1.451 7.027,5.753 6.5,10.263c-0.197,3.862 0.088,3.862 0.857,0c6.956,-10.406 13.35,-21.178 19.152,-32.27c8.009,-13.482 12.936,-28.571 14.428,-44.182c1.914,-27.976 -2.192,-56.041 -12.039,-82.297c-12.32,-30.18 -26.752,-59.453 -43.189,-87.603c-15.177,-29.586 -26.974,-60.788 -35.166,-93.015c-16.32,-63.42 -27.566,-147.63 22.926,-198.947c22.927,-23.254 -12.927,-59.191 -35.874,-35.938l-0.01,0.085Z" style="fill:#211715;fill-rule:nonzero;"/><path d="M2017.66,1225.43c26.065,-22.261 71.653,-17.272 88.787,13.74c9.365,16.986 9.587,38.612 9.904,57.532c0.458,23.016 -1.63,46.011 -6.226,68.567c-8.077,43.212 -25.613,84.107 -51.348,119.747c-10.327,13.55 -22.947,28.782 -39.88,33.591c-18.636,4.035 -37.521,6.821 -56.528,8.339c-13.367,3.777 -21.33,17.799 -17.726,31.213c4.002,13.198 17.83,21.046 31.213,17.716c17.609,-2.537 35.547,-3.119 52.849,-7.399c19.845,-5.287 37.764,-16.154 51.624,-31.308c29.905,-32.279 52.396,-70.709 65.893,-112.591c14.95,-42.557 21.962,-87.5 20.685,-132.589c-1.342,-44.626 -10.993,-87.297 -50.281,-113.394c-42.29,-26.603 -97.443,-22.121 -134.883,10.961c-9.728,9.891 -9.728,25.984 0,35.875c9.957,9.576 25.918,9.576 35.875,-0l0.042,-0Z" style="fill:#211715;fill-rule:nonzero;"/><path d="M1953.4,1496.21c-1.548,26.352 -6.566,52.386 -14.925,77.425c-2.695,8.826 -5.602,17.588 -8.572,26.319c-0.719,2.114 -1.459,4.228 -2.199,6.289c-2.685,7.621 1.258,-2.378 -0.972,2.42c-11.553,24.743 -24.581,48.769 -39.014,71.95c-41.093,68.982 -93.543,130.531 -155.134,182.045c-33.077,27.871 -72.049,47.88 -113.975,58.515c-31.805,7.314 -18.35,56.242 13.487,48.928c86.81,-19.945 159.003,-83.576 215.626,-149.406c48.749,-54.95 89.532,-116.481 121.152,-182.785c20.76,-44.526 32.723,-92.646 35.229,-141.71c1.057,-32.651 -49.678,-32.619 -50.735,-0l0.032,0.01Z" style="fill:#211715;fill-rule:nonzero;"/><path d="M850.686,1189.56c-33.814,-29.65 -82.177,-36.569 -122.949,-17.588c-42.765,19.914 -58.134,61.549 -61.464,105.836c-6.553,88.333 20.665,188.493 81.389,254.682c32.312,35.24 76.462,59.392 125.094,48.706c31.879,-7.008 18.392,-55.925 -13.487,-48.928c-34.447,7.579 -66.305,-22.017 -85.51,-47.216c-26.174,-36.308 -43.874,-78.029 -51.793,-122.082c-4.272,-21.812 -6.203,-44.019 -5.76,-66.241c0.317,-19.438 0.623,-41.963 10.855,-59.128c17.736,-29.786 62.362,-33.951 87.815,-12.166c9.989,9.503 25.885,9.503 35.874,-0c9.722,-9.893 9.722,-25.982 -0,-35.875l-0.064,0Z" style="fill:#211715;fill-rule:nonzero;"/><path d="M822.93,1425.32c8.899,87.099 31.61,172.229 67.277,252.187c48.814,102.675 125.143,189.839 220.478,251.775c48.746,32.258 103.818,53.751 161.529,63.039c13.373,3.241 27.139,-4.571 31.213,-17.715c3.591,-13.413 -4.366,-27.426 -17.726,-31.213c-98.554,-14.565 -182.447,-71.791 -249.819,-142.937c-68.447,-73.057 -116.987,-162.49 -140.95,-259.692c-5.482,-21.344 -10.091,-42.878 -13.825,-64.603c-1.713,-9.816 -3.266,-19.681 -4.662,-29.596c-1.057,-7.166 -1.522,-10.992 -2.78,-21.287c-0.411,-13.757 -11.611,-24.957 -25.367,-25.368c-13.886,0.08 -25.288,11.482 -25.368,25.368l-0,0.042Z" style="fill:#211715;fill-rule:nonzero;"/><path d="M769.171,1080.68c-6.927,-34.494 -10.502,-69.577 -10.675,-104.758c-1.445,-42.518 0.038,-85.085 4.439,-127.399c9.432,-76.137 34.675,-149.468 74.106,-215.277c81.527,-138.286 210.526,-242.398 362.907,-292.892c37.15,-12.349 75.43,-20.995 114.281,-25.812c41.128,-4.841 82.044,-3.171 123.288,-4.017c80.285,-1.104 159.992,13.806 234.45,43.855c148.811,59.835 270.936,171.736 343.522,314.761c31.827,67.272 52.45,139.294 61.052,213.216c11.447,80.891 17.62,166.814 3.498,247.737c-3.261,19.12 -8.046,37.949 -14.311,56.306c-10.686,30.927 38.305,44.214 48.917,13.487c28.75,-83.206 26.869,-176.707 18.878,-263.254c-7.314,-79.327 -19.364,-160.007 -48.368,-234.588c-63.984,-160.365 -184.583,-291.844 -338.839,-369.407c-76.827,-39.075 -160.426,-63.093 -246.278,-70.755c-21.439,-1.869 -42.962,-2.574 -64.477,-2.114c-21.615,0.497 -43.167,-0.486 -64.783,-0c-43.166,1.057 -86.116,6.454 -128.202,16.108c-168.554,40.23 -316.848,140.442 -417.046,281.825c-49.398,68.816 -84.582,146.795 -103.49,229.367c-16.92,83.358 -20.35,168.895 -10.157,253.34c1.726,18.066 4.507,36.016 8.329,53.758c7.187,31.837 56.115,18.36 48.917,-13.487l0.042,-0Z" style="fill:#211715;fill-rule:nonzero;"/><path d="M1680.7,822.719c12.272,41.983 25.928,83.629 41.487,124.523c11.495,32.671 26.043,64.185 43.453,94.125c35.711,59.646 80.283,113.517 132.187,159.764c29.596,25.484 63.419,49.298 102.126,57.955c31.805,7.114 45.388,-41.793 13.488,-48.928c-60.249,-13.466 -110.118,-69.888 -148.381,-116.533c-37.878,-44.957 -68.347,-95.668 -90.256,-150.219c-17.176,-43.961 -31.963,-88.893 -45.207,-134.175c-9.143,-31.276 -58.135,-17.968 -48.918,13.488l0.021,-0Z" style="fill:#211715;fill-rule:nonzero;"/><path d="M1686.43,787.183c-56.35,68.433 -127.12,123.589 -207.244,161.518c-41.156,20.258 -83.834,37.268 -127.642,50.873c-22.831,7.181 -45.884,13.579 -69.159,19.195c-2.811,0.687 -5.676,1.237 -8.456,2.019c-5.591,1.554 2.199,1.057 -0.063,0.243c3.803,1.069 7.261,3.114 10.031,5.93c-0.064,-0.085 2.346,4.09 0.962,1.596c-0.432,-1.186 -0.709,-2.422 -0.825,-3.679c1.226,6.12 0.138,-0.634 0.169,-1.892c0.878,-35.61 13.308,-73.355 19.502,-110.677c0.474,-1.966 0.714,-3.982 0.714,-6.005c-0,-14.044 -11.556,-25.6 -25.6,-25.6c-6.503,-0 -12.767,2.477 -17.51,6.924c-52.268,44.774 -108.659,84.644 -164.764,124.461c-63.884,45.387 -128.413,89.844 -191.791,135.971c-31.181,22.694 -62.119,45.778 -92.042,70.131c-9.745,9.883 -9.745,25.992 -0,35.874c9.975,9.535 25.899,9.535 35.874,0c114.398,-93.099 240.645,-171.919 359.028,-260.03c30.473,-22.683 60.713,-45.81 89.569,-70.533l-42.396,-24.68c-6.574,39.573 -20.157,78.946 -21.277,119.281c-1.796,16.121 3.522,32.249 14.555,44.14c18.423,16.753 43.801,6.638 64.709,1.226c101.896,-24.835 198.592,-67.525 285.598,-126.088c46.654,-31.874 88.409,-70.384 123.943,-114.314c9.437,-10.021 9.437,-25.863 -0,-35.884c-9.883,-9.745 -25.992,-9.745 -35.874,-0l-0.011,-0Z" style="fill:#211715;fill-rule:nonzero;"/><path d="M2943.81,25.368c-1.31,23.254 -2.49,46.486 -3.54,69.698c0.097,13.879 11.488,25.27 25.367,25.367c13.805,-0.289 25.078,-11.563 25.368,-25.367c1.057,-23.254 2.237,-46.487 3.541,-69.698c-0.08,-13.886 -11.482,-25.288 -25.368,-25.368c-13.8,0.3 -25.067,11.567 -25.368,25.368Z" style="fill:#211715;fill-rule:nonzero;"/><path d="M3104.42,148.845c14.347,-17.017 27.954,-34.634 40.821,-52.849c2.276,-3.888 3.476,-8.312 3.476,-12.817c0,-13.917 -11.451,-25.368 -25.368,-25.368c-2.282,0 -4.553,0.308 -6.752,0.915l-6.068,2.558c-3.76,2.207 -6.894,5.34 -9.1,9.101c-5.793,8.209 -11.761,16.313 -17.906,24.311l3.964,-5.137c-6.152,7.948 -12.465,15.767 -18.941,23.454c-4.6,4.869 -7.237,11.273 -7.399,17.969c0.028,6.723 2.685,13.176 7.399,17.969c4.776,4.74 11.24,7.402 17.969,7.399c6.74,0.064 13.227,-2.607 17.968,-7.399l-0.063,-0.106Z" style="fill:#211715;fill-rule:nonzero;"/><path d="M3181.81,258.656c16.817,-8.34 33.824,-16.32 51.126,-23.645l-6.056,2.558c4.404,-1.86 8.84,-3.671 13.307,-5.433c6.275,-1.946 11.652,-6.071 15.158,-11.627c2.272,-3.885 3.47,-8.306 3.47,-12.808c0,-9.005 -4.795,-17.361 -12.571,-21.903c-5.874,-3.527 -12.96,-4.455 -19.544,-2.558c-23.972,9.439 -47.427,20.199 -70.501,31.646c-5.683,3.364 -9.851,8.797 -11.627,15.157c-1.754,6.595 -0.834,13.623 2.558,19.544c3.358,5.688 8.794,9.858 15.157,11.627c6.612,1.538 13.561,0.629 19.555,-2.558l-0.032,-0Z" style="fill:#211715;fill-rule:nonzero;"/><path d="M2359.41,2778.83c-14.48,46.286 32.291,134.322 56.317,155.166c35.535,33.852 82.855,52.629 131.933,52.353c51.677,0.972 113.098,-11.86 149.807,-54.33c30.865,-35.736 45.99,-60.554 53.104,-125.359c3.297,-30.039 -8.9,-125.221 -34.405,-171.75" style="fill:#fff;fill-rule:nonzero;"/><path d="M2318.61,1593.31c-2.825,-1.855 -6.134,-2.837 -9.513,-2.822c-210.817,0 -685.056,148.888 -884.912,310.575c-189.201,-161.476 -760.472,-303.736 -896.919,-303.736c-0.16,-0.007 -0.319,-0.011 -0.479,-0.011c-5.848,0 -10.694,4.735 -10.831,10.581c-0.127,16.203 -0.455,69.507 -0.529,104.504c199.983,15.792 742.483,119.736 886.963,216.567c13.348,8.079 29.988,8.633 43.844,1.459c150.304,-89.845 659.72,-202.942 879.193,-218.153l0,-106.417c0.029,-5.069 -2.548,-9.813 -6.817,-12.547Z" style="fill:#fff;fill-rule:nonzero;"/><path d="M491.564,2778.83c14.48,46.286 -32.291,134.322 -56.317,155.166c-35.531,33.852 -82.848,52.63 -131.923,52.353c-51.686,0.972 -113.098,-11.86 -149.807,-54.33c-30.864,-35.736 -46,-60.554 -53.114,-125.359c-3.297,-30.039 8.9,-125.221 34.405,-171.75" style="fill:#fff;fill-rule:nonzero;"/><path d="M467.105,2785.53c2.034,7.628 2.491,15.592 1.342,23.402c-1.827,12.186 -4.963,24.139 -9.354,35.652c-7.386,20.488 -17.44,39.914 -29.902,57.775c-1.412,2.432 -3.12,4.679 -5.084,6.691c-2.141,2.44 -4.41,4.765 -6.797,6.966c-10.496,9.435 -22.007,17.677 -34.32,24.575c-22.448,12.48 -47.576,19.37 -73.25,20.082c-51.232,2.188 -105.794,-8.847 -140.516,-49.287c-28.347,-32.187 -43.99,-73.643 -43.971,-116.533c0.323,-24.194 3.01,-48.299 8.023,-71.971c4.145,-26.071 12.041,-51.406 23.444,-75.215c15.358,-28.803 -28.423,-54.456 -43.802,-25.611c-26.129,48.96 -36.477,110.477 -38.284,165.493c-1.637,54.29 16.226,107.411 50.334,149.68c42.153,52.617 104.98,74.053 171.084,74.487c32.926,0.668 65.612,-5.767 95.827,-18.868c26.498,-11.342 50.227,-28.291 69.55,-49.678c18.932,-23.601 33.849,-50.16 44.15,-78.609c11.109,-28.676 19.111,-62.182 10.443,-92.55c-8.942,-31.35 -57.912,-17.968 -48.917,13.488l-0,0.031Z" style="fill:#211715;fill-rule:nonzero;"/><path d="M2334.95,2772.04c-6.058,27.645 -3.664,56.484 6.87,82.752c8.614,25.943 20.78,50.569 36.149,73.175c34.405,49.436 93.893,77.816 152.883,82.847c63.42,5.412 137.187,-9.587 181.95,-57.997c38.745,-41.208 61.319,-95.064 63.536,-151.583c0.412,-28.438 -2.386,-56.832 -8.34,-84.644c-5.035,-32.86 -15.111,-64.748 -29.87,-94.537c-15.369,-28.813 -59.192,-3.171 -43.812,25.611c20.769,38.94 28.781,90.077 31.107,134.565c2.903,41.625 -8.917,82.974 -33.38,116.777c-14.49,20.359 -34.076,36.559 -56.792,46.972c-23.184,9.414 -47.913,14.449 -72.932,14.851c-50.123,1.659 -101.006,-13.329 -135.422,-51.792c-13.656,-17.6 -24.627,-37.127 -32.555,-57.945c-4.835,-12.101 -8.512,-24.633 -10.982,-37.428c-1.962,-9.3 -1.782,-18.927 0.528,-28.147c8.974,-31.456 -39.964,-44.891 -48.917,-13.487l-0.021,0.01Z" style="fill:#211715;fill-rule:nonzero;"/><path d="M1402.36,1928.91c-154.246,-103.384 -762.089,-214.854 -922.604,-218.533c-0.169,-0.004 -0.338,-0.006 -0.507,-0.006c-11.404,0 -20.789,9.383 -20.791,20.787c-0.36,191.125 -3.573,1123.32 -4.672,1308.38c0.087,10.644 8.249,19.625 18.835,20.728c150.695,12.557 786.179,177.098 929.982,243.636c14.084,5.58 29.791,5.523 43.834,-0.159c143.401,-67.531 774.583,-235.317 931.461,-243.668c10.787,-0.775 19.258,-9.849 19.29,-20.664c-1.057,-185.438 -4.302,-1118.02 -4.672,-1308.55c0.006,-11.153 -9.141,-20.348 -20.294,-20.4c-182.383,-1.311 -763.675,122.78 -926.018,219.854c-13.847,7.19 -30.486,6.657 -43.844,-1.406Z" style="fill:#0998b7;fill-rule:nonzero;"/><path d="M540.745,1701.56c0,-28.824 0.381,-57.637 0.529,-86.462c0.238,-2.011 0.238,-4.044 -0,-6.056c3.72,12.948 -21.32,12.06 -9.027,13.741c4.101,0.549 8.456,0.296 12.599,0.56c10.74,0.687 21.447,1.797 32.122,3.097l7.664,0.972c-6.755,-0.877 2.663,0.381 4.228,0.613c6.757,0.966 13.504,1.995 20.241,3.087c14.565,2.346 29.088,4.904 43.569,7.674c33.242,6.342 66.316,13.487 99.251,21.203c157.548,35.253 311.549,84.813 460.087,148.063c37.64,16.294 74.432,34.484 110.233,54.498c16.172,9.154 32.08,18.815 47.491,29.194c12.71,8.313 24.879,17.425 36.434,27.281c10.054,9.362 25.831,9.362 35.885,0c54.23,-41.395 112.657,-76.982 174.319,-106.174c72.216,-35.362 146.503,-66.328 222.454,-92.73c76.721,-27.215 154.816,-50.388 233.965,-69.423c63.835,-16.246 128.873,-27.335 194.486,-33.158c7.751,-0.585 15.527,-1.022 23.327,-1.311c3.499,-0.126 6.987,-0.222 10.486,-0.274c1.501,-0 3.033,0.074 4.534,-0.064c6.067,-0.528 0.867,0.973 -0.401,-0.972c-4.376,-6.628 -5.285,-12.832 -5.285,-3.605l-0,90.278c-0,32.64 50.735,32.703 50.735,-0l0,-66.992c0,-9.344 0.486,-18.836 0,-28.179c-0.553,-22.8 -19.46,-41.254 -42.267,-41.254c-0.54,-0 -1.08,0.01 -1.619,0.031c-65.893,-1.406 -133.773,12.007 -197.943,25.484c-167.155,35.354 -329.7,89.782 -484.439,162.216c-77.697,34.542 -150.967,78.287 -218.237,130.295l35.885,0c-53.906,-45.746 -117.431,-79.274 -181.411,-108.574c-78.978,-35.654 -159.96,-66.69 -242.537,-92.951c-142.503,-46.244 -290.27,-87.139 -439.274,-105.699c-29.068,-3.615 -79.275,-14.227 -87.413,25.188c-2.009,17.164 -2.402,34.48 -1.174,51.718c-0.105,16.246 -0.264,32.503 -0.285,48.749c0,32.65 50.736,32.692 50.736,-0l0.052,-0.064Z" style="fill:#211715;fill-rule:nonzero;"/><path d="M1415.16,1907.01c-39.306,-24.11 -81.37,-43.405 -125.285,-57.468c-58.134,-20.844 -117.696,-37.84 -177.468,-53.389c-131.997,-34.341 -266.023,-61.622 -400.599,-83.502c-54.89,-8.932 -109.991,-17.028 -165.303,-22.778c-19.026,-1.987 -38.189,-3.71 -57.342,-4.524c-16.423,-2.191 -32.946,3.546 -44.478,15.443c-8.94,11.596 -13.103,26.189 -11.627,40.757c-0.176,85.109 -0.419,170.218 -0.729,255.327c-0.402,126.035 -0.825,252.063 -1.268,378.085c-0.444,126.951 -0.909,253.906 -1.396,380.865c-0.352,87.885 -0.733,175.777 -1.141,263.677c-0,6.141 -0.296,12.335 -0.106,18.476c-0.286,22.446 15.484,42.142 37.449,46.771c8.837,1.766 18.244,2.062 27.207,3.171c4.281,0.518 -5.982,-0.887 1.057,0.148l5.75,0.825c4.933,0.74 9.887,1.511 14.861,2.315c48.453,7.853 96.546,18.032 144.47,28.602c127.621,28.158 254.396,60.375 380.421,94.928c106.883,29.3 214.749,58.737 318.471,98.089c4.038,1.536 8.061,3.097 12.071,4.682c2.008,0.789 4.009,1.593 6.003,2.41c1.153,0.465 7.96,3.319 4.028,1.649c-3.436,-1.459 5.285,2.336 7.229,3.171c9.212,4.355 19.086,7.141 29.216,8.245c17.298,1.021 34.554,-2.669 49.921,-10.676l4.619,-2.019c0.92,-0.412 1.839,-0.793 2.759,-1.184c3.012,-1.31 -4.883,2.019 -1.786,0.751c4.09,-1.66 8.17,-3.34 12.271,-4.968c43.865,-17.366 88.851,-31.974 133.826,-46.148c124.608,-39.278 250.802,-73.746 377.483,-105.699c110.719,-27.884 222.464,-55.714 335.499,-72.573c2.177,-0.317 4.354,-0.645 6.542,-0.951c2.505,-0.36 8.16,-1.057 2.22,-0.328c4.471,-0.581 8.942,-1.152 13.424,-1.66c7.716,-0.866 15.453,-1.363 23.18,-2.05c24.308,-0.706 44.303,-20.068 45.788,-44.341c0.413,-6.606 0.074,-13.297 0,-19.914c-0.19,-36.191 -0.359,-72.386 -0.507,-108.584c-0.486,-112.041 -0.927,-224.082 -1.321,-336.123c-0.479,-131.01 -0.937,-262.028 -1.374,-393.052c-0.367,-111.174 -0.719,-222.345 -1.057,-333.512c-0.092,-35.444 -0.183,-70.889 -0.275,-106.333c1.065,-11.954 -0.918,-23.985 -5.761,-34.965c-9.92,-16.324 -28.423,-25.528 -47.427,-23.592c-21.14,0.222 -42.279,1.722 -63.419,3.657c-127.779,13.385 -254.583,34.846 -379.65,64.254c-129.143,28.634 -258.962,60.872 -382.968,107.581c-23.148,8.72 -46.138,18.064 -68.546,28.538c-9.122,4.281 -18.149,8.773 -26.974,13.635c-9.45,5.201 -17.398,10.57 -28.063,4.228c-28.127,-16.742 -53.674,27.102 -25.611,43.802c19.256,11.435 42.855,13.027 63.472,4.281c9.714,-4.281 18.761,-10.211 28.253,-15.02c19.237,-9.75 38.998,-18.431 59.192,-26.002c55.502,-21.594 112.516,-39.288 169.763,-55.608c132.722,-37.546 267.271,-68.302 403.125,-92.148c58.367,-10.37 112.897,-19.026 169.182,-24.914c22.26,-2.346 44.573,-4.281 66.939,-5.126c4.51,-0.176 9.027,-0.3 13.551,-0.37c1.978,0.127 3.962,0.127 5.94,-0c-0.254,-0 3.266,-0 3.277,-0c-0.592,1.913 -4.725,-3.171 -4.387,-3.044c-2.294,-0.645 0.243,-3.044 -0.676,0.264c-0.175,1.514 -0.175,3.042 -0,4.556l-0,9.872c0.19,85.158 0.433,170.316 0.729,255.474c0.395,123.795 0.81,247.586 1.247,371.374c0.43,125.19 0.888,250.383 1.374,375.58c0.346,87.772 0.723,175.545 1.131,263.317c0,6.518 0.035,13.043 0.106,19.576c-0.095,1.298 -0.095,2.602 -0,3.9c0.75,4.429 -1.057,0.729 0.888,-0.138c5.285,-2.367 2.262,-1.754 -2.769,-1.363c-19.026,1.48 -38.052,4.175 -56.951,7.071c-49.552,7.611 -98.723,17.8 -147.683,28.539c-126.775,27.735 -252.62,60.09 -377.567,94.981c-104.441,29.162 -209.823,58.642 -311.019,97.898c-9.513,3.7 -18.963,7.576 -28.349,11.627c-3.308,1.427 -6.627,2.844 -9.904,4.345c-1.057,0.507 -5.94,2.314 -1.913,0.961c-3.854,1.365 -7.908,2.08 -11.997,2.114c-4.087,0.023 -8.15,-0.642 -12.018,-1.966c3.235,1.057 0.254,0 -1.289,-0.613c-5.084,-2.114 -10.094,-4.386 -15.179,-6.511c-7.814,-3.269 -15.685,-6.405 -23.613,-9.407c-44.066,-16.774 -89.093,-31.065 -134.153,-44.911c-122.198,-37.587 -245.803,-70.819 -369.788,-101.968c-108.7,-27.408 -218.205,-54.34 -328.871,-73.25c-18.762,-3.171 -37.598,-6.109 -56.518,-8.202c-1.31,-0.148 -8.212,-1.733 -9.132,-0.909c4.714,-4.228 4.756,10.2 5.348,0.222c0.391,-6.543 0.074,-13.202 0.106,-19.744c0.19,-36.305 0.359,-72.595 0.507,-108.87c0.472,-110.343 0.902,-220.675 1.29,-330.997c0.472,-129.474 0.926,-258.938 1.363,-388.391c0.367,-109.764 0.719,-219.533 1.057,-329.305c0.106,-35.811 0.201,-71.621 0.286,-107.432c-0,-3.171 1.997,-16.553 -0,-18.751c3.477,3.9 -9.682,2.547 0.148,4.154c4.042,0.397 8.104,0.577 12.166,0.539c19.681,1.057 39.309,2.959 58.906,5.095c11.894,1.303 23.775,2.712 35.641,4.227l8.551,1.057c1.057,0.127 10.021,1.322 5.772,0.751c6.912,0.93 13.818,1.888 20.717,2.875c29.151,4.157 58.25,8.667 87.296,13.529c64.984,10.803 129.721,22.965 194.212,36.488c125.19,26.171 251.119,55.407 371.584,98.881c11.68,4.228 23.254,8.593 34.807,13.223c2.896,1.163 5.789,2.343 8.678,3.541c4.059,1.681 -2.114,-0.962 3.372,1.437c4.999,2.178 9.999,4.366 14.946,6.649c16.97,7.599 33.328,16.497 48.928,26.615c27.302,18.127 52.743,-25.791 25.642,-43.802Z" style="fill:#211715;fill-rule:nonzero;"/><path d="M1401.52,2024.39c-0,132.642 -0.561,265.304 -0.941,397.914c-0.529,181.986 -1.029,363.968 -1.501,545.946c-0.169,73.334 -0.282,146.672 -0.338,220.012c-0,32.64 50.735,32.693 50.735,0c0,-150.797 0.314,-301.594 0.941,-452.391c0.486,-176.87 0.983,-353.739 1.49,-530.609c0.155,-60.312 0.272,-120.62 0.349,-180.925c0,-32.65 -50.735,-32.703 -50.735,0l-0,0.053Z" style="fill:#211715;fill-rule:nonzero;"/><path d="M211.409,2379.19c15.187,-20.836 33.767,-38.973 54.963,-53.653c34.954,-25.045 76.549,-39.196 119.524,-40.662c29.708,-1.421 59.302,4.638 86.06,17.62c18.269,9.208 34.713,21.661 48.527,36.751c10.875,10.783 18.746,24.222 22.831,38.982c3.94,15.053 -0.648,31.114 -11.944,41.814c-4.318,3.465 -9.46,5.752 -14.925,6.638c8.985,6.828 15.622,11.902 15.622,11.902c14.46,11.067 31.087,30.653 33.518,47.015c3.41,15.95 0.026,32.621 -9.334,45.979c-7.986,10.751 -20.116,17.688 -33.432,19.121c10.887,10.115 20.083,18.656 20.083,18.656c18.604,19.397 21.667,49.193 7.399,71.97c-8.844,13.533 -23.551,22.152 -39.68,23.254l5.201,18.783c2.114,7.695 17.736,58.219 -12.79,88.29c-20.883,18.686 -47.434,29.853 -75.395,31.71c-27.69,2.831 -55.602,2.728 -83.27,-0.307c-28.2,-2.949 -57.606,-4.048 -83.407,-13.667c-24.903,-9.202 -46.556,-25.534 -62.246,-46.951c-16.307,-22.401 -28.248,-47.675 -35.198,-74.497c-4.58,-21.816 -7.757,-43.903 -9.513,-66.125c-1.342,-46.613 -3.921,-113.944 34.067,-184.72c6.857,-13.18 14.657,-25.847 23.339,-37.903Z" style="fill:#fff;fill-rule:nonzero;"/><path d="M326.081,2439.28c47.671,2.557 95.034,9.132 142.631,12.683c22.439,1.66 48.431,4.577 69.084,-6.003c29.29,-14.999 38.147,-52.998 27.577,-82.361c-21.425,-59.508 -89.062,-96.049 -148.634,-102.834c-50.105,-5.2 -100.593,5.58 -144.205,30.79c-94.431,53.959 -141.996,160.461 -144.406,266.15c-1.215,52.416 2.727,108.764 25.051,156.846c22.799,49.14 60.502,89.157 114.155,103.437c37.174,8.635 75.231,12.892 113.394,12.684c36.911,2.401 73.875,-3.899 107.908,-18.391c30.325,-13.327 51.828,-41.264 56.95,-73.99c2.516,-20.717 0.691,-41.733 -5.359,-61.707c-8.825,-31.392 -57.785,-18.053 -48.928,13.488c3.872,11.324 5.53,23.289 4.884,35.24c-0.893,17.525 -11.598,33.125 -27.63,40.26c-22.576,10.453 -47.326,15.361 -72.182,14.312c-29.295,0.099 -58.563,-1.825 -87.593,-5.761c-23.926,-1.756 -46.96,-9.849 -66.727,-23.444c-14.533,-11.372 -26.451,-25.738 -34.944,-42.121c-21.14,-37.385 -27.292,-80.225 -28.201,-122.737c-2.804,-46.936 4.708,-93.92 22.007,-137.642c15.328,-37.117 39.596,-69.875 70.638,-95.351c62.468,-48.769 159.606,-62.901 221.45,-5.285c9.376,8.731 38.549,37.788 22.821,52.3c-5.455,5.042 -18.17,2.643 -25.041,2.484c-8.889,-0.222 -17.768,-0.877 -26.625,-1.585c-46.053,-3.636 -91.958,-9.841 -138.064,-12.314c-32.629,-1.755 -32.534,48.981 -0,50.735l-0.011,0.117Z" style="fill:#211715;fill-rule:nonzero;"/><path d="M514.12,2456.54c12.108,7.987 21.42,19.566 26.625,33.105c3.711,12.929 -1.768,26.843 -13.297,33.771c-14.914,6.818 -38.051,0.676 -53.716,-1.057c-54.139,-5.824 -108.384,-12.684 -162.776,-15.643c-32.629,-1.787 -32.524,48.949 -0,50.735c49.52,2.706 98.923,8.762 148.221,14.079c16.151,1.744 32.376,4.07 48.622,5.053c35.267,3.075 68.38,-18.359 80.014,-51.793c14.143,-39.69 -6.828,-79.602 -37.787,-104.198c-10.022,-9.438 -25.864,-9.438 -35.885,0c-9.739,9.885 -9.739,25.989 -0,35.874l-0.021,0.074Z" style="fill:#211715;fill-rule:nonzero;"/><path d="M524.933,2587.31c14.005,14.079 11.5,42.512 -8.033,50.556c-11.618,3.549 -23.926,4.228 -35.864,1.976c-13.868,-1.405 -27.725,-2.885 -41.593,-4.291c-48.367,-4.894 -96.883,-10.57 -145.441,-13.202c-32.63,-1.754 -32.534,48.992 -0,50.736c59.191,3.171 118.383,10.316 177.267,16.468c37.09,3.879 75.66,1.162 98.85,-32.334c22.031,-32.957 18.138,-77.182 -9.312,-105.783c-23.063,-23.18 -58.948,12.684 -35.874,35.874Z" style="fill:#211715;fill-rule:nonzero;"/><path d="M2639.57,2379.19c-15.188,-20.836 -33.768,-38.973 -54.964,-53.653c-34.951,-25.043 -76.542,-39.194 -119.514,-40.662c-29.711,-1.422 -59.308,4.637 -86.07,17.62c-18.269,9.208 -34.713,21.661 -48.527,36.751c-10.897,10.782 -18.788,24.23 -22.884,39.003c-3.94,15.053 0.648,31.114 11.944,41.815c4.32,3.46 9.462,5.747 14.925,6.637c-8.984,6.829 -15.612,11.902 -15.612,11.902c-14.47,11.067 -31.096,30.653 -33.527,47.015c-3.406,15.95 -0.022,32.619 9.333,45.979c7.987,10.751 20.116,17.688 33.432,19.121c-10.887,10.115 -20.082,18.656 -20.082,18.656c-18.612,19.394 -21.676,49.196 -7.399,71.97c8.84,13.531 23.543,22.151 39.668,23.254l-5.2,18.783c-2.114,7.695 -17.736,58.219 12.79,88.29c20.886,18.689 47.44,29.856 75.405,31.71c27.687,2.831 55.595,2.728 83.259,-0.307c28.201,-2.949 57.617,-4.048 83.407,-13.667c24.906,-9.199 46.559,-25.531 62.247,-46.951c16.306,-22.401 28.247,-47.675 35.197,-74.497c4.58,-21.816 7.758,-43.903 9.513,-66.125c1.343,-46.613 3.922,-113.943 -34.067,-184.719c-6.827,-13.19 -14.606,-25.865 -23.274,-37.925Z" style="fill:#fff;fill-rule:nonzero;"/><path d="M2524.86,2388.54c-34.105,0.821 -68.13,3.68 -101.894,8.562c-17.588,1.818 -35.198,3.72 -52.849,4.83c-11.109,0.698 -33.93,5.919 -37.65,-7.61c-5.666,-20.569 19.924,-42.914 33.823,-53.907c19.592,-15.373 42.889,-25.323 67.542,-28.845c39.812,-5.267 80.283,2.374 115.434,21.795c74.803,41.043 116.882,123.774 122.146,207.17c4.862,77.16 -3.171,187.087 -84.168,222.845c-27.799,12.272 -61.137,12.811 -90.954,15.242c-31.696,3.966 -63.848,2.176 -94.907,-5.285c-21.193,-6.225 -42.28,-18.465 -46.075,-41.814c-1.936,-13.929 -0.438,-28.122 4.366,-41.339c8.847,-31.488 -40.092,-44.922 -48.918,-13.487c-13.328,47.416 -6.934,96.186 35.557,126.225c54.9,38.855 133.181,29.184 195.892,22.049c32.867,-2.048 64.663,-12.506 92.328,-30.367c21.041,-15.234 38.582,-34.794 51.444,-57.363c28.031,-48.093 36.191,-103.035 36.995,-158.062c2.385,-61.282 -11.087,-122.155 -39.109,-176.708c-22.194,-42.469 -54.961,-78.513 -95.129,-104.642c-41.938,-26.934 -91.195,-40.257 -140.992,-38.136c-60.597,2.864 -127.018,34.616 -156.202,90.352c-16.669,31.847 -13.741,77.826 21.658,95.964c21.605,11.077 49.044,7.557 72.478,5.528c46.042,-3.975 92.93,-13.012 139.226,-12.198c32.661,0.56 32.672,-50.175 0,-50.736l-0.042,-0.063Z" style="fill:#211715;fill-rule:nonzero;"/><path d="M2300.98,2420.66c-35.399,28.116 -54.784,74.444 -32.238,116.945c17.673,33.338 52.627,40.99 87.244,37.946c58.969,-5.19 117.939,-11.479 177.067,-14.671c32.47,-1.754 32.682,-52.5 -0,-50.735c-52.85,2.854 -105.52,8.213 -158.189,12.98c-14.904,1.342 -37.28,6.817 -51.338,0.285c-11.531,-6.926 -17.007,-20.845 -13.287,-33.771c5.198,-13.541 14.507,-25.12 26.615,-33.105c9.761,-9.875 9.761,-25.999 0,-35.874c-9.982,-9.519 -25.892,-9.519 -35.874,-0Z" style="fill:#211715;fill-rule:nonzero;"/><path d="M2290.18,2551.44c-27.452,28.595 -31.35,72.817 -9.323,105.773c22.937,32.957 62.362,35.187 99.008,33.062c59.244,-3.445 117.929,-13.878 177.109,-17.186c32.471,-1.818 32.683,-52.564 0,-50.736c-48.463,2.706 -96.704,10.686 -145.071,14.798c-13.414,1.152 -26.848,2.167 -40.293,2.791c-12.535,1.602 -25.264,0.682 -37.438,-2.706c-19.597,-7.399 -22.197,-35.843 -8.118,-49.954c23.053,-23.169 -12.8,-59.064 -35.874,-35.874l-0,0.032Z" style="fill:#211715;fill-rule:nonzero;"/><path d="M1422.1,1449.94c5.172,18.675 9.315,37.621 12.409,56.75l-0.909,-6.744c0.366,2.595 0.437,5.222 0.212,7.833l0.909,-6.744c-0.178,1.198 -0.468,2.377 -0.867,3.52l2.558,-6.057c-0.341,0.791 -0.755,1.549 -1.237,2.262l3.964,-5.126c-0.553,0.674 -1.177,1.287 -1.861,1.828l5.137,-3.974c-1.44,0.896 -2.941,1.691 -4.492,2.378l6.057,-2.558c-2.423,1.044 -4.965,1.786 -7.568,2.21l6.743,-0.899c-2.362,0.286 -4.751,0.286 -7.113,0l6.743,0.909c-2.684,-0.37 -5.285,-1.057 -7.99,-1.384c-6.612,-1.539 -13.562,-0.63 -19.555,2.557c-7.776,4.543 -12.571,12.899 -12.571,21.904c-0,4.501 1.198,8.923 3.471,12.808c3.255,5.781 8.739,9.985 15.167,11.627c5.772,0.771 11.374,2.251 17.24,2.505c8.678,0.065 17.247,-1.951 24.987,-5.877c9.795,-4.361 17.082,-12.961 19.776,-23.338c1.747,-8.436 1.657,-17.15 -0.264,-25.548c-3.097,-18.286 -7.314,-36.402 -12.018,-54.34c-3.025,-10.973 -13.081,-18.632 -24.464,-18.632c-13.921,-0 -25.376,11.455 -25.376,25.376c-0,2.279 0.307,4.547 0.912,6.744l0,0.01Z" style="fill:#211715;fill-rule:nonzero;"/><path d="M1120.11,1296.84c-9.513,30.79 -3.298,101.64 55.038,107.665c77.16,-0.465 81.208,-86.113 55.259,-126.384c-21.256,-32.989 -83.745,-46.677 -110.297,18.719Z" style="fill:#211715;fill-rule:nonzero;"/><path d="M1724.37,1296.84c9.513,30.801 3.308,101.64 -55.037,107.665c-77.161,-0.465 -81.22,-86.113 -55.26,-126.384c21.256,-32.989 83.745,-46.677 110.297,18.719Z" style="fill:#211715;fill-rule:nonzero;"/><path d="M1536.68,1701.34c7.158,-10.983 13.755,-22.321 19.766,-33.971c7.927,-15.115 18.402,-31.393 8.519,-48.294c-10.834,-18.519 -30.917,-13.9 -48.336,-12.621c-37.322,2.738 -74.761,4.144 -112.157,5.465c-19.343,0.705 -38.689,1.286 -58.039,1.744c-19.491,0.454 -46.392,-3.9 -57.892,15.749c-9.29,15.855 -0.084,30.653 9.513,43.442c8.32,11.139 17.204,21.847 26.615,32.08c18.926,21.081 39.909,40.219 62.638,57.13c26.81,19.075 62.769,19.762 90.288,1.723c23.811,-16.5 43.939,-37.765 59.106,-62.447c2.33,-3.92 3.559,-8.397 3.559,-12.957c0,-13.916 -11.451,-25.367 -25.368,-25.367c-9.068,-0 -17.472,4.862 -21.992,12.724c-14.798,21.806 -45.334,65.237 -75.681,45.503c-16.09,-11.613 -30.964,-24.826 -44.393,-39.436c-7.399,-7.399 -14.587,-15.03 -21.425,-22.968c-3.171,-3.626 -6.205,-7.283 -9.143,-11.067c-2.888,-3.056 -5.528,-6.335 -7.896,-9.809l-0,13.487l0.55,-2.484l-6.522,11.194l1.681,-1.892l-11.194,6.522c-4.323,1.289 -0.56,0.095 1.459,0.095c2.019,-0 4.111,-0 6.162,-0.095c4.179,-0.064 8.354,-0.138 12.525,-0.222c9.598,-0.212 19.202,-0.455 28.814,-0.73c22.323,-0.634 44.644,-1.413 66.96,-2.336c20.548,-0.845 41.096,-1.786 61.633,-3.002c8.044,-0.465 16.077,-0.983 24.1,-1.606c3.414,-0.264 6.817,-0.539 10.221,-0.878c2.04,-0.2 10.21,-0.327 3.615,-1.352l-11.194,-6.533l1.945,1.681l-6.522,-11.194l0.899,2.432l-0,-13.488c-2.859,8.19 -6.768,15.974 -11.627,23.159c-4.672,8.53 -9.608,16.912 -14.967,25.019c-2.329,3.92 -3.559,8.397 -3.559,12.957c0,13.916 11.452,25.368 25.368,25.368c9.068,-0 17.473,-4.863 21.992,-12.725l-0.021,0Z" style="fill:#211715;fill-rule:nonzero;"/><path d="M2811.57,427.859l-73.947,-73.032l-48.759,53.722l128.41,126.805l224.394,-276.845l-54.147,-47.754l-175.951,217.104Z" style="fill:#32c487;fill-rule:nonzero;"/><path d="M2849.95,320.474l-0,-32.227l-220.784,0l-0,312.753l278.663,-0l-0,-71.692l-32.227,0l0,39.465l-214.21,-0l0,-248.299l188.558,-0Z" style="fill:#2d2d2d;fill-rule:nonzero;"/></svg>