<?xml version="1.0" encoding="UTF-8" standalone="no"?><!DOCTYPE svg PUBLIC "-//W3C//DTD SVG 1.1//EN" "http://www.w3.org/Graphics/SVG/1.1/DTD/svg11.dtd"><svg width="100%" height="100%" viewBox="0 0 3608 2846" version="1.1" xmlns="http://www.w3.org/2000/svg" xmlns:xlink="http://www.w3.org/1999/xlink" xml:space="preserve" xmlns:serif="http://www.serif.com/" style="fill-rule:evenodd;clip-rule:evenodd;stroke-linejoin:round;stroke-miterlimit:2;"><path id="e0c7d8b4-4e14-4fb6-99d7-6555cc8950c3" d="M817.333,479.583c0,0 -992.333,506.5 -707.75,1151.79c0,0 187.5,728.583 1332.25,527.333l1679.17,-166.666c0,-0 410.292,-4.959 354.667,-490.5c-19.084,-166.667 -116.667,-313.125 -259.25,-401.375c-78.292,-48.459 -155.167,-119.167 -164.334,-212.875c-0.397,-4.198 -1.023,-8.371 -1.875,-12.5c-14.25,-64.792 -144.458,-559.084 -831.208,-714.584c-0.042,0.167 -575.958,-214.916 -1401.67,319.375Z" style="fill:#0998b7;fill-rule:nonzero;"/><g opacity="0.7"><path id="fe2a4ad0-1df2-498f-b77f-3e4534442276" d="M817.333,479.583c0,0 -992.333,506.5 -707.75,1151.79c0,0 187.5,728.583 1332.25,527.333l1679.17,-166.666c0,-0 410.292,-4.959 354.667,-490.5c-19.084,-166.667 -116.667,-313.125 -259.25,-401.375c-78.292,-48.459 -155.167,-119.167 -164.334,-212.875c-0.397,-4.198 -1.023,-8.371 -1.875,-12.5c-14.25,-64.792 -144.458,-559.084 -831.208,-714.584c-0.042,0.167 -575.958,-214.916 -1401.67,319.375Z" style="fill:#fff;fill-rule:nonzero;"/></g><ellipse cx="1713.42" cy="2596.33" rx="1357.04" ry="122.75" style="fill:#0998b7;fill-opacity:0.35;"/><path d="M1615.75,1657.38l164.5,28.667c16.152,2.795 28.064,16.946 28.064,33.338c0,2.35 -0.245,4.695 -0.731,6.995l-7.125,33.917l-184.708,-0l0,-102.917Z" style="fill:#808080;fill-rule:nonzero;"/><path d="M1607.91,1649.52c-37.189,-37.189 -97.574,-37.189 -134.763,-0l-26.398,26.399c-37.189,37.188 -37.189,97.574 -0,134.762l0.029,0.03c37.189,37.189 97.574,37.189 134.763,-0l26.398,-26.399c37.189,-37.189 37.189,-97.574 0,-134.763l-0.029,-0.029Z" style="fill:#0998b7;"/><path d="M1607.91,1649.52c-37.189,-37.189 -97.574,-37.189 -134.763,-0l-26.398,26.399c-37.189,37.188 -37.189,97.574 -0,134.762l0.029,0.03c37.189,37.189 97.574,37.189 134.763,-0l26.398,-26.399c37.189,-37.189 37.189,-97.574 0,-134.763l-0.029,-0.029Z" style="fill:#ff9d8a;fill-opacity:0.5;"/><path d="M1436.71,1703.75l0,80.042l156.709,-0l-0,-53.667l-156.709,-26.375Z" style="fill:#fff;fill-opacity:0.5;fill-rule:nonzero;"/><path d="M2583.33,2554.17c0,-0 40.167,29.416 114.334,-17.667c-0,0 61.083,-21.792 67.166,-73.25c0,0 0.875,-47.125 10.459,-71.542c-0,0 49.75,-77.666 -14.834,-98.583l-68.041,-6.125l-4.167,219.875l-104.917,47.292Z" style="fill:#e6e7e8;fill-rule:nonzero;"/><path d="M2727.08,2129.17c0,-0 5.542,51.416 -44.125,99.333l-62.5,-72.208l106.625,-27.125Z" style="fill:#2f2e41;fill-rule:nonzero;"/><path d="M2727.08,2129.17c0,-0 5.542,51.416 -44.125,99.333l-62.5,-72.208l106.625,-27.125Z" style="fill-opacity:0.3;fill-rule:nonzero;"/><path d="M2569.75,2273.5l60.042,75.833c8.142,-47.121 44.467,-84.672 91.291,-94.375c-26.455,-26.56 -49.265,-56.517 -67.833,-89.083l-61.583,-57.958c-0,-0 -50.75,97.791 -21.917,165.583Z" style="fill:#f9b499;fill-rule:nonzero;"/><path d="M1829.67,1895l254.375,789.333l16.958,-8.625c34.821,-17.673 51.939,-58.324 40.25,-95.583l-197.167,-629.167c-11.352,-36.479 -45.343,-61.5 -83.548,-61.5c-10.544,-0 -21.002,1.905 -30.868,5.625l-0,-0.083Z" style="fill:#d1d3d4;fill-rule:nonzero;"/><path d="M2207.46,2408.33c0,0 40.209,54.542 238,-95.833l-36,-113.375l-202,152.167l0,57.041Z" style="fill:#2f2e41;fill-rule:nonzero;"/><path d="M2207.46,2408.33c0,0 40.209,54.542 238,-95.833l-36,-113.375l-202,152.167l0,57.041Z" style="fill-opacity:0.3;fill-rule:nonzero;"/><path d="M2204.17,445.833l-0,816.084c-0,34.286 -28.214,62.5 -62.5,62.5l-1147.21,-0c-34.286,-0 -62.5,-28.214 -62.5,-62.5l0,-816.084c0,-34.286 28.214,-62.5 62.5,-62.5l1147.21,0c34.286,0 62.5,28.214 62.5,62.5Z" style="fill:#0998b7;fill-rule:nonzero;"/><path d="M2204.17,445.833l-0,816.084c-0,34.286 -28.214,62.5 -62.5,62.5l-1147.21,-0c-34.286,-0 -62.5,-28.214 -62.5,-62.5l0,-816.084c0,-34.286 28.214,-62.5 62.5,-62.5l1147.21,0c34.286,0 62.5,28.214 62.5,62.5Z" style="fill:#fff;fill-opacity:0.5;fill-rule:nonzero;"/><path d="M2727.08,2129.17c-22.625,29.791 -102.458,42.875 -102.458,42.875c-58.333,16.666 -54.875,101.333 -54.875,101.333l-166.667,-199.083c-53.791,-46.334 -73.916,-181.042 -73.916,-181.042c3.583,187.167 132.25,410.042 132.25,410.042c-22.584,22.625 -104.875,13.083 -110.834,13.083c-96.5,0 -143,91.667 -143,91.667c-153.75,-387.917 -67.041,-795.334 -67.041,-795.334l75.416,-15.333l92.792,-22.375l85.792,0l7.125,16.667c30.541,42.458 53.916,137.791 64.833,188.916c9.111,43.821 26.339,85.554 50.792,123.042c75.916,115.292 209.791,225.542 209.791,225.542Z" style="fill:#2f2e41;fill-rule:nonzero;"/><path d="M2329.17,1893.29l-14.25,-69.417c-0,-0 42.291,-47.292 28.833,-148.042c0,0 32.792,61.084 4.5,167.75c-1.207,4.535 -1.671,9.234 -1.375,13.917c2.167,29.167 11,140.75 24.208,173.333c-0.25,0 -28.208,-52.166 -41.916,-137.541Z" style="fill-opacity:0.2;fill-rule:nonzero;"/><path d="M2461.29,2303.29c-22.584,22.625 -104.875,13.083 -110.834,13.083c-96.5,0 -143,91.667 -143,91.667c-153.75,-387.917 -67.041,-795.334 -67.041,-795.334c-0,0 -8.042,301.959 34.875,368.084l62.5,-0l-69.709,39.333l20.834,10.625c-0,0 -72.542,66.25 9.666,280.792c0,-0 10.75,25 80.459,-14.334c0.125,0.084 126.875,-45.208 182.25,6.084Z" style="fill-opacity:0.2;fill-rule:nonzero;"/><path d="M2508.67,1436.5c-12.125,0 -23.209,13.292 -29.959,23.417c-3.791,5.791 -6.25,10.625 -6.625,11.333c-3.936,9.479 -9.273,18.314 -15.833,26.208l-0.5,0.5c-6.118,7.707 -13.971,13.86 -22.917,17.959l17.875,68.833c-7.875,5.042 -36.208,6.583 -56.166,7c-10.796,0.31 -21.549,-1.473 -31.667,-5.25c-14.899,-6.164 -31.936,-4.473 -45.333,4.5c-83.125,79.583 -126.917,41.083 -126.917,41.083c-19.315,-10.227 -40.02,-17.583 -61.458,-21.833c-3.51,-0.663 -6.075,-3.758 -6.075,-7.329c0,-0.577 0.067,-1.151 0.2,-1.713l28.583,-123.583c-28.417,11.667 -49.25,3.125 -63.958,-11.083c-21.25,-20.709 -29.584,-53.292 -29.584,-53.292c-3.625,-56.292 39.667,-69.708 39.667,-69.708l0.5,-48.25c-7.125,-101.917 58.125,-107.25 58.125,-107.25c27.846,-1.658 54.568,-11.615 76.708,-28.584l70.834,-9.875l155.541,165.375l48.959,121.542Z" style="fill:#0998b7;fill-rule:nonzero;"/><path d="M2487.5,1448.5c0,0 34.125,70.458 -45.375,104.167l-9.542,-36.709c17.853,-9.953 31.757,-25.741 39.375,-44.708c4.021,-8.314 9.259,-15.982 15.542,-22.75Z" style="fill:#f9b499;fill-rule:nonzero;"/><path d="M1933.96,1250.58c0,0 17.542,10.75 30.834,6.709l-4.167,-6.709c-0,0 -23.125,-25 -26.667,0Z" style="fill:#f7a48b;fill-rule:nonzero;"/><path d="M2258.33,2479.67l-36.666,-93.417c-0,0 48.375,-69.583 119.666,-69.583c0,-0 19,79.875 33.334,105.791c-0.042,0 -84.959,0 -116.334,57.209Z" style="fill:#f9b499;fill-rule:nonzero;"/><path d="M2133.33,2640.54c0,-0 -11.625,18.791 34.834,27.708c-0,0 89.375,18.792 126.041,-40.208l32.292,-64.375c0,-0 28.5,-99.209 76.75,-88.459l-8.917,-9.833l-46.541,-19.542l-103.667,171.625l-110.792,23.084Z" style="fill:#2f2e41;fill-rule:nonzero;"/><path d="M2141.67,2659.42c-0,-0 24.541,41.041 130.916,17.791c0,0 65.792,0 89.334,-72.583c3.278,-11.055 8.971,-21.246 16.666,-29.833c2.546,-2.759 5.335,-5.283 8.334,-7.542c2.998,-2.259 64.375,-55.417 16.083,-92.042c0,0 -13.542,-9.25 -39.958,5.459c-21.637,12.419 -37.783,32.587 -45.167,56.416l-13.208,41.25c-0,0 -36.375,107.959 -163,81.084Z" style="fill:#e6e7e8;fill-rule:nonzero;"/><path d="M2569.46,2540.75c0,0 0,14.833 23.542,13.958c0,0 141.667,2.875 128.083,-146.583c0,0 -7.666,-103.792 39.417,-115.125l-6.958,-6.125c-0,0 -68.584,10.167 -62.5,137.292c0.277,5.235 0.012,10.485 -0.792,15.666c-3.625,22.125 -18.542,75 -79.167,89.042c0.084,0 -34.666,4.917 -41.625,11.875Z" style="fill:#2f2e41;fill-rule:nonzero;"/><path d="M2204.17,445.833l-0,35.042l-1272.33,0l0,-35.042c0,-34.286 28.214,-62.5 62.5,-62.5l1147.33,0c34.286,0 62.5,28.214 62.5,62.5Z" style="fill:#0998b7;fill-rule:nonzero;"/><circle cx="1998.04" cy="432.208" r="17.042" style="fill:#fff;fill-opacity:0.5;"/><circle cx="2068" cy="432.208" r="17.042" style="fill:#fff;fill-opacity:0.5;"/><circle cx="2138" cy="432.208" r="17.042" style="fill:#fff;fill-opacity:0.5;"/><path d="M1472.75,770.833c-0.069,110.767 -91.233,201.875 -202,201.875c-110.814,0 -202,-91.186 -202,-202c0,-110.814 91.186,-202 202,-202c0.028,0 0.056,0 0.083,0c0.251,-0.001 0.502,-0.001 0.753,-0.001c110.356,-0 201.166,90.81 201.166,201.167c0,0.32 -0,0.639 -0.002,0.959Z" style="fill:#fff;fill-rule:nonzero;"/><path d="M1436.71,885.917c-37.713,54.337 -99.804,86.823 -165.947,86.823c-65.264,0 -126.639,-31.629 -164.511,-84.782c19,-59.416 85.917,-103.333 165.583,-103.333c78.709,0 144.834,42.917 164.875,101.292Z" style="fill:#2f2e41;fill-rule:nonzero;"/><circle cx="1273.96" cy="686.292" r="76.958" style="fill:#2f2e41;"/><path d="M1955.88,755.792l-352.708,-0c-11.155,-0 -20.334,-9.179 -20.334,-20.334c0,-11.154 9.179,-20.333 20.334,-20.333l352.708,-0c11.155,0 20.333,9.179 20.333,20.333c0,11.155 -9.178,20.334 -20.333,20.334Z" style="fill:#2f2e41;fill-rule:nonzero;"/><path d="M2050.96,856.25l-447.791,0c-11.155,-0 -20.334,-9.179 -20.334,-20.333c0,-11.155 9.179,-20.334 20.334,-20.334l447.791,0c11.155,0 20.334,9.179 20.334,20.334c-0,11.154 -9.179,20.333 -20.334,20.333Z" style="fill:#2f2e41;fill-rule:nonzero;"/><path d="M2015.08,1148c0,-44.82 -36.388,-81.208 -81.208,-81.208l-700.542,-0c-44.82,-0 -81.208,36.388 -81.208,81.208l0,0.042c0,44.82 36.388,81.208 81.208,81.208l700.542,0c44.82,0 81.208,-36.388 81.208,-81.208l0,-0.042Z" style="fill:#f00;"/><path d="M1440.21,1110.17c6.747,3.331 12.338,8.617 16.042,15.166c3.903,7.04 5.859,14.995 5.667,23.042c0.207,7.996 -1.751,15.901 -5.667,22.875c-3.723,6.463 -9.317,11.65 -16.042,14.875c-7.539,3.59 -15.818,5.36 -24.166,5.167l-28.25,-0l-0,-86.417l28.25,0c8.362,-0.194 16.65,1.62 24.166,5.292Zm-0.916,61.333c5.693,-6.304 8.609,-14.647 8.083,-23.125c0.493,-8.587 -2.412,-17.033 -8.083,-23.5c-6.24,-5.907 -14.68,-8.932 -23.25,-8.333l-14.042,-0l-0,63.291l14.042,0c8.564,0.553 16.986,-2.466 23.25,-8.333Z" style="fill:#fff;fill-rule:nonzero;"/><path d="M1490.12,1116.29l0,25.375l29.875,-0l0,11.583l-29.875,0l0,26.458l33.583,0l0,11.584l-47.75,-0l0,-86.542l47.75,-0l0,11.542l-33.583,-0Z" style="fill:#fff;fill-rule:nonzero;"/><path d="M1555.29,1179.83l29.166,0l0,11.459l-43.333,-0l0,-86.417l14.167,0l-0,74.958Z" style="fill:#fff;fill-rule:nonzero;"/><path d="M1610.5,1116.29l0,25.375l29.833,-0l0,11.583l-29.833,0l0,26.458l33.583,0l0,11.584l-47.75,-0l0,-86.542l47.75,-0l0,11.542l-33.583,-0Z" style="fill:#fff;fill-rule:nonzero;"/><path d="M1717.33,1104.88l0,11.542l-23,-0l0,75l-14.208,-0l0,-75l-23.125,-0l0,-11.542l60.333,0Z" style="fill:#fff;fill-rule:nonzero;"/><path d="M1745.83,1116.29l0,25.375l29.834,-0l-0,11.583l-29.834,0l0,26.458l33.584,0l-0,11.584l-47.792,-0l-0,-86.542l47.75,-0l-0,11.542l-33.542,-0Z" style="fill:#fff;fill-rule:nonzero;"/><path d="M1790.08,2691.25l-670.375,0l-49.75,-907.458l765.209,-0l-45.084,907.458Z" style="fill:#d1d3d4;fill-rule:nonzero;"/><path d="M1436.71,1783.79l-320.833,-0l-0,-210.417c-0,-23.246 19.129,-42.375 42.375,-42.375c0.028,-0 0.056,-0 0.083,-0l191.667,-0l86.792,88.417l-0.084,164.375Z" style="fill:#808080;fill-rule:nonzero;"/><path d="M1350,1531l0,62.5c0,14.309 11.774,26.083 26.083,26.083l60.709,0l-86.792,-88.583Z" style="fill:#fff;fill-opacity:0.5;fill-rule:nonzero;"/><g opacity="0.5"><rect x="1249.62" y="1642.42" width="106.792" height="18.5" style="fill:#fff;"/></g><g opacity="0.5"><rect x="1201.42" y="1682.79" width="154.958" height="18.5" style="fill:#fff;"/></g><g opacity="0.5"><rect x="1201.42" y="1723.17" width="154.958" height="18.5" style="fill:#fff;"/></g><path d="M2023.08,2203.08c0,0 41.292,-15.916 69.792,16c12,13.759 17.94,31.803 16.458,50c-1.416,20.584 -10.875,47.209 -48.25,55.209l-38,-121.209Z" style="fill:#bcbec0;fill-rule:nonzero;"/><path d="M1219.92,2616.21c-4.046,0 -7.375,-3.329 -7.375,-7.375l-0,-719.458c0.289,-3.849 3.536,-6.861 7.396,-6.861c3.859,-0 7.106,3.012 7.395,6.861l0,719.458c-0.022,4.053 -3.363,7.375 -7.416,7.375Z" style="fill:#bcbec0;fill-rule:nonzero;"/><path d="M1336.12,2616.21c-4.046,0 -7.375,-3.329 -7.375,-7.375l0,-719.458c0.289,-3.849 3.536,-6.861 7.396,-6.861c3.859,-0 7.107,3.012 7.396,6.861l-0,719.458c-0.023,4.053 -3.364,7.375 -7.417,7.375Z" style="fill:#bcbec0;fill-rule:nonzero;"/><path d="M1452.58,2616.21c-4.053,0 -7.394,-3.322 -7.416,-7.375l-0,-719.458c0.289,-3.849 3.536,-6.861 7.396,-6.861c3.859,-0 7.106,3.012 7.395,6.861l0,719.458c0,4.046 -3.329,7.375 -7.375,7.375Z" style="fill:#bcbec0;fill-rule:nonzero;"/><path d="M1568.08,2616.21c-4.053,0 -7.394,-3.322 -7.416,-7.375l-0,-719.458c0.289,-3.849 3.536,-6.861 7.396,-6.861c3.859,-0 7.106,3.012 7.395,6.861l0,719.458c0,4.046 -3.329,7.375 -7.375,7.375Z" style="fill:#bcbec0;fill-rule:nonzero;"/><path d="M1684.5,2616.21c-4.046,0 -7.375,-3.329 -7.375,-7.375l0,-719.458c0.289,-3.849 3.536,-6.861 7.396,-6.861c3.859,-0 7.107,3.012 7.396,6.861l-0,719.458c-0.023,4.053 -3.364,7.375 -7.417,7.375Z" style="fill:#bcbec0;fill-rule:nonzero;"/><path d="M2233.33,1107.71c0,0 6.459,35.584 0,51.75c0,0 -14.666,12.917 12.042,17.792c0,0 26.75,6.458 49.375,0l-25.875,-109.958l-35.542,40.416Z" style="fill:#f7a48b;fill-rule:nonzero;"/><path d="M2450.58,1584.92c-7.875,5.041 -36.166,6.541 -56.166,7c-10.8,0.317 -21.558,-1.481 -31.667,-5.292c-14.923,-6.136 -31.965,-4.43 -45.375,4.542c-83.083,79.541 -126.875,41.083 -126.875,41.083c-19.258,-10.285 -39.924,-17.684 -61.333,-21.958c-3.514,-0.701 -6.067,-3.814 -6.067,-7.396c0,-0.568 0.065,-1.134 0.192,-1.688l28.583,-123.583c-28.417,11.708 -49.25,3.125 -64,-11.083c0,-0 37.167,16.666 62.208,-70.834c0,0 25.959,-82.416 31.292,-117.25c-0,0 7.167,90.334 -8.042,152.834c-4.374,17.519 -7.163,35.397 -8.333,53.416l-3.958,66.167c-0.229,4.54 1.259,9.005 4.166,12.5c10.417,12.5 39.584,36.667 90.334,-0.833c-0,-0 19.625,-20.584 61.625,-11.667c-0,0 98.375,5.375 115.333,-34.833l18.083,68.875Z" style="fill-opacity:0.2;fill-rule:nonzero;"/><path d="M2478.75,1459.96l-6.667,11.292c-3.936,9.479 -9.273,18.314 -15.833,26.208l-0.5,0.5c-6.727,7.067 -14.447,13.117 -22.917,17.959c-8.875,-34.417 -20.541,-186.792 -20.541,-186.792l9.833,0c9.069,29.991 20.422,59.243 33.958,87.5c7.417,15.5 15.084,29.792 22.75,43.083l-0.083,0.25Z" style="fill-opacity:0.2;fill-rule:nonzero;"/><path d="M2059.92,1418.88c-0,0 -0.625,-32.75 13.666,-47.333c1.786,-1.769 4.201,-2.763 6.715,-2.763c2.828,-0 5.515,1.258 7.327,3.429l19.708,23.375l-9.5,-52c0,0 -44.416,8.709 -37.916,75.292Z" style="fill-opacity:0.2;fill-rule:nonzero;"/><path d="M2058.33,1413.25l-97.416,-162.5c-0,0 -24.125,-25 -26.792,0c0,0 -8.625,7.042 -7.542,-17.667c0.121,-3.207 -0.582,-6.391 -2.041,-9.25c-2.25,-4.541 -3.834,-12.708 6.875,-20.458c3.208,-7.356 3.208,-15.727 -0,-23.083c-3.208,-7.357 -9.834,-22.5 29.5,-23.375l-44.25,-48.125c-1.335,-1.459 -2.075,-3.366 -2.075,-5.343c-0,-2.559 1.24,-4.965 3.325,-6.449c3.038,-2.165 7.214,-1.903 9.958,0.625l51.542,47.458c3.174,2.891 5.251,6.794 5.875,11.042c2.468,18.819 6.284,37.436 11.416,55.708c1.414,4.162 3.75,7.951 6.834,11.084l94.5,95.625l-0.292,25c0,-0 -39.417,9.833 -39.417,69.708Z" style="fill:#f9b499;fill-rule:nonzero;"/><path d="M2196.91,1030.04c15.371,-36.62 49.559,-57.238 76.297,-46.015c26.739,11.223 35.968,50.066 20.597,86.686c-15.371,36.619 -49.558,57.238 -76.297,46.015c-26.739,-11.224 -35.968,-50.066 -20.597,-86.686Z" style="fill:#f9b499;"/><path d="M2229.17,989.958c-0,0 -26.667,25.75 31.916,43.709c12.707,3.786 20.736,16.528 18.667,29.625c-2.112,11.149 -6.01,21.884 -11.542,31.791c-14.582,26.046 -9.658,58.913 11.917,79.542c21.575,20.629 21.708,23.25 0,49.167c0,-0 -64.667,70.833 22.042,100c16.84,5.05 34.536,6.61 52,4.583c17.464,-2.027 -15.167,-22.375 -8.042,-37.5c0,0 27.708,51.833 96.542,34.833c-0,0 54.916,-9.666 57.083,-39.458c0.423,-8.765 -3.73,-17.15 -10.958,-22.125c-11.459,-8.333 -32.459,-26.042 -18.417,-39.417c0,0 68.833,-89.291 -54.5,-100.958c0,0 -50,-10.875 -16.125,-56.417c0,0 40.667,-68 -38.208,-77.333c-0,0 19.458,-49.542 -58.334,-43.292c0,0 -119.708,-13 -97.416,66.667c-0.084,0.083 10,-16.875 23.375,-23.417Z" style="fill:#2f2e41;fill-rule:nonzero;"/><path d="M2394.29,2465.38l-19.667,-42.917c0,0 -85.833,0 -116.208,57.209c-0,-0 26.833,43.791 -8.959,91.166c0,0 -18,28.375 -42.041,44.625c-9.445,6.183 -20.463,9.538 -31.75,9.667c-13,0.25 -34.5,2.667 -42.375,15.417c9.93,1.026 19.713,3.164 29.166,6.375c5.66,2.302 11.724,3.45 17.834,3.375c28.25,-0 94.541,-9.667 120.833,-96.459c0.208,0 20.75,-81.333 93.167,-88.458Z" style="fill:#0998b7;fill-rule:nonzero;"/><path d="M2629.79,2349.33c-0,0 38.25,25.667 27.791,78.875c0,0 -20.083,73.292 -56.708,85.5c0,0 -37.5,13.084 -31.417,27.042c13.384,-5.555 27.366,-9.54 41.667,-11.875c19.421,-3.527 37.187,-13.251 50.625,-27.708c16.547,-18.102 26.784,-41.092 29.167,-65.5c0.291,-3.508 0.291,-7.034 -0,-10.542c-1.334,-22.667 -2.959,-118.292 62.5,-138.25l-32.459,-31.917c0,0 -82.291,14.667 -91.166,94.375Z" style="fill:#0998b7;fill-rule:nonzero;"/><path d="M1860.04,1783.77c-0,-12.959 -10.521,-23.479 -23.479,-23.479l-770.751,-0c-12.958,-0 -23.479,10.52 -23.479,23.479c0,12.958 10.521,23.479 23.479,23.479l770.751,0c12.958,0 23.479,-10.521 23.479,-23.479Z" style="fill:#bcbec0;"/></svg>