<?xml version="1.0" encoding="UTF-8" standalone="no"?><!DOCTYPE svg PUBLIC "-//W3C//DTD SVG 1.1//EN" "http://www.w3.org/Graphics/SVG/1.1/DTD/svg11.dtd"><svg width="100%" height="100%" viewBox="0 0 3608 2846" version="1.1" xmlns="http://www.w3.org/2000/svg" xmlns:xlink="http://www.w3.org/1999/xlink" xml:space="preserve" xmlns:serif="http://www.serif.com/" style="fill-rule:evenodd;clip-rule:evenodd;stroke-miterlimit:10;"><ellipse cx="1752.25" cy="2642.79" rx="1008.54" ry="87.833" style="fill:#0071f2;"/><g opacity="0.7"><ellipse cx="1752.25" cy="2642.79" rx="1008.54" ry="87.833" style="fill:#fff;"/></g><path d="M533.333,1812.92c-139.75,-51.584 -270.25,-140.625 -327.541,-263.709c-47.542,-102.083 -39.959,-217.458 -3.417,-320.583c88.958,-251.25 355.208,-442.5 655.292,-470.833c237.5,16.208 456.875,-94.834 640.5,-221.75c183.625,-126.917 353.041,-275.584 568.75,-356.875c324.291,-122.042 731.833,-64.167 1009.25,141.208c277.416,205.375 412.5,547.75 338.708,851.958c-73.792,304.209 -351.708,557.25 -694.583,635.459c-289.292,66 -598.792,14.208 -899.792,20.083c-433,8.5 -882.792,134.333 -1287.17,-14.958Z" style="fill:#0071f2;fill-rule:nonzero;"/><path d="M533.333,1812.92c-139.75,-51.584 -270.25,-140.625 -327.541,-263.709c-47.542,-102.083 -39.959,-217.458 -3.417,-320.583c88.958,-251.25 355.208,-442.5 655.292,-470.833c237.5,16.208 456.875,-94.834 640.5,-221.75c183.625,-126.917 353.041,-275.584 568.75,-356.875c324.291,-122.042 731.833,-64.167 1009.25,141.208c277.416,205.375 412.5,547.75 338.708,851.958c-73.792,304.209 -351.708,557.25 -694.583,635.459c-289.292,66 -598.792,14.208 -899.792,20.083c-433,8.5 -882.792,134.333 -1287.17,-14.958Z" style="fill:#fff;fill-opacity:0.7;fill-rule:nonzero;"/><g><clipPath id="_clip1"><path d="M533.333,1812.92c-139.75,-51.584 -270.25,-140.625 -327.541,-263.709c-47.542,-102.083 -39.959,-217.458 -3.417,-320.583c88.958,-251.25 355.208,-442.5 655.292,-470.833c237.5,16.208 456.875,-94.834 640.5,-221.75c183.625,-126.917 353.041,-275.584 568.75,-356.875c324.291,-122.042 731.833,-64.167 1009.25,141.208c277.416,205.375 412.5,547.75 338.708,851.958c-73.792,304.209 -351.708,557.25 -694.583,635.459c-289.292,66 -598.792,14.208 -899.792,20.083c-433,8.5 -882.792,134.333 -1287.17,-14.958Z"/></clipPath><g clip-path="url(#_clip1)"><path d="M1733.29,2848.96l-0,-297.583l173,0l6.916,38.042l186.834,-0l-0,259.541l-366.75,0Z" style="fill:#0071f2;fill-rule:nonzero;"/><path d="M2428.79,2848.96l-0,-297.583l173,0l6.916,38.042l186.834,-0l-0,259.541l-366.75,0Z" style="fill:#0071f2;fill-rule:nonzero;"/><path d="M1736.75,2291.83l0,-297.541l173,-0l6.917,38.041l186.833,0l0,259.5l-366.75,0Z" style="fill:#0071f2;fill-rule:nonzero;"/><path d="M2432.25,2291.83l0,-297.541l173,-0l6.917,38.041l186.833,0l0,259.5l-366.75,0Z" style="fill:#0071f2;fill-rule:nonzero;"/><path d="M1740.21,1731.29l0,-297.542l173,0l6.917,38.042l186.875,-0l0,259.5l-366.792,-0Z" style="fill:#0071f2;fill-rule:nonzero;"/><path d="M2435.71,1731.29l0,-297.542l173,0l6.917,38.042l186.833,-0l0,259.5l-366.75,-0Z" style="fill:#0071f2;fill-rule:nonzero;"/><path d="M1733.29,1177.67l-0,-297.584l173,0l6.916,38.084l186.834,-0l-0,259.5l-366.75,-0Z" style="fill:#0071f2;fill-rule:nonzero;"/><path d="M2428.79,1177.67l-0,-297.584l173,0l6.916,38.084l186.834,-0l-0,259.5l-366.75,-0Z" style="fill:#0071f2;fill-rule:nonzero;"/><path d="M1733.29,613.667l-0,-297.584l173,0l6.916,38.084l186.834,-0l-0,259.5l-366.75,-0Z" style="fill:#0071f2;fill-rule:nonzero;"/><path d="M642.958,2842.62l0,-297.542l173.042,0l6.917,38.042l186.833,0l0,259.5l-366.792,0Z" style="fill:#0071f2;fill-rule:nonzero;"/><path d="M646.458,2285.54l0,-297.584l173,0l6.917,38.084l186.833,-0l0,259.5l-366.75,-0Z" style="fill:#0071f2;fill-rule:nonzero;"/><path d="M649.875,1725l0,-297.583l173.042,-0l6.916,38.083l186.834,0l-0,259.5l-366.792,0Z" style="fill:#0071f2;fill-rule:nonzero;"/><path d="M642.958,1171.38l0,-297.583l173.042,-0l6.917,38.083l186.833,0l0,259.5l-366.792,0Z" style="fill:#0071f2;fill-rule:nonzero;"/><path d="M642.958,607.375l0,-297.583l173.042,-0l6.917,38.041l186.833,0l0,259.542l-366.792,0Z" style="fill:#0071f2;fill-rule:nonzero;"/><path d="M2428.79,613.667l-0,-297.584l173,0l6.916,38.084l186.834,-0l-0,259.5l-366.75,-0Z" style="fill:#0071f2;fill-rule:nonzero;"/><g opacity="0.8"><path d="M1733.29,2848.96l-0,-297.583l173,0l6.916,38.042l186.834,-0l-0,259.541l-366.75,0Z" style="fill:#fff;fill-rule:nonzero;"/><path d="M2428.79,2848.96l-0,-297.583l173,0l6.916,38.042l186.834,-0l-0,259.541l-366.75,0Z" style="fill:#fff;fill-rule:nonzero;"/><path d="M1736.75,2291.83l0,-297.541l173,-0l6.917,38.041l186.833,0l0,259.5l-366.75,0Z" style="fill:#fff;fill-rule:nonzero;"/><path d="M2432.25,2291.83l0,-297.541l173,-0l6.917,38.041l186.833,0l0,259.5l-366.75,0Z" style="fill:#fff;fill-rule:nonzero;"/><path d="M1740.21,1731.29l0,-297.542l173,0l6.917,38.042l186.875,-0l0,259.5l-366.792,-0Z" style="fill:#fff;fill-rule:nonzero;"/><path d="M2435.71,1731.29l0,-297.542l173,0l6.917,38.042l186.833,-0l0,259.5l-366.75,-0Z" style="fill:#fff;fill-rule:nonzero;"/><path d="M1733.29,1177.67l-0,-297.584l173,0l6.916,38.084l186.834,-0l-0,259.5l-366.75,-0Z" style="fill:#fff;fill-rule:nonzero;"/><path d="M2428.79,1177.67l-0,-297.584l173,0l6.916,38.084l186.834,-0l-0,259.5l-366.75,-0Z" style="fill:#fff;fill-rule:nonzero;"/><path d="M1733.29,613.667l-0,-297.584l173,0l6.916,38.084l186.834,-0l-0,259.5l-366.75,-0Z" style="fill:#fff;fill-rule:nonzero;"/><path d="M642.958,2842.62l0,-297.542l173.042,0l6.917,38.042l186.833,0l0,259.5l-366.792,0Z" style="fill:#fff;fill-rule:nonzero;"/><path d="M646.458,2285.54l0,-297.584l173,0l6.917,38.084l186.833,-0l0,259.5l-366.75,-0Z" style="fill:#fff;fill-rule:nonzero;"/><path d="M649.875,1725l0,-297.583l173.042,-0l6.916,38.083l186.834,0l-0,259.5l-366.792,0Z" style="fill:#fff;fill-rule:nonzero;"/><path d="M642.958,1171.38l0,-297.583l173.042,-0l6.917,38.083l186.833,0l0,259.5l-366.792,0Z" style="fill:#fff;fill-rule:nonzero;"/><path d="M642.958,607.375l0,-297.583l173.042,-0l6.917,38.041l186.833,0l0,259.542l-366.792,0Z" style="fill:#fff;fill-rule:nonzero;"/><path d="M2428.79,613.667l-0,-297.584l173,0l6.916,38.084l186.834,-0l-0,259.5l-366.75,-0Z" style="fill:#fff;fill-rule:nonzero;"/></g></g></g><path d="M799.542,887.875l-3.709,-1c0,0 2.167,-8.125 6.834,-22.25l3.666,1.208c-4.625,14 -6.75,21.959 -6.791,22.042Z" style="fill:#2f2e41;fill-rule:nonzero;"/><path d="M2773.58,825.875c-5.25,-14.375 -10.833,-28.75 -16.666,-42.708l3.583,-1.5c5.792,14.041 11.375,28.458 16.667,42.875l-3.584,1.333Zm-1951.58,-3.083l-3.583,-1.417c5.5,-13.958 11.5,-28.25 17.833,-42.458l3.542,1.583c-6.459,14.125 -12.292,28.375 -17.792,42.292Zm1916.67,-81.625c-6.417,-13.834 -13.209,-27.667 -20.209,-41.084l3.459,-1.791c7,13.458 13.833,27.375 20.291,41.25l-3.541,1.625Zm-1879.17,-2.167l-3.5,-1.75c6.792,-13.625 14,-27.333 21.375,-40.75l3.417,1.833c-7.459,13.375 -14.625,27.084 -21.375,40.667l0.083,0Zm1836.96,-79.167c-7.666,-13.208 -15.666,-26.375 -23.875,-39.083l3.25,-2.083c8.334,12.75 16.292,25.958 23.959,39.208l-3.334,1.958Zm-1792.75,-1.333l-3.291,-2c7.875,-13.083 16.166,-26.167 24.583,-38.875l3.208,2.125c-8.458,12.75 -16.708,25.833 -24.583,38.833l0.083,-0.083Zm1743.21,-75.708c-8.834,-12.5 -18.084,-24.709 -27.459,-36.667l3.042,-2.375c9.417,11.958 18.667,24.375 27.542,36.833l-3.125,2.209Zm-1692.75,-0.709l-3.125,-2.25c8.958,-12.5 18.291,-24.791 27.708,-36.75l3.042,2.417c-9.334,11.917 -18.625,24.208 -27.625,36.583Zm1636,-71.208c-9.959,-11.5 -20.292,-22.875 -30.792,-33.917l2.792,-2.666c10.541,11.083 20.833,22.541 30.916,34.041l-2.916,2.542Zm-1579.17,-0.792l-2.958,-2.5c10,-11.625 20.333,-23.125 30.75,-34.25l2.833,2.667c-10.375,11.042 -20.792,22.5 -30.625,34.083Zm1516.04,-65.541c-11,-10.5 -22.375,-20.834 -33.834,-30.917l2.542,-2.917c11.5,10.042 22.917,20.5 33.958,31.042l-2.666,2.792Zm-1453.33,-1.292l-2.666,-2.75c10.958,-10.708 22.291,-21.25 33.625,-31.375l2.583,2.875c-11.417,10.083 -22.583,20.625 -33.542,31.25Zm1384.25,-58.917c-11.833,-9.416 -24.125,-18.75 -36.5,-27.708l2.25,-3.125c12.5,9 24.792,18.333 36.667,27.792l-2.417,3.041Zm-1315.79,-2l-2.459,-3c11.875,-9.625 24.084,-19.125 36.375,-28.166l2.292,3.083c-12.208,9.042 -24.208,18.5 -36.208,28.083Zm1241.67,-51.791c-12.5,-8.334 -25.708,-16.667 -38.791,-24.459l2,-3.291c13.125,7.875 26.208,16.125 38.916,24.5l-2.125,3.25Zm-1167.96,-2.625l-2.167,-3.209c12.5,-8.333 25.75,-16.666 38.834,-24.666l2,3.333c-12.875,7.875 -26.042,16.125 -38.667,24.542Zm1089.29,-44.584c-13.334,-7.291 -27,-14.416 -40.667,-21.166l1.708,-3.459c13.709,6.792 27.459,13.917 40.834,21.209l-1.875,3.416Zm-1010.88,-2.708l-1.834,-3.375c13.375,-7.25 27.167,-14.292 40.959,-20.833l1.666,3.5c-13.708,6.5 -27.458,13.5 -40.791,20.708Zm928.708,-37.958c-13.833,-6.167 -28.083,-12.167 -42.25,-17.875l1.458,-3.584c14.209,5.709 28.459,11.75 42.375,17.917l-1.583,3.542Zm-846.208,-1.875l-1.542,-3.542c14,-5.958 28.333,-11.75 42.667,-17.125l1.375,3.625c-14.292,5.417 -28.584,11.125 -42.5,17.042Zm761.083,-32.167c-14.333,-5.042 -29.167,-9.833 -43.583,-14.208l1.125,-3.667c14.625,4.167 29.166,9.167 43.708,14.208l-1.25,3.667Zm-675.375,0l-1.208,-3.708c14.416,-4.709 29.166,-9.167 44,-13.292l1.041,3.708c-14.666,4.125 -29.458,8.584 -43.833,13.292Zm88.208,-24.667l-0.875,-3.791c14.75,-3.459 29.875,-6.667 44.917,-9.584l0.75,3.792c-15,2.917 -30.083,6.125 -44.792,9.583Zm499.292,-1.625c-14.75,-3.666 -29.792,-7.041 -44.708,-10l0.75,-3.791c14.958,3 30.083,6.375 44.875,10.041l-0.917,3.75Zm-409.375,-15.666l-0.583,-3.834c14.958,-2.25 30.291,-4.166 45.583,-6.083l0.458,3.833c-15.25,1.667 -30.541,3.75 -45.458,6.084Zm319.583,-2.167c-15,-2.25 -30.291,-4.167 -45.416,-5.792l0.375,-3.875c15.208,1.625 30.583,3.584 45.625,5.875l-0.584,3.792Zm-228.5,-8.333l-0.291,-3.834c15.25,-1.166 30.666,-2 45.833,-2.5l-0,3.875c-14.75,0.459 -30.375,1.25 -45.542,2.417l0,0.042Zm137.5,-1.25c-15.125,-0.875 -30.541,-1.417 -45.833,-1.625l-0,-3.875c15.292,-0 30.792,0.75 45.833,1.666l0,3.834Z" style="fill:#2f2e41;fill-rule:nonzero;"/><path d="M2795.25,891.667c-2.208,-7.459 -4.5,-14.834 -6.792,-22.125l3.667,-1.167c2.333,7.333 4.583,14.708 6.833,22.208l-3.708,1.084Z" style="fill:#2f2e41;fill-rule:nonzero;"/><path d="M1071.79,987.917l-51.542,-1.834l-16.542,275.917l68.084,-274.083Z" style="fill:#2f2e41;fill-rule:nonzero;"/><path d="M1029.46,901.458l-25.75,360.542l-356.833,0l36.792,-375.25l345.791,14.708Z" style="fill:#e6e7e8;fill-rule:nonzero;"/><path d="M812.042,657.25c-0,0 272.583,37.792 358.958,56.708c0,0 45.833,-191.666 62.083,-261.791c0,-0 -256.416,-29.709 -331.958,-72.875l-89.083,277.958Z" style="fill:#e6e7e8;fill-rule:nonzero;"/><path d="M1573.17,114.792c-0,-0 137.5,102.541 215.916,137.5c0,-0 -116.083,121.458 -191.666,129.541l-178.167,-100c0,0 -34.625,-19.333 -42.708,-94.916c-0,-0 91.333,6.125 196.625,-72.125Z" style="fill:#e6e7e8;fill-rule:nonzero;"/><path d="M1419.29,282.125c-0,0 -172.125,-55.875 -134.125,-107.667c-0,0 96.458,-93.583 91.375,12.5c-0,-0.041 0.875,63.584 42.75,95.167Z" style="fill:#d1d3d4;fill-rule:nonzero;"/><path d="M1965.58,304.625c0,0 231.875,-72.458 309.167,45.125l114.333,-130.458c0,-0 -243.25,-217.417 -423.5,85.333Z" style="fill:#e6e7e8;fill-rule:nonzero;"/><path d="M2052.54,378.708c-0,0 -100,-4.833 -86.959,-74.083c0,0 96.625,-27.375 159.417,-20.833l-72.458,94.916Z" style="fill:#d1d3d4;fill-rule:nonzero;"/><path d="M2376.92,578.542c-0,-0 118.583,-1.459 209.708,-198.167c0,0 69.417,141.667 227.083,240.125c-57.038,68.579 -130.75,121.37 -214.041,153.292c-83.292,31.922 -156.209,-102.667 -222.75,-195.25Z" style="fill:#e6e7e8;fill-rule:nonzero;"/><path d="M2219.38,940.208c0,0 2.833,49.542 4.583,49.542c5.211,-1.901 10.291,-4.142 15.209,-6.708l5.666,-39.625l-18.041,-13.459l-7.417,10.25Z" style="fill:#f7a48b;fill-rule:nonzero;"/><path d="M2213.46,748.75l1.542,30.833l12.542,-6.625l-4.084,-22.166l-8.458,-4.542l-1.542,2.5Z" style="fill:#f7a48b;fill-rule:nonzero;"/><path d="M1598.92,2318.42l26.541,41.416l36.125,-7.416l21.209,-26.542l-18.042,-43.542l-65.833,36.084Z" style="fill:#f9b499;fill-rule:nonzero;"/><path d="M2067.75,1488.79c-1.042,0.916 -2.083,1.833 -3.125,2.666c-156.125,134 -325.417,9.292 -325.417,9.292c-3.843,-1.853 -7.476,-4.116 -10.833,-6.75c-15,-12.042 -6.458,-22.5 -6.458,-22.5c3.695,-7.746 6.815,-15.754 9.333,-23.958c-5.333,-21.25 1.333,-53.167 1.333,-53.167c13.25,-54.542 -20.083,-111.75 -20.083,-111.75l-71.833,-109.042l-81.125,22.625c-20.048,7.719 -40.647,13.917 -61.625,18.542c-24.145,5.262 -49.4,1.495 -70.959,-10.583c-49.041,-28.042 -33.541,-74.584 -33.541,-74.584c-0,0 -0,49.25 51.875,31.917c-0,0 29.166,-5.292 25.25,-53.208l30.625,-21.25l101.083,-39.917c33.333,-23.917 89.083,-37.208 89.083,-37.208c7.959,25.541 28.709,43.5 41.667,52.708c10.437,7.306 24.51,6.967 34.583,-0.833c27.292,-21.709 43.292,-79.834 43.292,-79.834l218.292,145.042c27.958,63.875 41.208,282 41.208,282c-2.625,27.917 -1.292,37.208 -1.292,37.208c11.959,35.917 -1.333,42.584 -1.333,42.584Z" style="fill:#0071f2;fill-rule:nonzero;"/><path d="M1973.29,2035.42c22.625,61.208 6.666,225 6.666,225c-8.609,34.3 -13.072,69.511 -13.291,104.875c-47.917,57.208 -102.417,4.166 -102.417,4.166l-19.958,-198.166c-9.722,-44.595 -15.067,-90.033 -15.959,-135.667c11.959,-274 -7.958,-304.542 -7.958,-304.542l-242.333,195.334c-6.814,5.533 -11.15,13.559 -12.042,22.291c-0.488,6.333 -2.26,12.5 -5.208,18.125c-2.609,4.554 -2.719,10.139 -0.292,14.792c20.125,37.958 41.667,108.333 41.667,108.333c9.291,45.25 49.208,139.667 49.208,139.667c-15.833,46.667 -46.292,54.167 -66.667,53.292c-12.094,-0.566 -23.315,-6.536 -30.541,-16.25c-66.667,-89.709 -138.084,-261.709 -138.084,-261.709c-39.916,-79.791 -9.625,-131.875 1.584,-147.041c3.458,-4.667 6.75,-9.5 9.916,-14.375c80.334,-123.542 299.709,-347.959 299.709,-347.959l1.125,-1.458c3.357,2.634 6.989,4.897 10.833,6.75c3.844,1.853 169.083,124.583 325.375,-9.208c41.167,153.375 -91.333,543.75 -91.333,543.75Z" style="fill:#2f2e41;fill-rule:nonzero;"/><path d="M1763.17,1646.67c7.356,1.849 14.462,4.577 21.166,8.125c6.78,3.557 13.211,7.742 19.209,12.5c3.041,2.291 5.833,4.875 8.666,7.416l4.167,4.167l2,2.042l1.833,2.208c4.986,5.755 9.189,12.144 12.5,19c-5.083,-5.625 -9.833,-11.292 -15.291,-16.333c-5.261,-5.176 -10.826,-10.032 -16.667,-14.542c-5.792,-4.583 -11.833,-8.833 -18.083,-12.875c-6.25,-4.042 -12.875,-8.083 -19.5,-11.708Z" style="fill-opacity:0.2;fill-rule:nonzero;"/><path d="M1814.12,1636.75c-1.22,-7.157 -1.82,-14.406 -1.792,-21.667c-0.076,-7.258 0.37,-14.513 1.334,-21.708c0.458,-3.625 1.166,-7.208 1.875,-10.792c0.823,-3.566 1.838,-7.085 3.041,-10.541c2.184,-7.062 5.995,-13.513 11.125,-18.834c-3.408,6.252 -5.905,12.959 -7.416,19.917c-1.614,6.872 -2.852,13.827 -3.709,20.833c-1.916,14.375 -2.958,28.375 -4.458,42.792Z" style="fill-opacity:0.2;fill-rule:nonzero;"/><path d="M1923.12,2086.96c5.125,-7.75 10.583,-14.875 15.667,-22.25c2.541,-3.708 5.041,-7.375 7.416,-11.166c2.375,-3.792 4.459,-7.75 6.667,-11.875c-0.299,4.689 -1.384,9.295 -3.208,13.625c-1.859,4.295 -4.134,8.398 -6.792,12.25c-2.675,3.793 -5.672,7.347 -8.958,10.625c-3.231,3.354 -6.854,6.306 -10.792,8.791Z" style="fill-opacity:0.2;fill-rule:nonzero;"/><path d="M1877.12,2422.46l3.167,50c-0,0 40.375,19.125 70.083,1.084l3.208,-62.5l-76.458,11.416Z" style="fill:#f9b499;fill-rule:nonzero;"/><path d="M1869.67,2528.67l-0,-65.834c25.415,22.255 63.793,22.255 89.208,0l0,67.959c0,-0 -89.208,-5.334 -89.208,-2.125Z" style="fill:#e6e7e8;fill-rule:nonzero;"/><path d="M1967.38,2544.58c-6.833,30.098 -7.655,61.251 -2.417,91.667c0.795,4.369 1.074,8.816 0.834,13.25c-0.56,11.957 -5.328,23.34 -13.459,32.125c-10.375,11.083 -26.958,20 -52.916,15.708c-9.433,-1.419 -18.275,-5.479 -25.5,-11.708c-7.225,-6.229 -23.375,-7.542 -23.625,-39.25c0.075,-9.388 1.607,-18.707 4.541,-27.625c2.935,-8.918 9.542,-46.708 6.375,-74.333c0,-0 -7.458,-33.959 15.917,-24.417c-0,0 7.417,-29.708 42.458,-26.542c0,0 22.292,-3.166 31.875,32.917c0,0.167 18.042,-11.542 15.917,18.208Z" style="fill:#0071f2;fill-rule:nonzero;"/><path d="M1910,2716.67c-80.042,-0 -60.5,-70.042 -60.5,-70.042l0.792,0c0.25,31.708 23.625,39.25 23.625,39.25c7.225,6.229 16.067,10.289 25.5,11.708c25.958,4.167 42.541,-4.625 52.916,-15.708c8.131,-8.785 12.899,-20.168 13.459,-32.125l0.5,0c12.875,56.25 -45.459,66.917 -56.292,66.917Z" style="fill:#2f2e41;fill-rule:nonzero;"/><path d="M1696.62,2332.21l-13.833,-19.083c-14.405,24.655 -40.467,40.299 -69,41.417l1.041,9.541c0,0 15.959,-1.083 39.292,18.042c0.042,0 44.625,-1.042 42.5,-49.917Z" style="fill:#e6e7e8;fill-rule:nonzero;"/><path d="M1553.25,2269.58c0,0 -5.292,7.417 7.458,24.417l13.709,20.542c3.646,5.499 9.564,9.092 16.125,9.791c20.833,2 66.166,0.417 86.166,-46.791c2.758,-6.505 2.279,-13.945 -1.291,-20.042l-19.167,-32.5c0,0 -4.167,-17 -12.708,-9.583l-90.292,54.166Z" style="fill:#2f2e41;fill-rule:nonzero;"/><path d="M1553.25,2269.58c0,0 -5.292,7.417 7.458,24.417l13.709,20.542c3.646,5.499 9.564,9.092 16.125,9.791c20.833,2 66.166,0.417 86.166,-46.791c2.758,-6.505 2.279,-13.945 -1.291,-20.042l-19.167,-32.5c0,0 -4.167,-17 -12.708,-9.583l-90.292,54.166Z" style="fill-opacity:0.2;fill-rule:nonzero;"/><path d="M2233.83,1119.38c0.635,15.824 -11.728,29.422 -27.541,30.292l-286.584,16.666c-13.258,0.49 -24.714,-9.655 -25.833,-22.875l-41.167,-603.875c-0.042,-0.686 -0.063,-1.373 -0.063,-2.061c-0,-17.854 14.345,-32.701 32.188,-33.314l289.584,-13.375c13.497,-0.688 25.234,9.687 26.208,23.167l33.208,605.375Z" style="fill:#2f2e41;fill-rule:nonzero;"/><path d="M2206.25,617.958c0,0 10.125,-0.75 8.333,7.209c-1.687,5.114 -4.207,9.914 -7.458,14.208l-0.875,-21.417Z" style="fill:#f7a48b;fill-rule:nonzero;"/><path d="M1393.42,1129.67c2.139,-6.826 3.824,-13.785 5.041,-20.834c1.218,-7.048 4.167,58.667 58.667,15.459l13.417,-16c-0,-0 11.458,61.75 -45,59.25c-0,0.083 -31.25,-1.209 -32.125,-37.875Z" style="fill:#2f2e41;fill-rule:nonzero;"/><path d="M1404.62,1091.42l-6.167,17.5c-2.079,14.296 7.443,27.917 21.584,30.875c14.14,2.957 23.833,4.166 50.5,-31.417c8.433,-3.473 16.668,-7.409 24.666,-11.792c7.999,-4.382 21.25,0.75 31.792,-6.833c1.36,-0.95 2.171,-2.508 2.171,-4.167c0,-1.658 -0.811,-3.216 -2.171,-4.166c-6.042,-4.167 -18.625,-9.625 -39.875,-5.5l25.708,-41.167c-11.622,-5.938 -25.419,-5.938 -37.041,0c-11.623,5.938 -3.084,-14.417 -21.584,-2.042c0,0 -5.166,-15.458 -18.541,0c-0,0 -17.5,-19.583 -24.709,11.292c0,0 -5.125,4.167 -3.083,36.042l-3.25,11.375Z" style="fill:#f9b499;fill-rule:nonzero;"/><path d="M1407.71,1080.12c0,0 7.209,10.292 15.459,-1.042c-0,0 12.5,17.5 18.5,-3.083c-0,0 13.375,14.417 24.708,-15.458l9.25,-25.709c0,0 -8.333,-15.458 -21.583,-2.041c-0,-0 -7.209,-14.417 -18.542,-0c0,-0 -17.5,-19.584 -24.708,11.291c-0,0 -7.209,12.375 -3.084,36.042Z" style="fill:#f7a48b;fill-rule:nonzero;"/><path d="M1435.5,1032.79c0,-0 -13.375,25.708 -12.5,46.291" style="fill:#f7a48b;fill-rule:nonzero;"/><path d="M1441.67,1076c1.67,-15.01 5.898,-29.625 12.5,-43.208" style="fill:#f7a48b;fill-rule:nonzero;"/><path d="M1489.07,1023.18c5.762,-8.177 15.187,-11.471 21.033,-7.352c5.846,4.12 5.915,14.103 0.153,22.28c-5.762,8.178 -15.187,11.472 -21.033,7.353c-5.846,-4.12 -5.915,-14.103 -0.153,-22.281Z" style="fill:#f7a48b;"/><path d="M1511.88,1156.58c-0.875,-4.166 -1.917,-7.875 -3,-11.791c-1.083,-3.917 -2.25,-7.667 -3.625,-11.459c-1.375,-3.791 -2.917,-7.416 -4.625,-11.041c-1.827,-3.595 -3.872,-7.073 -6.125,-10.417c3.052,2.775 5.691,5.975 7.833,9.5c2.076,3.546 3.833,7.269 5.25,11.125c2.813,7.719 4.265,15.868 4.292,24.083Z" style="fill-opacity:0.2;fill-rule:nonzero;"/><path d="M1640.79,1173.58c-7.18,-8.688 -13.035,-18.39 -17.375,-28.791c7.179,8.688 13.034,18.39 17.375,28.791Z" style="fill-opacity:0.2;fill-rule:nonzero;"/><path d="M1793.71,1356.58c8.498,7.507 17.773,14.086 27.667,19.625c9.828,5.516 20.067,10.266 30.625,14.209c5.333,1.791 10.583,3.833 16.042,5.208c2.75,0.75 5.416,1.625 8.333,2.292l8.333,1.875l4.167,0.958l4.167,0.708l8.333,1.542c5.625,0.917 11.292,1.458 16.958,2.417c-5.708,-0 -11.458,0.25 -17.208,-0l-8.583,-0.75l-4.167,-0.375l-4.167,-0.709c-11.356,-1.686 -22.52,-4.477 -33.333,-8.333c-10.824,-4.065 -21.176,-9.289 -30.875,-15.583c-9.989,-6.175 -18.876,-13.977 -26.292,-23.084Z" style="fill-opacity:0.2;fill-rule:nonzero;"/><path d="M1783.83,896.208c0,0 0.875,19.917 29.459,45.834c-0,-0 5.916,15.833 -2.25,39.958c-0,0 -15.042,59.042 -44.209,80.292c-10.313,7.337 -24.228,7.337 -34.541,-0c-12.292,-8.625 -30.584,-24.542 -39.334,-47.5l81.459,-115.167c-0,0 2.5,0.917 9.416,-3.417Z" style="fill:#f9b499;fill-rule:nonzero;"/><path d="M1860.83,2348.88c0,0 -6.041,4.167 -5.333,19.708c0.583,10.284 0.583,20.592 0,30.875c-0.625,10.209 0.917,22.584 11.042,27.25c-0,0 60.5,37.5 101.708,-7.041c3.78,-4.127 5.8,-9.573 5.625,-15.167l-0.667,-19.042c-0.124,-6.519 0.379,-13.035 1.5,-19.458c0.7,-6.79 -1.582,-13.56 -6.25,-18.542l-107.625,1.417Z" style="fill:#2f2e41;fill-rule:nonzero;"/><path d="M1860.83,2348.88c0,0 -6.041,4.167 -5.333,19.708c0.583,10.284 0.583,20.592 0,30.875c-0.625,10.209 0.917,22.584 11.042,27.25c-0,0 60.5,37.5 101.708,-7.041c3.78,-4.127 5.8,-9.573 5.625,-15.167l-0.667,-19.042c-0.124,-6.519 0.379,-13.035 1.5,-19.458c0.7,-6.79 -1.582,-13.56 -6.25,-18.542l-107.625,1.417Z" style="fill-opacity:0.2;fill-rule:nonzero;"/><path d="M1613.25,2397.75c0,0 -19.625,-26.25 -2.625,-33.667c0,0 14.833,-4.166 43.5,18.042l4.167,15.917l-27.584,7.458l-17.458,-7.75Z" style="fill:#0071f2;fill-rule:nonzero;"/><path d="M1613.25,2397.75c0,0 -19.625,-26.25 -2.625,-33.667c0,0 14.833,-4.166 43.5,18.042l4.167,15.917l-27.584,7.458l-17.458,-7.75Z" style="fill-opacity:0.2;fill-rule:nonzero;"/><path d="M1560.92,2552.42c-0,-0 15.708,31.458 63.5,-9.959c-0,0 76.458,-77.5 108.333,-100.875c0,0 45.833,-24.416 20.167,-50.958l-25.459,-26.542l-51,42.459l-115.541,145.875Z" style="fill:#2f2e41;fill-rule:nonzero;"/><path d="M1594.67,2545.83c-0,0 -40.5,23.75 -35.709,-4.166c0.964,-5.159 3.087,-10.032 6.209,-14.25c21.245,-29.574 36.064,-63.271 43.5,-98.917c0.519,-2.748 0.798,-5.537 0.833,-8.333c0.208,-10.25 2.667,-38.875 24.458,-38.875c0,-0 67.959,9.541 62.5,-48.875l30.792,31.875c-16.384,20.138 -29.016,43.059 -37.292,67.666c-7.144,22.051 -17.825,42.794 -31.625,61.417c-15.416,20.333 -37.041,42.25 -63.666,52.458Z" style="fill:#0071f2;fill-rule:nonzero;"/><path d="M1886.79,1060.79c-0,-0 -107.625,-64.959 -82,-126.042c-0,0 22.041,-70.833 52.625,-61.208c-0,-0 23.25,7.333 14.666,75.875l7.375,3.666l7.334,107.709Z" style="fill:#f7a48b;fill-rule:nonzero;"/><path d="M1691.33,1010c2.943,10.696 8.255,20.594 15.542,28.958c7.287,8.365 100,-25 61.25,-106.541l-76.792,77.583Z" style="fill:#f7a48b;fill-rule:nonzero;"/><path d="M1646.69,804.257c42.639,-17.365 96.298,15.291 119.753,72.881c23.455,57.589 7.88,118.443 -34.758,135.808c-42.638,17.366 -96.298,-15.291 -119.752,-72.88c-23.455,-57.589 -7.881,-118.443 34.757,-135.809Z" style="fill:#f9b499;"/><path d="M1601.58,890.583c0,0 -34.208,3.25 -36.75,-29.5c-0.345,-5.625 0.304,-11.267 1.917,-16.666c6.833,-23.709 36.667,-99.667 138.208,-103.125c0,-0 76.167,2.041 75,76.166c0,0 -2.041,26.75 4.167,38.084c0,-0 -55.833,14.666 -67.167,-8.334c-1.001,-2.008 -2.309,-3.85 -3.875,-5.458c-7.291,-7.667 -26.708,-23.083 -50,-1.958c-0.374,0.362 -0.912,0.504 -1.416,0.375c-1.667,-0.459 -4.709,-2.792 -3.167,-14.334c0,0 -18.75,36.959 -51.25,30.084c-0.185,-0.049 -0.376,-0.073 -0.568,-0.073c-1.105,-0 -2.055,0.814 -2.224,1.906c-1.083,6.917 -4.458,28.583 -2.875,32.833Z" style="fill:#2f2e41;fill-rule:nonzero;"/><ellipse cx="1774.42" cy="870.292" rx="23.167" ry="29.333" style="fill:#f9b499;"/><path d="M1854.96,978.792c0,-0 12.25,-6.125 17.125,-29.167" style="fill:none;fill-rule:nonzero;stroke:#f9b499;stroke-width:4.17px;"/><path d="M2217.58,1102.46c0.801,14.699 -10.597,27.467 -25.291,28.334l-263.125,15.666c-12.32,0.452 -22.91,-9.114 -23.709,-21.416l-37.833,-565.209c-0.044,-0.677 -0.067,-1.356 -0.067,-2.035c0,-16.495 13.132,-30.265 29.609,-31.048l265.916,-12.5c12.54,-0.588 23.371,9.175 24.084,21.708l30.416,566.5Z" style="fill:#fff;fill-rule:nonzero;"/><path d="M2224.38,944.542c0,-0 13.792,10.083 -4.167,55.125c0,-0 -24.416,63.708 5.292,77.541c0,0 27.625,14.834 37.167,-28.666c-0,-0 34,-73.292 6.375,-105.125l-40.334,-41.417l-6.375,4.167l2.042,38.375Z" style="fill:#f9b499;fill-rule:nonzero;"/><path d="M2213.42,748.75c-0,0 11.958,2.458 2.416,29.167c0,-0 -40.5,69.083 -35.916,109c1.568,13.669 13.271,24.106 27.031,24.106c2.744,0 5.473,-0.415 8.094,-1.231c9.906,-3.185 18.19,-10.109 23.083,-19.292l54.167,-112.5c-0,0 19.083,-40.333 -19.125,-61.583l-26.542,-19.084c0,0 -3.708,31.834 -34.417,27.25l1.209,24.167Z" style="fill:#f9b499;fill-rule:nonzero;"/><path d="M2205.04,592.125c-0,0 43.708,-22.458 62.791,17.875c0,0 18.084,34.333 -21.208,87.083c0,0 -5.333,35.042 -34,28.667c0,0 -44.583,-14.875 -6.375,-84.958c0,-0 18.083,-23.875 0,-22.834l-1.208,-25.833Z" style="fill:#f9b499;fill-rule:nonzero;"/><path d="M2561.04,991.75l51.5,-1.833l16.541,275.916l-68.041,-274.083Z" style="fill:#2f2e41;fill-rule:nonzero;"/><path d="M2603.33,905.292l25.75,360.541l356.875,0l-36.791,-375.25l-345.834,14.709Z" style="fill:#e6e7e8;fill-rule:nonzero;"/><path d="M2654.83,980.708l-25.75,285.125l380.792,0l45.958,-320.041l-182.083,-9.209l-18.417,45.959l-200.5,-1.834Z" style="fill:#0071f2;fill-rule:nonzero;"/><path d="M977.958,976.917l25.75,285.083l-380.75,0l-46,-320.042l182.125,-9.208l18.375,46l200.5,-1.833Z" style="fill:#0071f2;fill-rule:nonzero;"/><path d="M2157.62,635.75l-25.125,-0.875l-8.083,134.667l33.208,-133.792Z" style="fill:#2f2e41;fill-rule:nonzero;"/><path d="M2136.96,593.542l-12.541,176l-174.209,-0l17.959,-183.167l168.791,7.167Z" style="fill:#e6e7e8;fill-rule:nonzero;"/><path d="M2111.83,630.375l12.584,139.167l-185.875,-0l-22.417,-156.25l88.875,-4.459l8.958,22.417l97.875,-0.875Z" style="fill:#0071f2;fill-rule:nonzero;"/><path d="M2173.71,960.75l-25.166,-0.875l-8.042,134.667l33.208,-133.792Z" style="fill:#2f2e41;fill-rule:nonzero;"/><path d="M2153.04,918.542l-12.542,176l-174.208,-0l17.958,-183.167l168.792,7.167Z" style="fill:#e6e7e8;fill-rule:nonzero;"/><path d="M2127.92,955.375l12.583,139.167l-185.875,-0l-22.458,-156.25l88.916,-4.459l8.959,22.417l97.875,-0.875Z" style="fill:#0071f2;fill-rule:nonzero;"/><rect x="2035.92" y="781.75" width="4.167" height="14.583" style="fill:#2f2e41;"/><rect x="2035.92" y="821.167" width="4.167" height="24.792" style="fill:#2f2e41;"/><rect x="2035.92" y="870.75" width="4.167" height="14.583" style="fill:#2f2e41;"/></svg>