<?xml version="1.0" encoding="UTF-8" standalone="no"?><!DOCTYPE svg PUBLIC "-//W3C//DTD SVG 1.1//EN" "http://www.w3.org/Graphics/SVG/1.1/DTD/svg11.dtd"><svg width="100%" height="100%" viewBox="0 0 3608 2846" version="1.1" xmlns="http://www.w3.org/2000/svg" xmlns:xlink="http://www.w3.org/1999/xlink" xml:space="preserve" xmlns:serif="http://www.serif.com/" style="fill-rule:evenodd;clip-rule:evenodd;stroke-linejoin:round;stroke-miterlimit:2;"><path d="M1732.88,2362.67l-1103.08,-0l-60.375,-1774.04l1103.08,0l60.375,1774.04Z" style="fill:#ccc;fill-rule:nonzero;"/><path d="M1787.96,2307.58l-1103.12,0l-60.416,-1774.04l1103.08,-0l60.458,1774.04Z" style="fill:#0998b7;fill-rule:nonzero;"/><path d="M968.173,821.019c118.024,-120.06 314.7,-118.388 438.926,3.73c124.225,122.119 129.26,318.738 11.236,438.798c-118.024,120.06 -314.7,118.389 -438.925,-3.73c-124.226,-122.119 -129.261,-318.737 -11.237,-438.798Z" style="fill:#0998b7;"/><path d="M1449.42,1042.38c1.573,42.27 -7.664,84.252 -26.834,121.958c-42.111,82.755 -127.733,134.801 -220.583,134.084c-94.874,-0.531 -182.564,-51.726 -229.667,-134.084c-21.577,-37.133 -33.631,-79.036 -35.083,-121.958c-5.794,-134.719 100.282,-250.349 235,-256.167c4.167,0 8.333,-0.25 12.5,-0.208c141.681,1.084 259.075,114.8 264.667,256.375Z" style="fill:#fff;fill-rule:nonzero;"/><path d="M1422.46,1164.33c-42.14,82.748 -127.767,134.787 -220.625,134.084c-94.863,-0.529 -182.543,-51.727 -229.625,-134.084c65.684,-44.804 143.45,-68.623 222.959,-68.291c80.783,0.179 159.787,23.916 227.291,68.291Z" style="fill:#0998b7;fill-rule:nonzero;"/><path d="M1107.61,873.265c43.399,-44.147 115.713,-43.538 161.385,1.36c45.673,44.898 47.519,117.191 4.12,161.338c-43.398,44.148 -115.712,43.538 -161.385,-1.36c-45.672,-44.897 -47.518,-117.191 -4.12,-161.338Z" style="fill:#0998b7;"/><path d="M1566.33,1665.12l-703.666,0l-4.75,-139.833l703.666,-0l4.75,139.833Z" style="fill:#fff;fill-rule:nonzero;"/><path d="M1574.88,1915.04l-703.75,-0l-4.75,-139.834l703.75,0l4.75,139.834Z" style="fill:#fff;fill-rule:nonzero;"/><path d="M1303.29,1794.5l-169.584,23.292c-6.443,0.735 -11.143,6.638 -10.416,13.083c-0.02,0.291 -0.02,0.584 -0,0.875l22.541,113.667c1.492,6.87 8.068,11.516 15.042,10.625l169.583,-23.292c6.477,-0.818 11.138,-6.813 10.334,-13.292l-0,-0.75l-22.25,-113.666c-1.478,-6.961 -8.217,-11.619 -15.25,-10.542Zm-48.709,115.125l-31.083,4.167l-3.042,-36.667c-6.425,-2.836 -11.089,-8.62 -12.5,-15.5c-2.227,-10.375 4.463,-20.749 14.834,-23l1.958,-0.333c11.384,-1.486 22.135,6.107 24.542,17.333c1.382,6.667 -0.93,13.586 -6.042,18.083l11.333,35.917Z" style="fill:#ccc;fill-rule:nonzero;"/><path d="M1286.5,1788.33c-6.174,0.773 -11.996,-3.308 -13.375,-9.375l-2.167,-11.125c-6.393,-31.134 -35.074,-53.016 -66.791,-50.958c-28.532,1.593 -51.147,25.506 -51.147,54.082c0,3.725 0.385,7.439 1.147,11.085l2.458,12.833c0.169,0.75 0.254,1.516 0.254,2.285c-0,4.948 -3.526,9.247 -8.379,10.215l-0.958,-0c-6.186,0.873 -12.063,-3.258 -13.334,-9.375l-2.125,-10.833c-1.099,-5.201 -1.653,-10.502 -1.653,-15.818c0,-36.024 25.447,-67.406 60.695,-74.849l3.125,-0.583c45.533,-7.663 89.636,22.207 99.417,67.333l2.5,12.75c0.129,0.661 0.195,1.333 0.195,2.006c-0,5.005 -3.607,9.337 -8.529,10.244l-1.333,0.083Z" style="fill:#ccc;fill-rule:nonzero;"/><path d="M1458.71,2110.88l-458.083,0l-3.042,-91.042l458.042,0l3.083,91.042Z" style="fill:#ccc;fill-rule:nonzero;"/><path d="M1196.04,1595.21c0.015,0.354 0.023,0.708 0.023,1.061c-0,13.072 -10.462,23.96 -23.523,24.481l-1.209,0c-14.15,-0.099 -25.883,-11.444 -26.458,-25.583c-0.014,-0.34 -0.021,-0.68 -0.021,-1.02c-0,-13.071 10.46,-23.958 23.521,-24.48l1.167,-0c14.151,0.076 25.903,11.403 26.5,25.541Z" style="fill:#0998b7;fill-rule:nonzero;"/><path d="M1085.58,1595.21c0.017,0.369 0.025,0.738 0.025,1.107c0,13.018 -10.393,23.872 -23.4,24.435l-1.333,0c-14.134,-0.121 -25.843,-11.46 -26.417,-25.583c-0.536,-13.452 10.091,-24.962 23.542,-25.5l1.167,-0c14.143,0.056 25.884,11.408 26.416,25.541Z" style="fill:#0998b7;fill-rule:nonzero;"/><path d="M1306.12,1595.21c0.015,0.354 0.023,0.708 0.023,1.061c-0,13.072 -10.462,23.96 -23.523,24.481l-1.208,0c-14.151,-0.079 -25.885,-11.443 -26.417,-25.583c-0.01,-0.283 -0.015,-0.565 -0.015,-0.847c0,-13.109 10.539,-24.006 23.64,-24.445l1.167,0c14.036,0.096 25.694,11.311 26.333,25.333Z" style="fill:#0998b7;fill-rule:nonzero;"/><path d="M1416.21,1595.21c0.585,13.415 -9.961,24.938 -23.375,25.542l-1.166,0c-14.135,-0.121 -25.843,-11.46 -26.417,-25.583c-0.014,-0.339 -0.021,-0.679 -0.021,-1.018c-0,-13.087 10.485,-23.982 23.563,-24.482l1.166,-0c14.073,0.165 25.7,11.479 26.25,25.541Z" style="fill:#0998b7;fill-rule:nonzero;"/><path d="M2385,911.792c10.333,16.666 18.958,32.458 27.833,49c8.875,16.541 16.667,33.333 24.709,50c16.003,34.449 29.24,70.117 39.583,106.666c1.417,4.584 2.417,9.5 3.583,14.209l1.709,7.25l0.875,3.583l1,5.875c1.744,13.393 0.924,26.997 -2.417,40.083c-5.342,20.323 -13.49,39.802 -24.208,57.875c-19.183,32.844 -42.36,63.186 -69,90.334l-32.709,-24.667c16.419,-30.189 31.028,-61.327 43.75,-93.25c5.657,-14.054 9.643,-28.724 11.875,-43.708c0.711,-4.579 0.498,-9.255 -0.625,-13.75l-3.125,-9.5c-1.208,-3.875 -2.375,-7.75 -3.875,-11.709c-11.796,-32.049 -25.459,-63.38 -40.916,-93.833c-15.542,-31.083 -32.25,-62.167 -48.959,-91.667l70.917,-42.791Z" style="fill:#f9b499;fill-rule:nonzero;"/><path d="M2364.29,1301.33l-35.75,18.875l41,48.042c-0,-0 25.666,-17.333 26.833,-43.75l-32.083,-23.167Z" style="fill:#f9b499;fill-rule:nonzero;"/><path d="M2280.62,1349.83l43.875,34.875l45.042,-16.458l-41,-48l-47.917,29.583Z" style="fill:#f9b499;fill-rule:nonzero;"/><path d="M2113.04,817.458l-0,-50.791l67.416,7.791c0,0 -1.083,43.792 -38.833,56.709l-28.583,-13.709Z" style="fill:#f9b499;fill-rule:nonzero;"/><path d="M2132.46,729.833l47.459,13.667l0.875,31.167l-67.417,-8.167l19.083,-36.667Z" style="fill:#f9b499;fill-rule:nonzero;"/><path d="M2179.92,743.5l-47.459,-13.667l-9.25,17.709c1.05,28.413 18.03,53.932 43.834,65.875c8.161,-11.383 12.93,-24.851 13.75,-38.834l-0.875,-31.083Z" style="fill:#f4a48e;fill-rule:nonzero;"/><path d="M2250.46,736.208c-7.75,40 -12.5,95.375 15.542,122.042c0,0 -10.875,40.542 -85.458,40.542c-81.625,-0 -39.209,-35.584 -39.209,-35.584c33.917,-10.541 33.625,-49.166 25.875,-80.25l83.25,-46.75Z" style="fill:#f9b499;fill-rule:nonzero;"/><path d="M2281.17,884.958c7.291,-10.25 6.958,-42.791 -0.792,-48.541c-12.5,-9.25 -66.167,-11.417 -138.333,5.208c7.75,31.542 -8.959,48 -8.959,48l148.084,-4.667Z" style="fill:#32c487;fill-rule:nonzero;"/><path d="M2203.75,2735.62l-68.25,0l-6.792,-126.583l68.25,-0l6.792,126.583Z" style="fill:#f9b499;fill-rule:nonzero;"/><path d="M2607.08,2710.29l-67.666,11.583l-68.042,-117.875l67.75,-11.542l67.958,117.834Z" style="fill:#f9b499;fill-rule:nonzero;"/><path d="M2539.58,2716.67l60.084,-12.959c2.142,-0.471 4.341,0.629 5.25,2.625l20.833,45.209c0.56,1.093 0.853,2.305 0.853,3.534c-0,2.925 -1.656,5.61 -4.27,6.924c-0.732,0.374 -1.52,0.627 -2.333,0.75c-20.833,4.167 -31.458,5.125 -57.792,10.792c-16.25,3.541 -52.916,12.5 -75.333,17.291c-22.417,4.792 -30.167,-16.666 -21.375,-20.833c39.208,-17.958 55.542,-33.75 66.167,-48.417c1.953,-2.545 4.769,-4.294 7.916,-4.916Z" style="fill:#32c487;fill-rule:nonzero;"/><path d="M2142.88,2729.17l59.667,-0c2.221,0 4.164,1.545 4.666,3.708l10.792,48.542c0.183,0.667 0.275,1.355 0.275,2.047c0,3.509 -2.382,6.6 -5.775,7.494c-0.745,0.211 -1.519,0.296 -2.292,0.25c-21.5,-0.375 -52.583,-1.625 -79.625,-1.625c-31.666,0 -58.958,1.709 -96.083,1.709c-22.458,-0 -28.667,-22.667 -19.25,-24.75c42.708,-9.334 77.667,-10.334 114.583,-33.334c3.9,-2.505 8.409,-3.903 13.042,-4.041Z" style="fill:#32c487;fill-rule:nonzero;"/><path d="M2363.71,870.833c51.209,11.75 93.25,142.459 93.25,142.459l-102.333,78.375c-26.545,-28.402 -45.281,-63.204 -54.375,-101c-18.083,-68.709 11.125,-132.042 63.458,-119.834Z" style="fill:#32c487;fill-rule:nonzero;"/><path d="M2094.42,1026.67c-12.75,13.75 -25.5,26.041 -38.875,38.833c-6.584,6.208 -13.25,12.5 -20.084,18.417l-10.458,9.083l-2.583,2.25l-4.417,3.583c-4.573,3.628 -9.619,6.613 -15,8.875c-6.002,2.529 -12.445,3.846 -18.958,3.875c-5.558,0.008 -11.073,-0.966 -16.292,-2.875c-13.401,-5.112 -23.654,-16.229 -27.667,-30c-1.188,-3.763 -1.943,-7.649 -2.25,-11.583c-0.416,-4.602 -0.416,-9.232 0,-13.833c0.316,-3.356 0.802,-6.694 1.459,-10c2.14,-10.591 5.15,-20.988 9,-31.084c3.513,-9.581 7.532,-18.969 12.041,-28.125c5,-9.833 9.75,-17.083 14.459,-25.291c19.244,-31.543 41.217,-61.338 65.666,-89.042c24.174,-27.552 50.828,-52.825 79.625,-75.5l28.584,29.417c-20.042,26.875 -39.792,55.708 -58.042,84.083c-18.176,28.224 -34.771,57.436 -49.708,87.5c-3.334,7.292 -7.792,15.542 -9.875,21.458c-2.795,6.803 -5.202,13.758 -7.209,20.834c-1.961,6.41 -3.451,12.955 -4.458,19.583l0,3.083l0,-0.666c-0.12,-1.743 -0.456,-3.465 -1,-5.125c-1.661,-5.514 -4.736,-10.499 -8.917,-14.459c-3.715,-3.426 -8.079,-6.075 -12.833,-7.791c-4.167,-1.578 -8.586,-2.383 -13.042,-2.375c-4.285,-0.072 -8.539,0.736 -12.5,2.375c-1.344,0.543 -2.64,1.198 -3.875,1.958l2.917,-2.708l9.417,-8.334l18.583,-17.416c12.25,-11.584 24.625,-23.917 36.25,-35.417l60.042,56.417Z" style="fill:#f9b499;fill-rule:nonzero;"/><path d="M2319.83,966.667c27.834,27.5 36.917,77.666 38.834,121.166l-4.5,3.834c-26.469,-28.425 -45.133,-63.225 -54.167,-101c-1,-4.167 -1.958,-7.75 -2.625,-12.209l22.458,-11.791Z" style="fill-opacity:0.2;fill-rule:nonzero;"/><path d="M2040.08,925c-11.166,59.042 -18.166,180.292 14.25,420.333l292.542,0c2,-44.791 -26.167,-263.708 17.083,-475c-32.325,-6.247 -65.017,-10.422 -97.875,-12.5c-41.396,-2.375 -82.895,-2.375 -124.291,0c-13.667,1.25 -27.209,3.292 -38.834,5.375c-31.673,5.554 -56.771,30.22 -62.875,61.792Z" style="fill:#32c487;fill-rule:nonzero;"/><path d="M2084.83,1012.5l-52.791,-12.5c-1.667,32.042 -1.792,71.625 0.541,120.833c24.292,-27.833 55.375,-70.833 52.25,-108.333Z" style="fill-opacity:0.2;fill-rule:nonzero;"/><path d="M2276.42,677.792c-14,52.375 -19.584,83.75 -51.875,105.5c-48.584,33.083 -109.167,-4.834 -110.709,-60.125c-1.708,-50 21.5,-127.25 77.667,-137.834c4.501,-0.845 9.07,-1.27 13.65,-1.27c40.572,-0 73.958,33.386 73.958,73.958c0,6.682 -0.905,13.332 -2.691,19.771Z" style="fill:#f9b499;fill-rule:nonzero;"/><path d="M2153.83,679.75c-2.625,-7 -14.666,-61.167 -3.333,-75c11.333,-13.833 140.667,-3.875 159.792,14.917c31.75,31.083 9.708,59.041 -25,95c-26.084,27.041 -27.084,57.5 -40.292,62.166c-23.292,7.75 -58.875,0.459 -66.042,-24.166c-7.166,-24.625 -25.125,-72.917 -25.125,-72.917Z" style="fill-rule:nonzero;"/><path d="M2294.58,557.833c-45.833,-19.416 -131.333,2.125 -177.666,-9.083c-1.222,35.442 24.178,66.677 59.125,72.708c38.45,7.348 77.521,10.962 116.666,10.792c50.667,-2.292 40.625,-57.833 1.875,-74.417Z" style="fill-rule:nonzero;"/><path d="M2178.71,681.917c-1.078,13.455 -6.539,26.192 -15.541,36.25c-11.959,13.166 -24.417,4.916 -26.5,-11c-1.875,-14.459 2,-38.834 16.666,-45.834c14.667,-7 26.375,4.334 25.375,20.584Z" style="fill:#f9b499;fill-rule:nonzero;"/><path d="M2158.04,1345.83c-0,0 62.125,417.417 96.125,573.875c37.208,171.292 237.166,738 237.166,738l97.792,-21.208c0,0 -139.833,-461.917 -170.833,-701.417c-24.084,-183.958 -71.375,-589.541 -71.375,-589.541l-188.875,0.291Z" style="fill:#1e1e1e;fill-rule:nonzero;"/><path d="M2197.25,1494.46c71.708,14.084 64.083,281.459 55.458,419.042c-20.833,-97.25 -50.958,-284.333 -71.625,-417.083c5.01,-2.467 10.713,-3.158 16.167,-1.959Z" style="fill-opacity:0.3;fill-rule:nonzero;"/><path d="M2054.17,1345.83c-0,0 -7.792,408.334 -1.584,575c6.209,173.334 66.667,740.792 66.667,740.792l92.833,0c0,0 3.334,-557.375 7.792,-727.583c4.5,-185.5 26.875,-588.334 26.875,-588.334l-192.583,0.125Z" style="fill:#1e1e1e;fill-rule:nonzero;"/><path d="M2154.62,943.292c26.167,70.833 -127.708,153.833 -127.708,153.833l-66.667,-85.458c0,-0 44.833,-88.709 99.208,-128.625c67.167,-49.25 75.167,6.5 95.167,60.25Z" style="fill:#32c487;fill-rule:nonzero;"/><ellipse cx="2757.58" cy="228.542" rx="280.375" ry="178.667" style="fill:#0998b7;"/><path d="M2656.46,318.5c-38.021,-0.05 -70.817,-27.701 -77.291,-65.167c-6.365,-40.668 19.891,-79.887 59.916,-89.5c32.563,-7.477 66.484,6.7 84.042,35.125l180,-37.125c14.261,-3.132 28.707,5.353 32.917,19.334c0.633,2.322 0.954,4.719 0.954,7.127c0,12.285 -8.359,23.105 -20.246,26.206l-1.458,0.375l-4.625,0.917c-1.415,0.245 -2.635,1.14 -3.292,2.416c-0.623,1.318 -0.623,2.849 0,4.167l3.208,8.333c2.133,5.494 0.106,11.786 -4.833,15c-3.874,2.384 -6.432,6.436 -6.917,10.959c-0.458,5.233 -4.257,9.606 -9.375,10.791l-3.666,0.792c-5.182,0.939 -10.413,-1.576 -12.917,-6.208c-2.701,-4.622 -7.669,-7.472 -13.022,-7.472c-2.754,-0 -5.456,0.754 -7.811,2.18c-3.988,2.391 -6.674,6.475 -7.292,11.083c-0.414,5.215 -4.192,9.586 -9.292,10.75l-3.666,0.75c-5.173,0.961 -10.406,-1.563 -12.875,-6.208c-2.385,-3.882 -6.34,-6.544 -10.834,-7.292c-6.125,-0.802 -10.783,-6.031 -10.875,-12.208l0,-9.292c-0.108,-2.549 -2.235,-4.588 -4.787,-4.588c-0.071,0 -0.142,0.002 -0.213,0.005c-0.248,-0.041 -0.501,-0.041 -0.75,0l-57.375,11.792c-4.75,32.478 -29.442,58.674 -61.583,65.333c-5.279,1.081 -10.653,1.625 -16.042,1.625Zm-15.541,-147.667c-36.359,8.491 -60.268,44.09 -54.375,80.959c6.387,33.222 35.728,57.459 69.559,57.459c35.395,-0 65.631,-26.531 70.232,-61.626l0,-2.792l63.334,-12.833c0.968,-0.236 1.96,-0.355 2.956,-0.355c5.926,0 11.077,4.214 12.252,10.022c0.172,0.838 0.284,1.687 0.333,2.541l0,8.875c0.039,2.155 1.593,4.006 3.709,4.417c6.885,0.99 12.945,5.097 16.416,11.125c0.84,1.714 2.691,2.707 4.584,2.458l3.541,-0.75c1.905,-0.486 3.26,-2.2 3.292,-4.166c1.179,-11.644 11.097,-20.608 22.8,-20.608c8.221,-0 15.836,4.424 19.908,11.566c0.817,1.699 2.627,2.704 4.5,2.5l3.75,-0.75c1.898,-0.468 3.224,-2.213 3.167,-4.167c0.796,-6.897 4.737,-13.054 10.667,-16.666c1.752,-1.284 2.422,-3.605 1.625,-5.625l-3.209,-8.334c-0.563,-1.446 -0.853,-2.986 -0.853,-4.538c0,-5.164 3.2,-9.819 8.02,-11.67c0.653,-0.238 1.321,-0.433 2,-0.583l4.75,-1c10.454,-2.234 17.223,-12.669 15,-23.125c0.024,-0.236 0.024,-0.473 0,-0.709c-3.1,-10.102 -13.627,-16.154 -23.917,-13.75l-185.041,38.417l-1.417,-2.375c-15.208,-27.123 -46.786,-40.974 -77.042,-33.792l-0.541,-0.125Zm15.541,118.709c-26.983,-0.246 -49.048,-22.514 -49.048,-49.498c-0,-27.155 22.345,-49.5 49.5,-49.5c27.155,-0 49.5,22.345 49.5,49.5c-0,9.753 -2.883,19.293 -8.285,27.414c-7.203,11.073 -18.531,18.829 -31.458,21.542c-3.314,0.584 -6.678,0.835 -10.042,0.75l-0.167,-0.208Zm0,-91.667c-2.895,0.005 -5.782,0.284 -8.625,0.833c-19.381,4.125 -33.36,21.393 -33.36,41.209c-0,23.112 19.019,42.131 42.131,42.131c2.948,0 5.888,-0.309 8.771,-0.923c19.429,-4.021 33.488,-21.288 33.488,-41.128c-0,-14.115 -7.115,-27.319 -18.905,-35.08c-6.877,-4.554 -14.961,-6.948 -23.208,-6.875l-0.292,-0.167Z" style="fill:#fff;fill-rule:nonzero;"/><ellipse cx="2529.42" cy="453.292" rx="92.125" ry="58.708" style="fill:#0998b7;"/><ellipse cx="2382.83" cy="512" rx="37.833" ry="24.083" style="fill:#0998b7;"/></svg>