<?xml version="1.0" encoding="UTF-8" standalone="no"?><!DOCTYPE svg PUBLIC "-//W3C//DTD SVG 1.1//EN" "http://www.w3.org/Graphics/SVG/1.1/DTD/svg11.dtd"><svg width="100%" height="100%" viewBox="0 0 3608 2846" version="1.1" xmlns="http://www.w3.org/2000/svg" xmlns:xlink="http://www.w3.org/1999/xlink" xml:space="preserve" xmlns:serif="http://www.serif.com/" style="fill-rule:evenodd;clip-rule:evenodd;stroke-miterlimit:10;"><g id="f232cc71-039f-4b0a-aa33-c9665dc0aefd"><path d="M3012.5,220c-38.333,0 -684.583,4.167 -725,2.958c-1.706,-0.043 -3.085,-1.459 -3.085,-3.165c-0,-1.079 0.551,-2.087 1.46,-2.668c25.667,-12.5 54.667,-10.083 81.25,-19.042c15.708,-5.375 25.292,-15.5 36.167,-27.25c8.991,-10.232 20.603,-17.825 33.583,-21.958c11.909,-3.59 24.554,-3.992 36.667,-1.167c13.083,3.125 24.458,10.667 37,15.375c31.041,11.709 61.208,0.584 83.333,-22.375c18.333,-18.958 36.25,-36.833 61.083,-47c20.514,-9.265 43.983,-9.598 64.75,-0.916c23.709,10.666 40,32.375 62.25,45.333c26.417,15.458 58,11.75 87.084,16.417c29.083,4.666 51.541,29.166 77.125,43.375c8.329,5.327 17.95,8.294 27.833,8.583c5.708,-0.5 11.375,-1.292 17,-2.333c8.833,-1.125 17.125,-0.875 23.083,6.458c1.042,1.875 0.792,9.375 -1.583,9.375Z" style="fill:#ebebeb;fill-rule:nonzero;"/><path d="M1493.88,767.292c-38.417,-0 -684.667,4.166 -725.25,3c-2.875,-0 -4.5,-4.375 -1.583,-5.834c25.625,-12.5 54.75,-10.291 81.458,-19.125c15.625,-5.333 25.25,-15.5 36.083,-27.25c9.045,-10.21 20.677,-17.797 33.667,-21.958c11.887,-3.556 24.5,-3.944 36.583,-1.125c13.084,3.125 24.5,10.708 37,15.333c31.042,11.75 61.209,0.584 83.334,-22.375c18.291,-18.916 36.25,-36.791 61.125,-47c20.491,-9.26 43.944,-9.562 64.666,-0.833c23.709,10.667 40,32.042 62.292,45.292c26.375,15.416 57.958,11.791 87.083,16.458c29.125,4.667 51.542,29.167 77.125,43.292c8.323,5.385 17.967,8.383 27.875,8.666c5.683,-0.457 11.333,-1.264 16.917,-2.416c8.833,-1.042 17.167,-0.834 23.083,6.541c1.334,1.542 1.042,9.334 -1.458,9.334Z" style="fill:#ebebeb;fill-rule:nonzero;"/><path d="M1774.42,560.25c-28.042,0 -500,3.125 -529.5,2.125c-1.201,-0.076 -2.148,-1.084 -2.148,-2.287c0,-0.749 0.367,-1.451 0.981,-1.88c18.708,-9.25 39.875,-7.416 59.333,-13.916c11.417,-3.875 18.417,-11.334 26.334,-19.959c6.645,-7.478 15.202,-13.01 24.75,-16c8.68,-2.593 17.89,-2.866 26.708,-0.791c9.542,2.25 17.833,7.75 26.708,11.208c22.667,8.542 44.709,0.417 60.875,-16.333c13.375,-13.834 26.709,-26.709 44.584,-34.375c14.992,-6.736 32.126,-6.962 47.291,-0.625c17.292,7.833 29.167,23.625 45.459,33.333c19.208,11.208 42.291,8.583 63.541,11.958c21.25,3.375 37.5,21.375 56.292,31.667c6.07,3.793 13.052,5.88 20.208,6.042c4.194,-0.369 8.366,-0.953 12.5,-1.75c6.417,-0.792 12.5,-0.625 16.667,4.75c1.417,1.291 1.208,6.833 -0.583,6.833Z" style="fill:#ebebeb;fill-rule:nonzero;"/><path d="M2818.96,487.083c-28.041,0 -500,3.084 -529.5,2.125c-1.225,-0.043 -2.21,-1.064 -2.21,-2.29c0,-0.028 0.001,-0.056 0.002,-0.085c0.036,-0.741 0.423,-1.423 1.042,-1.833c18.708,-9.25 39.916,-7.417 59.333,-13.958c11.458,-3.834 18.458,-11.292 26.417,-19.917c6.557,-7.463 15.03,-12.996 24.5,-16c8.679,-2.586 17.884,-2.873 26.708,-0.833c9.542,2.25 17.875,7.75 27.042,11.25c22.625,8.333 44.625,0.416 60.833,-16.375c13.333,-13.834 26.708,-26.709 44.583,-34.334c14.987,-6.76 32.132,-6.987 47.292,-0.625c17.292,7.834 29.167,23.584 45.417,33.334c19.291,11.208 42.333,8.583 63.583,11.958c21.25,3.375 37.5,21.333 56.292,31.667c6.107,3.879 13.143,6.052 20.375,6.291c4.195,-0.353 8.368,-0.938 12.5,-1.75c6.416,-0.791 12.5,-0.666 16.666,4.75c1,1.292 1,6.625 -0.875,6.625Z" style="fill:#ebebeb;fill-rule:nonzero;"/><path d="M1478.38,198.667c-28.042,-0 -500,3.083 -529.458,2.166c-0.001,0 -0.001,0 -0.002,0c-1.234,0 -2.25,-1.015 -2.25,-2.25c0,-0.027 0.001,-0.055 0.002,-0.083c-0.007,-0.796 0.427,-1.534 1.125,-1.917c18.875,-9.083 39.708,-7.375 59.291,-13.958c11.417,-3.833 18.459,-11.333 26.375,-19.875c6.567,-7.492 15.075,-13.029 24.584,-16c8.665,-2.662 17.887,-2.964 26.708,-0.875c9.224,3.172 18.242,6.915 27,11.208c22.667,8.334 44.708,0.459 60.917,-16.333c13.291,-13.833 26.708,-26.708 44.583,-34.292c14.985,-6.742 32.111,-6.999 47.292,-0.708c17.291,7.875 29.166,23.625 45.375,33.333c19.25,10.917 42.291,8.417 63.625,11.75c21.333,3.334 37.5,21.375 56.291,31.667c6.035,3.875 13,6.063 20.167,6.333c4.167,-0.416 8.333,-1.083 12.5,-1.916c5.998,-1.587 12.407,0.239 16.667,4.75c1.291,1.25 1.083,7 -0.792,7Z" style="fill:#ebebeb;fill-rule:nonzero;"/><path d="M850,1134.62c-3.083,-1.292 -4.417,3.708 -1.375,4.958c8.076,3.204 12.361,12.214 9.75,20.5c-0.025,0.147 -0.038,0.296 -0.038,0.445c0,1.44 1.185,2.625 2.625,2.625c1.088,-0 2.069,-0.677 2.455,-1.695c3.183,-11.014 -2.695,-22.771 -13.417,-26.833Z" style="fill:#ebebeb;fill-rule:nonzero;"/><path d="M872.75,1129.75c-3.247,7.172 -4.292,15.15 -3,22.917c0.542,3.291 5.333,1.875 4.958,-1.375c-0.998,-6.414 -0.13,-12.983 2.5,-18.917c1.334,-3 -3.125,-5.667 -4.458,-2.625Z" style="fill:#ebebeb;fill-rule:nonzero;"/><path d="M2516.67,1190.04c-3.084,-1.25 -4.417,3.708 -1.375,5c8.011,3.183 12.297,12.084 9.791,20.333c-0.061,0.224 -0.092,0.455 -0.092,0.687c-0,1.423 1.17,2.593 2.592,2.593c1.164,0 2.192,-0.783 2.5,-1.905c3.089,-10.975 -2.768,-22.634 -13.416,-26.708Z" style="fill:#ebebeb;fill-rule:nonzero;"/><path d="M2539.5,1185.21c-3.322,7.165 -4.425,15.162 -3.167,22.959c0.5,3.25 5.334,1.875 4.959,-1.375c-1.015,-6.418 -0.131,-12.995 2.541,-18.917c1.5,-3.125 -3,-5.708 -4.333,-2.667Z" style="fill:#ebebeb;fill-rule:nonzero;"/><path d="M803.583,2257.46c-3.125,-1.208 -4.458,3.75 -1.416,5.042c8.027,3.168 12.334,12.074 9.833,20.333c-0.059,0.219 -0.088,0.444 -0.088,0.67c-0,1.168 0.792,2.198 1.921,2.497c0.216,0.058 0.438,0.087 0.661,0.087c1.16,0 2.181,-0.795 2.464,-1.92c3.115,-10.966 -2.729,-22.634 -13.375,-26.709Z" style="fill:#ebebeb;fill-rule:nonzero;"/><path d="M826.208,2252.67c-3.209,7.183 -4.252,15.149 -3,22.916c0.542,3.25 5.334,1.875 5.042,-1.416c-1.032,-6.396 -0.178,-12.957 2.458,-18.875c1.334,-3.042 -3.125,-5.584 -4.5,-2.625Z" style="fill:#ebebeb;fill-rule:nonzero;"/><path d="M1194.33,1245.54c-3.083,-1.209 -4.416,3.75 -1.375,5.041c8.028,3.168 12.335,12.074 9.834,20.334c-0.119,0.301 -0.179,0.621 -0.179,0.944c-0,1.418 1.166,2.584 2.583,2.584c1.271,-0 2.363,-0.938 2.554,-2.195c3.11,-10.976 -2.754,-22.65 -13.417,-26.708Z" style="fill:#ebebeb;fill-rule:nonzero;"/><path d="M1217.04,1240.92c-3.209,7.183 -4.252,15.149 -3,22.916c0.541,3.25 5.333,1.875 5.041,-1.416c-1.032,-6.396 -0.178,-12.957 2.459,-18.875c1.25,-3.084 -3.167,-5.667 -4.5,-2.625Z" style="fill:#ebebeb;fill-rule:nonzero;"/><path d="M1873,1132.08c-2.917,-1.541 -5.333,2.959 -2.625,4.5c5.777,2.994 9.169,9.233 8.542,15.709c-0,3.291 4.916,3.291 5.375,-0c0.611,-8.372 -3.842,-16.342 -11.292,-20.209Z" style="fill:#ebebeb;fill-rule:nonzero;"/><path d="M1888.46,1124.04c-1.625,-2.959 -6.125,-0.334 -4.5,2.625c3.669,6.756 5.373,14.408 4.917,22.083c0,1.463 1.204,2.667 2.667,2.667c1.463,-0 2.666,-1.204 2.666,-2.667c0.37,-8.605 -1.619,-17.15 -5.75,-24.708Z" style="fill:#ebebeb;fill-rule:nonzero;"/><path d="M1900.71,1127.46c-2.842,5.063 -3.995,10.904 -3.291,16.667c0.375,3.25 5.333,3.333 5.333,0c-0.661,-4.795 0.245,-9.678 2.583,-13.917c0.693,-1.272 0.247,-2.887 -1,-3.625c-1.237,-0.737 -2.86,-0.345 -3.625,0.875Z" style="fill:#ebebeb;fill-rule:nonzero;"/><path d="M2792.71,2382.92c-0.393,-0.226 -0.838,-0.345 -1.291,-0.345c-1.424,0 -2.595,1.171 -2.595,2.595c0,0.928 0.498,1.788 1.303,2.25c5.761,2.992 9.162,9.2 8.583,15.666c-0.25,3.334 4.917,3.292 5.334,0c0.575,-8.363 -3.89,-16.309 -11.334,-20.166Z" style="fill:#ebebeb;fill-rule:nonzero;"/><path d="M2807.92,2375c-1.625,-2.958 -6.042,-0.333 -4.5,2.583c3.629,6.742 5.33,14.355 4.916,22c0,3.334 4.959,3.334 5.334,0c0.342,-8.563 -1.646,-17.06 -5.75,-24.583Z" style="fill:#ebebeb;fill-rule:nonzero;"/><path d="M2819.92,2378.29c-2.896,5.043 -4.053,10.901 -3.292,16.666c0.417,3.292 5.333,3.292 5.333,0c-0.656,-4.777 0.235,-9.64 2.542,-13.875c1.5,-3.166 -3,-5.75 -4.583,-2.791Z" style="fill:#ebebeb;fill-rule:nonzero;"/><path d="M2947.62,1352.38c-0.326,-0.139 -0.677,-0.211 -1.032,-0.211c-1.44,-0 -2.625,1.185 -2.625,2.625c0,0.817 0.382,1.59 1.032,2.086c5.739,2.99 9.122,9.18 8.542,15.625c-0.25,3.333 4.916,3.333 5.375,0c0.633,-8.354 -3.832,-16.312 -11.292,-20.125Z" style="fill:#ebebeb;fill-rule:nonzero;"/><path d="M2962.79,1344c-1.584,-2.958 -6.084,-0.333 -4.5,2.625c3.659,6.791 5.361,14.466 4.916,22.167c0,3.291 5,3.291 5.375,-0c0.379,-8.638 -1.625,-17.216 -5.791,-24.792Z" style="fill:#ebebeb;fill-rule:nonzero;"/><path d="M2975,1347.46c-2.907,5.039 -4.079,10.897 -3.333,16.667c0.375,3.25 5.333,3.333 5.333,0c-0.664,-4.782 0.243,-9.653 2.583,-13.875c1.334,-3.208 -3.166,-5.708 -4.583,-2.792Z" style="fill:#ebebeb;fill-rule:nonzero;"/><path d="M2161.29,1821.46c0.325,-0.142 0.677,-0.215 1.032,-0.215c1.041,0 1.984,0.629 2.384,1.59c0.457,1.107 0.114,2.392 -0.833,3.125c-6.894,3.957 -10.947,11.528 -10.417,19.459c0,3.375 -5,3.333 -5.333,-0c-0.472,-9.814 4.629,-19.097 13.167,-23.959Z" style="fill:#ebebeb;fill-rule:nonzero;"/><path d="M2142.33,1833.83l1.75,10.417c0.584,3.25 -4.458,4.708 -4.958,1.417c-0.5,-3.292 -1.25,-6.959 -1.833,-10.709c-0.049,-0.2 -0.074,-0.406 -0.074,-0.612c0,-1.417 1.166,-2.583 2.583,-2.583c1.225,-0 2.289,0.87 2.532,2.07Z" style="fill:#ebebeb;fill-rule:nonzero;"/><path d="M957.083,1650.62c-0.326,-0.139 -0.677,-0.211 -1.032,-0.211c-1.44,-0 -2.625,1.185 -2.625,2.625c0,0.817 0.382,1.59 1.032,2.086c7.004,3.896 11.165,11.501 10.667,19.5c0,3.292 5.042,3.292 5.375,0c0.4,-9.872 -4.797,-19.17 -13.417,-24Z" style="fill:#ebebeb;fill-rule:nonzero;"/><path d="M976.042,1663.04l-1.75,10.416c-0.625,3.25 4.416,4.625 4.958,1.375c0.542,-3.25 1.167,-6.958 1.792,-10.416c0.625,-3.459 -4.375,-4.709 -5,-1.375Z" style="fill:#ebebeb;fill-rule:nonzero;"/><path d="M1147.58,1371.92c-2.5,-2.084 -6.166,1.541 -3.625,3.708c6.093,4.887 9.426,12.456 8.917,20.25c0,1.463 1.204,2.667 2.667,2.667c1.463,-0 2.666,-1.204 2.666,-2.667c0.502,-9.22 -3.454,-18.141 -10.625,-23.958Z" style="fill:#ebebeb;fill-rule:nonzero;"/><path d="M1742.42,1888.75c-2.584,-2.083 -6.25,1.542 -3.709,3.708c6.131,4.883 9.496,12.471 9,20.292c0,3.292 5,3.292 5.334,0c0.461,-9.224 -3.486,-18.14 -10.625,-24Z" style="fill:#ebebeb;fill-rule:nonzero;"/><path d="M2524.42,1497.08c2.583,-2.125 6.25,1.542 3.708,3.625c-6.065,4.857 -9.409,12.368 -8.958,20.125c-0,3.375 -5.042,3.334 -5.375,0c-0.441,-9.149 3.51,-17.981 10.625,-23.75Z" style="fill:#ebebeb;fill-rule:nonzero;"/><path d="M2449.08,2258.71c2.5,-2.166 6.167,1.542 3.625,3.625c-6.082,4.914 -9.411,12.489 -8.916,20.292c-0,3.375 -5.042,3.292 -5.334,0c-0.516,-9.21 3.445,-18.125 10.625,-23.917Z" style="fill:#ebebeb;fill-rule:nonzero;"/><path d="M1027,2036.75c2.542,-2.125 6.25,1.542 3.667,3.708c-6.12,4.869 -9.472,12.447 -8.959,20.25c0,3.334 -5.041,3.292 -5.333,0c-0.502,-9.22 3.455,-18.141 10.625,-23.958Z" style="fill:#ebebeb;fill-rule:nonzero;"/><path d="M2332.58,1405.79c-7.145,7.185 -10.272,17.47 -8.333,27.416c0.583,3.25 5.375,1.834 5,-1.416c-1.541,-8.116 1.036,-16.49 6.875,-22.334c2.583,-2.208 -1.25,-5.916 -3.542,-3.666Z" style="fill:#ebebeb;fill-rule:nonzero;"/><path d="M2313.67,1408.79l-0,17.333c-0,1.463 1.203,2.667 2.666,2.667c1.463,-0 2.667,-1.204 2.667,-2.667l0,-17.333c-0,-1.463 -1.204,-2.667 -2.667,-2.667c-1.463,0 -2.666,1.204 -2.666,2.667Z" style="fill:#ebebeb;fill-rule:nonzero;"/><path d="M2341.38,1414.25c-4.757,3.059 -7.539,8.433 -7.292,14.083c0,1.463 1.204,2.667 2.667,2.667c1.463,-0 2.667,-1.204 2.667,-2.667c-0.264,-3.824 1.554,-7.507 4.75,-9.625c2.625,-1.791 -0.125,-6.208 -2.792,-4.458Z" style="fill:#ebebeb;fill-rule:nonzero;"/><path d="M1929.79,1763.67c-7.107,7.191 -10.228,17.443 -8.334,27.375c0.584,3.291 5.375,1.875 5,-1.375c-1.53,-8.123 1.063,-16.498 6.917,-22.334c2.375,-2.25 -1.25,-5.916 -3.583,-3.666Z" style="fill:#ebebeb;fill-rule:nonzero;"/><path d="M1910.92,1766.67l-0,17.333c-0,1.463 1.203,2.667 2.666,2.667c1.463,-0 2.667,-1.204 2.667,-2.667l0,-17.333c-0,-1.463 -1.204,-2.667 -2.667,-2.667c-1.463,0 -2.666,1.204 -2.666,2.667Z" style="fill:#ebebeb;fill-rule:nonzero;"/><path d="M1938.58,1772.17c-4.743,3.051 -7.524,8.405 -7.291,14.041c-0,1.463 1.203,2.667 2.666,2.667c1.463,-0 2.667,-1.204 2.667,-2.667c-0.263,-3.824 1.554,-7.507 4.75,-9.625c2.625,-1.833 0.042,-6.291 -2.792,-4.416Z" style="fill:#ebebeb;fill-rule:nonzero;"/></g><g id="bec2d022-8875-491b-a73c-e3c2ed46c8f2"><path d="M3052.62,1814.88c0,132.625 -204.167,231.292 -482.75,335.667c-638.75,239.25 -437.958,401.333 -386.542,435.666l-1628.62,0c252.292,-288.416 754.959,-450.916 1090.21,-535.541c383.958,-96.959 743.25,-193.334 743.25,-242.417c-0,-61.583 -241.459,-102.167 -551.25,-150.708c-302.542,-47.375 -445.25,-116.417 -445.25,-191.375c-0,-73.459 254.875,-126.667 459.75,-150.25c188.375,-21.709 810.333,-61 810.333,-96.625c0,-28.959 -331.792,-64.75 -429.708,-75.292c-131.125,-14.125 -207.959,-31.667 -207.959,-61.292c0,-5.958 4.834,-11.375 12.834,-16.041l26.708,-0c0,-0 -8.875,7 -8.875,13.5c0,20.833 152.083,32.083 202.667,35.5c151.541,10.666 612.75,56.75 612.75,119.25c-0,35.541 -88.625,61.75 -182.875,78.791c-167.25,30.167 -616.667,68.209 -706.459,80.125c-99.041,13.25 -238.208,36.375 -238.208,61.542c0,23.5 128.458,43.792 269.667,59.583c240,26.709 1040.33,94.625 1040.33,299.917Z" style="fill:#0998b7;fill-rule:nonzero;"/><g opacity="0.7"><path d="M3052.62,1814.88c0,132.625 -204.167,231.292 -482.75,335.667c-638.75,239.25 -437.958,401.333 -386.542,435.666l-1628.62,0c252.292,-288.416 754.959,-450.916 1090.21,-535.541c383.958,-96.959 743.25,-193.334 743.25,-242.417c-0,-61.583 -241.459,-102.167 -551.25,-150.708c-302.542,-47.375 -445.25,-116.417 -445.25,-191.375c-0,-73.459 254.875,-126.667 459.75,-150.25c188.375,-21.709 810.333,-61 810.333,-96.625c0,-28.959 -331.792,-64.75 -429.708,-75.292c-131.125,-14.125 -207.959,-31.667 -207.959,-61.292c0,-5.958 4.834,-11.375 12.834,-16.041l26.708,-0c0,-0 -8.875,7 -8.875,13.5c0,20.833 152.083,32.083 202.667,35.5c151.541,10.666 612.75,56.75 612.75,119.25c-0,35.541 -88.625,61.75 -182.875,78.791c-167.25,30.167 -616.667,68.209 -706.459,80.125c-99.041,13.25 -238.208,36.375 -238.208,61.542c0,23.5 128.458,43.792 269.667,59.583c240,26.709 1040.33,94.625 1040.33,299.917Z" style="fill:#fff;fill-rule:nonzero;"/></g></g><g id="b39d023e-ce8c-4617-b8c0-0315f51ba0be"><path d="M759.667,1064.25c724.166,-3.25 1536.58,-3.25 2260.75,0c-724.167,3.333 -1536.58,3.333 -2260.75,0Z" style="fill:#263238;fill-rule:nonzero;"/></g><g id="ac33a1e5-acbf-4199-a349-0bfae8e3f7c6"><path d="M2995,1064.25c0,0 -248.542,-248.375 -299.167,-270.625c-38.583,-17 -147.125,-158.708 -225.833,-257.667c-9.5,-11.958 -45.833,-2.125 -54.458,-13.25c-29.417,-37.5 -53.417,-68.75 -65.584,-84.75c-25,-32.791 -169.833,-17.708 -193.458,0c-12.125,9 -98.042,142.667 -152.667,206c-17.583,20.334 -132.916,33.334 -180.291,43.792c-45.834,10.083 -168.542,202.333 -204.167,216.292c-196.458,77.166 -245,146.166 -284.042,160.208l1659.67,0Z" style="fill:#0998b7;fill-rule:nonzero;"/><path d="M2995,1064.25c0,0 -248.542,-248.375 -299.167,-270.625c-38.583,-17 -147.125,-158.708 -225.833,-257.667c-9.5,-11.958 -45.833,-2.125 -54.458,-13.25c-29.417,-37.5 -53.417,-68.75 -65.584,-84.75c-25,-32.791 -169.833,-17.708 -193.458,0c-12.125,9 -98.042,142.667 -152.667,206c-17.583,20.334 -132.916,33.334 -180.291,43.792c-45.834,10.083 -168.542,202.333 -204.167,216.292c-196.458,77.166 -245,146.166 -284.042,160.208l1659.67,0Z" style="fill-opacity:0.4;fill-rule:nonzero;"/><path d="M2994.92,1064.21l-988.625,0c59.708,-32.958 186.916,-104.166 198.083,-119.583c14.625,-20.042 33.583,-165.125 39,-184.333c5.417,-19.209 106.833,-134.167 110.875,-154.917c4.042,-20.75 -12.5,-171.458 -12.875,-174.542c0.388,0.158 0.752,0.368 1.083,0.625c0.428,0.239 0.833,0.518 1.209,0.834l1.208,0.833l1,0.792c0.404,0.314 0.78,0.663 1.125,1.041l0.417,0.375c0.322,0.275 0.615,0.582 0.875,0.917l0.583,0.583l0.792,1l1.833,2.334l1.958,2.583l2.084,2.708l2.25,2.959c13.333,17.333 33.333,43.666 57.458,74.166c0.287,0.44 0.655,0.822 1.083,1.125c0.337,0.35 0.715,0.658 1.125,0.917c0.493,0.374 1.024,0.695 1.584,0.958l1.333,0.542c0,-0 3.25,72.708 2.583,79.167c-0.666,6.458 -29.916,52.625 -31.666,62.5c-1.75,9.875 2.583,48.625 -0,56.916c-1.625,4.75 -30.834,55.25 -38.459,67.667c-2.166,3.292 20.834,1.125 21.625,1.125c2.875,-0 30.167,-44.917 35.417,-48.083c5.25,-3.167 9.583,-63.584 13.292,-68.167c3.708,-4.583 39.208,-54.542 43.833,-60.042c4.625,-5.5 2.958,-81.333 2.958,-81.333c14.75,18.542 30.542,38.542 46.75,59.083l12.209,15.375l4.166,5.334c3.695,4.75 7.445,9.472 11.25,14.166c5.334,6.417 10.25,12.792 15.375,19.125l7.709,9.5c2.5,3.167 5.083,6.25 7.583,9.334l7.542,9.25c10.041,12.25 19.916,24 29.375,35.083l7.083,8.333c17.958,20.834 34.5,38.709 48.417,51.834c2.291,2.125 4.458,4.166 6.625,6.041l4.166,3.667l2.5,2.042c2.459,1.958 4.834,3.75 7,5.333c0,-0 -87.166,53.792 -100,69.083c-12.833,15.292 -44.166,112.167 -54.166,122.834c-10,10.666 -77.209,55.583 -74.292,59.25c2.917,3.666 126.458,-18.084 140.417,-38.959c13.958,-20.875 43.916,-100 57.75,-110.833c10.666,-8.333 60.875,-44.125 88.166,-61.083c116.584,99.5 244.334,230.958 249.334,234.541Z" style="fill-opacity:0.1;fill-rule:nonzero;"/><path d="M2052.21,820.833c-3.833,2.417 -74.791,-13.583 -78.875,-14.625c-4.083,-1.041 -27.291,-49.541 -31.666,-48.708c-4.375,0.833 -63.042,-13.333 -70.834,-19.542c-7.791,-6.208 -28.291,-53 -28.291,-53l19.291,-4.166c43.792,-7.459 100.667,-16.375 128.167,-28c1.5,10.083 8.625,59.333 7.292,67.083c-1.5,8.583 -13.084,28.583 -9.625,34.917c3.458,6.333 68.375,63.458 64.541,66.041Z" style="fill-opacity:0.1;fill-rule:nonzero;"/><path d="M2061.33,1064.21c0,0 -350,-72.416 -394.25,-81.875c-28.208,-6.041 -158.75,-105.083 -247.833,-162c-6.875,-4.166 -41.208,-0.5 -45.375,-2.208c-35.917,-14.625 -63.417,-40.583 -85.458,-40.583c-24.042,-0 -208.334,163.125 -227.459,176.791c-19.125,13.667 -122.833,63.25 -154.875,68.25c-32.041,5 -120.833,41.667 -120.833,41.667l1276.08,-0.042Z" style="fill:#0998b7;fill-rule:nonzero;"/><path d="M2061.33,1064.21c0,0 -350,-72.416 -394.25,-81.875c-28.208,-6.041 -158.75,-105.083 -247.833,-162c-6.875,-4.166 -41.208,-0.5 -45.375,-2.208c-35.917,-14.625 -63.417,-40.583 -85.458,-40.583c-24.042,-0 -208.334,163.125 -227.459,176.791c-19.125,13.667 -122.833,63.25 -154.875,68.25c-32.041,5 -120.833,41.667 -120.833,41.667l1276.08,-0.042Z" style="fill-opacity:0.2;fill-rule:nonzero;"/><path d="M1316.33,959.375c-4.416,-2.292 -5.875,-29.167 -7.25,-33.833c-1.375,-4.667 -64.125,-47.084 -64.708,-53.417c-0.583,-6.333 44.042,-94.792 44.042,-94.792c-24.042,0 -208.334,163.125 -227.459,176.792c-1.208,0.875 -2.708,1.875 -4.541,3l-3,1.75c-3.667,2.208 -8.334,4.667 -13.334,7.375l-4.541,2.417l-7.375,3.791l-5.334,2.625l-8.333,4.167l-5.708,2.75c-5.792,2.75 -11.709,5.375 -17.792,8.333c-22.167,10.209 -45.375,20 -63.292,26.167l-4.791,1.542c-1.459,0.541 -2.959,0.958 -4.417,1.416l-6,1.375l-3.583,0.834l-3.209,0.583c-2.041,0.333 -4.166,0.75 -6.666,1.292l-3.75,0.916l-4.167,1.084l-4.167,1.166l-4.416,1.292l-9.292,2.875l-9.833,3.25l-7.584,2.625l-2.5,0.917l-5.083,1.791l-2.5,0.917l-5.375,1.833c-29.167,10.667 -55.75,21.667 -55.75,21.667l767.25,0c-77.167,-33.458 -232.292,-102.875 -235.542,-104.5Zm-175.375,-8.083c-2.5,-0.459 -19.208,-14.834 -21.333,-15.334c-2.125,-0.5 -7.375,-11.791 -6.083,-12.5c1.291,-0.708 8.958,-2.833 10.166,-3c1.209,-0.166 8.042,6.917 9.25,6.917c8.916,-0.174 17.834,0.174 26.709,1.042c2.25,1.083 20,20.833 19.291,22.708c-0.708,1.875 -35.541,0.667 -38,0.167Z" style="fill-opacity:0.1;fill-rule:nonzero;"/></g><g id="e1d6f1bc-34a7-4ee2-95f6-badc2b74ef7e"><path d="M2320.12,201.917c-3.208,-32.5 -25.583,-64.834 -65,-64.834c-39.417,0 -61.708,32.334 -64.958,64.834c-4.959,50 28.916,95.583 64.958,137.083c36.167,-41.5 69.875,-86.917 65,-137.083Zm-65,36.083c-0.042,0 -0.083,0 -0.125,0c-19.543,0 -35.625,-16.081 -35.625,-35.625c0,-19.543 16.082,-35.625 35.625,-35.625c19.512,0 35.579,16.03 35.625,35.542c0,0.027 0,0.055 0,0.083c0,19.482 -16.018,35.519 -35.5,35.542l0,0.083Z" style="fill:#0998b7;fill-rule:nonzero;"/><path d="M2255.17,180.75l7.916,11.292l13.209,4.041l-8.292,11.042l0.208,13.792l-13.041,-4.417l-13,4.417l0.125,-13.792l-8.209,-11.042l13.125,-4.041l7.959,-11.292Z" style="fill:#0998b7;fill-rule:nonzero;"/></g><g id="b3c45c06-c7db-4be0-8bce-dab31f4b2919"><path d="M2825,1604.58l-4.875,-6.25l2.083,-1.625c3.292,4.167 4.917,6.334 4.917,6.334l-2.125,1.541Z" style="fill:#2f2e41;fill-rule:nonzero;"/><path d="M2809.5,1585.92c-3.042,-3.667 -6.625,-7.709 -10.667,-12.209l1.959,-1.75c4.166,4.5 7.583,8.584 10.666,12.25l-1.958,1.709Zm-21.375,-24.167l-11.417,-11.75l1.917,-1.875c4.167,4.167 7.708,8.042 11.167,11.75l-1.667,1.875Zm-22.417,-23.167l-11.541,-11.291l1.833,-1.917c4.167,3.875 7.875,7.667 11.583,11.292l-1.875,1.916Zm-23.291,-22.375c-3.834,-3.541 -7.792,-7.166 -11.917,-10.708l1.75,-1.958c4.167,3.666 8.333,7.333 12,10.666l-1.833,2Zm-24.042,-21.375c-3.958,-3.416 -8.083,-6.958 -12.292,-10.666l1.709,-2.042c4.166,3.5 8.333,7.042 12.5,10.667l-1.917,2.041Zm-24.708,-20.833c-4.167,-3.333 -8.334,-6.708 -12.5,-10.042l1.666,-2.083c4.167,3.333 8.334,6.708 12.5,10.042l-1.666,2.083Zm-25.5,-20.25c-4.167,-3.208 -8.542,-6.458 -12.917,-9.667l1.542,-2.166c4.416,3.208 8.75,6.5 13,9.666l-1.625,2.167Zm-26,-19.125c-4.167,-3.042 -8.75,-6.167 -13.25,-9.208l1.5,-2.167c4.458,3.042 8.916,6.125 13.25,9.25l-1.5,2.125Zm-26.709,-17.958c-4.458,-2.959 -8.916,-5.875 -13.541,-8.792l1.458,-2.292c4.583,2.959 9.125,5.875 13.583,8.834l-1.5,2.25Zm-27.208,-17.375c-4.542,-2.792 -9.125,-5.625 -13.75,-8.334l1.375,-2.291l13.833,8.333l-1.458,2.292Zm-27.708,-16.667l-14.042,-7.625l1.292,-2.333c4.75,2.625 9.458,5.333 14.083,7.916l-1.333,2.042Zm-28.25,-15.542c-4.709,-2.5 -9.459,-4.958 -14.25,-7.416l1.166,-2.417c4.834,2.458 9.625,4.958 14.375,7.458l-1.291,2.375Zm-28.709,-14.625c-4.791,-2.375 -9.666,-4.708 -14.583,-7l1.208,-2.416c4.917,2.291 9.75,4.666 14.584,7l-1.209,2.416Zm-29.166,-13.75c-4.834,-2.166 -9.75,-4.375 -14.75,-6.5l1.041,-2.458l14.834,6.5l-1.125,2.458Zm-29.625,-12.75c-4.917,-2.041 -9.959,-4.166 -14.959,-6l1,-2.5l14.959,6.042l-1,2.458Zm-30.042,-11.75c-4.958,-1.875 -10.042,-3.708 -15.083,-5.333l0.833,-2.542c5.333,1.834 10.208,3.667 15.208,5.375l-0.958,2.5Zm-30.375,-10.708c-5.042,-1.708 -10.167,-3.333 -15.333,-5l0.791,-2.5c5.334,1.583 10.334,3.292 15.375,5l-0.833,2.5Zm-651.042,-5.292l-0.75,-2.541l15.584,-4.167l0.708,2.583l-15.542,4.125Zm620.5,-4.625l-15.5,-4.5l0.75,-2.583c5.334,1.458 10.375,3 15.5,4.542l-0.75,2.541Zm-589.333,-3.625l-0.667,-2.583l15.709,-3.833l0.625,2.541l-15.667,3.875Zm558.333,-4.791c-5.375,-1.375 -10.375,-2.709 -15.666,-4.167l0.625,-2.625c5.333,1.292 10.541,2.625 15.708,4.167l-0.667,2.625Zm-527,-2.209l-0.583,-2.583l16.042,-3.542l0.583,2.625l-16.042,3.5Zm495.625,-5.375l-15.75,-3.458l0.584,-2.625c5.333,1.125 10.666,2.25 15.75,3.5l-0.584,2.583Zm-464.083,-1.5l-0.542,-2.583l16,-3.125l0.542,2.625l-16,3.083Zm432.5,-5.25l-16.042,-2.958l0.5,-2.625l16.042,2.958l-0.5,2.625Zm-400.583,-0.75l-0.5,-2.583l16.041,-2.75l0.417,2.625c-5.667,0.792 -11,1.708 -16.292,2.667l0.334,0.041Zm369.083,-4.916c-5.333,-0.834 -10.708,-1.709 -16.042,-2.459l0.375,-2.666l16.042,2.458l-0.375,2.667Zm-337.25,-0.292l-0.458,-2.625l16.041,-2.292l0.375,2.667c-5.666,0.625 -10.958,1.417 -16.291,2.167l0.333,0.083Zm32.042,-4.167l-0.334,-2.666c5.334,-0.667 10.709,-1.292 16.042,-1.834l0.25,2.625l-15.958,1.875Zm273.416,0c-5.333,-0.708 -10.666,-1.375 -16.041,-2l0.333,-2.666l16.042,2l-0.334,2.666Zm-241.375,-3.541l0,-3l16.042,-1.417l0,2.667l-16.042,1.75Zm209.334,-0c-5.334,-0.459 -10.709,-1 -16.042,-1.417l0.292,-2.667l16,1.417l-0.25,2.667Zm-177.042,-2.625l0,-2.709l16,-0.958l0,2.625l-16,1.042Zm145,-0c-5.333,-0.375 -10.667,-0.709 -16,-0.959l0,-2.708l16,0.958l0,2.709Zm-112.792,-1.5l0,-2.667l16,-0.542l0,2.667l-16,0.542Zm80.625,-0c-5.333,-0 -10.666,-0.334 -16,-0.459l0,-2.583c5.334,0 10.667,0 16,0.458l0,2.584Zm-48.375,-0.667l0,-2.667l16.042,0l0,2.667l-16.042,-0Z" style="fill:#2f2e41;fill-rule:nonzero;"/><path d="M1702.46,1307.42l6.375,-4.625c0,-0 2.167,-1.584 6.584,-4.542l1.416,2.167l0.75,2.541l-7.75,2.25l-7.375,2.209Z" style="fill:#2f2e41;fill-rule:nonzero;"/><path d="M1730.54,1291.67l-1.417,-2.292c4.167,-2.5 8.708,-5.333 13.917,-8.333l1.416,2.333c-5.25,3.042 -9.916,5.875 -13.916,8.292Zm28,-16.667l-1.334,-2.375c4.459,-2.5 9.209,-5.125 14.25,-7.833l1.292,2.333c-5.042,2.75 -9.792,5.333 -14.208,7.875Zm28.583,-15.5l-1.25,-2.333c4.625,-2.459 9.458,-4.917 14.5,-7.459l1.208,2.417c-5,2.5 -9.875,4.958 -14.458,7.375Zm29.167,-14.542l-1.167,-2.375c4.75,-2.333 9.667,-4.666 14.75,-6.958l1.125,2.417l-14.708,6.916Zm29.5,-13.666l-1.084,-2.459l14.917,-6.5l1.042,2.459l-14.875,6.5Zm29.833,-12.834l-1,-2.458l15.125,-6.125l0.958,2.5l-15.083,6.083Zm30.25,-12l-0.958,-2.5l15.291,-5.708l0.875,2.5c-5.166,1.875 -10.25,3.792 -15.208,5.708Zm30.5,-11.208l-0.917,-2.5c5.084,-1.833 10.209,-3.583 15.459,-5.375l0.833,2.583l-15.375,5.292Zm30.75,-10.708l-0.792,-2.542l15.542,-4.917l0.75,2.542c-5.25,1.875 -10.375,3.542 -15.5,5.208l0,-0.291Zm31.083,-9.667l-0.791,-2.542l15.666,-4.541l0.75,2.625c-5.291,1.708 -10.5,3.25 -15.625,4.75l0,-0.292Zm31.25,-8.833l-0.666,-2.584l15.75,-4.166l0.625,2.625l-15.709,4.125Zm31.459,-8.084l-0.625,-2.625l16.041,-3.75l0.584,2.625l-16,3.75Zm31.708,-7.333l-0.625,-2.583l16.042,-3.375l0.541,2.625c-5.416,1.333 -10.75,2.458 -15.958,3.625l0,-0.292Zm32.042,-6.542l-0.5,-2.625l16.041,-3l0.459,2.667l-16,2.958Zm533.041,0l-16.041,-2.416l0.416,-2.667l16.042,2.875l-0.417,2.208Zm-32.041,-5.333l-16,-2.542l0.333,-2.625l16.042,2.542l-0.375,2.625Zm-469.084,0l-0.416,-2.625l16.041,-2.625l0.417,2.625l-16.042,2.625Zm437,-4.667l-16.041,-2.125l0.375,-2.666l16.041,2.166l-0.375,2.625Zm-404.875,-0.375l-0.375,-2.625c5.334,-0.777 10.667,-1.527 16,-2.25l0.375,2.667l-16,2.208Zm372.584,-3.791l-16,-1.834l0.333,-2.666l16,1.833l-0.333,2.667Zm-340.375,-0.417l-0.334,-2.667c5.334,-0.666 10.667,-1.291 16.042,-1.833l0.292,2.625l-16,1.875Zm308.333,-3.042l-16.333,-1.458l-0,-2.667l16,1.5l0.333,2.625Zm-275.833,-0.5l-0.25,-2.625l16,-1.5l-0,2.709l-15.75,1.416Zm243.458,-2.291l-16,-1.125l-0,-2.667l16,1.125l-0,2.667Zm-211.25,-0.584l-0,-2.25l16.042,-1.083l-0,2.667l-16.042,0.666Zm178.625,-1.666l-16.042,-0.75l0,-2.667l16.042,0.75l-0,2.667Zm-146.125,-0.334l-0,-2.666l16.292,-0.667l-0,3.083l-16.292,0.25Zm113.708,-1l-16.291,-0.416l-0,-2.5l16.291,0.416l0,2.5Zm-81.25,0l0,-2.916l16.042,-0.334l-0,2.667l-16.042,0.583Zm48.709,-0.416l-16,-0l-0,-2.667l16.291,-0l-0.291,2.667Z" style="fill:#2f2e41;fill-rule:nonzero;"/><path d="M2686.42,1150l-5.334,-1.042l-7.833,-1.541l0.458,-2.625l2.417,0.458l-1.875,-1.417l1.542,-2.125c4.166,3.042 6.333,4.875 6.416,4.917l4.209,3.375Z" style="fill:#2f2e41;fill-rule:nonzero;"/><path d="M2661.58,1135c-4.166,-2.833 -8.708,-5.667 -13.25,-8.333l1.417,-2.25c4.583,2.833 9.083,5.666 13.333,8.541l-1.5,2.042Zm-26.708,-16.458c-4.458,-2.584 -9.125,-5.334 -13.75,-7.584l1.208,-2.375c4.709,2.459 9.375,5.042 13.875,7.584l-1.333,2.375Zm-27.792,-14.75c-4.708,-2.292 -9.541,-4.542 -14.208,-6.667l1.042,-2.458c4.833,2.166 9.625,4.416 14.333,6.708l-1.167,2.417Zm-28.75,-13.125c-4.75,-2 -9.625,-3.959 -14.625,-5.959l0.959,-2.458c5.041,1.958 9.916,3.917 14.666,5.958l-1,2.459Zm-446.125,-6.167l-0.916,-2.5c5.041,-1.75 10.041,-3.417 15.041,-5.042l0.792,2.542l-14.917,5Zm416.667,-5.333c-4.833,-1.709 -9.833,-3.417 -14.875,-5.334l0.792,-2.583c5.333,1.667 10.125,3.375 15,5.375l-0.917,2.542Zm-386.792,-4.417l-0.75,-2.583c5.042,-1.542 10.125,-3 15.167,-4.375l0.75,2.583c-4.917,1.625 -10,3.083 -15.083,4.625l-0.084,-0.25Zm356.875,-5.375c-4.958,-1.417 -10.041,-2.875 -15.166,-4.167l0.708,-2.625c5.333,1.417 10.25,2.834 15.208,4.167l-0.75,2.625Zm-326.541,-3.125l-0.667,-2.625l15.417,-3.667l0.583,2.542c-5,1.458 -10.125,2.708 -15.25,4.167l-0.083,-0.417Zm296.125,-4.917c-5.042,-1.166 -10.167,-2.375 -15.417,-3.416l0.625,-2.625l15.417,3.416l-0.625,2.625Zm-265.417,-2.125l-0.542,-2.625l15.5,-3.041l0.459,2.625l-15.417,3.041Zm234.583,-4.166c-5.333,-0.917 -10.25,-1.75 -15.5,-2.542l0.375,-2.625c5.334,0.792 10.709,1.625 15.625,2.542l-0.5,2.625Zm-203.541,-1.5l-0.417,-2.667l15.667,-2.25l0.291,2.625c-5,1 -10.166,2 -15.416,2.583l-0.125,-0.291Zm172.541,-3.334c-5.333,-0.625 -10.375,-1.208 -15.666,-1.75l-0,-2.625c5.375,0.5 10.708,1.084 15.708,1.709l-0.042,2.666Zm-141.291,-0.541l-0.292,-2.667c5.333,-0.583 10.667,-1.042 15.75,-1.5l0,2.708c-5.042,0.417 -10.25,0.875 -15.583,1.459l0.125,-0Zm110,-2.167c-5.334,-0.375 -10.709,-0.708 -15.709,-0.917l0,-2.666c5.334,-0 10.667,0.541 16,0.916l-0.291,2.667Zm-78.75,-0.417l-0,-2.666c5.333,-0.334 10.666,-0.625 16,-0.75l-0,2.666c-5.417,0 -10.667,0.417 -15.959,0.75l-0.041,0Zm47.208,-1.041l-15.75,-0l0,-2.667l16,-0l-0.25,2.667Z" style="fill:#2f2e41;fill-rule:nonzero;"/><path d="M2108.67,1093.25l-0.542,-1.083c0,-0 -1.167,-2.542 -3.667,-7l2.334,-1.292c1.541,2.833 2.625,4.875 3.208,6.042l6.375,-2.417l0.958,2.5l-7.5,2.833l-1.166,0.417Z" style="fill:#2f2e41;fill-rule:nonzero;"/><path d="M2096.38,1071.46c-2.708,-4.166 -5.667,-8.833 -8.75,-13.333l2.167,-1.5c3.166,4.542 6.125,9.042 8.833,13.417l-2.25,1.416Zm-18,-26.375c-3.083,-4.166 -6.333,-8.333 -9.667,-12.5l2.084,-1.583c3.333,4.167 6.625,8.333 9.708,12.75l-2.125,1.333Zm-19.75,-25c-3.417,-4.166 -6.917,-8.333 -10.417,-12.083l1.959,-1.792c3.541,4.167 7.041,8.042 10.708,12.167l-2.25,1.708Zm-21.375,-23.875c-3.625,-3.833 -7.375,-7.708 -11.125,-11.416l1.958,-1.875c3.709,3.708 7.459,7.583 11.125,11.458l-1.958,1.833Zm-22.5,-22.583c-3.792,-3.583 -7.667,-7.208 -11.75,-10.708l1.833,-1.959c4.167,3.667 7.959,7.334 11.75,10.667l-1.833,2Zm-23.708,-21.375c-4.167,-3.375 -8.042,-6.792 -12.5,-10.208l1.708,-2.084c4.167,3.417 8.333,6.875 12.292,10.25l-1.5,2.042Zm-25,-20.083c-4.167,-3.209 -8.334,-6.417 -12.75,-9.625l1.583,-2.125c4.417,3.208 8.667,6.416 12.792,9.625l-1.625,2.125Zm-25.75,-18.875c-4.167,-2.959 -8.667,-5.959 -13.167,-8.959l1.417,-2.25c4.541,3 9,6 13.333,9.042l-1.583,2.167Zm-26.667,-17.625c-4.5,-2.75 -9.042,-5.334 -13.625,-8.334l1.333,-2.291c4.625,2.708 9.167,5.333 13.667,8.333l-1.375,2.292Zm-27.25,-16.5c-4.542,-2.584 -9.25,-5.334 -13.958,-7.667l1.25,-2.375c4.75,2.542 9.416,5.375 14.041,7.708l-1.333,2.334Zm-28.042,-14.875c-4.666,-2.417 -9.458,-4.75 -14.291,-7.125l1.125,-2.375c4.916,2.333 9.666,4.708 14.375,7.083l-1.209,2.417Zm-28.5,-14l-14.583,-6.417l1.042,-2.458c4.916,2.083 9.833,4.166 14.666,6.458l-1.125,2.417Zm-29.166,-12.5c-4.875,-2 -9.834,-3.959 -14.834,-5.875l0.959,-2.459c5,1.917 9.958,3.834 14.875,5.834l-1,2.5Zm-29.834,-11.417l-15.125,-5.333l0.834,-2.542c5.375,1.708 10.166,3.5 15.166,5.333l-0.875,2.542Zm-30.291,-10.167l-15.542,-4.708l0.75,-2.5c5.375,1.5 10.292,3.042 15.292,4.667l-0.5,2.541Zm-30.625,-8.666c-5.334,-1.375 -10.209,-2.75 -15.417,-4.167l0.667,-2.583c5.375,1.333 10.375,2.666 15.458,4.166l-0.708,2.584Zm-30.917,-7.875l-15.542,-3.542l0.542,-2.625c5.333,1.125 10.667,2.292 15.625,3.542l-0.625,2.625Zm-31.208,-6.792c-5.334,-1.083 -10.334,-2.083 -15.625,-3.042l0.458,-2.625c5.292,0.959 10.5,2 15.708,3.042l-0.541,2.625Zm-31.375,-5.75l-15.792,-2.542l0.458,-2.625c5.334,0.834 10.667,1.625 15.75,2.542l-0.416,2.625Zm-31.584,-4.792c-5.333,-0.666 -10.666,-1.375 -16.041,-1.958l0.333,-2.667c5.333,0.625 10.708,1.292 16.042,2.042l-0.334,2.583Zm-31.666,-3.791l-16.042,-1.459l0.292,-2.708l16,1.583l-0.25,2.584Zm-239.25,-1.167l-0,-2.667l16.041,-1.208l0,2.667l-16.041,1.208Zm207.416,-1.667l-16.041,-1.041l-0,-2.667l16.041,1.042l0,2.666Zm-175.75,-0.708l0,-2.667l16.042,-0.916l0,2.666l-16.042,0.917Zm143.709,-1.292c-5.334,0 -10.709,-0.458 -16.042,-0.625l-0,-2.666c5.333,-0 10.708,0.375 16.042,0.625l-0,2.666Zm-112,-0.541l-0,-2.667l16,-0.5l-0,2.667l-16,0.5Zm80.125,-0.709c-5.375,0 -10.709,0 -16.042,-0.291l0,-2.667c5.333,0 10.667,0 16.042,0.25l-0,2.708Zm-48.084,0l0,-2.708l16,0l0,2.708l-16,0Z" style="fill:#2f2e41;fill-rule:nonzero;"/><path d="M1286.92,779.625l1.5,-2.292c-0,0 1.458,-2.333 4.5,-6.625l2.208,1.5l-2.917,4.167l5.334,-0.458l0.25,2.666l-7.959,0.75l-2.916,0.292Z" style="fill:#2f2e41;fill-rule:nonzero;"/><path d="M1304.46,759.5l-2.125,-1.625c2.834,-3.708 6.084,-7.958 9.834,-12.5l2.083,1.667c-3.667,4.5 -6.958,8.666 -9.792,12.458Zm19.875,-25l-2.083,-1.708c3.25,-3.875 6.75,-7.875 10.708,-12.084l2,1.75c-3.958,4.167 -7.416,8.334 -10.625,11.959l0,0.083Zm20.834,-23.875l-2,-1.833l10.708,-11.625l1.917,1.833c-3.584,3.917 -7.167,7.833 -10.709,11.542l0.084,0.083Zm21.875,-23.042l-1.917,-1.875c3.625,-3.666 7.417,-7.416 11.333,-11.208l1.875,1.875c-3.916,3.75 -7.625,7.458 -11.291,11.167l-0,0.041Zm22.75,-22.166l-1.959,-2.25c3.792,-3.584 7.709,-7.125 11.709,-10.667l1.791,1.958c-3.875,3.75 -7.791,7.334 -11.541,10.917l-0,0.042Zm23.5,-21.375l-1.75,-2c3.916,-3.417 7.958,-6.917 12.083,-10.417l1.708,2.083c-4.166,3.417 -8.125,6.834 -12.041,10.292l-0,0.042Zm24.25,-20.542l-1.709,-2.042c4.167,-3.291 8.334,-6.666 12.5,-10l1.667,2.084l-12.458,9.958Zm25,-19.667l-1.625,-2.125c4.166,-3.166 8.333,-6.375 12.791,-9.5l1.542,2.125l-12.708,9.5Zm25.625,-18.791l-1.542,-2.209c4.167,-3.041 8.583,-6.083 13.042,-9.083l1.541,2.208c-4.416,3 -8.75,6 -13.041,9.042l-0,0.042Zm26.166,-17.959l-1.416,-2.166c4.375,-2.917 8.791,-5.792 13.333,-8.667l1.458,2.25c-4.541,2.833 -9,5.667 -13.375,8.333l0,0.25Zm26.709,-17l-1.375,-2.291c4.5,-2.709 9.041,-5.334 13.666,-8.334l1.334,2.292c-4.334,2.5 -8.834,5.278 -13.5,8.333l-0.125,0Zm27.375,-16l-1.292,-2.291c4.583,-2.625 9.167,-5.334 13.875,-7.75l1.292,2.333c-4.542,2.375 -9.209,5 -13.792,7.542l-0.083,0.166Zm27.833,-15.125l-1.292,-2.333c4.709,-2.458 9.375,-4.875 14.209,-7.292l1.166,2.375c-4.5,2.334 -9.208,4.959 -14.041,7.417l-0.042,-0.167Zm28.333,-14.25l-1.166,-2.416c4.75,-2.25 9.541,-4.542 14.416,-6.709l1.125,2.375l-14.375,6.75Zm28.834,-13.25l-1.042,-2.458c4.792,-2.125 9.667,-4.167 14.625,-6.292l1,2.459c-4.667,1.75 -9.542,4.166 -14.333,6.083l-0.25,0.208Zm29.166,-12.291l-1,-2.917c4.917,-2 9.792,-3.917 14.834,-5.792l0.958,2.459c-4.792,2.125 -9.708,4.166 -14.583,6.041l-0.209,0.209Zm29.625,-11.334l-0.875,-2.5l15,-5.333l0.834,2.542c-4.792,1.5 -9.75,3.291 -14.709,5.083l-0.25,0.208Zm30.042,-10.333l-0.792,-2.583l15.167,-4.792l0.75,2.542c-4.875,1.333 -9.917,2.958 -14.917,4.625l-0.208,0.208Zm30.333,-9.375l-0.75,-2.542c5.084,-1.5 10.209,-2.958 15.334,-4.166l0.708,2.541c-4.833,1.209 -10.167,2.625 -15.083,4.167l-0.209,0Zm30.584,-8.333l-0.625,-2.542c5.333,-1.375 10.25,-2.625 15.458,-3.875l0.625,2.625l-15.458,3.792Zm30.958,-7.375l-0.583,-2.625c5.333,-1.167 10.291,-2.25 15.541,-3.334l0.5,2.584c-4.958,0.916 -10.125,2 -15.25,3.166l-0.208,0.209Zm31.083,-6.417l-0.541,-2.625l15.666,-2.875l0.459,2.625c-5,0.75 -10.25,1.667 -15.375,2.667l-0.209,0.208Zm31.25,-5.333l-0.458,-2.667l15.792,-2.333l0.375,2.583c-5.084,0.458 -10.292,1.25 -15.5,2.083l-0.209,0.334Zm332.209,-3.042l-16,-1.875l0.291,-2.667l16.042,1.917l-0.333,2.625Zm-300.75,-1.458l-0.375,-2.667l16,-1.917l0.333,2.667c-5.292,0.292 -10.583,0.917 -15.75,1.625l-0.208,0.292Zm269.25,-2.167l-15.875,-1.5l0.291,-2.667c5.334,0.459 10.667,0.959 16,1.542l-0.416,2.625Zm-237.5,-1.833l-0.25,-2.667l16,-1.375l-0,2.625l-15.75,1.417Zm206.125,-1.417l-15.792,-1.083l-0,-2.667l16,1.208l-0.208,2.542Zm-174.125,-0.958l-0,-2.667c5.333,-0.375 10.666,-0.708 16,-0.958l-0,2.666c-5.459,0.25 -10.792,0.584 -16,0.959Zm142.75,-0.917c-5.334,-0.278 -10.667,-0.528 -16,-0.75l-0,-2.667c5.333,0 10.666,0.417 16,0.75l-0,2.667Zm-111.084,-0.792l0,-2.666c5.334,-0 10.667,-0.417 16,-0.542l0,2.667c-5.5,-0 -10.75,0.333 -16.041,0.541l0.041,0Zm79.375,-0.5l-16.041,-0.333l-0,-2.708l16.041,0.375l0,2.666Zm-47.583,-0.333l-0,-2.708l15.708,-0l0,2.416l-1.083,0l-14.625,0.292Z" style="fill:#2f2e41;fill-rule:nonzero;"/><path d="M2252.88,420.833l-7.958,-1.125l0.375,-2.666l7.958,1.083l-0.375,2.708Z" style="fill:#2f2e41;fill-rule:nonzero;"/></g><g id="b642c1a5-78eb-4515-950b-078c477b9594"><rect x="2822.17" y="605.708" width="7" height="1023.83" style="fill:#2f2e41;"/><path d="M2867.71,1597.33l-84.125,0l8.709,-38.416l66.666,-0l8.75,38.416Z" style="fill:#2f2e41;fill-rule:nonzero;"/><path d="M2867.71,1597.33l-84.125,0l8.709,-38.416l66.666,-0l8.75,38.416Z" style="fill-opacity:0.2;fill-rule:nonzero;"/><path d="M2881.92,1629.54l-112.584,-0l11.709,-51.417l89.208,-0l11.667,51.417Z" style="fill:#2f2e41;fill-rule:nonzero;"/><rect x="1707.33" y="653.5" width="4.5" height="660.625" style="fill:#2f2e41;"/><path d="M1735.79,1299.88l-52.417,0l5.417,-23.917l41.541,0l5.459,23.917Z" style="fill:#2f2e41;fill-rule:nonzero;"/><path d="M1735.79,1299.88l-52.417,0l5.417,-23.917l41.541,0l5.459,23.917Z" style="fill:#2f2e41;fill-rule:nonzero;"/><path d="M1735.79,1299.88l-52.417,0l5.417,-23.917l41.541,0l5.459,23.917Z" style="fill-opacity:0.2;fill-rule:nonzero;"/><path d="M1744.58,1319.92l-70.083,-0l7.292,-32l55.541,-0l7.25,32Z" style="fill:#2f2e41;fill-rule:nonzero;"/><rect x="2680.42" y="803.292" width="2.333" height="344.458" style="fill:#2f2e41;"/><path d="M2696.58,1145.5l-30.083,0l3.125,-13.75l23.875,0l3.083,13.75Z" style="fill:#2f2e41;fill-rule:nonzero;"/><path d="M2696.58,1145.5l-30.083,0l3.125,-13.75l23.875,0l3.083,13.75Z" style="fill-opacity:0.2;fill-rule:nonzero;"/><path d="M2701.71,1157l-40.25,0l4.167,-18.375l31.917,0l4.166,18.375Z" style="fill:#2f2e41;fill-rule:nonzero;"/><rect x="2108.5" y="856.75" width="1.583" height="237.458" style="fill:#2f2e41;"/><path d="M2117.58,1090.33l-16.5,0l1.709,-7.583l13.083,0l1.708,7.583Z" style="fill:#2f2e41;fill-rule:nonzero;"/><path d="M2118.38,1090.33l-16.542,0l1.75,-7.583l13.084,0l1.708,7.583Z" style="fill-opacity:0.2;fill-rule:nonzero;"/><path d="M2120.42,1096.62l-22.125,0l2.291,-10.083l17.542,-0l2.292,10.083Z" style="fill:#2f2e41;fill-rule:nonzero;"/><rect x="1288.67" y="713.708" width="0.875" height="64.292" style="fill:#2f2e41;"/><path d="M1301.12,737.167l0,-15c-0.042,0.248 -0.042,0.501 0,0.75c0.091,0.265 0.217,0.517 0.375,0.75c1.333,1.75 5.333,2.916 11.25,3.5l-0,15.083c-6.125,-0.583 -9.917,-1.792 -11.25,-3.542c-0.166,-0.242 -0.293,-0.509 -0.375,-0.791c-0.083,-0.243 -0.083,-0.507 0,-0.75Z" style="fill:#0998b7;fill-rule:nonzero;"/><g opacity="0.1"><path d="M1301.12,737.167l0,-15c-0.042,0.248 -0.042,0.501 0,0.75c0.091,0.265 0.217,0.517 0.375,0.75c1.333,1.75 5.333,2.916 11.25,3.5l-0,15.083c-6.125,-0.583 -9.917,-1.792 -11.25,-3.542c-0.166,-0.242 -0.293,-0.509 -0.375,-0.791c-0.083,-0.243 -0.083,-0.507 0,-0.75Z" style="fill-rule:nonzero;"/></g><path d="M1301.42,735.042c0.041,0.374 0.041,0.751 -0,1.125l-0,-15.084c0.083,-0.356 0.083,-0.727 -0,-1.083c-0.042,4.5 -0.042,10.542 -0,15.042Z" style="fill:#0998b7;fill-rule:nonzero;"/><g opacity="0.4"><path d="M1301.42,735.042c0.041,0.374 0.041,0.751 -0,1.125l-0,-15.084c0.083,-0.356 0.083,-0.727 -0,-1.083c-0.042,4.5 -0.042,10.542 -0,15.042Z" style="fill-rule:nonzero;"/></g><path d="M1301.33,720l0,15.042c0.042,-0.291 0.042,-0.585 0,-0.875c-0.137,-0.259 -0.29,-0.51 -0.458,-0.75c-1.375,-1.792 -5.333,-2.917 -11.625,-3.292l0,-15.083c6.458,0.416 10.292,1.5 11.625,3.375c0.214,0.207 0.372,0.465 0.458,0.75c0.042,0.276 0.042,0.557 0,0.833Z" style="fill:#0998b7;fill-rule:nonzero;"/><rect x="2252.17" y="355.042" width="0.875" height="64.292" style="fill:#263238;"/><path d="M2264.62,379.083l0,-15.666c-0.042,0.248 -0.042,0.501 0,0.75c0.074,0.272 0.201,0.527 0.375,0.75c1.333,1.791 5.333,3 11.292,3.541l-0,14.875c-6.111,-0.583 -9.861,-1.75 -11.25,-3.5l-0.417,-0.75Z" style="fill:#0998b7;fill-rule:nonzero;"/><g opacity="0.1"><path d="M2264.62,379.083l0,-15.666c-0.042,0.248 -0.042,0.501 0,0.75c0.074,0.272 0.201,0.527 0.375,0.75c1.333,1.791 5.333,3 11.292,3.541l-0,14.875c-6.111,-0.583 -9.861,-1.75 -11.25,-3.5l-0.417,-0.75Z" style="fill-rule:nonzero;"/></g><path d="M2264.96,376.375c0.044,0.346 0.044,0.696 0,1.042c-0.041,0.36 -0.041,0.723 0,1.083l0,-15.083c-0.043,-0.346 -0.043,-0.696 0,-1.042c0.042,-0.36 0.042,-0.723 0,-1.083c-0.125,4.541 -0.041,10.541 0,15.083Z" style="fill:#0998b7;fill-rule:nonzero;"/><g opacity="0.4"><path d="M2264.96,376.375c0.044,0.346 0.044,0.696 0,1.042c-0.041,0.36 -0.041,0.723 0,1.083l0,-15.083c-0.043,-0.346 -0.043,-0.696 0,-1.042c0.042,-0.36 0.042,-0.723 0,-1.083c-0.125,4.541 -0.041,10.541 0,15.083Z" style="fill-rule:nonzero;"/></g><path d="M2264.83,361.292l0,15.083c0.085,-0.286 0.085,-0.589 0,-0.875c-0.106,-0.267 -0.246,-0.519 -0.416,-0.75c-1.375,-1.875 -5.334,-2.917 -11.625,-3.375l-0,-15c6.458,0.375 10.25,1.5 11.625,3.333c0.381,0.439 0.589,1.002 0.583,1.584l-0.167,-0Z" style="fill:#0998b7;fill-rule:nonzero;"/><path d="M2924,797.875l-0.792,-123.25c0.049,2.098 0.414,4.177 1.084,6.167c0.795,2.203 1.904,4.28 3.291,6.166c10.709,14.459 41.667,24.209 92.084,28.959l0.75,123.208c-50.292,-4.75 -81.167,-14.417 -92,-28.958c-1.472,-1.791 -2.628,-3.821 -3.417,-6c-0.681,-2.027 -1.019,-4.154 -1,-6.292Z" style="fill:#0998b7;fill-rule:nonzero;"/><g opacity="0.1"><path d="M2924,797.875l-0.792,-123.25c0.049,2.098 0.414,4.177 1.084,6.167c0.795,2.203 1.904,4.28 3.291,6.166c10.709,14.459 41.667,24.209 92.084,28.959l0.75,123.208c-50.292,-4.75 -81.167,-14.417 -92,-28.958c-1.472,-1.791 -2.628,-3.821 -3.417,-6c-0.681,-2.027 -1.019,-4.154 -1,-6.292Z" style="fill-rule:nonzero;"/></g><path d="M2926.25,780.333c-0.048,3.024 -0.454,6.031 -1.208,8.959c-0.745,2.803 -1.164,5.683 -1.25,8.583l-0.792,-123.25c0.124,-2.91 0.543,-5.8 1.25,-8.625c0.751,-2.916 1.17,-5.907 1.25,-8.917c0.458,36.959 0.75,86.375 0.75,123.25Z" style="fill:#0998b7;fill-rule:nonzero;"/><g opacity="0.4"><path d="M2926.25,780.333c-0.048,3.024 -0.454,6.031 -1.208,8.959c-0.745,2.803 -1.164,5.683 -1.25,8.583l-0.792,-123.25c0.124,-2.91 0.543,-5.8 1.25,-8.625c0.751,-2.916 1.17,-5.907 1.25,-8.917c0.458,36.959 0.75,86.375 0.75,123.25Z" style="fill-rule:nonzero;"/></g><path d="M2925.71,657.083l0.542,123.25c-0.003,-2.415 -0.426,-4.812 -1.25,-7.083c-0.838,-2.127 -1.959,-4.131 -3.333,-5.958c-11.334,-15.084 -42.709,-24.042 -95.459,-27.417l-0.791,-123.208c52.791,3.333 84.166,12.5 95.458,27.375c1.402,1.832 2.512,3.87 3.292,6.041c0.939,2.219 1.462,4.592 1.541,7Z" style="fill:#0998b7;fill-rule:nonzero;"/><path d="M1773.08,777.542l-0.541,-79.542c0.021,1.349 0.26,2.686 0.708,3.958c0.455,1.505 1.174,2.916 2.125,4.167c7.042,9.375 26.958,15.625 59.375,18.667l0.542,79.5c-32.459,-3.042 -52.375,-9.334 -59.375,-18.625c-0.964,-1.25 -1.698,-2.661 -2.167,-4.167c-0.47,-1.266 -0.696,-2.609 -0.667,-3.958Z" style="fill:#0998b7;fill-rule:nonzero;"/><g opacity="0.1"><path d="M1773.08,777.542l-0.541,-79.542c0.021,1.349 0.26,2.686 0.708,3.958c0.455,1.505 1.174,2.916 2.125,4.167c7.042,9.375 26.958,15.625 59.375,18.667l0.542,79.5c-32.459,-3.042 -52.375,-9.334 -59.375,-18.625c-0.964,-1.25 -1.698,-2.661 -2.167,-4.167c-0.47,-1.266 -0.696,-2.609 -0.667,-3.958Z" style="fill-rule:nonzero;"/></g><path d="M1774.67,766.208c-0.077,1.952 -0.342,3.892 -0.792,5.792c-0.47,1.741 -0.736,3.531 -0.792,5.333l-0.541,-79.541c0.076,-1.801 0.342,-3.588 0.791,-5.334c0.491,-1.878 0.757,-3.808 0.792,-5.75l0.542,79.5Z" style="fill:#0998b7;fill-rule:nonzero;"/><g opacity="0.4"><path d="M1774.67,766.208c-0.077,1.952 -0.342,3.892 -0.792,5.792c-0.47,1.741 -0.736,3.531 -0.792,5.333l-0.541,-79.541c0.076,-1.801 0.342,-3.588 0.791,-5.334c0.491,-1.878 0.757,-3.808 0.792,-5.75l0.542,79.5Z" style="fill-rule:nonzero;"/></g><path d="M1774.12,686.708l0.542,79.5c-0.048,-1.56 -0.328,-3.105 -0.834,-4.583c-0.549,-1.368 -1.278,-2.657 -2.166,-3.833c-7.292,-9.75 -27.542,-15.542 -61.584,-17.709l-0.541,-79.5c34.083,2.167 54.166,7.959 61.625,17.667c0.914,1.189 1.645,2.51 2.166,3.917c0.544,1.451 0.812,2.991 0.792,4.541Z" style="fill:#0998b7;fill-rule:nonzero;"/><path d="M2714.62,867.917l0,-41.667c0.006,0.707 0.118,1.41 0.333,2.083c0.283,0.741 0.661,1.441 1.125,2.084c3.667,4.875 14.042,8.333 30.959,9.75l-0,41.416c-16.917,-1.583 -27.334,-4.833 -30.959,-9.708c-0.464,-0.643 -0.842,-1.343 -1.125,-2.083c-0.179,-0.611 -0.291,-1.24 -0.333,-1.875Z" style="fill:#0998b7;fill-rule:nonzero;"/><g opacity="0.1"><path d="M2714.62,867.917l0,-41.667c0.006,0.707 0.118,1.41 0.333,2.083c0.283,0.741 0.661,1.441 1.125,2.084c3.667,4.875 14.042,8.333 30.959,9.75l-0,41.416c-16.917,-1.583 -27.334,-4.833 -30.959,-9.708c-0.464,-0.643 -0.842,-1.343 -1.125,-2.083c-0.179,-0.611 -0.291,-1.24 -0.333,-1.875Z" style="fill-rule:nonzero;"/></g><path d="M2715.5,862.042c-0.036,1.011 -0.176,2.016 -0.417,3c-0.257,0.938 -0.411,1.902 -0.458,2.875l0,-41.667c0.001,-0.97 0.127,-1.937 0.375,-2.875c0.257,-0.995 0.411,-2.015 0.458,-3.042c-0.125,12.667 0,29.25 0.042,41.709Z" style="fill:#0998b7;fill-rule:nonzero;"/><g opacity="0.4"><path d="M2715.5,862.042c-0.036,1.011 -0.176,2.016 -0.417,3c-0.257,0.938 -0.411,1.902 -0.458,2.875l0,-41.667c0.001,-0.97 0.127,-1.937 0.375,-2.875c0.257,-0.995 0.411,-2.015 0.458,-3.042c-0.125,12.667 0,29.25 0.042,41.709Z" style="fill-rule:nonzero;"/></g><path d="M2715.21,820.542l0.292,41.666c-0.013,-0.822 -0.154,-1.637 -0.417,-2.416c-0.292,-0.71 -0.67,-1.382 -1.125,-2c-3.791,-5.042 -14.375,-8.084 -32.041,-9.209l-0.292,-41.666c17.75,1.125 28.333,4.166 32.042,9.208c0.463,0.628 0.842,1.314 1.125,2.042c0.309,0.752 0.451,1.562 0.416,2.375Z" style="fill:#0998b7;fill-rule:nonzero;"/><path d="M2132.17,901.292l-0,-28.584c-0.086,0.483 -0.086,0.976 -0,1.459c0.18,0.527 0.447,1.02 0.791,1.458c2.5,3.333 9.667,5.333 21.375,6.667l0,28.625c-11.708,-1.125 -18.875,-3.375 -21.375,-6.75c-0.328,-0.434 -0.594,-0.91 -0.791,-1.417c-0.086,-0.482 -0.086,-0.976 -0,-1.458Z" style="fill:#0998b7;fill-rule:nonzero;"/><g opacity="0.1"><path d="M2132.17,901.292l-0,-28.584c-0.086,0.483 -0.086,0.976 -0,1.459c0.18,0.527 0.447,1.02 0.791,1.458c2.5,3.333 9.667,5.333 21.375,6.667l0,28.625c-11.708,-1.125 -18.875,-3.375 -21.375,-6.75c-0.328,-0.434 -0.594,-0.91 -0.791,-1.417c-0.086,-0.482 -0.086,-0.976 -0,-1.458Z" style="fill-rule:nonzero;"/></g><path d="M2132.75,897.25c-0.006,0.707 -0.118,1.41 -0.333,2.083c-0.168,0.64 -0.252,1.298 -0.25,1.959l-0,-28.584c-0.002,-0.66 0.082,-1.319 0.25,-1.958c0.083,-0.692 0.083,-1.391 -0,-2.083c0.166,8.583 0.291,20.041 0.333,28.583Z" style="fill:#0998b7;fill-rule:nonzero;"/><g opacity="0.4"><path d="M2132.75,897.25c-0.006,0.707 -0.118,1.41 -0.333,2.083c-0.168,0.64 -0.252,1.298 -0.25,1.959l-0,-28.584c-0.002,-0.66 0.082,-1.319 0.25,-1.958c0.083,-0.692 0.083,-1.391 -0,-2.083c0.166,8.583 0.291,20.041 0.333,28.583Z" style="fill-rule:nonzero;"/></g><path d="M2132.54,868.667l-0,28.583c-0.011,-0.558 -0.124,-1.108 -0.334,-1.625c-0.166,-0.499 -0.42,-0.965 -0.75,-1.375c-2.666,-3.542 -9.916,-5.333 -22.166,-6.375l-0,-28.625c12.25,0.833 19.5,2.917 22.125,6.375c0.303,0.434 0.568,0.894 0.791,1.375c0.214,0.53 0.327,1.095 0.334,1.667Z" style="fill:#0998b7;fill-rule:nonzero;"/></g><rect x="1467.12" y="1475.33" width="116.333" height="54.667" style="fill:#f9b499;"/><path d="M1578.38,1475.69c6.215,-43.946 27.363,-77.347 47.195,-74.542c19.833,2.805 30.888,40.761 24.673,84.706c-6.216,43.946 -27.363,77.347 -47.196,74.542c-19.832,-2.804 -30.888,-40.76 -24.672,-84.706Z" style="fill:#f9b499;"/><path d="M1521.79,1321.5c-0,0 5.458,17.958 -7.042,42.958" style="fill:none;fill-rule:nonzero;stroke:#2f2e41;stroke-width:4.17px;"/><path d="M1255.88,2258.33c0,0 2.833,43.459 -5.625,58.667c0,0 -2.625,31.292 3.792,42.292c-0,-0 18.208,21.666 6.375,24.375c-0,-0 -12.5,11.166 -29.584,-19.292c0,0 -12.5,-32.125 -31.291,-22.833c-6.645,8.209 -16.53,13.151 -27.084,13.541c-10.554,0.391 -5.916,73.584 -36.375,65.125c0,0 12.5,-48.208 8.334,-61.75c-0,0 -49.584,67.542 -89.334,47.25c0,0 -6.166,-4.166 -1.125,-13.416c-2.97,-0.965 -5.779,-2.37 -8.333,-4.167c-2.555,-1.875 -4.067,-4.86 -4.067,-8.029c-0,-5.018 3.793,-9.292 8.775,-9.888c17.117,-2.424 33.46,-8.708 47.792,-18.375c14.332,-9.666 57.5,-40.625 66.667,-63.458c-0,0 10.375,-23.75 22.5,-27.5c0.208,-0.25 22.291,9.542 68.583,-2.542Z" style="fill:#f9b499;fill-rule:nonzero;"/><path d="M1779.62,2306c0,0 -7.708,26.625 -3.083,43.083c1.379,4.437 2.205,9.028 2.458,13.667c0.333,10.083 0,26.333 -4.167,33.667c0,-0 -18.208,21.625 -6.375,24.333c0,0 12.5,11.167 29.584,-19.292c-0,0 11.041,-27.958 27.625,-24.166c2.025,0.512 3.852,1.614 5.25,3.166c6.549,7.208 15.765,11.439 25.5,11.709c9.735,0.269 5.916,73.583 36.375,65.125c-0,-0 -12.709,-48.209 -8.334,-61.75c0,-0 50.709,65.125 90.459,44.833c-0,0 6.791,-0.833 -0,-11c3.043,-0.945 5.923,-2.35 8.541,-4.167c2.555,-1.874 4.067,-4.86 4.067,-8.029c0,-5.018 -3.792,-9.291 -8.775,-9.887c-17.116,-2.425 -33.46,-8.709 -47.792,-18.375c-14.332,-9.667 -57.5,-40.584 -66.666,-63.417c-0,0 -10.375,-23.792 -22.5,-27.542c-20.434,4.572 -41.243,7.264 -62.167,8.042Z" style="fill:#f9b499;fill-rule:nonzero;"/><path d="M1310.79,2515.62l-0,22.625c-0,0 57.416,28.625 84.541,-5.042l0,-26.458l-84.541,8.875Z" style="fill:#2f2e41;fill-rule:nonzero;"/><path d="M1395.33,2427.88l-59.375,19.375l-25.166,-21.958l-0,-30.334l84.541,0l0,32.917Z" style="fill:#f9b499;fill-rule:nonzero;"/><path d="M1395.33,2427.88l0,78.875c0.051,4.677 -1.963,9.147 -5.5,12.208c-26.875,22.459 -60,8.584 -73.208,1.459c-3.596,-2.028 -6.501,-5.092 -8.333,-8.792l-20.792,-40.5c-1.636,-3.167 -3.029,-6.455 -4.167,-9.833c-6.833,-20.125 0.959,-30.834 0.959,-30.834c6.458,-17.416 26.458,-5.166 26.458,-5.166l19.833,17.291c3.303,2.869 7.879,3.804 12.042,2.459l52.708,-17.167Z" style="fill:#0998b7;fill-rule:nonzero;"/><path d="M1395.33,2485.62l0,21.125c0.051,4.677 -1.963,9.147 -5.5,12.208c-26.875,22.459 -60,8.584 -73.208,1.459c-3.596,-2.028 -6.501,-5.092 -8.333,-8.792l-20.792,-40.5c-1.636,-3.167 -3.029,-6.455 -4.167,-9.833c10.77,0.253 21.436,-2.167 31.042,-7.042c0.793,-0.43 1.68,-0.655 2.581,-0.655c2.972,0 5.417,2.446 5.417,5.417c0,0.219 -0.013,0.437 -0.04,0.655c-1.958,16.375 -2.666,43.583 12.959,47.583c0.041,0 37.458,11.042 60.041,-21.625Z" style="fill-opacity:0.2;fill-rule:nonzero;"/><path d="M1445.33,2536.33c0,0 -9.291,22.834 43.792,81.084l6.25,-1.959c0,0 8.333,93.917 22.958,116.667c0,0 8.334,30.417 56,25.208c0,0 83.334,6.959 108.875,-17.833c0,0 -66.375,-38.75 -84.333,-96.375c-2.417,-7.833 -5.292,-15.542 -8.333,-23.167l-20.084,-49.375c0,0 -51.208,-90.625 -97.291,-74.083c-0.042,-0.125 -35.292,9.25 -27.834,39.833Z" style="fill:#2f2e41;fill-rule:nonzero;"/><path d="M1502.5,2673.04c0,-0 76.625,55 150.583,44.375c9.63,7.869 19.687,15.199 30.125,21.958c10.439,6.759 -16.416,23.917 -108.875,17.833c0,0 -51.708,14.5 -62.791,-41.666l-9.042,-42.5Z" style="fill-opacity:0.2;fill-rule:nonzero;"/><path d="M1495.38,2615.46l34.208,-13.541c0.238,-0.091 0.49,-0.138 0.744,-0.138c1.143,0 2.084,0.941 2.084,2.084c-0,0.615 -0.273,1.2 -0.744,1.595c-13.834,11.459 -34.5,31.792 -31.834,49.167l-4.458,-39.167Z" style="fill-opacity:0.2;fill-rule:nonzero;"/><path d="M1296.17,2213.29l-3.417,175.416c-0.145,5.817 3.532,11.088 9.042,12.959c23,7.916 83.708,25 117,-2.75c3.072,-2.566 4.846,-6.373 4.833,-10.375l0,-135c0,-0 -71.917,4.333 -127.458,-40.25Z" style="fill:#2f2e41;fill-rule:nonzero;"/><path d="M1865.5,2284.96c-29.458,23.25 -77.75,24.292 -77.75,24.292c-16.273,0.206 -31.172,-9.365 -37.75,-24.25l-36.292,-43c-30.958,-35.042 -78.041,-65.958 -78.041,-65.958c28.791,-35.125 34.708,-55.167 35.5,-64.625l-0,-1.25c0.128,-3.49 -1.012,-6.911 -3.209,-9.625c-6.697,-7.731 -15.903,-12.865 -26,-14.5c-13.079,-1.536 -26.301,1.402 -37.5,8.333c-29.666,17.708 -52.291,-7.208 -52.291,-7.208c-35,-37.709 -96.917,-16.167 -96.917,-16.167c-11.569,4.715 -23.825,7.529 -36.292,8.333c-9.2,0.567 -18.425,-0.577 -27.208,-3.375c-3.706,-1.156 -7.239,-2.81 -10.5,-4.916c-39,-21.542 -69.958,-0 -69.958,-0c-19.459,16.685 -43.179,27.636 -68.5,31.625c-11.002,1.956 -22.16,2.891 -33.334,2.791c-18.943,-0.459 -37.509,5.407 -52.75,16.667c-40,30.917 -34.666,70.375 -34.125,73.583c-16.375,-59.25 5.709,-122.125 5.709,-122.125c7.333,-19.875 53.625,-141.958 73.916,-195.541c6.334,-16.687 10.221,-34.201 11.542,-52l3.333,-44.459c10.792,-161.458 82.084,-178.958 82.084,-178.958c43.083,-16.125 103.625,-64.583 103.625,-64.583c29.583,-22.834 55.166,-18.834 55.166,-18.834c41.667,-25.541 114.334,0 114.334,0c114.416,12.125 185.708,76.667 185.708,76.667c28.292,22.917 44.375,96.917 44.375,96.917c18.875,68.625 26.958,185.708 26.958,185.708c17.5,55.125 6.709,125 6.709,125c-1.342,24.461 0.549,48.992 5.625,72.958c15.583,45.834 28.375,152.042 32.375,187.5c0.931,7.992 -2.296,15.928 -8.542,21Z" style="fill:#0998b7;fill-rule:nonzero;"/><g opacity="0.2"><path d="M1256.25,1704.58c0.333,3.042 0.667,6.042 0.917,9.084c0.25,3.041 0.708,6.083 0.625,9.125c0.104,6.104 -0.105,12.209 -0.625,18.291c-0.985,12.238 -3.391,24.319 -7.167,36c-3.702,11.665 -8.765,22.853 -15.083,33.334c-3.151,5.243 -6.572,10.32 -10.25,15.208c-3.742,4.811 -7.852,9.325 -12.292,13.5c7.583,-9.409 14.2,-19.557 19.75,-30.292c5.656,-10.658 10.315,-21.817 13.917,-33.333c3.692,-11.42 6.355,-23.147 7.958,-35.042c1.574,-11.892 2.325,-23.879 2.25,-35.875Z" style="fill-rule:nonzero;"/></g><path d="M1419.08,2078.83c-9.2,0.588 -18.43,-0.557 -27.208,-3.375c-19.125,-215.75 27.208,-257.875 27.208,-257.875c-35,168.209 0,261.25 0,261.25Z" style="fill-opacity:0.2;fill-rule:nonzero;"/><g opacity="0.2"><path d="M1323.54,1631.96c8.861,-7.372 19.022,-13.024 29.958,-16.666c5.428,-1.939 11.001,-3.444 16.667,-4.5c5.639,-1.117 11.375,-1.675 17.125,-1.667l-16.459,4.792c-5.416,1.583 -10.75,3.375 -16.041,5.25c-5.292,1.875 -10.5,3.916 -15.75,6c-5.25,2.083 -10.334,4.333 -15.5,6.791Z" style="fill-rule:nonzero;"/></g><g opacity="0.2"><path d="M1463.46,1644.04c10.457,-2.124 21.128,-3.005 31.792,-2.625c10.68,0.249 21.324,1.335 31.833,3.25c10.5,2.001 20.834,4.787 30.917,8.333c5.042,1.625 9.958,3.792 14.917,5.708c4.958,1.917 9.625,4.542 14.333,6.959c-10.083,-3.334 -20.042,-6.875 -30.208,-9.625c-2.542,-0.667 -5.084,-1.334 -7.625,-2.084l-7.667,-1.833c-5.083,-1.333 -10.292,-2.208 -15.417,-3.25c-10.333,-1.958 -20.833,-3.25 -31.25,-4.167c-5.25,-0.5 -10.5,-0.666 -15.75,-0.791c-5.25,-0.125 -10.583,-0.167 -15.875,0.125Z" style="fill-rule:nonzero;"/></g><path d="M1750,2284.5l-36.25,-42.833c-30.958,-35 -78.042,-65.917 -78.042,-65.917c28.792,-35.167 34.709,-55.208 35.5,-64.625l0,-1.25c2.167,-60.413 -1.166,-120.899 -9.958,-180.708c-8.792,-59.81 -10.792,-67.292 32.292,-111.709c-0,0 -24.209,121.125 24.25,207.25c-0,0 18.791,20.167 17.458,102.25c0,0.125 0,123.875 14.75,157.542Z" style="fill-opacity:0.2;fill-rule:nonzero;"/><g opacity="0.2"><path d="M1676.04,1693.83c4.129,7.626 7.869,15.455 11.208,23.459c3.375,8 6.208,16.208 8.792,24.541c2.563,8.33 4.567,16.821 6,25.417c1.327,8.697 1.843,17.499 1.541,26.292l-3.791,-0.959c9,-20.5 18.583,-40.75 27.833,-61.125c9.25,-20.375 19.083,-40.5 29.167,-60.5c-8.334,20.834 -17.167,41.375 -26,61.959c-8.834,20.583 -17.959,41 -27.375,61.291l-4.167,9.334l0.542,-10.25c0.387,-8.519 -0.018,-17.056 -1.209,-25.5c-1.333,-8.334 -3,-16.667 -5.166,-25c-4.562,-16.731 -10.37,-33.096 -17.375,-48.959Z" style="fill-rule:nonzero;"/></g><path d="M1273.92,2252.12c-128.75,49 -151.209,-56.708 -151.209,-56.708c-0.541,-3.25 -5.875,-42.667 34.125,-73.584c15.241,-11.259 33.807,-17.126 52.75,-16.666c11.173,0.078 22.33,-0.856 33.334,-2.792l24.125,70.833c-5.209,22.959 5.708,56.417 10.916,70.334c1.109,3.459 -0.669,7.234 -4.041,8.583Z" style="fill:#0998b7;fill-rule:nonzero;"/><path d="M1273.92,2252.12c-128.75,49 -151.209,-56.708 -151.209,-56.708c-0.541,-3.25 -5.875,-42.667 34.125,-73.584c15.241,-11.259 33.807,-17.126 52.75,-16.666c11.173,0.078 22.33,-0.856 33.334,-2.792l24.125,70.833c-5.209,22.959 5.708,56.417 10.916,70.334c1.109,3.459 -0.669,7.234 -4.041,8.583Z" style="fill-opacity:0.2;fill-rule:nonzero;"/><path d="M1671.21,2110.92c-3.125,20.833 -14.041,36.166 -22.708,48.458c-3.966,5.618 -8.236,11.015 -12.792,16.167c-50.333,79.875 -185.708,75.333 -185.708,75.333c-51.704,8.797 -104.851,-2.979 -148,-32.792c-64.5,-43.958 -92.417,-113.083 -92.417,-113.083c70.459,1.417 101.834,-34.417 101.834,-34.417c34.708,-21.75 69.958,0 69.958,0c32.75,18.125 74,0 74,0c64.833,-22.416 96.917,16.167 96.917,16.167c26.708,25 52.291,7.208 52.291,7.208c40.917,-24.125 63.459,6.084 63.459,6.084c5.75,6.166 3.166,10.875 3.166,10.875Z" style="fill:#2f2e41;fill-rule:nonzero;"/><path d="M1423.62,2253.54c0,-0 56.417,70.833 74.208,161.5l219.375,21.416l-17.916,-210.875c-19.742,-18.435 -41.013,-35.162 -63.584,-50c-22.57,-14.838 -38.666,73.167 -185.708,75.292l-26.375,2.667Z" style="fill:#2f2e41;fill-rule:nonzero;"/><path d="M1423.62,2253.54l20.292,30.958c9.844,-16.044 29.172,-23.796 47.375,-19c10.125,2.534 20.586,3.462 31,2.75c23.166,-1.875 62.5,-8.333 98.666,-28.583c11.127,-6.261 23.544,-9.883 36.292,-10.584l42.125,-2.541c0,-0 -46.25,-41.917 -63.667,-51c0,-0 -37.5,73.208 -185.708,75.333l-26.375,2.667Z" style="fill-opacity:0.2;fill-rule:nonzero;"/><path d="M1296.17,2213.29l-1.792,92.708c0,0 47.792,33.333 129.167,17.042l-0,-69.5c-0,-0 -73.542,1.208 -127.375,-40.25Z" style="fill-opacity:0.2;fill-rule:nonzero;"/><path d="M1908.79,2389.62c-0,0 32.125,34.667 65.958,39.75" style="fill:#f9b499;fill-rule:nonzero;"/><path d="M1671.21,2110.92c-3.541,18.333 -14.041,36.166 -22.708,48.458l-0.333,0c-2.084,-50.375 -41.209,-37.208 -41.209,-37.208c-34,26.791 -87.5,-7.209 -87.5,-7.209c-91.666,-28.833 -160.708,-7.208 -160.708,-7.208c-84.5,10.292 -54.75,111.042 -54.75,111.042c-64.708,-43.792 -94.417,-113.792 -94.417,-113.792c70.459,1.417 101.834,-34.417 101.834,-34.417c34.708,-21.75 69.958,0 69.958,0c32.75,18.125 74,0 74,0c64.833,-22.416 96.917,16.167 96.917,16.167c26.708,25 52.291,7.208 52.291,7.208c40.917,-24.125 63.459,6.084 63.459,6.084c5.75,6.166 3.166,10.875 3.166,10.875Z" style="fill-opacity:0.2;fill-rule:nonzero;"/><path d="M1719.58,2456.67c-0.444,11.769 -5.311,22.948 -13.625,31.291c-25.512,25.108 -55.409,45.331 -88.208,59.667c-4.167,1.833 -8.333,3.583 -12.708,5.25c-1.256,-13.13 -4.053,-26.066 -8.334,-38.542c-11.75,-35.25 -39.833,-82.666 -106.375,-87.166c0,-0 17.5,-48.75 110.792,-57.042c2.921,-0.284 5.858,-0.381 8.792,-0.292c3.552,-0.007 7.101,0.215 10.625,0.667c28.041,3.5 101.166,19.208 99.041,86.167Z" style="fill:#2f2e41;fill-rule:nonzero;"/><path d="M1719.62,2456.67c-0.439,11.778 -5.324,22.964 -13.667,31.291c-28.813,28.332 -63.152,50.431 -100.875,64.917c-1.277,-13.14 -4.074,-26.087 -8.333,-38.583c26.375,-16.959 93.667,-71.334 13.208,-144.5c3.554,0.007 7.103,0.244 10.625,0.708c28,3.5 101.167,19.208 99.042,86.167Z" style="fill-opacity:0.2;fill-rule:nonzero;"/><path d="M1699.21,2720.04c-1.625,13.125 -16,19.291 -16,19.291c-50.5,15.5 -112.833,-105.041 -112.833,-105.041l-31.542,-89.459c-8.884,-25.447 -33.037,-42.597 -59.99,-42.597c-9.523,0 -18.925,2.141 -27.51,6.264l-2.083,1.083c-1.042,-44.333 41.167,-82.416 41.167,-82.416c66.666,4.5 94.625,51.916 106.375,87.166c4.28,12.476 7.077,25.412 8.333,38.542c4.375,-1.667 8.625,-3.417 12.708,-5.25c9.792,53.417 40.5,118.583 40.5,118.583c6.375,22.834 18.542,30.417 26.625,32.834c9.137,2.665 15.149,11.525 14.25,21Z" style="fill:#0998b7;fill-rule:nonzero;"/><path d="M1445.33,2536.33c0,0 6.417,-32.875 38.75,-28.125c10.99,1.792 20.993,7.436 28.209,15.917c15.386,18.565 28.896,38.607 40.333,59.833l14.875,-12.5c-0,0 -19,-71.458 -74,-84.375c-10.149,-2.698 -20.938,-1.648 -30.375,2.959c-11.333,5.791 -23.208,18.708 -17.792,46.291Z" style="fill:#2f2e41;fill-rule:nonzero;"/><path d="M1445.33,2536.33c0,0 6.417,-32.875 38.75,-28.125c10.99,1.792 20.993,7.436 28.209,15.917c15.386,18.565 28.896,38.607 40.333,59.833l14.875,-12.5c-0,0 -19,-71.458 -74,-84.375c-10.149,-2.698 -20.938,-1.648 -30.375,2.959c-11.333,5.791 -23.208,18.708 -17.792,46.291Z" style="fill-opacity:0.2;fill-rule:nonzero;"/><path d="M1120.04,2352.42c-8.08,10.435 -17.872,19.424 -28.959,26.583c-5.59,3.576 -11.505,6.617 -17.666,9.083c-6.187,2.392 -12.711,3.798 -19.334,4.167c6.187,-1.893 12.219,-4.262 18.042,-7.083c5.719,-2.901 11.283,-6.1 16.667,-9.584c5.416,-3.458 10.666,-7.25 15.833,-11.083c5.167,-3.833 10.333,-7.917 15.417,-12.083Z" style="fill:#f7a48b;fill-rule:nonzero;"/><path d="M1644.38,1444.88l0,-10.708c0.007,-0.092 0.01,-0.183 0.01,-0.274c0,-2.035 -1.674,-3.709 -3.708,-3.709c-2.035,0 -3.709,1.674 -3.709,3.709c0,0.161 0.011,0.322 0.032,0.482c0.413,5.564 0.175,11.158 -0.708,16.667c-1.466,8.722 -8.799,15.345 -17.625,15.916c-1.547,0.038 -3.084,0.248 -4.584,0.625c-16.666,4.167 -9.541,25.5 -9.541,25.5c5.5,18.75 -0,18 -0,18c-16.375,10.917 -48.417,-12.5 -48.417,-12.5c-12.646,-2.853 -25.578,-4.251 -38.542,-4.166c-9.108,-0.092 -18.095,2.115 -26.125,6.416l-24.791,13.625c-28.542,6.375 -14.417,-43.625 -14.417,-43.625c-9.231,3.836 -19.443,4.653 -29.167,2.334c-2.435,-0.689 -4.773,-1.683 -6.958,-2.959c-1.062,-0.65 -1.711,-1.81 -1.711,-3.055c0,-0.968 0.392,-1.895 1.086,-2.57c10.167,-10.041 12.5,-44.25 12.833,-66.666c0.093,-20.765 7.806,-40.789 21.667,-56.25c18.023,-20.089 46.19,-27.929 72,-20.042c66.375,-29.667 98.375,31.208 98.375,31.208c7.792,21.125 21.875,25.792 21.875,25.792c21.083,-18.75 21.083,20.292 21.083,20.292c1.375,39.708 -18.958,45.958 -18.958,45.958Z" style="fill:#2f2e41;fill-rule:nonzero;"/><path d="M1604.54,1493.25c5.5,18.75 -0,18 -0,18c-16.375,10.917 -48.417,-12.5 -48.417,-12.5c-12.646,-2.853 -25.578,-4.251 -38.542,-4.167c-9.108,-0.092 -18.095,2.116 -26.125,6.417l-24.791,13.458c-28.542,6.375 -14.417,-43.625 -14.417,-43.625c-9.231,3.836 -19.443,4.653 -29.167,2.334c-9.723,-2.319 27.709,-25.667 22.375,-82.459c1.125,6.917 24.042,143.959 80,74.667c0,0 35,69.708 80.042,-10.958c-0,-0 -0,14.625 8.75,13.541c-16.833,3.917 -9.708,25.292 -9.708,25.292Z" style="fill-opacity:0.2;fill-rule:nonzero;"/><path d="M1637,1434.38c0,0 2.708,-26.375 3.458,-43.875c4.207,14.148 5.539,28.996 3.917,43.667c-1.622,14.67 -2.708,-9.875 -7.375,0.208Z" style="fill-opacity:0.2;fill-rule:nonzero;"/><path d="M2081.17,2521.25l-0,126.333l466.791,-9.333l0,-124.042l-466.791,7.042Z" style="fill:#0998b7;fill-rule:nonzero;"/><path d="M2081.17,2521.25l-129.542,-101.958l24.5,-4.792l160.042,105.917l-55,0.833Z" style="fill:#0998b7;fill-rule:nonzero;"/><path d="M2081.17,2521.25l-129.542,-101.958l24.5,-4.792l160.042,105.917l-55,0.833Z" style="fill-opacity:0.3;fill-rule:nonzero;"/><path d="M1939.58,2468.54l129.875,146.291l11.709,-93.583l-129.542,-101.958l-12.042,49.25Z" style="fill:#d1d3d4;fill-rule:nonzero;"/><path d="M1939.58,2468.54l-3.416,12.333l145,166.708l-0,-126.333l-11.709,93.583l-129.875,-146.291Z" style="fill:#0998b7;fill-rule:nonzero;"/><path d="M1939.58,2468.54l-3.416,12.333l145,166.708l-0,-126.333l-11.709,93.583l-129.875,-146.291Z" style="fill-opacity:0.2;fill-rule:nonzero;"/><rect x="2180.08" y="2558.08" width="125.083" height="56.75" style="fill:#2f2e41;"/><circle cx="2130.29" cy="2588.12" r="15.5" style="fill:#2f2e41;"/><path d="M2098.17,2521.25c-0,0 326.208,56.917 450,51.375l-0,-58.333l-450,6.958Z" style="fill-opacity:0.2;fill-rule:nonzero;"/><path d="M2114.79,2416.08l-135.042,-52.666l490.333,-7.75l111.542,54.583l-466.833,5.833Z" style="fill:#808285;fill-rule:nonzero;"/><path d="M2467.88,2385.88l-357.5,15.167l0,-80.792l349.75,-21.042l7.75,86.667Z" style="fill:#2f2e41;fill-rule:nonzero;"/><path d="M1956.5,2294.79l153.875,25.458l349.75,-21.042l-287.792,-22.125l-215.833,17.709Z" style="fill:#2f2e41;fill-rule:nonzero;"/><path d="M1956.5,2294.79l153.875,25.458l349.75,-21.042l-287.792,-22.125l-215.833,17.709Z" style="fill-opacity:0.2;fill-rule:nonzero;"/><path d="M2110.38,2390l-153.875,-53.167l0,-42.041l153.875,25.458l0,69.75Z" style="fill:#d1d3d4;fill-rule:nonzero;"/><path d="M1956.5,2336.83l0,5.542l153.875,58.667l0,-11.042l-153.875,-53.167Z" style="fill:#2f2e41;fill-rule:nonzero;"/><path d="M2110.38,2401.04l0,-39.709c0,0 249.083,28.959 355.333,0l2.167,24.542l-357.5,15.167Z" style="fill-opacity:0.2;fill-rule:nonzero;"/><path d="M1971.5,2434.92l0,-73.584l143.292,54.75l-0,105.167l-143.292,-86.333Z" style="fill:#d1d3d4;fill-rule:nonzero;"/><path d="M2114.79,2416.08l-0,105.167l466.833,-7.792l0,-103.208l-466.833,5.833Z" style="fill:#939598;fill-rule:nonzero;"/><path d="M2114.79,2465.75c-0,0 374.666,61.5 466.666,37.125l0,10.583l-466.666,7.792l-0,-55.5Z" style="fill-opacity:0.2;fill-rule:nonzero;"/><rect x="2215.5" y="2448.62" width="121.875" height="47.5" style="fill:#808285;"/></svg>