<svg id="abf9b4c8-0c7b-46df-8b3b-f7910b5f5d43" data-name="Layer 1" xmlns="http://www.w3.org/2000/svg" width="865.76" height="682.89" viewBox="0 0 865.76 682.89"><polygon points="298.92 598.03 324.29 585.45 345.2 598.03 324.29 590.87 298.92 598.03" fill="#bcbec0"/><polygon points="366.01 582.56 364.38 591.74 374.56 595.21 378.13 583.27 366.01 582.56" fill="#f9b499"/><polygon points="333.19 584.42 334.44 593.66 345.2 593.86 344.95 581.4 333.19 584.42" fill="#f9b499"/><rect x="87.16" y="107.32" width="691.33" height="385.51" fill="#fff"/><path d="M718.53,468.46H142.3V169.14H718.53ZM144,466.8h572.9v-296H144Z" fill="#ccc"/><rect x="143.14" y="229.13" width="574.56" height="1.66" fill="#ccc"/><rect x="143.14" y="289.13" width="574.56" height="1.66" fill="#ccc"/><rect x="142.54" y="347.46" width="574.56" height="1.66" fill="#ccc"/><rect x="142.54" y="407.45" width="574.56" height="1.66" fill="#ccc"/><rect x="224.54" y="169.97" width="1.66" height="297.66" fill="#ccc"/><rect x="306.84" y="169.97" width="1.66" height="297.66" fill="#ccc"/><rect x="388.37" y="169.97" width="1.66" height="297.66" fill="#ccc"/><rect x="470.74" y="169.97" width="1.66" height="297.66" fill="#ccc"/><rect x="553.03" y="169.97" width="1.66" height="297.66" fill="#ccc"/><rect x="634.57" y="169.97" width="1.66" height="297.66" fill="#ccc"/><path d="M778.49,79.05h11.08a15.29,15.29,0,0,1,15.29,15.29v411a12.34,12.34,0,0,1-12.34,12.34h-14a0,0,0,0,1,0,0V79.05A0,0,0,0,1,778.49,79.05Z" fill="#1e1e1e"/><path d="M778.49,79.05h11.08a15.29,15.29,0,0,1,15.29,15.29v411a12.34,12.34,0,0,1-12.34,12.34h-14a0,0,0,0,1,0,0V79.05A0,0,0,0,1,778.49,79.05Z" fill="#231f20" opacity="0.2"/><path d="M786,79.05H73.63A12.73,12.73,0,0,0,60.9,91.78V505A12.73,12.73,0,0,0,73.63,517.7H786A12.73,12.73,0,0,0,798.75,505V91.78A12.73,12.73,0,0,0,786,79.05ZM773.5,486.48a3.56,3.56,0,0,1-3.56,3.57H90.73a3.57,3.57,0,0,1-3.57-3.57V110.89a3.57,3.57,0,0,1,3.57-3.57H769.94a3.56,3.56,0,0,1,3.56,3.57Z" fill="#1e1e1e"/><rect x="173.07" y="135.36" width="30" height="13.08" fill="#1e1e1e"/><rect x="257.68" y="135.36" width="30" height="13.08" fill="#1e1e1e"/><rect x="342.29" y="135.36" width="30" height="13.08" fill="#1e1e1e"/><rect x="421.51" y="135.36" width="30" height="13.08" fill="#1e1e1e"/><rect x="505.35" y="135.36" width="30" height="13.08" fill="#1e1e1e"/><rect x="585.34" y="135.36" width="30" height="13.08" fill="#1e1e1e"/><rect x="662.26" y="135.36" width="30" height="13.08" fill="#1e1e1e"/><path d="M303.06,257.92V233.47H229v49a4.46,4.46,0,0,0,4.46,4.46h51S275.35,262.4,303.06,257.92Z" fill="#1e1e1e"/><path d="M229,278.4h7.63v8.53h-3.08a4.55,4.55,0,0,1-4.55-4.55Z" opacity="0.2"/><rect x="232.81" y="240.37" width="65.6" height="2.93" fill="#fff"/><rect x="232.54" y="254.31" width="65.6" height="2.93" fill="#fff"/><rect x="232.54" y="247.34" width="65.6" height="2.93" fill="#fff"/><path d="M317.58,268.94l-15.66,21.39-1-1.5a44.8,44.8,0,0,0-5.31-6.59A45.3,45.3,0,0,0,288,276l1.36-2.09A46.95,46.95,0,0,1,302,286L316,267a17.35,17.35,0,1,0,1.63,2Z" fill="#1e1e1e"/><path d="M480.67,208.12,465,229.51l-1-1.5a44.8,44.8,0,0,0-12.94-12.82l1.35-2.1a47.73,47.73,0,0,1,8.06,6.59,48.28,48.28,0,0,1,4.6,5.49l13.94-19a17.18,17.18,0,1,0,1.64,2Z" fill="#1e1e1e"/><path d="M466.47,197.58V173.13H392.41v49a4.45,4.45,0,0,0,4.45,4.45h51S438.76,202.06,466.47,197.58Z" fill="#1e1e1e"/><path d="M392.41,218.06H400v8.52H397a4.54,4.54,0,0,1-4.55-4.54Z" opacity="0.2"/><rect x="396.22" y="180.03" width="65.6" height="2.93" fill="#fff"/><rect x="395.96" y="193.97" width="65.6" height="2.93" fill="#fff"/><rect x="395.96" y="187" width="65.6" height="2.93" fill="#fff"/><path d="M474.52,411.12H551a0,0,0,0,1,0,0v54.7a0,0,0,0,1,0,0H484a9.43,9.43,0,0,1-9.43-9.43V411.12A0,0,0,0,1,474.52,411.12Z" fill="#1e1e1e"/><path d="M474.52,458h9.62a0,0,0,0,1,0,0v7.84a0,0,0,0,1,0,0h-2.45a7.17,7.17,0,0,1-7.17-7.17V458A0,0,0,0,1,474.52,458Z" opacity="0.2"/><rect x="479.33" y="418.78" width="66.34" height="2.38" fill="#fff"/><rect x="479.33" y="431.94" width="66.34" height="2.38" fill="#fff"/><rect x="479.33" y="425.43" width="66.34" height="2.38" fill="#fff"/><path d="M556.41,291.77h76.44a0,0,0,0,1,0,0v54.7a0,0,0,0,1,0,0h-67a9.43,9.43,0,0,1-9.43-9.43V291.77A0,0,0,0,1,556.41,291.77Z" fill="#1e1e1e"/><path d="M556.41,338.63H566a0,0,0,0,1,0,0v7.84a0,0,0,0,1,0,0h-2.45a7.17,7.17,0,0,1-7.17-7.17v-.67A0,0,0,0,1,556.41,338.63Z" opacity="0.2"/><rect x="561.22" y="299.43" width="66.34" height="2.38" fill="#fff"/><rect x="561.22" y="312.6" width="66.34" height="2.38" fill="#fff"/><rect x="561.22" y="306.09" width="66.34" height="2.38" fill="#fff"/><rect x="43.39" y="482.12" width="226.15" height="2.49" transform="translate(-348.75 537.03) rotate(-78.13)" fill="#a7a9ac"/><rect x="99.47" y="479.8" width="229.01" height="2.49" transform="translate(-295.4 614.2) rotate(-80.67)" fill="#a7a9ac"/><rect x="199.7" y="374.22" width="1.66" height="53.02" transform="translate(-207.8 585.29) rotate(-87.74)" fill="#a7a9ac"/><rect x="191.98" y="412.71" width="1.66" height="55.4" transform="translate(-254.57 616.45) rotate(-87.84)" fill="#a7a9ac"/><rect x="184.72" y="452.56" width="1.66" height="56.42" transform="translate(-300.15 653.02) rotate(-88.42)" fill="#a7a9ac"/><rect x="177.26" y="490.87" width="1.66" height="58.59" transform="translate(-345.62 687.57) rotate(-88.83)" fill="#a7a9ac"/><rect x="171.09" y="524.06" width="1.66" height="59.99" transform="translate(-383.82 720.42) rotate(-89.43)" fill="#a7a9ac"/><path d="M390.12,522.71l-39.5-13.5-42.6-1.6s-4,12.72-1.84,22a10.45,10.45,0,0,0,9.7,8l57.59,2.51-9.1,44.73,14.13,1.93,17.62-50.54S401.7,526.67,390.12,522.71Z" fill="#1e1e1e"/><polygon points="332.03 588.16 345.58 588.16 360.49 539.57 336.88 538.54 332.03 588.16" fill="#1e1e1e"/><g opacity="0.2"><path d="M390.12,522.71l-39.5-13.5-42.6-1.6s-4,12.72-1.84,22a10.45,10.45,0,0,0,9.7,8l57.59,2.51-9.1,44.73,14.13,1.93,17.62-50.54S401.7,526.67,390.12,522.71Z"/><polygon points="332.03 588.16 345.58 588.16 360.49 539.57 336.88 538.54 332.03 588.16"/></g><rect x="311.12" y="519.42" width="8.52" height="19.12" fill="#bcbec0"/><rect x="322.15" y="543.43" width="4.26" height="54.6" fill="#bcbec0"/><circle cx="324.34" cy="599.97" r="3.87" fill="#a7a9ac"/><circle cx="298.15" cy="599.97" r="3.87" fill="#a7a9ac"/><circle cx="346.26" cy="599.97" r="3.87" fill="#a7a9ac"/><polygon points="406.19 482.05 419.05 473.77 423.67 481.11 413.28 492.45 406.19 482.05" fill="#f9b499"/><path d="M436.64,472.43l-13,8.68-4.62-7.34s5.22-6.69,8.28-10.87c.39-.53.92-.9,1.47-.56l7.81,8.42A1,1,0,0,1,436.64,472.43Z" fill="#f9b499"/><polygon points="308.24 424.8 335.9 408.93 342.66 415.82 321.06 433.01 308.24 424.8" fill="#f9b499"/><path d="M344.39,398.37c-3.09,4.05-8.49,10.56-8.49,10.56l6.76,6.89,11.87-7.73a3.41,3.41,0,0,0,.36-5.45l-5.56-4.79A3.41,3.41,0,0,0,344.39,398.37Z" fill="#f9b499"/><path d="M346,445.45a14.07,14.07,0,0,0,5.15-6.8l14.13-9.25,7.86,3.61s-2.45,23.44-15.71,17.68l-4.54,3.49Z" fill="#f9b499"/><polygon points="248.68 298.27 256.25 288.01 262.13 293.89 254.8 302.96 248.68 298.27" fill="#f9b499"/><path d="M259.44,278.44,256.25,288l5.88,5.88,7.92-9.24a3.64,3.64,0,0,0-.86-5.46l-4.42-2.7A3.63,3.63,0,0,0,259.44,278.44Z" fill="#f9b499"/><polygon points="152.73 342 161.28 350.9 167.34 345.26 160.63 335.76 152.73 342" fill="#f9b499"/><polygon points="165.78 358.25 168.37 346.02 167.34 345.26 161.28 350.9 165.78 358.25" fill="#f9b499"/><path d="M137.84,381.64l19.43,10.73s2-21.68,10.07-33.44L150,349.67S135,369.18,137.84,381.64Z" fill="#1e1e1e"/><path d="M137.84,381.64l19.43,10.73s2-21.68,10.07-33.44L150,349.67S135,369.18,137.84,381.64Z" opacity="0.2"/><path d="M203.05,467.39c-1.22-4.82-3.94-15.15-6.25-20.21,0,0-6.08-19.55-4-30.32,0,0,9.47-1.41,13.5-1.61,0,0,2.5,35.34,3.78,47.6a16.28,16.28,0,0,0,3.1,8.07c1.7,2.27,4.18,4.77,7.3,5.72L206.19,471A5.22,5.22,0,0,1,203.05,467.39Z" fill="#f9b499"/><path d="M164,415.82c-.46-.11-2.61,20.43,0,35.64,0,0,.64,11.16-1,16.39,0,0,10.28,9.26,16.68,9.74,0,0-9.54-7.84-8.34-17.82L178.09,418A126.28,126.28,0,0,1,164,415.82Z" fill="#f9b499"/><path d="M168.52,345.26s-4.13-5.65-5.08-25.31a.44.44,0,0,0-.57-.4l-10.14,3.38s5.88,6.83,5,9.39l2.91,3.44-7.9,6.24s-19.43-18.71-13.9-26.37l29.69-22.45s18.24-13.37,36.95,0c0,0,22.27,19.77,38.13,10.33l4.29-5.11a.59.59,0,0,1,.79-.12l6,3.82a.6.6,0,0,1,.16.86L252,306.9h0a10,10,0,0,1-3.36,9.73l-10.55,8.83a7.89,7.89,0,0,1-7.93,1.42,6,6,0,0,1-1.61-.95,16.42,16.42,0,0,0-5-3.06,28.52,28.52,0,0,0-11.94-1.71,1.37,1.37,0,0,0-1.23,1.34,17.41,17.41,0,0,1-.28,3.1,88.64,88.64,0,0,0-1.21,10.67c-.27,4.44-.89,9.49-2.28,11.13C206.54,347.4,177.91,348.89,168.52,345.26Z" fill="#0998b7"/><path d="M197.8,270.41h10.28s2.72-8.32-6.84-10.15C201.24,260.26,195.48,262.79,197.8,270.41Z" fill="#1e1e1e"/><path d="M183,287.74l5.87-7.7-1.66-6.43,1.66-1.77,3.47,2.11.54,2.48,5-6h9.64s.78,19-6.87,16.28l-3.32-1.77L195,288.25a3.63,3.63,0,0,1-3.74,1.5l-8.14-1.67A.22.22,0,0,1,183,287.74Z" fill="#f9b499"/><path d="M190.74,279.53l-2.4,1.73s-8.09-11.71-1.21-17.73c0,0-8.8-5.17.42-11.36,0,0,5.6-2.75,6.81,6.19,0,0,4.65-.86,6.88,1.9,0,0-5.68,2.24-3.44,10.15,0,0-3.62,6-5.51,6.2,0,0-.51-4.3-2.75-2.58C189.54,274,187.3,276,190.74,279.53Z" fill="#1e1e1e"/><path d="M197.8,270.41h10.28s2.72-8.32-6.84-10.15C201.24,260.26,195.48,262.79,197.8,270.41Z" fill="#231f20" opacity="0.2"/><path d="M168.52,345.26l-14.25,67.47S170,420.81,191.81,417c0,0,18-2.85,22.17-1.66l-7.44-68S177.31,348.83,168.52,345.26Z" fill="#1e1e1e"/><path d="M159.57,471.68l3-9.09a.55.55,0,0,1,.69-.34l1.88.63,2.63,4.69,5.32-.5,7.54,9.4a1.18,1.18,0,0,1,.19,1.1h0a1.16,1.16,0,0,1-1.48.74l-14.49-4.85-.08-1.76a1,1,0,0,0-.78-.91h0a1,1,0,0,0-1.14.64l-.41,1.23Z" fill="#0998b7"/><path d="M200.31,476.72l1.51-9.46a.54.54,0,0,1,.62-.45l2,.31,3.36,4.2,5.16-1.38,9,8a1.16,1.16,0,0,1,.38,1h0a1.16,1.16,0,0,1-1.34,1l-15.1-2.4-.37-1.72a1,1,0,0,0-.91-.78h0a1,1,0,0,0-1,.83l-.2,1.28Z" fill="#0998b7"/><path d="M315.77,468.11s-1.55,26.33-6.59,34.08L308,507.61l38.34,1.55c13,1.35,19.75-22.46,19.75-22.46,3.68,3.68,23.23,10.77,23.23,10.77,11.23,4.39,21.88-1.67,21.88-1.67s-.77-2.52,1,.38,2.91,0,2.91,0c0-1.93-8.91-14.13-8.91-14.13-4.84-3.87-4.45,1.74-4.45,1.74-5.43,2.52-13-5.23-13-5.23l-32.33-24.2c-4.07-13.17-17.82-10.07-17.82-10.07l-29.23-18.78c-4.46-3.29-7.75,0-7.75,0l-3.29,7.75c-3.1,4.45,1.74,7,1.74,7,5.42,1.16,10.46,18.39,10.46,18.39,1.35,6.58,5.23,8.13,5.23,8.13" fill="#0998b7"/><path d="M357.42,442.83a7.79,7.79,0,0,1-4.52.27,5.5,5.5,0,0,1-4-5.7,25.92,25.92,0,0,0-.21-6.43s-2.61-10.89,9.29-9.52a28.88,28.88,0,0,0,5.34.17c3.94-.29,10.67-.37,10.67,2.43,0,0,2.09,5.95-.87,9,0,0-5.59-.65-6.46,2.84,0,0-1.74,3.14-3.14,3.49,0,0,1.7-6.63-1.94-5.23C361.59,434.11,358,435.33,357.42,442.83Z" fill="#1e1e1e"/><rect x="294.85" y="493.47" width="41.05" height="28.27" rx="5.94" fill="#a7a9ac"/><rect x="302.02" y="537.62" width="51.5" height="8.33" rx="3.81" fill="#a7a9ac"/><path d="M395.05,600.87s-2.91-5.67-8.89-6.64c0,0-8.74-2-9.52-5.92,0,0-2.93,7.7-9.24,4l-4-4.69s-1.46,10.52,0,13.27Z" fill="#0998b7"/><path d="M364.38,600.87s-2.91-5.67-8.9-6.64c0,0-8.74-2-9.52-5.92,0,0-2.93,7.7-9.24,4l-4-4.69s-1.46,10.52,0,13.27Z" fill="#0998b7"/><path d="M197.25,284.92l-.87,1.27s-2.2-2.49-2-4.93C194.35,281.26,195.71,284.7,197.25,284.92Z" fill="#f4a48e"/><path d="M357.42,450.69l-1.22.94a8.64,8.64,0,0,1-1.15-6.39S355.19,449.4,357.42,450.69Z" fill="#f4a48e"/></svg>