<?xml version="1.0" encoding="UTF-8" standalone="no"?><!DOCTYPE svg PUBLIC "-//W3C//DTD SVG 1.1//EN" "http://www.w3.org/Graphics/SVG/1.1/DTD/svg11.dtd"><svg width="100%" height="100%" viewBox="0 0 3608 2846" version="1.1" xmlns="http://www.w3.org/2000/svg" xmlns:xlink="http://www.w3.org/1999/xlink" xml:space="preserve" xmlns:serif="http://www.serif.com/" style="fill-rule:evenodd;clip-rule:evenodd;stroke-miterlimit:10;"><rect x="1227.67" y="2398.79" width="555.625" height="43.917" style="fill:#2f2e41;"/><path d="M1227.67,2398.79c-0,-0 3.5,-59.459 72.375,-100.834c5.599,-3.309 10.947,-7.028 16,-11.125l48.833,-39.75c7.182,-5.863 13.808,-12.376 19.792,-19.458l121.458,-143.625c0,0 88.042,-112.5 134.333,-73.75l8.875,-0.458l-19.666,26.541c-0,0 27.25,-17.541 75.875,11.167c14.178,8.544 27.345,18.664 39.25,30.167l76.666,74.291c0,0 8.334,18.709 -21.583,34.959c-0,-0 20.833,10.833 -14.75,35.416c-0,0 25,92.167 -1.792,176.459l-555.666,-0Z" style="fill:#0998b7;fill-rule:nonzero;"/><path d="M1227.67,2398.79c-0,-0 3.5,-59.459 72.375,-100.834c5.599,-3.309 10.947,-7.028 16,-11.125l48.833,-39.75c7.182,-5.863 13.808,-12.376 19.792,-19.458l121.458,-143.625c0,0 88.042,-112.5 134.333,-73.75l8.875,-0.458l-19.666,26.541c-0,0 27.25,-17.541 75.875,11.167c14.178,8.544 27.345,18.664 39.25,30.167l76.666,74.291c0,0 8.334,18.709 -21.583,34.959c-0,-0 20.833,10.833 -14.75,35.416c-0,0 25,92.167 -1.792,176.459l-555.666,-0Z" style="fill-opacity:0.3;fill-rule:nonzero;"/><path d="M2149.04,1609.33c-0,0 92.375,-86.25 164.375,-127.083l243.208,59.875c0,0 -81.875,26.375 -189.542,167.333l-69.25,89.959c0,-0 -31.75,-147.625 -148.791,-190.084Z" style="fill:#f7a48b;fill-rule:nonzero;"/><path d="M2538.71,1924.21c0,0 134.75,193.75 261.25,232.584c0,-0 58.334,19.541 230.834,4.166l-74.709,-165.125l-282.625,-73.916l-75.625,-61.209l-59.125,63.5Z" style="fill:#2f2e41;fill-rule:nonzero;"/><path d="M2538.71,1924.21c0,0 134.75,193.75 261.25,232.584c0,-0 58.334,19.541 230.834,4.166l-74.709,-165.125l-282.625,-73.916l-75.625,-61.209l-59.125,63.5Z" style="fill-opacity:0.3;fill-rule:nonzero;"/><path d="M2752,1586.12c0,0 67.667,168.875 -78.542,335.875c0,0 250.875,278.333 427.167,237.5c0,0 195.833,30.417 175,-323.417l-19,-64.416l-349.792,-135.834l-154.833,-49.708Z" style="fill:#2f2e41;fill-rule:nonzero;"/><path d="M2587.5,1385.75l-15.25,33.333l11.792,52.5l95.833,30.334l16.667,-69.25c-0,-0 -63.584,-35.834 -109.042,-46.917Z" style="fill:#f9b499;fill-rule:nonzero;"/><path d="M2587.5,1385.75c0,0 47.417,11.75 109.042,47.083c-0,0 -39.917,45.584 -11.959,73.542l222.125,129.458l157.417,88.25l54.167,32.625c15.202,9.214 31.439,16.598 48.375,22c25.916,8.125 65.083,21.25 81.166,30.709l-11.791,-220.834l-30.875,-111.791c-0,-0 88.25,-85.334 226.541,-27.959c0,0 -27.166,-136.791 -87.125,-217.708c0,0 -70,-99.792 -148.083,-66.667c0,0 -66.667,36.542 -128.917,23.75c0,0 -63.291,122.709 -172.25,119.417c-15.722,-0.317 -30.982,-5.404 -43.75,-14.583c-18.791,-13.875 -35.791,-40.125 -17.208,-91.125c7.119,-18.82 17.052,-36.451 29.458,-52.292c11.709,-15.917 22.334,-31.5 -0.625,-30.708c-17.889,6.75 -36.069,13.902 -54.541,21.458c-17.125,7 -33.834,14.125 -50,21.25c-9.809,2.324 -19.267,5.939 -28.125,10.75c-22.201,12.662 -40.53,31.149 -53,53.458c-12.471,22.31 -74.75,114.584 -90.042,159.917Z" style="fill:#0998b7;fill-rule:nonzero;"/><path d="M2587.5,1385.75c1.125,-3.292 2.417,-6.75 3.917,-10.292c1.916,-4.666 3.916,-8.958 5.916,-12.916c14.584,4.666 29.584,9.958 45.042,15.625c26.61,9.358 52.606,20.379 77.833,33l-16.041,25.916c-17.625,-9.541 -33,-17.166 -45.084,-23c-17.678,-8.861 -35.911,-16.572 -54.583,-23.083c-7,-2.333 -12.833,-4.083 -17,-5.25Z" style="fill:#fff;fill-rule:nonzero;"/><path d="M2613.42,1394.17c-0,-0 84.791,-93 162.208,-73.292l-87.917,143.292c0,-0 39.375,71.875 335.875,81.041c0,0 64.292,-1.291 90.542,-14.416c0,-0 42,-13.125 55.125,-186.334l66.958,244.292l11.792,220.833c0,0 -21.458,-11 -78.792,-29.666c-18.851,-6.208 -37.005,-14.363 -54.166,-24.334l-430.459,-249.208c0,0 -30.416,-21.458 11.959,-73.542c-0,0 -53.042,-27.833 -83.125,-38.666Z" style="fill-opacity:0.3;fill-rule:nonzero;"/><path d="M2863.38,1118.92c0,-0 43.875,-57.417 52.625,-99.042l21.167,-4.792l130.583,173.125c0,0 -75,144.084 -195.333,115.375c-0,0 -97.542,-29.708 -10.584,-151.416c0,-0 31.084,-34.709 1.542,-33.25Z" style="fill:#f9b499;fill-rule:nonzero;"/><path d="M2863.38,1118.92c0,-0 30.375,-4.834 -1.542,33.333c0,0 23.459,10.833 102.542,-31.667l-32.125,-103.458l-16.25,7.958l-52.625,93.834Z" style="fill:#f7a48b;fill-rule:nonzero;"/><path d="M2714.54,762.75c-0,0 -10.792,20.833 -23.667,43.417c-13.008,22.885 -28.085,44.531 -45.042,64.666c-38.333,45.542 -127.083,171.75 -54.958,294.334c0,-0 29.167,49.583 86.75,60.833c0,0 25,-49.583 81.125,-64.208c0,-0 74.208,-31.459 104.625,-42.709c0,0 47.625,-58.333 52.625,-93.916l-201.458,-262.417Z" style="fill:#2f2e41;fill-rule:nonzero;"/><ellipse cx="2828.75" cy="868.083" rx="132.208" ry="208.875" style="fill:#f9b499;"/><circle cx="2731.08" cy="675.708" r="67.625" style="fill:#2f2e41;"/><path d="M3443.17,1023.67c-15.75,181.083 -98.417,207.625 -98.417,207.625c-50.75,-66.292 -98.708,-74.459 -123.708,-73.084c-8.444,0.543 -16.712,2.663 -24.375,6.25c-20.01,8.625 -40.486,16.123 -61.334,22.459c-86.083,18.041 -140.916,-27.334 -170.833,-66.417c-11.808,-15.043 -21.613,-31.556 -29.167,-49.125c-60,-138.875 26.625,-165.542 26.625,-165.542l-46.541,-64.416c-141.125,5.541 -184.417,-114 -184.417,-114c75.917,-119.834 184.583,-89.917 240.833,-62.75c12.879,6.093 25.215,13.271 36.875,21.458c60.542,72.833 150,90.833 150,90.833c123,20.834 172.209,53.834 172.209,53.834c135.75,73.791 112.25,192.875 112.25,192.875Z" style="fill:#2f2e41;fill-rule:nonzero;"/><ellipse cx="2970.71" cy="841.417" rx="46.667" ry="64.417" style="fill:#f9b499;"/><path d="M3205.33,1476.96c0,0 -7.208,-31.458 -13.791,-50c-0,0 97.666,-78.666 225.958,-34.75l14.375,56.625c0,0 -120.917,-58.541 -226.542,28.125Z" style="fill:#fff;fill-rule:nonzero;"/><path d="M3053.46,1211.25c0,0 27.167,6.75 83.792,-1.833c42.022,-6.628 84.908,5.453 117.292,33.041c29.166,25 58.875,66.917 80.041,136.584c6.475,16.429 11.318,33.456 14.459,50.833c3.141,17.377 52.833,4.167 82.833,19.125c0,0 -25.792,-135.375 -87.125,-217.708c0,-0 -69.5,-98.542 -148.083,-66.667c-0,0 -83.334,40.25 -128.917,23.75l-14.292,22.875Z" style="fill-opacity:0.3;fill-rule:nonzero;"/><path d="M3221.46,1534.88c0,0 -66.666,-154.583 -57.625,-231.292l3.584,27.084c1.206,9.198 3.044,18.303 5.5,27.25l48.541,176.958Z" style="fill-opacity:0.3;fill-rule:nonzero;"/><path d="M3431.88,1449c0,0 49.667,142.792 41.667,320.833c-0,0 -4.417,142.375 -130.792,112.125c0,0 -37,-12.5 -141.958,-112.5l-123.334,-120.833c0,0 -44.125,9.292 -110.791,-77.542c-3.675,-4.8 -8.629,-8.469 -14.292,-10.583c-15.786,-5.88 -33.355,-4.742 -48.25,3.125c-16.292,8.667 -38.125,16.875 -50.875,7.833c0,0 -86.625,-19.666 -72.167,-48.541l47.875,-34.125c0,-0 -69.666,10.125 -76.291,-34.125c-0.445,-3.083 1.712,-5.99 4.791,-6.459l44.417,-6.541c0,-0 -44.375,-25.209 -25.375,-49.209c1.617,-2.046 4.359,-2.866 6.833,-2.041l147.792,48.625l226.292,108.875l76.125,34.125l-28.209,-105c0,-0 90.5,-84.917 226.542,-28.042Z" style="fill:#f9b499;fill-rule:nonzero;"/><path d="M3037.21,1637.5c0,0 41.667,10.25 76,-8.958c0,-0 -5.625,15.458 -34.333,19.208c0,0.125 -11.417,5.458 -41.667,-10.25Z" style="fill:#f7a48b;fill-rule:nonzero;"/><path d="M2574.21,1886.12c0,0 -29.541,-152.75 -207.125,-176.667c0,0 107.584,-145.125 189.542,-167.333c0,0 40.667,-5.667 195.375,44c0,0 67.333,169.333 -78.542,335.875l-75.625,-61.208l-23.625,25.333Z" style="fill:#f9b499;fill-rule:nonzero;"/><path d="M2268.08,2214.88l306.125,-328.75c0,0 -31.25,-154.458 -207.125,-176.667l-280,363.667l8.875,-0.417l-19.708,26.542c0,0 43.292,-26.542 115.167,41.333l76.666,74.292Z" style="fill:#e6e7e8;fill-rule:nonzero;"/><path d="M2574.21,1886.12c0,0 86.625,-87.917 115.334,-142.917c-0,0 -43.084,104.209 -115.334,142.917Z" style="fill:#f7a48b;fill-rule:nonzero;"/><rect x="1674.29" y="2461.71" width="555.625" height="43.917" style="fill:#2f2e41;"/><path d="M1674.29,2461.71c-0,0 3.5,-59.458 72.333,-100.833c5.613,-3.309 10.975,-7.028 16.042,-11.125l48.833,-39.792c7.182,-5.848 13.807,-12.348 19.792,-19.416l121.458,-143.625c0,-0 88.042,-112.5 134.333,-73.792l8.875,-0.417l-19.708,26.542c0,0 27.292,-17.542 75.875,11.167c14.207,8.52 27.391,18.642 39.292,30.166l76.666,74.292c0,0 8.334,18.708 -21.583,34.958c0,0 20.833,10.834 -14.75,35.417c0,0 25,92.167 -1.833,176.458l-555.625,0Z" style="fill:#0998b7;fill-rule:nonzero;"/><path d="M1649.33,2009.79l499.709,-400.459c-0,0 98.833,22.709 148.791,190.084l-53.583,69.583l-421.708,289.333c-0,0 3.458,-1.916 -1.084,-6.333l-76.666,-74.292c-0,0 -63.834,-64.541 -115.125,-41.333l19.666,-26.583Z" style="fill:#e6e7e8;fill-rule:nonzero;"/><path d="M2551.17,1540.83l-363,-86.125l-138.167,-455.458c-0.442,-1.443 -0.666,-2.943 -0.666,-4.451c-0,-8.343 6.865,-15.209 15.208,-15.209c0.908,0 1.815,0.082 2.708,0.243l380.958,68.417l102.959,492.583Z" style="fill:#2f2e41;fill-rule:nonzero;"/><path d="M2496.46,1061.04c0,-0 -18.458,-405.917 -204.166,-563.625c-38.904,-32.879 -89.453,-48.747 -140.167,-44c-62.5,5.791 -156.125,30.875 -238.958,119.333c-0,0 102.458,89.375 131.666,297.417l15.709,109.416l387.75,68.667l48.166,12.792Z" style="fill:#0998b7;fill-rule:nonzero;"/><path d="M2228.46,461.917c-170.125,-49.417 -315.333,110.833 -315.333,110.833c-75,80.417 -130.25,383.583 -149.208,500c-5.417,33.5 -12.361,66.708 -20.834,99.625l-52.583,206.792c-129.875,580.791 -341.667,935.666 -341.667,935.666c-120.833,283.334 -465.5,531.959 -465.5,531.959l-871.666,-0l-0,-754.167c248,35.417 417.25,-13.792 417.25,-13.792c277.5,-49.208 525.5,-389.708 525.5,-389.708l116.125,-428.667c53.125,-227.916 131.875,-464.166 131.875,-464.166c90.541,-220.459 244.041,-352.5 244.041,-352.5l666.042,-0c108.333,-3.667 115.958,18.125 115.958,18.125Z" style="fill:#e6e7e8;fill-rule:nonzero;"/><path d="M1856.79,443.875c-3.459,18.875 -25.792,33.333 -52.792,33.333c-27,0 -49.375,-14.625 -52.75,-33.333l105.542,0Z" style="fill:none;fill-rule:nonzero;stroke:#d1d3d4;stroke-width:4.17px;"/><path d="M1650,443.708c-5.729,10.017 -16.419,16.218 -27.958,16.218c-11.539,-0 -22.23,-6.201 -27.959,-16.218l55.917,0Z" style="fill:none;fill-rule:nonzero;stroke:#d1d3d4;stroke-width:4.17px;"/><path d="M1525.5,714.792l-193.417,-0c0,-0 73.125,-158.334 200.417,-187.75l-7,187.75Z" style="fill:none;fill-rule:nonzero;stroke:#d1d3d4;stroke-width:4.17px;"/><path d="M1581.83,714.792c0,-0 30.167,-151.792 68.334,-181.209l154,0c-0,0 -58.125,91.667 -72.834,181.209l-149.5,-0Z" style="fill:none;fill-rule:nonzero;stroke:#d1d3d4;stroke-width:4.17px;"/><path d="M1562.08,518.125l32.167,0c0,0 -1.458,-17.542 8.333,-25.458l-28.083,-0c-5.792,7.574 -10.014,16.23 -12.417,25.458Z" style="fill:none;fill-rule:nonzero;stroke:#d1d3d4;stroke-width:4.17px;"/><path d="M1284.04,766.417l467.208,-0" style="fill:none;fill-rule:nonzero;stroke:#d1d3d4;stroke-width:4.17px;"/><path d="M1410.25,983.875c59.167,-85.458 -5.5,-144.625 -5.5,-144.625c-43.333,-27.875 -84.167,-14.125 -111.542,3.125c-26.177,16.425 -45.081,42.282 -52.791,72.208c-18.375,72.625 43.625,102.084 43.625,102.084c-0,-0 71.166,46.666 126.208,-32.792Z" style="fill:none;fill-rule:nonzero;stroke:#d1d3d4;stroke-width:4.17px;"/><path d="M1237.5,948.875l111.458,-22.042l-44.791,-90.666c-42.513,21.001 -68.737,65.336 -66.667,112.708Z" style="fill:#d1d3d4;fill-rule:nonzero;"/><path d="M1410.25,983.875l-61.375,-57.042" style="fill:none;fill-rule:nonzero;stroke:#d1d3d4;stroke-width:4.17px;"/><path d="M1532.5,895.417l10.958,-36.667l42,0l-11.458,36.667l-41.5,-0Z" style="fill:none;fill-rule:nonzero;stroke:#d1d3d4;stroke-width:4.17px;"/><path d="M1604.58,866.417l100.834,-0" style="fill:none;fill-rule:nonzero;stroke:#d1d3d4;stroke-width:4.17px;"/><path d="M1604.58,887.792l41.25,-0" style="fill:none;fill-rule:nonzero;stroke:#d1d3d4;stroke-width:4.17px;"/><path d="M1525.88,961.917l38.208,-0l9.917,-35.084l-36.667,0l-11.458,35.084Z" style="fill:none;fill-rule:nonzero;stroke:#d1d3d4;stroke-width:4.17px;"/><path d="M1697.04,934.417l-100.875,-0" style="fill:none;fill-rule:nonzero;stroke:#d1d3d4;stroke-width:4.17px;"/><path d="M1635.12,955.333l-43.083,0" style="fill:none;fill-rule:nonzero;stroke:#d1d3d4;stroke-width:4.17px;"/><path d="M1513.62,1033.42l38.208,-0l9.959,-35.084l-36.709,0l-11.458,35.084Z" style="fill:none;fill-rule:nonzero;stroke:#d1d3d4;stroke-width:4.17px;"/><path d="M1684.79,1005.92l-100.834,-0" style="fill:none;fill-rule:nonzero;stroke:#d1d3d4;stroke-width:4.17px;"/><path d="M1622.92,1026.88l-43.084,0" style="fill:none;fill-rule:nonzero;stroke:#d1d3d4;stroke-width:4.17px;"/><path d="M1175.25,1105.75l-55.167,243.25l444.917,0" style="fill:none;fill-rule:nonzero;stroke:#d1d3d4;stroke-width:4.17px;"/><path d="M1317.12,1223.67c0,-0 -27.125,55.5 -76.167,60.375c-12.014,0.981 -24.029,-1.943 -34.25,-8.334c-13.666,-8.333 -43.041,-17.791 -75.333,23.625l25.542,-112.5c-0,0 28.416,-34.333 76.291,-4.166c9.349,6.086 17.499,13.84 24.042,22.875c9.417,12.416 30.25,32.708 59.875,18.125Z" style="fill:none;fill-rule:nonzero;stroke:#d1d3d4;stroke-width:4.17px;"/><path d="M1317.12,1223.67c0,-0 78.333,-98.584 114.25,-77.375c0,-0 18.417,-3 37.792,37.208c-0,0 22.291,60.25 92.25,-6.125c0.297,-0.297 0.7,-0.464 1.12,-0.464c0.868,-0 1.583,0.714 1.583,1.583c0,0.114 -0.012,0.228 -0.037,0.339l-31.583,170.167" style="fill:none;fill-rule:nonzero;stroke:#d1d3d4;stroke-width:4.17px;"/><path d="M1471.83,1188.88c0,0 26.334,-32.667 65.25,8c0,0 -40.375,30.5 -65.25,-8Z" style="fill:none;fill-rule:nonzero;stroke:#d1d3d4;stroke-width:4.17px;"/><path d="M1477.12,1184l10.042,19.958" style="fill:none;fill-rule:nonzero;stroke:#d1d3d4;stroke-width:4.17px;"/><path d="M1482.12,1181.29l14.583,27.041" style="fill:none;fill-rule:nonzero;stroke:#d1d3d4;stroke-width:4.17px;"/><path d="M1487.17,1177.75l17.291,30.583" style="fill:none;fill-rule:nonzero;stroke:#d1d3d4;stroke-width:4.17px;"/><path d="M1493.58,1177.12l17.334,30.542" style="fill:none;fill-rule:nonzero;stroke:#d1d3d4;stroke-width:4.17px;"/><path d="M1500.29,1176l17.333,30.542" style="fill:none;fill-rule:nonzero;stroke:#d1d3d4;stroke-width:4.17px;"/><path d="M1513.62,1179.67l13.083,23.208" style="fill:none;fill-rule:nonzero;stroke:#d1d3d4;stroke-width:4.17px;"/><path d="M1303.08,1228.25l5.459,9.667" style="fill:none;fill-rule:nonzero;stroke:#d1d3d4;stroke-width:4.17px;"/><path d="M1295.04,1228.71l8.041,16.625" style="fill:none;fill-rule:nonzero;stroke:#d1d3d4;stroke-width:4.17px;"/><path d="M1284.08,1227.38l12.459,25.667" style="fill:none;fill-rule:nonzero;stroke:#d1d3d4;stroke-width:4.17px;"/><path d="M1268.08,1217.21l22.25,42.25" style="fill:none;fill-rule:nonzero;stroke:#d1d3d4;stroke-width:4.17px;"/><path d="M1248.17,1194.83l35.916,70.209" style="fill:none;fill-rule:nonzero;stroke:#d1d3d4;stroke-width:4.17px;"/><path d="M1235.33,1184l40.084,87.375" style="fill:none;fill-rule:nonzero;stroke:#d1d3d4;stroke-width:4.17px;"/><path d="M1220.96,1176l47.125,99.75" style="fill:none;fill-rule:nonzero;stroke:#d1d3d4;stroke-width:4.17px;"/><path d="M1208.46,1170.08l51.792,109.25" style="fill:none;fill-rule:nonzero;stroke:#d1d3d4;stroke-width:4.17px;"/><path d="M1196.38,1170.12l54.167,112.292" style="fill:none;fill-rule:nonzero;stroke:#d1d3d4;stroke-width:4.17px;"/><path d="M1182.17,1171.71l62.375,111.875" style="fill:none;fill-rule:nonzero;stroke:#d1d3d4;stroke-width:4.17px;"/><path d="M1175.17,1174l52.916,109.583" style="fill:none;fill-rule:nonzero;stroke:#d1d3d4;stroke-width:4.17px;"/><path d="M1164.88,1179.67l51.833,100.833" style="fill:none;fill-rule:nonzero;stroke:#d1d3d4;stroke-width:4.17px;"/><path d="M1159.5,1184l42.125,88.833" style="fill:none;fill-rule:nonzero;stroke:#d1d3d4;stroke-width:4.17px;"/><path d="M1154.04,1199.17l33.125,69.458" style="fill:none;fill-rule:nonzero;stroke:#d1d3d4;stroke-width:4.17px;"/><path d="M1151.92,1211.62l28.625,56.708" style="fill:none;fill-rule:nonzero;stroke:#d1d3d4;stroke-width:4.17px;"/><path d="M1170.62,1269.79l-22.375,-45.084" style="fill:none;fill-rule:nonzero;stroke:#d1d3d4;stroke-width:4.17px;"/><path d="M1164.88,1271.71l-19.417,-34.708" style="fill:none;fill-rule:nonzero;stroke:#d1d3d4;stroke-width:4.17px;"/><path d="M1156.71,1275.75l-13.541,-28.5" style="fill:none;fill-rule:nonzero;stroke:#d1d3d4;stroke-width:4.17px;"/><path d="M1151.92,1278.83l-11.542,-19.375" style="fill:none;fill-rule:nonzero;stroke:#d1d3d4;stroke-width:4.17px;"/><path d="M1147.33,1282.42l-9.166,-13.25" style="fill:none;fill-rule:nonzero;stroke:#d1d3d4;stroke-width:4.17px;"/><path d="M1140.38,1288.83l-4.75,-8.333" style="fill:none;fill-rule:nonzero;stroke:#d1d3d4;stroke-width:4.17px;"/><circle cx="1395.62" cy="1399.54" r="20.292" style="fill:#d1d3d4;"/><circle cx="1170.62" cy="1399.54" r="20.292" style="fill:none;stroke:#d1d3d4;stroke-width:4.17px;"/><path d="M1435.17,1391l75.75,0" style="fill:none;fill-rule:nonzero;stroke:#d1d3d4;stroke-width:4.17px;"/><path d="M1435.17,1405.42l46.958,-0" style="fill:none;fill-rule:nonzero;stroke:#d1d3d4;stroke-width:4.17px;"/><path d="M1201.62,1398.21l75.75,0" style="fill:none;fill-rule:nonzero;stroke:#d1d3d4;stroke-width:4.17px;"/><path d="M1201.62,1412.62l46.958,0" style="fill:none;fill-rule:nonzero;stroke:#d1d3d4;stroke-width:4.17px;"/><path d="M1596.17,1534.67l-394.542,-0" style="fill:none;fill-rule:nonzero;stroke:#d1d3d4;stroke-width:4.17px;"/><path d="M1135.62,1779.62l378,0" style="fill:none;fill-rule:nonzero;stroke:#d1d3d4;stroke-width:4.17px;"/><path d="M1180.46,1779.62c32.575,-53.116 57.805,-110.402 75,-170.292l58.334,0c-0,0 -30.834,132 -66.667,170.292l-66.667,0Z" style="fill:none;fill-rule:nonzero;stroke:#d1d3d4;stroke-width:4.17px;"/><path d="M1289.67,1609.33l19.291,17.875" style="fill:none;fill-rule:nonzero;stroke:#d1d3d4;stroke-width:4.17px;"/><path d="M1275.42,1609.33l30.291,30.042" style="fill:none;fill-rule:nonzero;stroke:#d1d3d4;stroke-width:4.17px;"/><path d="M1255.33,1609.33l46.125,45.084" style="fill:none;fill-rule:nonzero;stroke:#d1d3d4;stroke-width:4.17px;"/><path d="M1251.75,1621.58l45.417,47.209" style="fill:none;fill-rule:nonzero;stroke:#d1d3d4;stroke-width:4.17px;"/><path d="M1246.96,1636.83l45.334,47.25" style="fill:none;fill-rule:nonzero;stroke:#d1d3d4;stroke-width:4.17px;"/><path d="M1242.71,1649.17l45.334,47.583" style="fill:none;fill-rule:nonzero;stroke:#d1d3d4;stroke-width:4.17px;"/><path d="M1283.17,1710.33l-43.917,-51.583" style="fill:none;fill-rule:nonzero;stroke:#d1d3d4;stroke-width:4.17px;"/><path d="M1233.75,1672.96l44.625,49.709" style="fill:none;fill-rule:nonzero;stroke:#d1d3d4;stroke-width:4.17px;"/><path d="M1229.04,1684.54l45.416,47.583" style="fill:none;fill-rule:nonzero;stroke:#d1d3d4;stroke-width:4.17px;"/><path d="M1224.75,1694.46l44.875,45.584" style="fill:none;fill-rule:nonzero;stroke:#d1d3d4;stroke-width:4.17px;"/><path d="M1220.88,1703.25l44.5,48.333" style="fill:none;fill-rule:nonzero;stroke:#d1d3d4;stroke-width:4.17px;"/><path d="M1217.62,1710.33l43.583,49" style="fill:none;fill-rule:nonzero;stroke:#d1d3d4;stroke-width:4.17px;"/><path d="M1256.08,1767.75l-42.958,-48" style="fill:none;fill-rule:nonzero;stroke:#d1d3d4;stroke-width:4.17px;"/><path d="M1208,1730.17l42.167,45.75" style="fill:none;fill-rule:nonzero;stroke:#d1d3d4;stroke-width:4.17px;"/><path d="M1202.96,1740.04l36.459,39.583" style="fill:none;fill-rule:nonzero;stroke:#d1d3d4;stroke-width:4.17px;"/><path d="M1199,1747.46l30.083,32.167" style="fill:none;fill-rule:nonzero;stroke:#d1d3d4;stroke-width:4.17px;"/><path d="M1193.42,1757.67l24.208,21.958" style="fill:none;fill-rule:nonzero;stroke:#d1d3d4;stroke-width:4.17px;"/><path d="M1187.67,1767.75l15.291,11.875" style="fill:none;fill-rule:nonzero;stroke:#d1d3d4;stroke-width:4.17px;"/><path d="M1297.17,1779.62c17.005,-30.932 30.358,-63.736 39.791,-97.75l67.959,2.667c-0,-0 -22.5,76.125 -34.542,95.083l-73.208,0Z" style="fill:none;fill-rule:nonzero;stroke:#d1d3d4;stroke-width:4.17px;"/><circle cx="1378.21" cy="1652.42" r="10.542" style="fill:none;stroke:#d1d3d4;stroke-width:4.17px;"/><path d="M1460.25,1649.17c0,-0 -27.417,110.958 -48.208,130.458l72.833,0c0,0 37.25,-76.125 41.083,-127.208l-65.708,-3.25Z" style="fill:none;fill-rule:nonzero;stroke:#d1d3d4;stroke-width:4.17px;"/><path d="M1097.12,1815.83l-31.5,50.209l407.417,-0l28.5,-50.209l-404.417,0Z" style="fill:none;fill-rule:nonzero;stroke:#d1d3d4;stroke-width:4.17px;"/><path d="M1116.79,1840.96l148.583,0" style="fill:none;fill-rule:nonzero;stroke:#d1d3d4;stroke-width:4.17px;"/><path d="M1324.62,1840.96l123.792,0" style="fill:none;fill-rule:nonzero;stroke:#d1d3d4;stroke-width:4.17px;"/><path d="M1150.33,1636.79l23.417,-0l-46.667,106.958l-34.791,0l58.041,-106.958Z" style="fill:none;fill-rule:nonzero;stroke:#d1d3d4;stroke-width:4.17px;"/><path d="M477.792,2138.62c-0,0 229.666,-61.542 344.458,-213.208l612.917,-5.709c-0,0 -20.209,137.5 -101.75,218.917l-855.625,0Z" style="fill:none;fill-rule:nonzero;stroke:#d1d3d4;stroke-width:4.17px;"/><path d="M722.333,2106.42c-10.265,-3.954 -16.307,-14.769 -14.291,-25.584c2.083,-10.166 10.416,-22.75 37.083,-29.166c0,-0 24.208,-6.042 41.667,0.375c9.458,3.503 15.772,12.575 15.772,22.662c0,5.874 -2.142,11.552 -6.022,15.963c-8.084,9.5 -24.042,19.416 -55.542,18.708c-6.362,0.354 -12.726,-0.655 -18.667,-2.958Z" style="fill:none;fill-rule:nonzero;stroke:#d1d3d4;stroke-width:4.17px;"/><path d="M802.708,2074.67l82.167,-21.667" style="fill:none;fill-rule:nonzero;stroke:#d1d3d4;stroke-width:4.17px;"/><path d="M901.565,2031.68c12.26,-5.758 25.135,-4.215 28.733,3.445c3.598,7.66 -3.435,18.554 -15.695,24.313c-12.259,5.758 -25.134,4.215 -28.732,-3.445c-3.598,-7.66 3.435,-18.554 15.694,-24.313Z" style="fill:none;stroke:#d1d3d4;stroke-width:4.17px;"/><path d="M835.888,1993.28c10.429,-4.898 21.395,-3.552 24.475,3.005c3.08,6.556 -2.886,15.856 -13.314,20.754c-10.429,4.899 -21.395,3.552 -24.475,-3.004c-3.08,-6.557 2.886,-15.857 13.314,-20.755Z" style="fill:none;stroke:#d1d3d4;stroke-width:4.17px;"/><path d="M857.333,2009.71l39.292,24.834" style="fill:none;fill-rule:nonzero;stroke:#d1d3d4;stroke-width:4.17px;"/><path d="M860.833,2002.17l118.667,-5.667" style="fill:none;fill-rule:nonzero;stroke:#d1d3d4;stroke-width:4.17px;"/><path d="M998.416,1975.2c16.928,-9.773 36.338,-7.893 43.317,4.195c6.98,12.089 -1.098,29.838 -18.026,39.612c-16.928,9.773 -36.338,7.894 -43.317,-4.195c-6.98,-12.089 1.097,-29.838 18.026,-39.612Z" style="fill:none;stroke:#d1d3d4;stroke-width:4.17px;"/><path d="M1005.81,2070.82c18.71,-5.656 36.305,-2.295 39.267,7.5c2.961,9.796 -9.826,22.341 -28.537,27.997c-18.71,5.656 -36.305,2.296 -39.266,-7.5c-2.962,-9.796 9.825,-22.34 28.536,-27.997Z" style="fill:none;stroke:#d1d3d4;stroke-width:4.17px;"/><path d="M1226.38,2016.02c19.943,-6.029 39.247,-0.63 43.08,12.049c3.833,12.68 -9.247,27.868 -29.19,33.897c-19.944,6.029 -39.247,0.63 -43.08,-12.05c-3.833,-12.679 9.246,-27.868 29.19,-33.896Z" style="fill:none;stroke:#d1d3d4;stroke-width:4.17px;"/><path d="M1138.63,2069.86c12.217,-3.693 24.108,-0.168 26.537,7.867c2.428,8.034 -5.518,17.556 -17.735,21.249c-12.217,3.693 -24.108,0.168 -26.537,-7.866c-2.429,-8.035 5.518,-17.556 17.735,-21.25Z" style="fill:none;stroke:#d1d3d4;stroke-width:4.17px;"/><path d="M1326.84,1986.23c12.217,-3.693 24.108,-0.169 26.537,7.866c2.429,8.035 -5.518,17.556 -17.735,21.249c-12.217,3.694 -24.108,0.169 -26.536,-7.866c-2.429,-8.034 5.517,-17.556 17.734,-21.249Z" style="fill:none;stroke:#d1d3d4;stroke-width:4.17px;"/><path d="M1007.67,2024.83l8.416,42.625" style="fill:none;fill-rule:nonzero;stroke:#d1d3d4;stroke-width:4.17px;"/><path d="M1042.88,2074.67l57.833,-40.125" style="fill:none;fill-rule:nonzero;stroke:#d1d3d4;stroke-width:4.17px;"/><path d="M1122.46,2017.09c10.607,-4.334 21.625,-1.967 24.587,5.283c2.963,7.25 -3.245,16.655 -13.852,20.99c-10.608,4.334 -21.625,1.967 -24.588,-5.283c-2.962,-7.251 3.245,-16.656 13.853,-20.99Z" style="fill:none;stroke:#d1d3d4;stroke-width:4.19px;"/><path d="M1132.29,1955.69c9.049,-3.693 18.42,-1.73 20.914,4.381c2.493,6.111 -2.829,14.07 -11.878,17.763c-9.049,3.693 -18.42,1.73 -20.914,-4.381c-2.493,-6.111 2.829,-14.07 11.878,-17.763Z" style="fill:none;stroke:#d1d3d4;stroke-width:4.17px;"/><path d="M1125.58,2009.17l3.334,-30.292" style="fill:none;fill-rule:nonzero;stroke:#d1d3d4;stroke-width:4.17px;"/><path d="M1136.79,2026.96l66.166,2.209" style="fill:none;fill-rule:nonzero;stroke:#d1d3d4;stroke-width:4.17px;"/><path d="M1165.08,2077.79l37.875,-19.459" style="fill:none;fill-rule:nonzero;stroke:#d1d3d4;stroke-width:4.17px;"/><path d="M9.792,2200.46c-0,0 271.875,22.959 419.083,-41.666c-34.708,26.291 -73.208,53.166 -115.667,79.583c-62.055,38.648 -126.805,72.791 -193.75,102.167" style="fill:none;fill-rule:nonzero;stroke:#d1d3d4;stroke-width:4.17px;"/><path d="M290.667,2173.83c-0,0 61.583,34.542 100.625,40.584" style="fill:none;fill-rule:nonzero;stroke:#d1d3d4;stroke-width:4.17px;"/><path d="M257.625,2340.58c91.667,-40.583 276.375,-126.166 276.375,-126.166c-35.082,46.955 -75.899,89.34 -121.5,126.166" style="fill:none;fill-rule:nonzero;stroke:#d1d3d4;stroke-width:4.17px;"/><path d="M534,2340.58l144.167,-99.166l-58.542,99.166" style="fill:none;fill-rule:nonzero;stroke:#d1d3d4;stroke-width:4.17px;"/><circle cx="549.208" cy="2200.33" r="6.208" style="fill:none;stroke:#d1d3d4;stroke-width:4.17px;"/><path d="M802.708,2369.08c0,0 106.25,-72.083 148.584,-139.666l379.875,-0c-0,-0 -6.167,63.083 -79.417,139.666l-449.042,0Z" style="fill:none;fill-rule:nonzero;stroke:#d1d3d4;stroke-width:4.17px;"/><path d="M899.667,2340.58l72.916,0l15,-75.125l-87.916,75.125Z" style="fill:none;fill-rule:nonzero;stroke:#d1d3d4;stroke-width:4.17px;"/><path d="M1025.12,2265.46l214.292,0" style="fill:none;fill-rule:nonzero;stroke:#d1d3d4;stroke-width:4.17px;"/><path d="M1025.12,2291l192.5,0" style="fill:none;fill-rule:nonzero;stroke:#d1d3d4;stroke-width:4.17px;"/><path d="M1016.08,2324.04l73.625,-0" style="fill:none;fill-rule:nonzero;stroke:#d1d3d4;stroke-width:4.17px;"/><path d="M491.667,2598.21l91.666,0c0,0 7.542,-21.25 -14.166,-25.708c-3.476,-0.666 -7.039,-0.751 -10.542,-0.25c-24.123,2.977 -47.133,11.898 -66.958,25.958Z" style="fill:none;fill-rule:nonzero;stroke:#d1d3d4;stroke-width:4.17px;"/><path d="M594.625,2602.42l91.417,-0c-0,-0 7.541,-21.292 -14.167,-25.75c-3.476,-0.667 -7.038,-0.751 -10.542,-0.25c-24.037,3.039 -46.954,11.972 -66.708,26Z" style="fill:none;fill-rule:nonzero;stroke:#d1d3d4;stroke-width:4.17px;"/><path d="M684,2544.29c13.334,-3.889 26.011,-0.702 28.29,7.113c2.279,7.815 -6.696,17.318 -20.03,21.207c-13.334,3.889 -26.011,0.701 -28.29,-7.114c-2.279,-7.815 6.696,-17.317 20.03,-21.206Z" style="fill:none;stroke:#d1d3d4;stroke-width:4.17px;"/><path d="M697.417,2607.92l91.666,-0c0,-0 7.542,-21.25 -14.166,-25.709c-3.476,-0.666 -7.039,-0.751 -10.542,-0.25c-24.116,3.004 -47.119,11.922 -66.958,25.959Z" style="fill:none;fill-rule:nonzero;stroke:#d1d3d4;stroke-width:4.17px;"/><path d="M793.083,2545.98c13.324,-3.926 26.009,-0.774 28.31,7.034c2.301,7.809 -6.647,17.337 -19.971,21.263c-13.323,3.926 -26.008,0.774 -28.31,-7.035c-2.301,-7.808 6.648,-17.336 19.971,-21.262Z" style="fill:none;stroke:#d1d3d4;stroke-width:4.17px;"/><path d="M806.625,2613.46l91.417,0c-0,0 7.583,-21.25 -14.167,-25.75c-3.49,-0.583 -7.052,-0.583 -10.542,0c-24.016,2.959 -46.933,11.805 -66.708,25.75Z" style="fill:none;fill-rule:nonzero;stroke:#d1d3d4;stroke-width:4.17px;"/><path d="M902.269,2551.48c13.323,-3.926 26.009,-0.774 28.31,7.035c2.301,7.808 -6.648,17.336 -19.971,21.262c-13.323,3.926 -26.009,0.774 -28.31,-7.034c-2.301,-7.809 6.648,-17.336 19.971,-21.263Z" style="fill:none;stroke:#d1d3d4;stroke-width:4.17px;"/><path d="M910.417,2621.08l91.458,0c0,0 7.542,-21.291 -14.208,-25.75c-3.479,-0.642 -7.037,-0.726 -10.542,-0.25c-24.037,3.04 -46.954,11.972 -66.708,26Z" style="fill:none;fill-rule:nonzero;stroke:#d1d3d4;stroke-width:4.17px;"/><path d="M1006.11,2559.11c13.324,-3.927 26.009,-0.775 28.31,7.034c2.301,7.809 -6.647,17.336 -19.971,21.263c-13.323,3.926 -26.008,0.774 -28.31,-7.035c-2.301,-7.809 6.648,-17.336 19.971,-21.262Z" style="fill:none;stroke:#d1d3d4;stroke-width:4.17px;"/><path d="M584.155,2537.03c13.323,-3.926 26.008,-0.774 28.31,7.035c2.301,7.808 -6.648,17.336 -19.971,21.262c-13.324,3.926 -26.009,0.774 -28.31,-7.034c-2.301,-7.809 6.648,-17.337 19.971,-21.263Z" style="fill:none;stroke:#d1d3d4;stroke-width:4.17px;"/><path d="M581.333,2510.21l91.417,0c0,0 7.542,-21.291 -14.167,-25.75c-3.475,-0.666 -7.038,-0.751 -10.541,-0.25c-24.039,3.033 -46.958,11.966 -66.709,26Z" style="fill:none;fill-rule:nonzero;stroke:#d1d3d4;stroke-width:4.17px;"/><path d="M684.458,2514.38l91.417,0c0,0 7.583,-21.292 -14.167,-25.75c-3.478,-0.642 -7.036,-0.726 -10.541,-0.25c-24.037,3.04 -46.955,11.972 -66.709,26Z" style="fill:none;fill-rule:nonzero;stroke:#d1d3d4;stroke-width:4.17px;"/><path d="M774.13,2456.45c13.334,-3.889 26.011,-0.702 28.29,7.113c2.279,7.815 -6.696,17.318 -20.03,21.207c-13.334,3.889 -26.011,0.701 -28.29,-7.114c-2.279,-7.815 6.696,-17.317 20.03,-21.206Z" style="fill:none;stroke:#d1d3d4;stroke-width:4.17px;"/><path d="M787.5,2519.92l91.417,-0c-0,-0 7.541,-21.292 -14.167,-25.75c-3.476,-0.667 -7.038,-0.751 -10.542,-0.25c-24.037,3.039 -46.954,11.972 -66.708,26Z" style="fill:none;fill-rule:nonzero;stroke:#d1d3d4;stroke-width:4.17px;"/><path d="M882.949,2457.97c13.323,-3.927 26.008,-0.775 28.31,7.034c2.301,7.809 -6.648,17.336 -19.971,21.263c-13.324,3.926 -26.009,0.774 -28.31,-7.035c-2.301,-7.809 6.647,-17.336 19.971,-21.262Z" style="fill:none;stroke:#d1d3d4;stroke-width:4.17px;"/><path d="M896.458,2525.46l91.417,0c0,0 7.583,-21.291 -14.167,-25.75c-3.475,-0.666 -7.038,-0.751 -10.541,-0.25c-24.037,3.04 -46.955,11.972 -66.709,26Z" style="fill:none;fill-rule:nonzero;stroke:#d1d3d4;stroke-width:4.17px;"/><path d="M992.145,2463.5c13.323,-3.926 26.008,-0.774 28.309,7.034c2.302,7.809 -6.647,17.337 -19.97,21.263c-13.324,3.926 -26.009,0.774 -28.31,-7.035c-2.301,-7.808 6.647,-17.336 19.971,-21.262Z" style="fill:none;stroke:#d1d3d4;stroke-width:4.17px;"/><path d="M1000.25,2533.04l91.417,-0c-0,-0 7.541,-21.25 -14.167,-25.709c-3.49,-0.666 -7.066,-0.751 -10.583,-0.25c-24.016,3.048 -46.914,11.964 -66.667,25.959Z" style="fill:none;fill-rule:nonzero;stroke:#d1d3d4;stroke-width:4.17px;"/><path d="M1095.94,2471.14c13.323,-3.926 26.008,-0.774 28.31,7.035c2.301,7.808 -6.648,17.336 -19.971,21.262c-13.323,3.926 -26.009,0.774 -28.31,-7.034c-2.301,-7.809 6.648,-17.336 19.971,-21.263Z" style="fill:none;stroke:#d1d3d4;stroke-width:4.17px;"/><path d="M674.032,2449.01c13.324,-3.926 26.009,-0.774 28.31,7.035c2.301,7.808 -6.647,17.336 -19.971,21.262c-13.323,3.926 -26.008,0.774 -28.31,-7.034c-2.301,-7.809 6.648,-17.337 19.971,-21.263Z" style="fill:none;stroke:#d1d3d4;stroke-width:4.17px;"/><path d="M219.333,2846.71c0,0 237.5,-127.583 280.292,-188.041l457.167,-0c-0,-0 -72.667,100.416 -240.625,188.041l-496.834,0Z" style="fill:none;fill-rule:nonzero;stroke:#d1d3d4;stroke-width:4.17px;"/><path d="M508.875,2699.21c0,0 -67.208,69.125 -207.292,147.5" style="fill:none;fill-rule:nonzero;stroke:#d1d3d4;stroke-width:4.17px;"/><path d="M594.625,2846.71c0,0 19.625,-39.791 -31.333,-37.5c-0,0 -54.417,27.792 -54.417,-13.916c0,-0 8.333,-67.875 -38.708,-61.709" style="fill:none;fill-rule:nonzero;stroke:#d1d3d4;stroke-width:4.17px;"/><path d="M678.208,2745.79l40.584,-0l25,-22.959l-42.209,0l-23.375,22.959Z" style="fill:none;fill-rule:nonzero;stroke:#d1d3d4;stroke-width:4.17px;"/><path d="M741.042,2745.79l40.583,-0l25,-22.959l-42.208,0l-23.375,22.959Z" style="fill:none;fill-rule:nonzero;stroke:#d1d3d4;stroke-width:4.17px;"/><path d="M654.208,2768.04l133.084,-0" style="fill:none;fill-rule:nonzero;stroke:#d1d3d4;stroke-width:4.17px;"/><path d="M650.625,2783.83l133.042,0" style="fill:none;fill-rule:nonzero;stroke:#d1d3d4;stroke-width:4.17px;"/><path d="M644.458,2799.62l42.875,0" style="fill:none;fill-rule:nonzero;stroke:#d1d3d4;stroke-width:4.17px;"/><path d="M11.667,2488.08c-0,0 339.333,-63.083 384.166,66.5c0,0 8.875,131.584 -262.875,202c0,0 -74.208,27.042 -121.291,27.25l-0,-295.75Z" style="fill:none;fill-rule:nonzero;stroke:#d1d3d4;stroke-width:4.17px;"/><path d="M72.583,2580.92l-28.375,-97" style="fill:none;fill-rule:nonzero;stroke:#d1d3d4;stroke-width:4.17px;"/><path d="M214.375,2768.04l-150.958,-187.125c-0,-0 261.708,-14.667 360.5,21.5c-0,-0 -73.917,133.166 -209.542,165.625Z" style="fill:none;fill-rule:nonzero;stroke:#d1d3d4;stroke-width:4.17px;"/><path d="M78.5,2580.92l0,17.291" style="fill:none;fill-rule:nonzero;stroke:#d1d3d4;stroke-width:4.17px;"/><path d="M89.125,2580.58l0,35.417" style="fill:none;fill-rule:nonzero;stroke:#d1d3d4;stroke-width:4.17px;"/><path d="M109.5,2580.92l0,57.125" style="fill:none;fill-rule:nonzero;stroke:#d1d3d4;stroke-width:4.17px;"/><path d="M99.333,2578.92l0,46.5" style="fill:none;fill-rule:nonzero;stroke:#d1d3d4;stroke-width:4.17px;"/><path d="M557.5,766.417c0,-0 -155.333,213.958 8.583,391.666c20.304,22.296 47.068,37.711 76.542,44.084c37.5,7.833 94.083,9.291 164.667,-20.834c-0,0 -50.375,-174.416 -94.209,-254.458l-155.583,-160.458Z" style="fill:#2f2e41;fill-rule:nonzero;"/><path d="M713.083,926.833l138.042,-316.666c0,-0 -159.958,-35.792 -293.625,156.333l155.583,160.333Z" style="fill:#0998b7;fill-rule:nonzero;"/><path d="M807.292,1181.29c-0,-0 206,-105.25 203.833,-357.959c0,0 -6.583,-176 -160,-213.25l-138.042,316.667c0,0 61.375,124.542 94.209,254.542Z" style="fill:#e6e7e8;fill-rule:nonzero;"/><path d="M309.875,1143.29l61.333,-147.5l256.417,-0l-61.583,147.5l-256.167,-0Z" style="fill:#0998b7;fill-rule:nonzero;"/><path d="M388.875,1053.17l79.875,-0l9.375,-22.834l-78.75,0l-10.5,22.834Z" style="fill:#fff;fill-rule:nonzero;"/><path d="M557.5,1084.67l-181.708,-0" style="fill:none;fill-rule:nonzero;stroke:#fff;stroke-width:4.17px;"/><path d="M468.75,1105.75l-99.542,0" style="fill:none;fill-rule:nonzero;stroke:#fff;stroke-width:4.17px;"/><path d="M1459.92,594.375l-302.709,0c-6.763,-0.133 -12.255,-5.733 -12.255,-12.498c0,-1.615 0.313,-3.214 0.922,-4.71l106.75,-248c3.141,-7.26 10.298,-12.01 18.208,-12.084l323.042,0c2.967,0.006 5.406,2.449 5.406,5.417c0,0.776 -0.167,1.544 -0.489,2.25l-115.459,254.667c-4.165,9.15 -13.363,15.025 -23.416,14.958Z" style="fill:#0998b7;fill-rule:nonzero;"/><path d="M1360.83,366.292c0,-0 73.417,-25 94.709,22.791c-0,0 42.25,91.667 -97.167,140.584c0,-0 -95.833,2.458 -68,-86.125c-0,-0 21.583,-48.875 70.458,-77.25Z" style="fill:none;fill-rule:nonzero;stroke:#fff;stroke-width:4.17px;"/><path d="M1327.79,476.625l70.833,0c0,0 4.792,-25.917 -18.75,-31.875c-6.333,-1.546 -12.974,-1.286 -19.167,0.75c-9.375,3.083 -23.208,10.958 -32.916,31.125Z" style="fill:#fff;fill-rule:nonzero;"/><path d="M1364.87,415.768c3.796,-9.479 13.515,-14.517 21.692,-11.243c8.176,3.274 11.734,13.627 7.938,23.106c-3.795,9.479 -13.514,14.517 -21.691,11.243c-8.176,-3.273 -11.734,-13.627 -7.939,-23.106Z" style="fill:#fff;"/><circle cx="1487.38" cy="341.458" r="10.25" style="fill:#fff;"/><circle cx="1519.88" cy="341.458" r="10.25" style="fill:#fff;"/><circle cx="1550.5" cy="341.458" r="10.25" style="fill:#fff;"/><path d="M3443.17,1023.67c-15.75,181.083 -98.417,207.625 -98.417,207.625c-50.75,-66.292 -98.708,-74.459 -123.708,-73.084c-8.444,0.543 -16.712,2.663 -24.375,6.25c-20.01,8.625 -40.486,16.123 -61.334,22.459c-86.083,18.041 -140.916,-27.334 -170.833,-66.417c94.708,43.917 166,16.167 203.917,-8.333c26.143,-16.463 45.769,-41.511 55.5,-70.834c23.291,-72.166 -22.542,-141.916 -61.667,-185.208c-19.206,-20.86 -40.944,-39.239 -64.708,-54.708c-14.681,-9.979 -28.32,-21.412 -40.709,-34.125c-27.732,-27.976 -60.465,-50.505 -96.5,-66.417c-25,-11.083 -30.458,-29.875 -30.458,-29.875l42.083,-6.667c12.879,6.093 25.215,13.272 36.875,21.459c60.542,72.833 150,90.833 150,90.833c123,20.833 172.209,53.833 172.209,53.833c135.625,74.125 112.125,193.209 112.125,193.209Z" style="fill-opacity:0.3;fill-rule:nonzero;"/><path d="M2297.83,1799.42c0,-0 141.667,9.208 187.084,182.583" style="fill:none;fill-rule:nonzero;stroke:#d1d3d4;stroke-width:4.17px;"/><path d="M2341.08,1743.21c0,0 127.334,7.875 197.625,181" style="fill:none;fill-rule:nonzero;stroke:#d1d3d4;stroke-width:4.17px;"/><ellipse cx="2988.96" cy="596.083" rx="98.875" ry="94" style="fill:#2f2e41;"/><path d="M2920.83,1478.33c-36,-28.708 -60.666,-22.041 -72.333,-15.291c-13.263,7.926 -28.093,12.874 -43.458,14.5c-13.4,1.213 -26.889,1.032 -40.25,-0.542c-13.362,-1.574 18.666,17.375 63.791,11.833c0,0 22.709,-12.791 26.25,-15.708c12.464,-8.17 28.174,-9.728 42,-4.167l24,9.375Z" style="fill:#f7a48b;fill-rule:nonzero;"/><path d="M2772.71,1411.17c0,-0 43.75,20.833 79.167,20.833l-50.333,9.667c-0,-0 -22.875,-12.5 -28.834,-30.5Z" style="fill:#f7a48b;fill-rule:nonzero;"/><path d="M2803.5,1554.5l37.083,-30.083c13.156,-10.798 28.999,-17.827 45.834,-20.334c8.545,-1.715 17.408,-0.904 25.5,2.334c8.092,3.237 -50.292,-2.334 -92.542,54.916l-15.875,-6.833Z" style="fill:#f7a48b;fill-rule:nonzero;"/><path d="M2696.54,1432.83c-0,0 59.375,-107.125 92.208,-129.166c0,-0 -91.667,145.083 -101.042,160.583c-6.72,13.058 -7.848,28.303 -3.125,42.208c4.724,13.906 -31.708,-19.416 11.959,-73.625Z" style="fill-opacity:0.3;fill-rule:nonzero;"/><path d="M2448.25,1048.25l48.208,12.792l87.5,410.708c0,0 204.417,59.625 290.917,92.125c10.154,3.845 18.294,11.699 22.5,21.708c7.585,17.973 13.783,36.499 18.542,55.417l-164,-54.875c-0,0 -137.5,-45.833 -200.834,-45.292l-102.833,-492.583Z" style="fill:#2f2e41;fill-rule:nonzero;"/><path d="M2448.25,1048.25l48.208,12.792l87.5,410.708c0,0 204.417,59.625 290.917,92.125c10.154,3.845 18.294,11.699 22.5,21.708c7.585,17.973 13.783,36.499 18.542,55.417l-164,-54.875c-0,0 -137.5,-45.833 -200.834,-45.292l-102.833,-492.583Z" style="fill-opacity:0.3;fill-rule:nonzero;"/><path d="M2109.5,1641c0,0 132.167,76.5 134.75,228" style="fill:none;fill-rule:nonzero;stroke:#d1d3d4;stroke-width:4.17px;"/><path d="M2061.58,1679.42c0,-0 125,72.791 131.25,225" style="fill:none;fill-rule:nonzero;stroke:#d1d3d4;stroke-width:4.17px;"/><path d="M1843.75,1372.5l-290.625,0c-3.673,-0.011 -6.689,-3.036 -6.689,-6.708c0,-0.995 0.221,-1.977 0.647,-2.875l114.209,-237.917c4.052,-8.447 12.717,-13.76 22.083,-13.542l284.583,7c5.908,0.146 10.688,5.046 10.688,10.955c-0,1.725 -0.407,3.425 -1.188,4.962l-115.375,226.875c-3.504,6.888 -10.604,11.245 -18.333,11.25Z" style="fill:#0998b7;fill-rule:nonzero;"/><path d="M1765.29,1167.33l-63.959,0l6.875,-14.75l64.459,0l-7.375,14.75Z" style="fill:#fff;fill-rule:nonzero;"/><path d="M1645.75,1299.21l46.208,-102.333l37.917,0l-44.792,102.333l-39.333,0Z" style="fill:#fff;fill-opacity:0.4;fill-rule:nonzero;"/><path d="M1705.25,1299.21l31.5,-65.916l37.875,-0l-30,65.916l-39.375,0Z" style="fill:#fff;fill-opacity:0.5;fill-rule:nonzero;"/><path d="M1765.29,1303.12l60.041,-125.458l35.917,-0l-58.583,125.458l-37.375,0Z" style="fill:#fff;fill-opacity:0.7;fill-rule:nonzero;"/><rect x="1610.79" y="1299.21" width="214.542" height="7.875" style="fill:#fff;"/><path d="M450.583,1478.58l771.417,0c0.001,0 0.002,0 0.003,0c4.068,0 7.416,3.348 7.416,7.417c0,1.221 -0.301,2.423 -0.877,3.5l-232.334,436.792c-4.33,8.207 -12.887,13.354 -22.166,13.333l-762.959,0c-8.013,-0.015 -14.598,-6.612 -14.598,-14.625c-0,-2.462 0.621,-4.884 1.807,-7.042l236.333,-429.958c3.194,-5.812 9.327,-9.43 15.958,-9.417Z" style="fill:#0998b7;fill-rule:nonzero;"/><path d="M487.458,1545.83l-173.791,312.5l637.625,0" style="fill:none;fill-rule:nonzero;stroke:#fff;stroke-width:4.17px;"/><path d="M895.375,1858.33l-581.708,0l121.75,-218.958c-0,0 99,-42.125 137.958,-15.125c3.053,2.088 5.742,4.664 7.958,7.625c2.217,2.961 23.834,18.75 0,115.583c0,0 -9.791,49.459 26.625,26.209c0,-0 126.125,-115.542 134.5,-79.167c1.181,18.245 1.181,36.547 0,54.792c-1.18,18.244 0.542,24.125 31.875,20.833c8.102,-0.901 15.947,-3.393 23.084,-7.333l23.833,-12.917c0,-0 55.75,-37.5 69.542,5.25c10.184,33.467 11.76,68.97 4.583,103.208Z" style="fill:#fff;fill-rule:nonzero;"/><path d="M821.25,1750l-31.5,17.042c-46.583,13.791 -47.292,-17.709 -47.292,-17.709c1.181,-18.244 1.181,-36.547 0,-54.791c-8.333,-36.334 -134.5,79.166 -134.5,79.166c-36.416,23.25 -26.625,-26.208 -26.625,-26.208c23.834,-96.833 0,-115.583 0,-115.583c-2.216,-2.961 -4.905,-5.538 -7.958,-7.625c19.125,-15.625 66,-47.75 65.458,12.833c0,0 -4.166,58.75 23.834,48.917c2.695,-0.948 5.205,-2.358 7.416,-4.167c12.5,-10.333 72.75,-57 107.834,-40.667c-0,-0.208 52.291,9.209 43.333,108.792Z" style="fill:#fff;fill-opacity:0.7;fill-rule:nonzero;"/><path d="M966.25,1615.21l37.625,0l19.208,-35.875l-39,0l-17.833,35.875Z" style="fill:#fff;fill-opacity:0.7;fill-rule:nonzero;"/><path d="M928.833,1683.67l37.625,-0l19.25,-35.875l-39,-0l-17.875,35.875Z" style="fill:#fff;fill-opacity:0.7;fill-rule:nonzero;"/><path d="M1037.33,1589.38l66.875,0" style="fill:none;fill-rule:nonzero;stroke:#fff;stroke-opacity:0.7;stroke-width:4.17px;"/><path d="M1033.96,1609.33l50.167,0" style="fill:none;fill-rule:nonzero;stroke:#fff;stroke-opacity:0.7;stroke-width:4.17px;"/><path d="M1007.21,1655.75l66.917,0" style="fill:none;fill-rule:nonzero;stroke:#fff;stroke-opacity:0.7;stroke-width:4.17px;"/><path d="M1003.88,1675.71l50.167,0" style="fill:none;fill-rule:nonzero;stroke:#fff;stroke-opacity:0.7;stroke-width:4.17px;"/><path d="M1360.83,366.292c0,-0 11.584,8.333 -13.791,25.583c-10.696,7.159 -20.296,15.833 -28.5,25.75c-15.834,19.458 -32,50 -13.292,80.542c0,-0 8.833,16.208 33.833,19.5c2.435,0.271 4.886,0.354 7.334,0.25c0.528,-0.082 1.061,-0.123 1.596,-0.123c5.737,0 10.458,4.721 10.458,10.458c0,0.474 -0.032,0.946 -0.096,1.415c-0.064,0.468 0.375,11.291 -19.333,11.291c-7.299,-0.07 -14.51,-1.6 -21.209,-4.5c-19.083,-8 -57.333,-31.416 -43.083,-86.5c2.366,-10.448 6.329,-20.468 11.75,-29.708c8.361,-14.925 19.229,-28.301 32.125,-39.542c14.125,-12.541 33.625,-25.958 42.208,-14.416Z" style="fill:#2f2e41;fill-rule:nonzero;"/></svg>