<?xml version="1.0" encoding="UTF-8" standalone="no"?>
<!DOCTYPE svg PUBLIC "-//W3C//DTD SVG 1.1//EN" "http://www.w3.org/Graphics/SVG/1.1/DTD/svg11.dtd">
<svg width="100%" height="100%" viewBox="0 0 573 851" version="1.1" xmlns="http://www.w3.org/2000/svg" xmlns:xlink="http://www.w3.org/1999/xlink" xml:space="preserve" xmlns:serif="http://www.serif.com/" style="fill-rule:evenodd;clip-rule:evenodd;stroke-linejoin:round;stroke-miterlimit:2;">
    <g transform="matrix(1,0,0,1,-95.1299,-42.2438)">
        <g>
            <path d="M191.145,678.388L194.101,652.305L283.814,593.928L253.552,663.432L191.145,678.388Z" style="fill-rule:nonzero;"/>
            <path d="M195.301,653.044L192.617,676.726L252.638,662.341L280.953,597.311L195.301,653.044ZM190.12,679.146C189.931,678.89 189.841,678.571 189.877,678.247L192.833,652.165C192.875,651.786 193.088,651.446 193.407,651.238L283.12,592.862C283.59,592.555 284.207,592.594 284.637,592.955C285.067,593.319 285.205,593.92 284.982,594.436L254.72,663.94C254.56,664.307 254.237,664.578 253.846,664.673L191.442,679.626C191.036,679.722 190.61,679.617 190.3,679.342C190.232,679.284 190.172,679.216 190.12,679.146Z" style="fill-rule:nonzero;"/>
            <path d="M328.066,737.751L345.154,717.795L326.696,612.52L296.434,682.024L328.066,737.751Z" style="fill-rule:nonzero;"/>
            <path d="M297.857,681.947L328.28,735.543L343.796,717.425L326.172,616.913L297.857,681.947ZM327.041,738.509C327.011,738.468 326.982,738.425 326.956,738.381L295.324,682.654C295.126,682.306 295.105,681.884 295.265,681.517L325.527,612.012C325.751,611.499 326.287,611.191 326.847,611.256C327.404,611.322 327.853,611.746 327.952,612.298L346.41,717.574C346.475,717.947 346.372,718.334 346.122,718.624L329.034,738.579C328.762,738.895 328.356,739.058 327.943,739.019C327.581,738.984 327.255,738.798 327.041,738.509Z" style="fill-rule:nonzero;"/>
            <path d="M240.857,667.954L279.679,550.909C295.446,503.373 328.924,465.787 372.491,448.914L372.571,449.136C388.193,491.699 385.545,541.064 362.25,583.603L301.63,694.302L240.857,667.954Z" style="fill:rgb(9,152,183);fill-rule:nonzero;"/>
            <path d="M371.74,450.578C329.665,467.319 296.593,503.96 280.89,551.309L242.432,667.248L301.072,692.672L361.134,582.994C383.491,542.164 387.335,493.965 371.74,450.578ZM239.833,668.713C239.593,668.389 239.513,667.961 239.647,667.555L278.47,550.512C294.565,501.985 328.667,464.521 372.032,447.729C372.349,447.605 372.704,447.614 373.016,447.753C373.327,447.893 373.568,448.155 373.686,448.473L373.768,448.696C390.04,493.032 386.251,542.425 363.367,584.213L302.748,694.914C302.433,695.491 301.727,695.733 301.124,695.471L240.348,669.123C240.136,669.031 239.961,668.886 239.833,668.713Z" style="fill-rule:nonzero;"/>
            <path d="M312.187,542.538C316.131,533.48 326.669,529.319 335.722,533.245C344.778,537.172 348.923,547.697 344.981,556.754C341.036,565.812 330.497,569.971 321.444,566.045C312.388,562.118 308.243,551.593 312.187,542.538Z" style="fill:white;fill-rule:nonzero;"/>
            <path d="M341.921,539.735C340.248,537.475 337.977,535.613 335.214,534.413C326.818,530.773 317.012,534.644 313.354,543.043C309.698,551.441 313.554,561.235 321.951,564.877C330.348,568.517 340.154,564.646 343.812,556.247C346.264,550.611 345.335,544.347 341.921,539.735ZM313.199,561.076C309.261,555.757 308.189,548.53 311.018,542.031C315.235,532.343 326.548,527.877 336.232,532.077C345.917,536.275 350.366,547.574 346.147,557.259C341.931,566.947 330.618,571.413 320.934,567.213C317.747,565.832 315.129,563.682 313.199,561.076Z" style="fill-rule:nonzero;"/>
            <path d="M237.959,687.473L245.567,669.996L296.212,691.952L288.603,709.43L237.959,687.473Z" style="fill:white;fill-rule:nonzero;"/>
            <path d="M246.228,671.67L239.636,686.809L287.944,707.754L294.536,692.615L246.228,671.67ZM236.935,688.231C236.869,688.143 236.814,688.047 236.771,687.941C236.649,687.626 236.656,687.276 236.791,686.966L244.399,669.491C244.682,668.844 245.431,668.548 246.076,668.827L296.72,690.784C297.368,691.064 297.661,691.814 297.381,692.459L289.77,709.936C289.489,710.58 288.74,710.877 288.095,710.598L237.45,688.642C237.243,688.552 237.066,688.409 236.935,688.231Z" style="fill-rule:nonzero;"/>
            <path d="M313.033,491.165C312.944,491.046 312.92,490.888 312.982,490.743C313.077,490.529 313.329,490.429 313.542,490.523L382.454,520.397C382.67,520.49 382.766,520.741 382.673,520.956C382.58,521.172 382.33,521.271 382.115,521.178L313.204,491.301C313.133,491.27 313.076,491.223 313.033,491.165Z" style="fill-rule:nonzero;"/>
            <path d="M198.831,751.209C198.422,750.656 198.527,749.873 199.072,749.447C210.278,740.684 220.283,730.465 228.806,719.079C229.227,718.516 230.026,718.399 230.589,718.822C231.153,719.244 231.267,720.04 230.844,720.605C222.188,732.17 212.025,742.551 200.642,751.451C200.086,751.885 199.286,751.788 198.853,751.234C198.845,751.227 198.837,751.217 198.831,751.209Z" style="fill-rule:nonzero;"/>
            <path d="M234.106,711.909C233.826,711.529 233.768,711.007 234.002,710.559L238.496,701.997C238.823,701.372 239.594,701.13 240.217,701.457C240.84,701.781 241.079,702.552 240.752,703.177L236.26,711.738C235.933,712.363 235.162,712.605 234.539,712.277C234.362,712.185 234.218,712.059 234.106,711.909Z" style="fill-rule:nonzero;"/>
            <path d="M171.06,772.581C170.838,772.282 170.749,771.889 170.851,771.5C171.783,767.957 174.32,764.594 177.996,762.032C181.199,759.798 184.822,758.376 188.323,757.003C188.977,756.746 189.718,757.069 189.972,757.723C190.23,758.378 189.904,759.117 189.251,759.374C185.888,760.693 182.409,762.058 179.451,764.121C176.275,766.336 174.094,769.186 173.317,772.145C173.136,772.824 172.44,773.232 171.76,773.055C171.468,772.977 171.226,772.806 171.06,772.581Z" style="fill-rule:nonzero;"/>
            <path d="M253.025,759.273C252.797,758.966 252.708,758.56 252.824,758.165C256.906,743.946 262.131,729.933 268.358,716.516C268.655,715.876 269.414,715.597 270.051,715.892C270.692,716.187 270.965,716.945 270.671,717.584C264.5,730.882 259.321,744.772 255.273,758.863C255.077,759.541 254.372,759.932 253.696,759.74C253.416,759.66 253.185,759.49 253.025,759.273Z" style="fill-rule:nonzero;"/>
            <path d="M254.171,784.221C254.046,784.052 253.961,783.85 253.932,783.625L252.464,772.034C252.374,771.338 252.869,770.697 253.567,770.608C254.265,770.519 254.903,771.014 254.991,771.711L256.461,783.301C256.549,783.999 256.055,784.636 255.355,784.727C254.881,784.787 254.437,784.579 254.171,784.221Z" style="fill-rule:nonzero;"/>
            <path d="M111.246,862.797C110.081,861.224 109.062,859.537 108.213,857.746C101.553,843.724 106.418,825.631 118.76,816.414C108.498,814.526 99.371,806.681 96.299,796.68C92.876,785.537 97.174,772.365 106.519,765.362C118.46,756.416 134.86,758.1 150.805,761.255C151.493,761.39 151.939,762.062 151.803,762.75C151.666,763.442 150.993,763.889 150.305,763.754C134.942,760.715 119.188,759.053 108.045,767.402C99.533,773.781 95.618,785.776 98.735,795.929C101.853,806.082 111.825,813.799 122.442,814.278C123.007,814.304 123.489,814.7 123.62,815.248C123.754,815.8 123.508,816.371 123.018,816.654C109.846,824.249 104.004,842.941 110.514,856.652C117.027,870.359 135.195,877.631 149.396,872.208C150.002,871.976 150.689,872.24 150.982,872.808C155.817,882.142 165.299,888.777 175.73,890.134C186.159,891.493 197.046,887.505 204.142,879.733C204.615,879.214 205.421,879.175 205.941,879.649C206.459,880.115 206.497,880.926 206.022,881.447C198.375,889.828 186.64,894.124 175.395,892.661C164.523,891.244 154.602,884.5 149.248,874.967C135.676,879.577 119.683,874.188 111.246,862.797Z" style="fill-rule:nonzero;"/>
            <path d="M267.073,865.568C266.782,865.174 266.733,864.629 266.992,864.175C267.343,863.565 268.12,863.353 268.731,863.699C276.531,868.15 287.417,866.458 293.514,859.846C299.612,853.238 300.419,842.257 295.349,834.849C294.211,833.186 292.494,830.672 293.917,828.341C294.723,827.024 296.19,826.535 297.261,826.176C305.136,823.537 310.217,819.953 312.798,815.221C316.238,808.914 314.902,800.161 309.529,793.936C303.728,787.203 295.109,784.587 288.903,783.577C288.21,783.462 287.739,782.808 287.852,782.115C287.967,781.42 288.622,780.948 289.317,781.062C295.941,782.139 305.159,784.959 311.462,792.272C317.501,799.275 318.972,809.217 315.037,816.439C312.132,821.762 306.583,825.737 298.067,828.591C297.291,828.851 296.411,829.144 296.092,829.668C295.571,830.519 296.438,831.923 297.455,833.408C303.164,841.754 302.258,854.126 295.387,861.572C288.517,869.02 276.252,870.926 267.464,865.914C267.307,865.822 267.174,865.704 267.073,865.568Z" style="fill-rule:nonzero;"/>
            <path d="M220.662,768.313C220.382,767.933 220.324,767.415 220.556,766.968C229.674,749.416 239.407,731.872 249.479,714.826C249.836,714.22 250.619,714.017 251.224,714.376C251.83,714.732 252.03,715.513 251.673,716.119C241.623,733.126 231.916,750.629 222.816,768.138C222.493,768.764 221.724,769.008 221.098,768.686C220.92,768.591 220.774,768.463 220.662,768.313Z" style="fill-rule:nonzero;"/>
            <path d="M206.824,796.346C206.551,795.977 206.489,795.475 206.702,795.033L214.524,778.865C214.832,778.231 215.594,777.964 216.227,778.271C216.862,778.576 217.124,779.336 216.818,779.972L208.994,796.138C208.69,796.772 207.925,797.038 207.293,796.734C207.1,796.641 206.942,796.505 206.824,796.346Z" style="fill-rule:nonzero;"/>
        </g>
        <g>
            <path d="M523.582,200.213C524.027,231.77 519.809,260.006 510.926,284.921C502.043,309.836 484.889,321.857 459.462,320.985C434.035,320.113 411.066,316.278 390.555,309.479C370.043,302.68 346.068,287.97 318.629,265.35C291.19,242.729 291.118,220.892 318.414,199.838C345.71,178.784 371.123,159.834 394.652,142.986C418.182,126.139 445.441,123.576 476.43,135.297C507.419,147.018 523.136,168.656 523.582,200.213Z" style="fill:rgb(50,196,135);fill-rule:nonzero;"/>
        </g>
        <g>
            <path d="M632.504,114.374C632.95,145.931 628.731,174.167 619.849,199.081C610.966,223.996 593.811,236.017 568.384,235.145C542.958,234.273 519.988,230.438 499.477,223.639C478.966,216.84 454.991,202.131 427.552,179.51C400.113,156.89 400.041,135.052 427.337,113.998C454.633,92.945 480.045,73.994 503.575,57.147C527.104,40.299 554.364,37.736 585.353,49.457C616.341,61.178 632.059,82.817 632.504,114.374Z" style="fill:rgb(132,94,194);fill-rule:nonzero;"/>
        </g>
        <g>
            <path d="M667.129,221.854C667.574,253.411 663.356,281.647 654.473,306.561C645.591,331.476 628.436,343.497 603.009,342.625C577.582,341.753 554.613,337.918 534.102,331.119C513.59,324.32 489.615,309.611 462.176,286.99C434.737,264.369 434.666,242.532 461.961,221.478C489.257,200.425 514.67,181.474 538.199,164.627C561.729,147.779 588.988,145.216 619.977,156.937C650.966,168.658 666.683,190.297 667.129,221.854Z" style="fill:rgb(9,152,183);fill-rule:nonzero;"/>
        </g>
        <path d="M375.072,228.768L375.072,230.96L372.096,230.96L372.096,240L369.36,240L369.36,230.96L366.384,230.96L366.384,228.768L375.072,228.768ZM384.861,235.392C384.861,235.648 384.845,235.915 384.813,236.192L378.621,236.192C378.664,236.747 378.84,237.173 379.149,237.472C379.469,237.76 379.858,237.904 380.317,237.904C381,237.904 381.474,237.616 381.741,237.04L384.653,237.04C384.504,237.627 384.232,238.155 383.837,238.624C383.453,239.093 382.968,239.461 382.381,239.728C381.794,239.995 381.138,240.128 380.413,240.128C379.538,240.128 378.76,239.941 378.077,239.568C377.394,239.195 376.861,238.661 376.477,237.968C376.093,237.275 375.901,236.464 375.901,235.536C375.901,234.608 376.088,233.797 376.461,233.104C376.845,232.411 377.378,231.877 378.061,231.504C378.744,231.131 379.528,230.944 380.413,230.944C381.277,230.944 382.045,231.125 382.717,231.488C383.389,231.851 383.912,232.368 384.285,233.04C384.669,233.712 384.861,234.496 384.861,235.392ZM382.061,234.672C382.061,234.203 381.901,233.829 381.581,233.552C381.261,233.275 380.861,233.136 380.381,233.136C379.922,233.136 379.533,233.269 379.213,233.536C378.904,233.803 378.712,234.181 378.637,234.672L382.061,234.672ZM385.761,235.52C385.761,234.603 385.931,233.797 386.273,233.104C386.625,232.411 387.099,231.877 387.697,231.504C388.294,231.131 388.961,230.944 389.697,230.944C390.326,230.944 390.875,231.072 391.345,231.328C391.825,231.584 392.193,231.92 392.449,232.336L392.449,231.072L395.185,231.072L395.185,240L392.449,240L392.449,238.736C392.182,239.152 391.809,239.488 391.329,239.744C390.859,240 390.31,240.128 389.681,240.128C388.955,240.128 388.294,239.941 387.697,239.568C387.099,239.184 386.625,238.645 386.273,237.952C385.931,237.248 385.761,236.437 385.761,235.52ZM392.449,235.536C392.449,234.853 392.257,234.315 391.873,233.92C391.499,233.525 391.041,233.328 390.497,233.328C389.953,233.328 389.489,233.525 389.105,233.92C388.731,234.304 388.545,234.837 388.545,235.52C388.545,236.203 388.731,236.747 389.105,237.152C389.489,237.547 389.953,237.744 390.497,237.744C391.041,237.744 391.499,237.547 391.873,237.152C392.257,236.757 392.449,236.219 392.449,235.536ZM408.556,230.976C409.665,230.976 410.545,231.312 411.196,231.984C411.857,232.656 412.188,233.589 412.188,234.784L412.188,240L409.468,240L409.468,235.152C409.468,234.576 409.313,234.133 409.004,233.824C408.705,233.504 408.289,233.344 407.756,233.344C407.223,233.344 406.801,233.504 406.492,233.824C406.193,234.133 406.044,234.576 406.044,235.152L406.044,240L403.324,240L403.324,235.152C403.324,234.576 403.169,234.133 402.86,233.824C402.561,233.504 402.145,233.344 401.612,233.344C401.079,233.344 400.657,233.504 400.348,233.824C400.049,234.133 399.9,234.576 399.9,235.152L399.9,240L397.164,240L397.164,231.072L399.9,231.072L399.9,232.192C400.177,231.819 400.54,231.525 400.988,231.312C401.436,231.088 401.943,230.976 402.508,230.976C403.18,230.976 403.777,231.12 404.3,231.408C404.833,231.696 405.249,232.107 405.548,232.64C405.857,232.149 406.279,231.749 406.812,231.44C407.345,231.131 407.927,230.976 408.556,230.976ZM417.733,240.128C416.955,240.128 416.261,239.995 415.653,239.728C415.045,239.461 414.565,239.099 414.213,238.64C413.861,238.171 413.664,237.648 413.621,237.072L416.325,237.072C416.357,237.381 416.501,237.632 416.757,237.824C417.013,238.016 417.328,238.112 417.701,238.112C418.043,238.112 418.304,238.048 418.485,237.92C418.677,237.781 418.773,237.605 418.773,237.392C418.773,237.136 418.64,236.949 418.373,236.832C418.107,236.704 417.675,236.565 417.077,236.416C416.437,236.267 415.904,236.112 415.477,235.952C415.051,235.781 414.683,235.52 414.373,235.168C414.064,234.805 413.909,234.32 413.909,233.712C413.909,233.2 414.048,232.736 414.325,232.32C414.613,231.893 415.029,231.557 415.573,231.312C416.128,231.067 416.784,230.944 417.541,230.944C418.661,230.944 419.541,231.221 420.181,231.776C420.832,232.331 421.205,233.067 421.301,233.984L418.773,233.984C418.731,233.675 418.592,233.429 418.357,233.248C418.133,233.067 417.835,232.976 417.461,232.976C417.141,232.976 416.896,233.04 416.725,233.168C416.555,233.285 416.469,233.451 416.469,233.664C416.469,233.92 416.603,234.112 416.869,234.24C417.147,234.368 417.573,234.496 418.149,234.624C418.811,234.795 419.349,234.965 419.765,235.136C420.181,235.296 420.544,235.563 420.853,235.936C421.173,236.299 421.339,236.789 421.349,237.408C421.349,237.931 421.2,238.4 420.901,238.816C420.613,239.221 420.192,239.541 419.637,239.776C419.093,240.011 418.459,240.128 417.733,240.128Z" style="fill:rgb(30,30,30);fill-rule:nonzero;"/>
        <path d="M547.552,249.384C547.552,250.035 547.403,250.632 547.104,251.176C546.805,251.709 546.347,252.141 545.728,252.472C545.109,252.803 544.341,252.968 543.424,252.968L541.728,252.968L541.728,257L538.992,257L538.992,245.768L543.424,245.768C544.32,245.768 545.077,245.923 545.696,246.232C546.315,246.541 546.779,246.968 547.088,247.512C547.397,248.056 547.552,248.68 547.552,249.384ZM543.216,250.792C543.739,250.792 544.128,250.669 544.384,250.424C544.64,250.179 544.768,249.832 544.768,249.384C544.768,248.936 544.64,248.589 544.384,248.344C544.128,248.099 543.739,247.976 543.216,247.976L541.728,247.976L541.728,250.792L543.216,250.792ZM551.712,249.56C552.032,249.069 552.432,248.685 552.912,248.408C553.392,248.12 553.926,247.976 554.512,247.976L554.512,250.872L553.76,250.872C553.078,250.872 552.566,251.021 552.224,251.32C551.883,251.608 551.712,252.12 551.712,252.856L551.712,257L548.976,257L548.976,248.072L551.712,248.072L551.712,249.56ZM559.884,257.128C559.009,257.128 558.22,256.941 557.516,256.568C556.823,256.195 556.273,255.661 555.868,254.968C555.473,254.275 555.276,253.464 555.276,252.536C555.276,251.619 555.479,250.813 555.884,250.12C556.289,249.416 556.844,248.877 557.548,248.504C558.252,248.131 559.041,247.944 559.916,247.944C560.791,247.944 561.58,248.131 562.284,248.504C562.988,248.877 563.543,249.416 563.948,250.12C564.353,250.813 564.556,251.619 564.556,252.536C564.556,253.453 564.348,254.264 563.932,254.968C563.527,255.661 562.967,256.195 562.252,256.568C561.548,256.941 560.759,257.128 559.884,257.128ZM559.884,254.76C560.407,254.76 560.849,254.568 561.212,254.184C561.585,253.8 561.772,253.251 561.772,252.536C561.772,251.821 561.591,251.272 561.228,250.888C560.876,250.504 560.439,250.312 559.916,250.312C559.383,250.312 558.94,250.504 558.588,250.888C558.236,251.261 558.06,251.811 558.06,252.536C558.06,253.251 558.231,253.8 558.572,254.184C558.924,254.568 559.361,254.76 559.884,254.76ZM567.368,247.144C566.888,247.144 566.493,247.005 566.184,246.728C565.885,246.44 565.736,246.088 565.736,245.672C565.736,245.245 565.885,244.893 566.184,244.616C566.493,244.328 566.888,244.184 567.368,244.184C567.837,244.184 568.221,244.328 568.52,244.616C568.829,244.893 568.984,245.245 568.984,245.672C568.984,246.088 568.829,246.44 568.52,246.728C568.221,247.005 567.837,247.144 567.368,247.144ZM568.744,258.152C568.744,259.251 568.466,260.04 567.912,260.52C567.357,261.011 566.584,261.256 565.592,261.256L564.52,261.256L564.52,258.936L565.176,258.936C565.474,258.936 565.688,258.877 565.816,258.76C565.944,258.643 566.008,258.451 566.008,258.184L566.008,248.072L568.744,248.072L568.744,258.152ZM579.127,252.392C579.127,252.648 579.111,252.915 579.079,253.192L572.887,253.192C572.929,253.747 573.105,254.173 573.415,254.472C573.735,254.76 574.124,254.904 574.583,254.904C575.265,254.904 575.74,254.616 576.007,254.04L578.919,254.04C578.769,254.627 578.497,255.155 578.103,255.624C577.719,256.093 577.233,256.461 576.647,256.728C576.06,256.995 575.404,257.128 574.679,257.128C573.804,257.128 573.025,256.941 572.343,256.568C571.66,256.195 571.127,255.661 570.743,254.968C570.359,254.275 570.167,253.464 570.167,252.536C570.167,251.608 570.353,250.797 570.727,250.104C571.111,249.411 571.644,248.877 572.327,248.504C573.009,248.131 573.793,247.944 574.679,247.944C575.543,247.944 576.311,248.125 576.983,248.488C577.655,248.851 578.177,249.368 578.551,250.04C578.935,250.712 579.127,251.496 579.127,252.392ZM576.327,251.672C576.327,251.203 576.167,250.829 575.847,250.552C575.527,250.275 575.127,250.136 574.647,250.136C574.188,250.136 573.799,250.269 573.479,250.536C573.169,250.803 572.977,251.181 572.903,251.672L576.327,251.672ZM580.026,252.536C580.026,251.608 580.213,250.797 580.586,250.104C580.97,249.411 581.498,248.877 582.17,248.504C582.853,248.131 583.631,247.944 584.506,247.944C585.626,247.944 586.559,248.237 587.306,248.824C588.063,249.411 588.559,250.237 588.794,251.304L585.882,251.304C585.637,250.621 585.162,250.28 584.458,250.28C583.957,250.28 583.557,250.477 583.258,250.872C582.959,251.256 582.81,251.811 582.81,252.536C582.81,253.261 582.959,253.821 583.258,254.216C583.557,254.6 583.957,254.792 584.458,254.792C585.162,254.792 585.637,254.451 585.882,253.768L588.794,253.768C588.559,254.813 588.063,255.635 587.306,256.232C586.549,256.829 585.615,257.128 584.506,257.128C583.631,257.128 582.853,256.941 582.17,256.568C581.498,256.195 580.97,255.661 580.586,254.968C580.213,254.275 580.026,253.464 580.026,252.536ZM595.234,254.68L595.234,257L593.842,257C592.85,257 592.076,256.76 591.522,256.28C590.967,255.789 590.69,254.995 590.69,253.896L590.69,250.344L589.602,250.344L589.602,248.072L590.69,248.072L590.69,245.896L593.426,245.896L593.426,248.072L595.218,248.072L595.218,250.344L593.426,250.344L593.426,253.928C593.426,254.195 593.49,254.387 593.618,254.504C593.746,254.621 593.959,254.68 594.258,254.68L595.234,254.68ZM600.39,257.128C599.611,257.128 598.918,256.995 598.31,256.728C597.702,256.461 597.222,256.099 596.87,255.64C596.518,255.171 596.32,254.648 596.278,254.072L598.982,254.072C599.014,254.381 599.158,254.632 599.414,254.824C599.67,255.016 599.984,255.112 600.358,255.112C600.699,255.112 600.96,255.048 601.142,254.92C601.334,254.781 601.43,254.605 601.43,254.392C601.43,254.136 601.296,253.949 601.03,253.832C600.763,253.704 600.331,253.565 599.734,253.416C599.094,253.267 598.56,253.112 598.134,252.952C597.707,252.781 597.339,252.52 597.03,252.168C596.72,251.805 596.566,251.32 596.566,250.712C596.566,250.2 596.704,249.736 596.982,249.32C597.27,248.893 597.686,248.557 598.23,248.312C598.784,248.067 599.44,247.944 600.198,247.944C601.318,247.944 602.198,248.221 602.838,248.776C603.488,249.331 603.862,250.067 603.958,250.984L601.43,250.984C601.387,250.675 601.248,250.429 601.014,250.248C600.79,250.067 600.491,249.976 600.118,249.976C599.798,249.976 599.552,250.04 599.382,250.168C599.211,250.285 599.126,250.451 599.126,250.664C599.126,250.92 599.259,251.112 599.526,251.24C599.803,251.368 600.23,251.496 600.806,251.624C601.467,251.795 602.006,251.965 602.422,252.136C602.838,252.296 603.2,252.563 603.51,252.936C603.83,253.299 603.995,253.789 604.006,254.408C604.006,254.931 603.856,255.4 603.558,255.816C603.27,256.221 602.848,256.541 602.294,256.776C601.75,257.011 601.115,257.128 600.39,257.128Z" style="fill:rgb(30,30,30);fill-rule:nonzero;"/>
        <path d="M482.72,131L480.384,126.76L479.728,126.76L479.728,131L476.992,131L476.992,119.768L481.584,119.768C482.469,119.768 483.221,119.923 483.84,120.232C484.469,120.541 484.939,120.968 485.248,121.512C485.557,122.045 485.712,122.643 485.712,123.304C485.712,124.051 485.499,124.717 485.072,125.304C484.656,125.891 484.037,126.307 483.216,126.552L485.808,131L482.72,131ZM479.728,124.824L481.424,124.824C481.925,124.824 482.299,124.701 482.544,124.456C482.8,124.211 482.928,123.864 482.928,123.416C482.928,122.989 482.8,122.653 482.544,122.408C482.299,122.163 481.925,122.04 481.424,122.04L479.728,122.04L479.728,124.824ZM495.845,126.392C495.845,126.648 495.83,126.915 495.798,127.192L489.606,127.192C489.648,127.747 489.824,128.173 490.134,128.472C490.454,128.76 490.843,128.904 491.302,128.904C491.984,128.904 492.459,128.616 492.726,128.04L495.638,128.04C495.488,128.627 495.216,129.155 494.822,129.624C494.438,130.093 493.952,130.461 493.366,130.728C492.779,130.995 492.123,131.128 491.398,131.128C490.523,131.128 489.744,130.941 489.062,130.568C488.379,130.195 487.846,129.661 487.462,128.968C487.078,128.275 486.886,127.464 486.886,126.536C486.886,125.608 487.072,124.797 487.446,124.104C487.83,123.411 488.363,122.877 489.046,122.504C489.728,122.131 490.512,121.944 491.398,121.944C492.262,121.944 493.03,122.125 493.702,122.488C494.374,122.851 494.896,123.368 495.27,124.04C495.654,124.712 495.845,125.496 495.845,126.392ZM493.046,125.672C493.046,125.203 492.886,124.829 492.566,124.552C492.246,124.275 491.846,124.136 491.366,124.136C490.907,124.136 490.518,124.269 490.198,124.536C489.888,124.803 489.696,125.181 489.622,125.672L493.046,125.672ZM496.745,126.552C496.745,125.667 496.926,124.877 497.289,124.184C497.662,123.491 498.158,122.952 498.777,122.568C499.406,122.173 500.089,121.976 500.825,121.976C501.39,121.976 501.897,122.077 502.345,122.28C502.793,122.472 503.156,122.744 503.433,123.096L503.433,122.072L506.169,122.072L506.169,135.256L503.433,135.256L503.433,129.88C503.124,130.253 502.745,130.552 502.297,130.776C501.86,131 501.358,131.112 500.793,131.112C500.068,131.112 499.396,130.92 498.777,130.536C498.158,130.152 497.662,129.613 497.289,128.92C496.926,128.227 496.745,127.437 496.745,126.552ZM503.433,126.536C503.433,126.056 503.337,125.656 503.145,125.336C502.964,125.005 502.724,124.76 502.425,124.6C502.126,124.429 501.812,124.344 501.481,124.344C501.161,124.344 500.852,124.429 500.553,124.6C500.254,124.76 500.009,125.005 499.817,125.336C499.625,125.667 499.529,126.072 499.529,126.552C499.529,127.032 499.625,127.437 499.817,127.768C500.009,128.088 500.254,128.333 500.553,128.504C500.852,128.664 501.161,128.744 501.481,128.744C501.801,128.744 502.11,128.664 502.409,128.504C502.718,128.333 502.964,128.083 503.145,127.752C503.337,127.421 503.433,127.016 503.433,126.536ZM516.964,122.072L516.964,131L514.228,131L514.228,129.784C513.951,130.179 513.572,130.499 513.092,130.744C512.623,130.979 512.1,131.096 511.524,131.096C510.842,131.096 510.239,130.947 509.716,130.648C509.194,130.339 508.788,129.896 508.5,129.32C508.212,128.744 508.068,128.067 508.068,127.288L508.068,122.072L510.788,122.072L510.788,126.92C510.788,127.517 510.943,127.981 511.252,128.312C511.562,128.643 511.978,128.808 512.5,128.808C513.034,128.808 513.455,128.643 513.764,128.312C514.074,127.981 514.228,127.517 514.228,126.92L514.228,122.072L516.964,122.072ZM520.306,121.144C519.826,121.144 519.431,121.005 519.122,120.728C518.823,120.44 518.674,120.088 518.674,119.672C518.674,119.245 518.823,118.893 519.122,118.616C519.431,118.328 519.826,118.184 520.306,118.184C520.775,118.184 521.159,118.328 521.458,118.616C521.767,118.893 521.922,119.245 521.922,119.672C521.922,120.088 521.767,120.44 521.458,120.728C521.159,121.005 520.775,121.144 520.306,121.144ZM521.666,122.072L521.666,131L518.93,131L518.93,122.072L521.666,122.072ZM526.384,123.56C526.704,123.069 527.104,122.685 527.584,122.408C528.064,122.12 528.598,121.976 529.184,121.976L529.184,124.872L528.432,124.872C527.75,124.872 527.238,125.021 526.896,125.32C526.555,125.608 526.384,126.12 526.384,126.856L526.384,131L523.648,131L523.648,122.072L526.384,122.072L526.384,123.56ZM538.908,126.392C538.908,126.648 538.892,126.915 538.86,127.192L532.668,127.192C532.711,127.747 532.887,128.173 533.196,128.472C533.516,128.76 533.905,128.904 534.364,128.904C535.047,128.904 535.521,128.616 535.788,128.04L538.7,128.04C538.551,128.627 538.279,129.155 537.884,129.624C537.5,130.093 537.015,130.461 536.428,130.728C535.841,130.995 535.185,131.128 534.46,131.128C533.585,131.128 532.807,130.941 532.124,130.568C531.441,130.195 530.908,129.661 530.524,128.968C530.14,128.275 529.948,127.464 529.948,126.536C529.948,125.608 530.135,124.797 530.508,124.104C530.892,123.411 531.425,122.877 532.108,122.504C532.791,122.131 533.575,121.944 534.46,121.944C535.324,121.944 536.092,122.125 536.764,122.488C537.436,122.851 537.959,123.368 538.332,124.04C538.716,124.712 538.908,125.496 538.908,126.392ZM536.108,125.672C536.108,125.203 535.948,124.829 535.628,124.552C535.308,124.275 534.908,124.136 534.428,124.136C533.969,124.136 533.58,124.269 533.26,124.536C532.951,124.803 532.759,125.181 532.684,125.672L536.108,125.672ZM551.743,121.976C552.853,121.976 553.733,122.312 554.383,122.984C555.045,123.656 555.375,124.589 555.375,125.784L555.375,131L552.655,131L552.655,126.152C552.655,125.576 552.501,125.133 552.191,124.824C551.893,124.504 551.477,124.344 550.943,124.344C550.41,124.344 549.989,124.504 549.679,124.824C549.381,125.133 549.231,125.576 549.231,126.152L549.231,131L546.511,131L546.511,126.152C546.511,125.576 546.357,125.133 546.047,124.824C545.749,124.504 545.333,124.344 544.799,124.344C544.266,124.344 543.845,124.504 543.535,124.824C543.237,125.133 543.087,125.576 543.087,126.152L543.087,131L540.351,131L540.351,122.072L543.087,122.072L543.087,123.192C543.365,122.819 543.727,122.525 544.175,122.312C544.623,122.088 545.13,121.976 545.695,121.976C546.367,121.976 546.965,122.12 547.487,122.408C548.021,122.696 548.437,123.107 548.735,123.64C549.045,123.149 549.466,122.749 549.999,122.44C550.533,122.131 551.114,121.976 551.743,121.976ZM565.705,126.392C565.705,126.648 565.689,126.915 565.657,127.192L559.465,127.192C559.508,127.747 559.684,128.173 559.993,128.472C560.313,128.76 560.702,128.904 561.161,128.904C561.844,128.904 562.318,128.616 562.585,128.04L565.497,128.04C565.348,128.627 565.076,129.155 564.681,129.624C564.297,130.093 563.812,130.461 563.225,130.728C562.638,130.995 561.982,131.128 561.257,131.128C560.382,131.128 559.604,130.941 558.921,130.568C558.238,130.195 557.705,129.661 557.321,128.968C556.937,128.275 556.745,127.464 556.745,126.536C556.745,125.608 556.932,124.797 557.305,124.104C557.689,123.411 558.222,122.877 558.905,122.504C559.588,122.131 560.372,121.944 561.257,121.944C562.121,121.944 562.889,122.125 563.561,122.488C564.233,122.851 564.756,123.368 565.129,124.04C565.513,124.712 565.705,125.496 565.705,126.392ZM562.905,125.672C562.905,125.203 562.745,124.829 562.425,124.552C562.105,124.275 561.705,124.136 561.225,124.136C560.766,124.136 560.377,124.269 560.057,124.536C559.748,124.803 559.556,125.181 559.481,125.672L562.905,125.672ZM572.588,121.976C573.634,121.976 574.466,122.317 575.084,123C575.714,123.672 576.028,124.6 576.028,125.784L576.028,131L573.308,131L573.308,126.152C573.308,125.555 573.154,125.091 572.844,124.76C572.535,124.429 572.119,124.264 571.596,124.264C571.074,124.264 570.658,124.429 570.348,124.76C570.039,125.091 569.884,125.555 569.884,126.152L569.884,131L567.148,131L567.148,122.072L569.884,122.072L569.884,123.256C570.162,122.861 570.535,122.552 571.004,122.328C571.474,122.093 572.002,121.976 572.588,121.976ZM582.906,128.68L582.906,131L581.514,131C580.522,131 579.748,130.76 579.194,130.28C578.639,129.789 578.362,128.995 578.362,127.896L578.362,124.344L577.274,124.344L577.274,122.072L578.362,122.072L578.362,119.896L581.098,119.896L581.098,122.072L582.89,122.072L582.89,124.344L581.098,124.344L581.098,127.928C581.098,128.195 581.162,128.387 581.29,128.504C581.418,128.621 581.631,128.68 581.93,128.68L582.906,128.68ZM588.062,131.128C587.283,131.128 586.59,130.995 585.982,130.728C585.374,130.461 584.894,130.099 584.542,129.64C584.19,129.171 583.992,128.648 583.95,128.072L586.654,128.072C586.686,128.381 586.83,128.632 587.086,128.824C587.342,129.016 587.656,129.112 588.03,129.112C588.371,129.112 588.632,129.048 588.814,128.92C589.006,128.781 589.102,128.605 589.102,128.392C589.102,128.136 588.968,127.949 588.702,127.832C588.435,127.704 588.003,127.565 587.406,127.416C586.766,127.267 586.232,127.112 585.806,126.952C585.379,126.781 585.011,126.52 584.702,126.168C584.392,125.805 584.238,125.32 584.238,124.712C584.238,124.2 584.376,123.736 584.654,123.32C584.942,122.893 585.358,122.557 585.902,122.312C586.456,122.067 587.112,121.944 587.87,121.944C588.99,121.944 589.87,122.221 590.51,122.776C591.16,123.331 591.534,124.067 591.63,124.984L589.102,124.984C589.059,124.675 588.92,124.429 588.686,124.248C588.462,124.067 588.163,123.976 587.79,123.976C587.47,123.976 587.224,124.04 587.054,124.168C586.883,124.285 586.798,124.451 586.798,124.664C586.798,124.92 586.931,125.112 587.198,125.24C587.475,125.368 587.902,125.496 588.478,125.624C589.139,125.795 589.678,125.965 590.094,126.136C590.51,126.296 590.872,126.563 591.182,126.936C591.502,127.299 591.667,127.789 591.678,128.408C591.678,128.931 591.528,129.4 591.23,129.816C590.942,130.221 590.52,130.541 589.966,130.776C589.422,131.011 588.787,131.128 588.062,131.128Z" style="fill:rgb(30,30,30);fill-rule:nonzero;"/>
    </g>
</svg>
