<?xml version="1.0" encoding="UTF-8" standalone="no"?><!DOCTYPE svg PUBLIC "-//W3C//DTD SVG 1.1//EN" "http://www.w3.org/Graphics/SVG/1.1/DTD/svg11.dtd"><svg width="100%" height="100%" viewBox="0 0 2388 3546" version="1.1" xmlns="http://www.w3.org/2000/svg" xmlns:xlink="http://www.w3.org/1999/xlink" xml:space="preserve" xmlns:serif="http://www.serif.com/" style="fill-rule:evenodd;clip-rule:evenodd;stroke-linejoin:round;stroke-miterlimit:2;"><g><g><path d="M400.063,2650.6l12.317,-108.679l373.804,-243.238l-126.092,289.6l-260.029,62.317Z" style="fill-rule:nonzero;"/><path d="M417.38,2545l-11.184,98.675l250.088,-59.938l117.979,-270.958l-356.883,232.221Zm-21.588,108.758c-0.787,-1.066 -1.162,-2.396 -1.012,-3.746l12.316,-108.675c0.175,-1.579 1.063,-2.995 2.392,-3.862l373.804,-243.233c1.958,-1.28 4.529,-1.117 6.321,0.387c1.792,1.517 2.367,4.021 1.437,6.171l-126.091,289.6c-0.667,1.529 -2.013,2.658 -3.642,3.054l-260.017,62.304c-1.691,0.4 -3.466,-0.037 -4.758,-1.183c-0.283,-0.242 -0.533,-0.525 -0.75,-0.817Z" style="fill-rule:nonzero;"/><path d="M970.567,2897.95l71.2,-83.15l-76.908,-438.646l-126.092,289.6l131.8,232.196Z" style="fill-rule:nonzero;"/><path d="M844.696,2665.43l126.763,223.317l64.65,-75.492l-73.434,-418.8l-117.979,270.975Zm121.6,235.675c-0.125,-0.171 -0.246,-0.35 -0.354,-0.533l-131.8,-232.196c-0.825,-1.45 -0.912,-3.208 -0.246,-4.738l126.092,-289.604c0.933,-2.137 3.167,-3.421 5.5,-3.15c2.321,0.275 4.192,2.042 4.604,4.342l76.908,438.65c0.271,1.554 -0.158,3.166 -1.2,4.375l-71.2,83.146c-1.133,1.316 -2.825,1.995 -4.545,1.833c-1.509,-0.146 -2.867,-0.921 -3.759,-2.125Z" style="fill-rule:nonzero;"/><path d="M607.196,2607.13l161.759,-487.688c65.695,-198.066 205.187,-354.675 386.716,-424.979l0.334,0.925c65.091,177.346 54.058,383.034 -43.005,560.279l-252.583,461.246l-253.221,-109.783Z" style="fill:#0998b7;fill-rule:nonzero;"/><path d="M1152.54,1701.39c-175.312,69.754 -313.112,222.425 -378.542,419.712l-160.241,483.079l244.333,105.934l250.258,-456.992c93.155,-170.125 109.171,-370.954 44.192,-551.734Zm-549.612,908.896c-1,-1.35 -1.334,-3.133 -0.775,-4.825l161.762,-487.679c67.063,-202.196 209.154,-358.296 389.842,-428.262c1.321,-0.517 2.8,-0.48 4.1,0.1c1.296,0.583 2.3,1.675 2.791,3l0.342,0.929c67.8,184.733 52.013,390.537 -43.337,564.654l-252.58,461.254c-1.312,2.404 -4.254,3.413 -6.766,2.321l-253.234,-109.783c-0.883,-0.384 -1.612,-0.988 -2.145,-1.709Z" style="fill-rule:nonzero;"/><path d="M904.405,2084.56c16.433,-37.742 60.341,-55.079 98.062,-38.721c37.733,16.363 55.004,60.217 38.579,97.954c-16.437,37.742 -60.35,55.071 -98.071,38.713c-37.733,-16.363 -55.004,-60.217 -38.57,-97.946Z" style="fill:#fff;fill-rule:nonzero;"/><path d="M1028.3,2072.88c-6.971,-9.417 -16.433,-17.175 -27.946,-22.175c-34.983,-15.167 -75.841,0.963 -91.083,35.958c-15.233,34.992 0.833,75.8 35.821,90.975c34.987,15.167 75.846,-0.962 91.087,-35.958c10.217,-23.483 6.346,-49.583 -7.879,-68.8Zm-119.675,88.921c-16.408,-22.163 -20.875,-52.275 -9.087,-79.354c17.571,-40.367 64.708,-58.975 105.058,-41.475c40.354,17.491 58.892,64.571 41.313,104.925c-17.567,40.366 -64.705,58.975 -105.055,41.475c-13.279,-5.754 -24.187,-14.713 -32.229,-25.571Z" style="fill-rule:nonzero;"/><path d="M595.121,2688.45l31.7,-72.821l211.021,91.484l-31.704,72.825l-211.017,-91.488Z" style="fill:#fff;fill-rule:nonzero;"/><path d="M629.575,2622.61l-27.466,63.079l201.283,87.271l27.467,-63.079l-201.284,-87.271Zm-38.72,69.004c-0.275,-0.366 -0.505,-0.766 -0.684,-1.208c-0.508,-1.312 -0.479,-2.771 0.084,-4.062l31.7,-72.813c1.179,-2.696 4.3,-3.929 6.987,-2.767l211.017,91.488c2.7,1.167 3.921,4.292 2.754,6.979l-31.713,72.821c-1.17,2.683 -4.291,3.921 -6.979,2.758l-211.021,-91.483c-0.862,-0.375 -1.6,-0.971 -2.145,-1.713Z" style="fill-rule:nonzero;"/><path d="M907.93,1870.51c-0.371,-0.496 -0.471,-1.154 -0.213,-1.758c0.396,-0.892 1.446,-1.309 2.333,-0.917l287.134,124.475c0.9,0.388 1.3,1.433 0.912,2.329c-0.387,0.9 -1.429,1.313 -2.325,0.925l-287.129,-124.487c-0.296,-0.129 -0.533,-0.325 -0.712,-0.567Z" style="fill-rule:nonzero;"/><path d="M432.088,2954.02c-1.704,-2.305 -1.267,-5.567 1.004,-7.342c46.692,-36.512 88.379,-79.092 123.892,-126.533c1.754,-2.346 5.083,-2.834 7.429,-1.071c2.35,1.758 2.825,5.075 1.062,7.429c-36.066,48.188 -78.412,91.442 -125.841,128.525c-2.317,1.808 -5.65,1.404 -7.454,-0.904c-0.034,-0.029 -0.067,-0.071 -0.092,-0.104Z" style="fill-rule:nonzero;"/><path d="M579.067,2790.27c-1.167,-1.584 -1.408,-3.759 -0.433,-5.625l18.725,-35.675c1.362,-2.604 4.575,-3.613 7.171,-2.25c2.595,1.35 3.591,4.562 2.229,7.166l-18.717,35.671c-1.362,2.604 -4.575,3.613 -7.171,2.246c-0.737,-0.383 -1.337,-0.908 -1.804,-1.533Z" style="fill-rule:nonzero;"/><path d="M316.375,3043.07c-0.925,-1.246 -1.295,-2.884 -0.87,-4.505c3.883,-14.762 14.454,-28.774 29.77,-39.449c13.346,-9.309 28.442,-15.234 43.03,-20.955c2.725,-1.07 5.812,0.275 6.87,3c1.075,2.73 -0.283,5.809 -3.004,6.88c-14.012,5.495 -28.508,11.183 -40.833,19.779c-13.233,9.229 -22.321,21.104 -25.558,33.433c-0.755,2.829 -3.655,4.529 -6.488,3.792c-1.217,-0.325 -2.225,-1.038 -2.917,-1.975Z" style="fill-rule:nonzero;"/><path d="M657.896,2987.62c-0.95,-1.279 -1.321,-2.971 -0.837,-4.617c17.008,-59.246 38.779,-117.633 64.725,-173.537c1.237,-2.667 4.4,-3.83 7.054,-2.6c2.671,1.229 3.808,4.387 2.583,7.05c-25.712,55.408 -47.291,113.283 -64.158,171.995c-0.817,2.825 -3.754,4.455 -6.571,3.655c-1.167,-0.334 -2.129,-1.042 -2.796,-1.946Z" style="fill-rule:nonzero;"/><path d="M662.671,3091.57c-0.521,-0.704 -0.875,-1.546 -0.996,-2.484l-6.116,-48.296c-0.375,-2.9 1.687,-5.57 4.596,-5.941c2.908,-0.371 5.566,1.691 5.933,4.596l6.125,48.291c0.367,2.909 -1.692,5.563 -4.608,5.942c-1.975,0.25 -3.825,-0.617 -4.934,-2.108Z" style="fill-rule:nonzero;"/><path d="M67.15,3418.97c-4.854,-6.554 -9.1,-13.584 -12.637,-21.046c-27.75,-58.425 -7.479,-133.813 43.946,-172.217c-42.759,-7.867 -80.788,-40.554 -93.588,-82.225c-14.262,-46.429 3.646,-101.312 42.584,-130.492c49.754,-37.274 118.087,-30.258 184.525,-17.112c2.866,0.563 4.725,3.363 4.158,6.229c-0.571,2.884 -3.375,4.746 -6.242,4.184c-64.012,-12.663 -129.654,-19.588 -176.083,15.2c-35.467,26.579 -51.779,76.558 -38.792,118.862c12.992,42.304 54.542,74.458 98.779,76.454c2.355,0.108 4.363,1.759 4.909,4.042c0.558,2.3 -0.467,4.679 -2.509,5.858c-54.883,31.646 -79.225,109.529 -52.1,166.659c27.138,57.112 102.838,87.412 162.009,64.816c2.525,-0.966 5.387,0.133 6.608,2.5c20.146,38.892 59.654,66.538 103.117,72.192c43.454,5.662 88.816,-10.954 118.383,-43.338c1.971,-2.162 5.329,-2.325 7.496,-0.35c2.158,1.942 2.317,5.321 0.337,7.492c-31.862,34.921 -80.758,52.821 -127.612,46.725c-45.3,-5.904 -86.638,-34.004 -108.946,-73.725c-56.55,19.208 -123.187,-3.246 -158.342,-50.708Z" style="fill-rule:nonzero;"/><path d="M716.43,3430.52c-1.213,-1.642 -1.417,-3.913 -0.338,-5.805c1.463,-2.541 4.7,-3.425 7.246,-1.983c32.5,18.546 77.858,11.496 103.262,-16.054c25.409,-27.533 28.771,-73.288 7.646,-104.154c-4.741,-6.929 -11.896,-17.404 -5.966,-27.117c3.358,-5.487 9.47,-7.525 13.933,-9.021c32.812,-10.996 53.983,-25.929 64.737,-45.646c14.334,-26.279 8.767,-62.75 -13.62,-88.687c-24.171,-28.054 -60.084,-38.954 -85.942,-43.163c-2.888,-0.479 -4.85,-3.204 -4.379,-6.091c0.479,-2.896 3.208,-4.863 6.104,-4.388c27.6,4.488 66.008,16.238 92.271,46.709c25.162,29.179 31.291,70.604 14.896,100.695c-12.105,22.18 -35.225,38.742 -70.709,50.634c-3.233,1.083 -6.9,2.304 -8.229,4.487c-2.171,3.546 1.442,9.396 5.679,15.584c23.788,34.775 20.013,86.325 -8.616,117.35c-28.625,31.033 -79.73,38.975 -116.346,18.091c-0.654,-0.383 -1.209,-0.875 -1.629,-1.441Z" style="fill-rule:nonzero;"/><path d="M523.05,3025.29c-1.166,-1.583 -1.408,-3.741 -0.441,-5.604c37.991,-73.133 78.546,-146.233 120.512,-217.258c1.488,-2.525 4.75,-3.371 7.271,-1.875c2.525,1.483 3.358,4.737 1.871,7.262c-41.875,70.863 -82.321,143.792 -120.238,216.746c-1.345,2.608 -4.55,3.625 -7.158,2.283c-0.742,-0.395 -1.35,-0.929 -1.817,-1.554Z" style="fill-rule:nonzero;"/><path d="M465.392,3142.09c-1.137,-1.538 -1.396,-3.63 -0.508,-5.471l32.591,-67.367c1.284,-2.642 4.459,-3.754 7.096,-2.475c2.646,1.271 3.738,4.438 2.463,7.088l-32.6,67.358c-1.267,2.642 -4.454,3.75 -7.088,2.483c-0.804,-0.387 -1.462,-0.954 -1.954,-1.617Z" style="fill-rule:nonzero;"/></g><g><path d="M1785.22,658.205c1.854,131.488 -15.721,249.137 -52.733,352.95c-37.013,103.813 -108.488,153.9 -214.434,150.267c-105.945,-3.634 -201.65,-19.613 -287.112,-47.942c-85.467,-28.329 -185.363,-89.621 -299.692,-183.871c-114.329,-94.254 -114.629,-185.242 -0.896,-272.967c113.734,-87.725 219.621,-166.683 317.659,-236.883c98.041,-70.196 211.621,-80.875 340.741,-32.037c129.121,48.837 194.609,138.996 196.467,270.483Z" style="fill:#32c487;fill-rule:nonzero;"/></g><g><path d="M2239.06,300.543c1.858,131.487 -15.721,249.137 -52.729,352.945c-37.013,103.813 -108.492,153.9 -214.438,150.267c-105.942,-3.633 -201.65,-19.613 -287.112,-47.942c-85.463,-28.329 -185.359,-89.616 -299.688,-183.871c-114.329,-94.25 -114.629,-185.241 -0.896,-272.966c113.734,-87.721 219.617,-166.684 317.659,-236.879c98.037,-70.2 211.62,-80.88 340.741,-32.042c129.117,48.837 194.609,139 196.463,270.487Z" style="fill:#845ec2;fill-rule:nonzero;"/></g><g><path d="M2383.33,748.376c1.854,131.487 -15.721,249.137 -52.734,352.946c-37.008,103.812 -108.487,153.9 -214.433,150.266c-105.946,-3.633 -201.65,-19.612 -287.113,-47.941c-85.466,-28.33 -185.362,-89.617 -299.691,-183.871c-114.329,-94.254 -114.625,-185.242 -0.896,-272.967c113.733,-87.721 219.621,-166.683 317.658,-236.879c98.042,-70.2 211.621,-80.879 340.742,-32.042c129.121,48.838 194.608,139 196.467,270.488Z" style="fill:#0998b7;fill-rule:nonzero;"/></g><text x="1590.59px" y="348.438px" style="font-family:'Futura-Bold', 'Futura', sans-serif;font-weight:700;font-size:66.667px;">Collabor<tspan x="1893.99px 1940.72px 1966.52px 1986.85px " y="348.438px 348.438px 348.438px 348.438px ">atio</tspan>n</text><text x="1765.59px" y="890.105px" style="font-family:'Futura-Bold', 'Futura', sans-serif;font-weight:700;font-size:66.667px;">Gamiﬁcat<tspan x="2107.52px 2127.85px " y="890.105px 890.105px ">io</tspan>n</text><text x="1219.75px" y="844.272px" style="font-family:'Futura-Bold', 'Futura', sans-serif;font-weight:700;font-size:66.667px;">AI</text></g></svg>