<?xml version="1.0" encoding="UTF-8" standalone="no"?><!DOCTYPE svg PUBLIC "-//W3C//DTD SVG 1.1//EN" "http://www.w3.org/Graphics/SVG/1.1/DTD/svg11.dtd"><svg width="100%" height="100%" viewBox="0 0 3334 3334" version="1.1" xmlns="http://www.w3.org/2000/svg" xmlns:xlink="http://www.w3.org/1999/xlink" xml:space="preserve" xmlns:serif="http://www.serif.com/" style="fill-rule:evenodd;clip-rule:evenodd;stroke-linejoin:round;stroke-miterlimit:2;"><path d="M2866.67,551.8l-163.467,-0l0,-85.133c0,-91.431 -75.236,-166.667 -166.667,-166.667l-69.866,-0c-91.431,-0 -166.667,75.236 -166.667,166.667l0,85.133l-1266.67,-0l0,-85.133c0,-91.431 -75.236,-166.667 -166.666,-166.667l-69.867,-0c-91.431,-0 -166.667,75.236 -166.667,166.667l0,85.133l-163.466,-0c-91.431,-0 -166.667,75.236 -166.667,166.667l-0,2148.2c-0,91.43 75.236,166.666 166.667,166.666l2400,0c91.43,0 166.666,-75.236 166.666,-166.666l0,-2148.2c0,-91.431 -75.236,-166.667 -166.666,-166.667Z" style="fill:#231f20;fill-rule:nonzero;"/><path d="M2001.87,1037.13c0.044,0 0.089,0 0.133,0c529.274,0 964.8,435.527 964.8,964.8c-0,529.274 -435.526,964.8 -964.8,964.8c-529.274,0 -964.8,-435.526 -964.8,-964.8c-0,-0.022 -0,-0.044 0,-0.066c0.62,-528.977 435.69,-964.077 964.667,-964.734Z" style="fill:#ffba50;fill-rule:nonzero;"/><path d="M2000.33,2788.73c431.553,0 786.667,-355.114 786.667,-786.666c-0,-431.553 -355.114,-786.667 -786.667,-786.667c-431.552,0 -786.666,355.114 -786.666,786.667c0.62,431.318 355.348,786.046 786.666,786.666Z" style="fill:#231f20;fill-rule:nonzero;"/><path d="M2000.33,1281.73c394.981,0 720,325.02 720,720c0,394.981 -325.019,720 -720,720c-394.98,0 -720,-325.019 -720,-720c0.547,-394.773 325.227,-719.453 720,-720Z" style="fill:#fff;fill-rule:nonzero;"/><path d="M466.667,2966.67c-54.859,-0 -100,-45.142 -100,-100l-0,-1835.47l1289.87,0c-410.176,145.256 -685.991,535.529 -685.991,970.666c-0,428.917 267.987,814.901 669.858,964.801l-1173.73,-0Z" style="fill:#fff;fill-rule:nonzero;"/><path d="M2966.67,2866.67c-0,54.858 -45.142,100 -100,100l-503.267,-0c278.323,-104.948 498.319,-324.944 603.267,-603.267l-0,503.267Z" style="fill:#fff;fill-rule:nonzero;"/><path d="M687.867,1322.73c-88.176,0 -160.734,72.558 -160.734,160.734c0,88.175 72.558,160.733 160.734,160.733c88.175,-0 160.733,-72.558 160.733,-160.733c0,-0.023 0,-0.045 0,-0.067c-0.11,-88.123 -72.61,-160.594 -160.733,-160.667Z" style="fill:#231f20;fill-rule:nonzero;"/><path d="M687.867,1577.53c-51.604,0 -94.067,-42.463 -94.067,-94.066c0,-51.604 42.463,-94.067 94.067,-94.067c51.578,0 94.03,42.422 94.066,94c-0.036,51.601 -42.465,94.06 -94.066,94.133Z" style="fill:#7cc05b;fill-rule:nonzero;"/><path d="M687.867,1841.2c-88.176,0 -160.734,72.558 -160.734,160.733c0,88.176 72.558,160.734 160.734,160.734c88.175,-0 160.733,-72.558 160.733,-160.734c0,-0.022 0,-0.044 0,-0.066c-0.11,-88.123 -72.61,-160.594 -160.733,-160.667Z" style="fill:#231f20;fill-rule:nonzero;"/><path d="M687.867,2095.93c-51.604,0 -94.067,-42.463 -94.067,-94.066c0,-51.604 42.463,-94.067 94.067,-94.067c51.603,0 94.066,42.463 94.066,94.067c-0.036,51.589 -42.477,94.03 -94.066,94.066Z" style="fill:#7cc05b;fill-rule:nonzero;"/><circle cx="687.867" cy="2520.4" r="160.733" style="fill:#231f20;"/><circle cx="687.867" cy="2520.4" r="94.067" style="fill:#7cc05b;"/><path d="M2636.53,466.667c0,-55.192 -44.808,-100 -100,-100l-69.666,-0c-55.192,-0 -100,44.808 -100,100l-0,229.733c-0,55.192 44.808,100 100,100l69.666,0c55.192,0 100,-44.808 100,-100l0,-229.733Z" style="fill:#ff8e5a;"/><path d="M966.467,466.667c-0,-55.192 -44.809,-100 -100,-100l-69.667,-0c-55.192,-0 -100,44.808 -100,100l0,229.733c0,55.192 44.808,100 100,100l69.667,0c55.191,0 100,-44.808 100,-100l-0,-229.733Z" style="fill:#ff8e5a;"/><path d="M366.667,718.467c-0,-54.859 45.141,-100 100,-100l163.466,-0l0,77.933c0,91.431 75.236,166.667 166.667,166.667l69.867,-0c91.43,-0 166.666,-75.236 166.666,-166.667l0,-77.933l1266.67,-0l0,77.933c0,91.431 75.236,166.667 166.667,166.667l69.666,-0c91.431,-0 166.667,-75.236 166.667,-166.667l0,-77.933l163.667,-0c54.858,-0 100,45.141 100,100l-0,246.066l-2600,0l-0,-246.066Z" style="fill:#d12200;fill-rule:nonzero;"/><path d="M2347.27,1031.2l619.4,0l-0,609.2c-107.059,-283.924 -333.738,-506.87 -619.4,-609.2Z" style="fill:#fff;fill-rule:nonzero;"/><path d="M2001.87,2445.53c-18.286,0 -33.334,15.048 -33.334,33.334l0,108.4c0,18.286 15.048,33.333 33.334,33.333c18.286,0 33.333,-15.047 33.333,-33.333l0,-108.4c0,-18.286 -15.047,-33.334 -33.333,-33.334Z" style="fill:#231f20;fill-rule:nonzero;"/><path d="M1421.33,2035.2l108.4,0c18.286,0 33.334,-15.047 33.334,-33.333c-0,-18.286 -15.048,-33.334 -33.334,-33.334l-108.4,0c-18.286,0 -33.333,15.048 -33.333,33.334c0,18.286 15.047,33.333 33.333,33.333Z" style="fill:#231f20;fill-rule:nonzero;"/><path d="M2266.67,2398.93c-6.111,-9.612 -16.741,-15.45 -28.131,-15.45c-18.286,-0 -33.333,15.047 -33.333,33.333c-0,5.381 1.303,10.683 3.797,15.451l54.133,93.933c6.111,9.613 16.741,15.451 28.131,15.451c18.286,-0 33.333,-15.047 33.333,-33.334c0,-5.381 -1.303,-10.682 -3.797,-15.45l-54.133,-93.934Z" style="fill:#231f20;fill-rule:nonzero;"/><path d="M1737,1614.47c5.935,10.28 16.93,16.642 28.8,16.666c5.851,0 11.6,-1.541 16.667,-4.466c15.835,-9.144 21.342,-29.698 12.2,-45.534l-54.2,-93.866c-5.742,-10.977 -17.149,-17.883 -29.536,-17.883c-18.287,0 -33.334,15.047 -33.334,33.333c0,6.334 1.805,12.538 5.203,17.883l54.2,93.867Z" style="fill:#231f20;fill-rule:nonzero;"/><path d="M1573.93,2209.73l-93.933,54.267c-10.977,5.742 -17.883,17.148 -17.883,29.536c0,18.286 15.048,33.333 33.334,33.333c6.333,0 12.537,-1.805 17.882,-5.202l93.867,-54.2c10.408,-5.918 16.858,-17.005 16.858,-28.978c0,-18.286 -15.047,-33.333 -33.333,-33.333c-5.926,0 -11.746,1.58 -16.858,4.577l0.066,0Z" style="fill:#231f20;fill-rule:nonzero;"/><path d="M2408.4,1800c5.853,0.019 11.607,-1.523 16.667,-4.467l93.933,-54.2c10.408,-5.917 16.858,-17.004 16.858,-28.977c0,-18.286 -15.047,-33.333 -33.333,-33.333c-5.926,-0 -11.746,1.58 -16.858,4.577l-93.934,54.2c-10.299,5.947 -16.665,16.973 -16.665,28.867c0,18.285 15.046,33.332 33.332,33.333Z" style="fill:#231f20;fill-rule:nonzero;"/><path d="M2521,2266.67l-93.867,-54.2c-5.021,-2.855 -10.699,-4.356 -16.475,-4.356c-18.286,-0 -33.333,15.047 -33.333,33.333c-0,11.815 6.282,22.78 16.475,28.756l93.867,54.133c5.345,3.398 11.549,5.203 17.882,5.203c18.286,0 33.334,-15.047 33.334,-33.333c-0,-12.388 -6.906,-23.794 -17.883,-29.536Z" style="fill:#231f20;fill-rule:nonzero;"/><path d="M1482.13,1744.07l93.934,54.2c5.021,2.854 10.699,4.356 16.475,4.356c18.286,-0 33.333,-15.047 33.333,-33.334c0,-11.815 -6.282,-22.78 -16.475,-28.756l-93.933,-53.866c-5.022,-2.855 -10.7,-4.356 -16.476,-4.356c-18.286,-0 -33.333,15.047 -33.333,33.333c0,11.815 6.282,22.78 16.475,28.756l0,-0.333Z" style="fill:#231f20;fill-rule:nonzero;"/><path d="M1690.47,2534.73c15.818,9.154 36.367,3.679 45.533,-12.133l54.267,-93.867c2.854,-5.021 4.356,-10.699 4.356,-16.475c-0,-18.286 -15.047,-33.333 -33.334,-33.333c-11.815,-0 -22.78,6.282 -28.756,16.475l-54.2,93.867c-9.109,15.804 -3.639,36.302 12.134,45.466Z" style="fill:#231f20;fill-rule:nonzero;"/><path d="M2216.87,1623.07c15.836,9.142 36.39,3.635 45.533,-12.2l54.2,-93.867c3.398,-5.345 5.203,-11.549 5.203,-17.883c-0,-18.286 -15.047,-33.333 -33.334,-33.333c-12.387,0 -23.794,6.906 -29.536,17.883l-54.266,93.866c-9.143,15.836 -3.636,36.39 12.2,45.534Z" style="fill:#231f20;fill-rule:nonzero;"/><path d="M2001.87,2151.8c69.618,-0.14 130.431,-48.729 145.933,-116.6l406.667,0c18.286,0 33.333,-15.047 33.333,-33.333c0,-18.286 -15.047,-33.334 -33.333,-33.334l-406.667,0c-12.915,-56.569 -57.475,-100.816 -114.133,-113.333l-0,-425.933c-0,-18.286 -15.048,-33.334 -33.334,-33.334c-18.286,0 -33.333,15.048 -33.333,33.334l0,427.266c-67.197,15.993 -115.015,76.527 -115.015,145.6c-0,82.105 67.561,149.667 149.666,149.667c0.072,0 0.144,0 0.216,0Zm-0,-233.333c0.022,-0 0.044,-0 0.066,-0c45.679,-0 83.267,37.588 83.267,83.266c-0,45.679 -37.588,83.267 -83.267,83.267c-45.678,-0 -83.266,-37.588 -83.266,-83.267c-0,-0.022 -0,-0.044 -0,-0.066c0.182,-45.539 37.66,-82.928 83.2,-83l-0,-0.2Z" style="fill:#231f20;fill-rule:nonzero;"/></svg>