<?xml version="1.0" encoding="UTF-8" standalone="no"?><!DOCTYPE svg PUBLIC "-//W3C//DTD SVG 1.1//EN" "http://www.w3.org/Graphics/SVG/1.1/DTD/svg11.dtd"><svg width="100%" height="100%" viewBox="0 0 2816 2634" version="1.1" xmlns="http://www.w3.org/2000/svg" xmlns:xlink="http://www.w3.org/1999/xlink" xml:space="preserve" xmlns:serif="http://www.serif.com/" style="fill-rule:evenodd;clip-rule:evenodd;stroke-linejoin:round;stroke-miterlimit:2;"><path d="M2602.47,2014.41l126.296,19.737c42.749,-51.758 72.222,-113.179 85.851,-178.911c-92.35,75.594 -232.789,35.423 -344.769,76.694c-70.502,26.598 -125.177,83.919 -148.418,155.598l-61.722,66.405c113.007,44.739 240.134,37.74 347.547,-19.133c29.636,-16.07 57.13,-35.808 81.833,-58.747c-44.19,-27.827 -86.618,-61.643 -86.618,-61.643Z" style="fill:#aaa9ad;fill-rule:nonzero;"/><path d="M2557.63,1812.42l121.842,-38.66c15.179,-65.391 14.166,-133.51 -2.951,-198.421c-48.943,108.846 -192.557,135.525 -274.379,222.405c-51.239,55.249 -74.612,130.938 -63.446,205.458l-25.628,86.963c121.099,-10.356 231.762,-73.317 302.536,-172.125c19.359,-27.6 35.165,-57.528 47.045,-89.078c-51.963,-5.197 -105.019,-16.542 -105.019,-16.542Z" style="fill:#aaa9ad;fill-rule:nonzero;"/><path d="M2815.29,2194.14l-0,0.029c-0,2.712 -2.232,4.944 -4.944,4.944c-0.005,-0 -0.01,-0 -0.015,-0l-2805.38,-0c-2.72,-0.001 -4.958,-2.239 -4.958,-4.959c0,-2.72 2.238,-4.958 4.958,-4.958l2805.38,-0c0.005,-0 0.01,-0 0.015,-0c2.712,-0 4.944,2.232 4.944,4.944Z" style="fill:#ccc;fill-rule:nonzero;"/><circle cx="1162.49" cy="1086.94" r="895.833" style="fill:#aaa9ad;"/><path d="M1933.32,1086.94c0.183,243.718 -115.391,473.58 -311.125,618.792c-6.458,4.833 -13.042,9.542 -19.667,14.125c-263.938,183.468 -616.145,183.468 -880.083,-0c-6.625,-4.583 -13.208,-9.292 -19.667,-14.125c-195.591,-145.333 -311.125,-375.116 -311.125,-618.792c0,-243.675 115.534,-473.458 311.125,-618.791c6.459,-4.834 13.042,-9.542 19.667,-14.125c263.938,-183.468 616.145,-183.468 880.083,-0c6.625,4.583 13.209,9.291 19.667,14.125c195.734,145.211 311.308,375.074 311.125,618.791Z" style="fill:#fff;fill-rule:nonzero;"/><circle cx="1162.49" cy="1086.94" r="704.167" style="fill:#6c63ff;"/><path d="M1164.33,384.743c-10.675,-0 -21.284,0.279 -31.843,0.749c361.685,31.783 642.507,338.363 642.507,701.442c-0,374.284 -298.424,686.512 -672.326,703.425c20.325,1.764 40.88,2.717 61.662,2.717c386.294,0 704.166,-317.872 704.166,-704.166c0,-386.295 -317.872,-704.167 -704.166,-704.167l-0,0Z" style="fill-opacity:0.2;fill-rule:nonzero;"/><path d="M1164.57,332.775c-12.563,0.022 -22.895,10.353 -22.917,22.916l0,100c0,12.572 10.345,22.917 22.917,22.917c12.572,-0 22.917,-10.345 22.917,-22.917l-0,-100c-0.023,-12.563 -10.354,-22.894 -22.917,-22.916Z" style="fill:#fff;fill-rule:nonzero;"/><path d="M1622.2,468.15c-6.458,-4.834 -13.042,-9.542 -19.667,-14.125c-8.078,-0.527 -15.858,3.267 -20.416,9.958l-56.292,82.625c-2.589,3.802 -3.974,8.296 -3.974,12.896c0,12.569 10.343,22.911 22.911,22.911c7.574,0 14.675,-3.755 18.938,-10.015l56.292,-82.625c4.347,-6.363 5.179,-14.516 2.208,-21.625Z" style="fill:#fff;fill-rule:nonzero;"/><path d="M1877.95,844.899c-3.498,-8.61 -11.91,-14.272 -21.204,-14.272c-2.959,0 -5.889,0.574 -8.629,1.689l-92.667,37.625c-8.611,3.508 -14.27,11.924 -14.27,21.221c0,12.571 10.344,22.915 22.914,22.915c2.95,-0 5.872,-0.57 8.606,-1.678l92.667,-37.624c11.627,-4.763 17.299,-18.229 12.583,-29.875Z" style="fill:#fff;fill-rule:nonzero;"/><path d="M799.157,546.608l-56.292,-82.625c-4.558,-6.69 -12.338,-10.485 -20.416,-9.958c-6.625,4.583 -13.209,9.291 -19.667,14.125c-2.971,7.109 -2.139,15.262 2.208,21.625l56.292,82.625c4.263,6.26 11.364,10.015 18.938,10.015c12.568,0 22.911,-10.342 22.911,-22.911c0,-4.6 -1.385,-9.094 -3.974,-12.896Z" style="fill:#fff;fill-rule:nonzero;"/><path d="M569.532,869.941l-92.666,-37.625c-2.739,-1.112 -5.666,-1.683 -8.622,-1.683c-12.57,-0 -22.914,10.343 -22.914,22.914c0,9.304 5.667,17.724 14.286,21.227l92.666,37.625c2.734,1.108 5.656,1.678 8.606,1.678c12.57,-0 22.914,-10.344 22.914,-22.915c0,-9.298 -5.659,-17.713 -14.27,-21.221l0,0Z" style="fill:#fff;fill-rule:nonzero;"/><path d="M1164.57,1695.28c-12.563,0.022 -22.895,10.353 -22.917,22.916l0,100c0,12.572 10.345,22.917 22.917,22.917c12.572,-0 22.917,-10.345 22.917,-22.917l-0,-100c-0.023,-12.563 -10.354,-22.894 -22.917,-22.916Z" style="fill:#fff;fill-rule:nonzero;"/><path d="M1619.99,1684.11l-56.291,-82.625c-4.263,-6.26 -11.364,-10.016 -18.938,-10.016c-12.569,0 -22.911,10.343 -22.911,22.912c-0,4.599 1.385,9.094 3.974,12.896l56.291,82.625c4.559,6.69 12.339,10.485 20.417,9.958c6.625,-4.583 13.208,-9.292 19.667,-14.125c2.971,-7.11 2.139,-15.263 -2.209,-21.625Z" style="fill:#fff;fill-rule:nonzero;"/><path d="M1865.37,1299.11l-92.667,-37.625c-2.738,-1.112 -5.666,-1.684 -8.621,-1.684c-12.571,0 -22.914,10.344 -22.914,22.915c-0,9.303 5.666,17.723 14.285,21.227l92.667,37.625c2.733,1.108 5.655,1.677 8.605,1.677c12.571,0 22.914,-10.344 22.914,-22.914c0,-9.298 -5.659,-17.714 -14.269,-21.221l-0,-0Z" style="fill:#fff;fill-rule:nonzero;"/><path d="M793.115,1595.44c-10.389,-7.071 -24.756,-4.344 -31.833,6.042l-56.291,82.625c-4.348,6.362 -5.18,14.515 -2.209,21.625c6.459,4.833 13.042,9.542 19.667,14.125c8.079,0.526 15.858,-3.268 20.417,-9.958l56.291,-82.625c2.589,-3.802 3.975,-8.297 3.975,-12.897c-0,-7.573 -3.756,-14.674 -10.017,-18.937Z" style="fill:#fff;fill-rule:nonzero;"/><path d="M582.116,1274.07c-3.499,-8.611 -11.91,-14.272 -21.204,-14.272c-2.959,-0 -5.89,0.573 -8.63,1.689l-92.666,37.625c-8.611,3.507 -14.27,11.923 -14.27,21.221c-0,12.571 10.344,22.914 22.914,22.914c2.95,0 5.872,-0.569 8.606,-1.677l92.666,-37.625c11.628,-4.763 17.3,-18.228 12.584,-29.875Z" style="fill:#fff;fill-rule:nonzero;"/><path d="M1194.31,1075.57c4.377,25.908 -13.305,50.838 -39.203,55.273l-406.659,69.172c-2.654,0.452 -5.342,0.679 -8.035,0.679c-26.286,-0 -47.917,-21.63 -47.917,-47.917c0,-23.266 16.945,-43.336 39.882,-47.238l406.659,-69.172c25.908,-4.376 50.838,13.305 55.273,39.203Z" style="fill:#3f3d56;fill-rule:nonzero;"/><path d="M1622.31,1526.12c-12.083,12.151 -32.016,12.23 -44.194,0.174l-437.763,-434.329c-5.899,-5.864 -9.219,-13.847 -9.219,-22.164c-0,-17.143 14.107,-31.25 31.25,-31.25c8.232,0 16.14,3.253 21.989,9.046l437.763,434.329c12.151,12.082 12.23,32.016 0.174,44.194Z" style="fill:#3f3d56;fill-rule:nonzero;"/><circle cx="1162.49" cy="1086.94" r="54.167" style="fill:#ccc;"/><path d="M789.391,147.686c-83.145,130.719 -210.006,217.47 -366.457,274.46c-5.088,3.811 -11.276,5.871 -17.632,5.871c-9.258,0 -17.992,-4.371 -23.541,-11.78c-84.983,-113.469 -65.794,-275.638 46.365,-362.342c45.255,-34.923 100.836,-53.875 157.999,-53.875c81.3,0 158.017,38.337 206.826,103.355l2.35,3.138c3.81,5.088 5.871,11.276 5.871,17.632c-0,9.257 -4.371,17.992 -11.781,23.541Z" style="fill:#a9a9a9;fill-rule:nonzero;"/><path d="M1532.03,103.375c48.81,-65.018 125.526,-103.355 206.826,-103.355c57.163,0 112.744,18.952 157.999,53.875c112.159,86.703 131.349,248.873 46.366,362.341c-5.55,7.41 -14.284,11.781 -23.542,11.781c-6.356,0 -12.544,-2.06 -17.631,-5.871c-145.239,-55.605 -264.343,-151.831 -366.458,-274.46c-12.915,-9.672 -15.582,-28.258 -5.91,-41.173l2.35,-3.138Z" style="fill:#a9a9a9;fill-rule:nonzero;"/><path d="M1495.59,1863.06c-10.952,6.154 -14.923,20.215 -8.807,31.189l132.258,236.344c4.047,7.229 11.711,11.721 19.996,11.721c12.571,0 22.916,-10.345 22.916,-22.916c0,-3.917 -1.004,-7.768 -2.916,-11.187l-132.257,-236.344c-6.155,-10.953 -20.215,-14.923 -31.19,-8.807Z" style="fill:#a9a9a9;fill-rule:nonzero;"/><path d="M798.204,1871.87l-132.257,236.344c-1.912,3.418 -2.916,7.27 -2.916,11.187c-0,12.571 10.345,22.916 22.917,22.916c8.284,0 15.948,-4.492 19.995,-11.721l132.258,-236.344c1.915,-3.42 2.921,-7.275 2.921,-11.196c0,-12.571 -10.345,-22.916 -22.917,-22.916c-8.288,-0 -15.955,4.496 -20.001,11.73l0,0Z" style="fill:#a9a9a9;fill-rule:nonzero;"/><circle cx="1645.82" cy="2120.28" r="70.833" style="fill:#a9a9a9;"/><circle cx="1695.82" cy="307.775" r="70.833" style="fill:#a9a9a9;"/><circle cx="1158.32" cy="141.108" r="70.833" style="fill:#a9a9a9;"/><circle cx="645.824" cy="299.441" r="70.833" style="fill:#a9a9a9;"/><circle cx="691.657" cy="2120.28" r="70.833" style="fill:#a9a9a9;"/><path d="M1590.26,1486.28c6.512,10.197 17.806,16.385 29.905,16.385c8.912,-0 17.504,-3.357 24.055,-9.398l111.148,59.556l-5.961,-65.256l-104.634,-46.551c-6.628,-6.296 -15.429,-9.809 -24.57,-9.809c-19.572,-0 -35.677,16.105 -35.677,35.676c0,6.883 1.992,13.62 5.734,19.397l-0,-0Z" style="fill:#ffb7b7;fill-rule:nonzero;"/><path d="M1671.25,1509.05l43.556,-60.124l209.833,99.194l261.112,-48.993c5.44,-1.02 10.962,-1.534 16.496,-1.534c49.015,0 89.371,40.281 89.464,89.295c0.037,49.057 -40.24,89.483 -89.297,89.627l-299.234,0.555l-231.93,-168.02Z" style="fill:#3f3d56;fill-rule:nonzero;"/><path d="M1604.16,2547.5l-44.071,-21.075l60.537,-184.2l65.038,31.108l-81.505,174.167Z" style="fill:#ffb7b7;fill-rule:nonzero;"/><path d="M1899.6,2517.8c-3.204,2.007 -6.409,3.981 -9.646,5.956c-6.442,3.949 -12.948,7.833 -19.454,11.653c-3.269,1.91 -6.571,3.82 -9.841,5.698l0,0.096l-0.194,0.032l-0.064,0.033l-4.985,1.23l-7.154,-18.904l-3.302,-8.707l-4.661,-12.333l-8.546,-22.562l-44.994,-118.797l69.951,-17.253l2.622,10.715l0.033,-0l1.294,5.308l24.44,99.117l4.984,20.263l0.162,0.615l3.011,12.106l2.589,10.488l2.881,11.718l0.874,3.528Z" style="fill:#ffb7b7;fill-rule:nonzero;"/><path d="M2316.89,2100.61c-4.434,7.122 -8.967,14.211 -13.53,21.235c-8.481,13.077 -17.189,25.96 -26.123,38.649c0,0.033 -0.032,0.033 -0.065,0.065c-5.212,4.828 -10.969,9.033 -17.155,12.527c-0.259,0.194 -0.551,0.324 -0.81,0.486c-4.555,2.518 -9.404,4.464 -14.437,5.794c-1.812,0.453 -3.657,0.906 -5.47,1.359c-6.539,1.554 -13.013,2.881 -19.454,4.047c-11.459,2.039 -22.789,3.495 -34.053,4.402c-0.907,0.097 -1.813,0.162 -2.719,0.226c-46.321,3.399 -91.412,-2.071 -138.478,-11.038c-23.242,-4.402 -46.968,-9.678 -71.537,-15.149c-8.028,-1.813 -16.088,-3.593 -24.245,-5.373c-0.615,-0.13 -1.262,-0.292 -1.91,-0.421c-11.653,-2.557 -23.5,-5.082 -35.639,-7.575c-15.278,-3.139 -31.042,-6.182 -47.421,-9.063l1.165,23.08c0.97,17.754 4.66,35.254 10.941,51.888c6.992,20.458 12.527,36.643 0.841,70.34l-5.632,16.314c5.914,16.411 3.791,34.682 -5.729,49.299l-1.133,1.716l46.968,118.829l3.043,7.704l-24.051,0l-29.586,0.032l-50.14,0l-72.347,-145.145l-3.463,-6.928l-0,-0.356l7.477,-278.929c0.097,-2.461 0.291,-4.953 0.615,-7.413c2.663,-22.583 14.299,-43.171 32.273,-57.1c17.222,-13.46 39.147,-19.457 60.822,-16.638l24.763,3.204l50.594,6.539l35.639,4.629l0.712,0.097l105.105,13.595l7.542,-30.751l1.392,-0.518l44.249,-16.217l153.044,-56.097l0.389,-0.129l10.067,-3.69l1.197,1.942c0.357,0.582 0.713,1.165 1.036,1.748c9.95,17.838 18.052,36.645 24.18,56.129c10.305,31.829 18.789,64.219 25.411,97.012c0.291,1.424 0.55,2.719 0.776,3.884l0.098,0.356c0.097,0.551 0.161,0.907 0.194,1.004c3.528,14.695 1.068,32.628 -5.406,50.399Z" style="fill:#2f2e41;fill-rule:nonzero;"/><path d="M2323.35,1997.82c-0.486,-2.071 -1.101,-4.175 -1.748,-6.214c-5.139,-15.446 -11.126,-30.597 -17.933,-45.383c-7.639,-16.832 -16.8,-34.862 -27.708,-54.381c-5.277,-9.452 -10.952,-19.282 -17.027,-29.489c-3.043,-5.114 -6.204,-10.326 -9.484,-15.634c-0.128,-0.245 -0.269,-0.482 -0.421,-0.712l-0.939,-1.554l-151.425,20.263l-56.388,7.543l-3.367,28.096l-0.809,6.96c-0.032,0 -0.032,0 0,0.032l-2.266,18.969l0,0.032l-3.01,25.055l-0.259,-0.033l-83.676,-10.844l-86.233,-11.167l-46.321,-5.988c-21.676,-2.825 -43.603,3.173 -60.823,16.638c-17.969,13.932 -29.605,34.519 -32.272,57.1c-0.291,2.266 -0.486,4.596 -0.583,6.894l-43.699,103.551c-26.149,61.928 -42.802,127.45 -49.396,194.348l-32.046,102.45l4.564,0.421l67.911,6.312l17.933,1.683l39.491,-57.65c4.5,-6.571 8.772,-13.336 12.754,-20.263c6.555,-11.314 12.383,-23.034 17.447,-35.089l85.424,-203.282c6.603,1.133 13.142,2.212 19.616,3.237c29.942,4.855 58.686,8.815 86.233,11.879c89.567,10.003 167.125,10.78 236.169,2.299c19.39,-2.363 38.132,-5.471 56.227,-9.323c6.636,-1.392 13.185,-2.892 19.648,-4.499c1.521,-0.356 3.01,-0.712 4.5,-1.101c27.155,-7.003 48.954,-27.373 57.779,-53.992c5.19,-15.195 5.932,-31.562 2.137,-47.164Z" style="fill:#2f2e41;fill-rule:nonzero;"/><path d="M1618.24,2517.42l-47.68,-22.853l-7.478,-3.593l-11.944,29.327l-83.385,18.354c-9.046,1.983 -15.548,10.065 -15.548,19.326c-0,8.025 4.881,15.289 12.311,18.32l81.475,33.244l25.863,-23.274l-6.344,31.237l30.686,12.527l33.632,-107.047l-11.588,-5.568Z" style="fill:#2f2e41;fill-rule:nonzero;"/><path d="M1911.26,2472.25l3.045,7.704l-3.046,0l0,-7.704Z" style="fill:#2f2e41;fill-rule:nonzero;"/><path d="M1894.66,2481.6l-49.96,17.31l-7.842,2.709l12.148,29.243l-46.337,71.713c-2.073,3.202 -3.177,6.937 -3.177,10.752c0,10.854 8.932,19.785 19.786,19.785c2.601,0 5.177,-0.513 7.579,-1.509l81.285,-33.705l2.002,-34.736l17.471,26.66l30.619,-12.69l-51.422,-99.729l-12.152,4.197Z" style="fill:#2f2e41;fill-rule:nonzero;"/><path d="M2310.89,2044.72c-2.966,-0.005 -5.887,-0.73 -8.512,-2.112l-263.643,-137.76l-3.046,-12.472l-5.742,-39.465l0.079,-0.37l25.074,-115.597c-0.46,-0.993 -1.42,-2.62 -2.505,-4.459c-11.194,-18.966 -45.259,-76.689 19.755,-156.169l114.148,-133.081l97.97,-4.216l1.115,1.408c53.153,66.715 69.459,155.821 43.376,237.036l-10.201,184.237l10.941,37.207c6.396,21.861 5.338,45.241 -3.007,66.435l2.509,60.245c0.009,0.243 0.014,0.485 0.014,0.727c0,10.067 -8.258,18.362 -18.325,18.406l0,0Z" style="fill:#3f3d56;fill-rule:nonzero;"/><path d="M2082.2,2196.66c10.794,-6.376 17.437,-18.016 17.437,-30.552c-0,-8.486 -3.045,-16.697 -8.577,-23.132l63.386,-109.01l-65.424,3.688l-50.162,102.952c-6.829,6.705 -10.68,15.884 -10.68,25.455c-0,19.571 16.105,35.676 35.676,35.676c6.461,0 12.803,-1.755 18.344,-5.077l0,-0Z" style="fill:#ffb7b7;fill-rule:nonzero;"/><path d="M2107.78,2116.51l-58.573,-45.621l106.433,-206.255l-39.881,-262.659c-0.674,-4.444 -1.013,-8.933 -1.013,-13.428c-0,-49.078 40.385,-89.463 89.463,-89.463c0.982,-0 1.963,0.016 2.944,0.048c49.029,1.669 88.029,43.328 86.466,92.36l-9.853,299.073l-175.986,225.945Z" style="fill:#3f3d56;fill-rule:nonzero;"/><path id="f4e08e8b-ef08-4d70-8ad3-b81af8a71ff9-70" d="M2123.66,1387.93l-0,-96.945c-0,-0.027 -0,-0.055 -0,-0.083c-0,-71.263 58.64,-129.904 129.904,-129.904c71.232,-0 129.858,58.589 129.904,129.821l0,0.166c22.896,47.711 8.572,70.394 0,96.945c-0.016,9.563 -7.879,17.426 -17.442,17.442l-224.916,0c-9.565,-0.011 -17.434,-7.876 -17.45,-17.442Z" style="fill:#2f2e41;fill-rule:nonzero;"/><circle cx="2210.97" cy="1301.84" r="97.238" style="fill:#ffb7b7;"/><path d="M2312.73,1327.33c-0.881,-0.139 -1.762,-0.325 -2.644,-0.464c-15.168,-2.69 -30.335,-5.334 -45.456,-8.071l-1.392,-34.277l-18.322,30.705c-41.792,13.869 -80.894,6.031 -117.677,-11.271c-12.132,-5.759 -23.905,-12.25 -35.252,-19.434c6.254,-38.372 29.549,-71.922 63.315,-91.192c1.391,-0.789 2.736,-1.484 4.128,-2.181c0,0 0.001,0 0.001,0c0.025,0 0.045,-0.02 0.045,-0.045c0,-0 0,-0.001 0,-0.001c2.366,-1.113 4.778,-2.18 7.19,-3.154c38.478,-15.037 82.366,-6.528 112.436,21.801c29.685,28.341 43.044,75.142 33.628,117.584Z" style="fill:#2f2e41;fill-rule:nonzero;"/></svg>