<?xml version="1.0" encoding="UTF-8" standalone="no"?><!DOCTYPE svg PUBLIC "-//W3C//DTD SVG 1.1//EN" "http://www.w3.org/Graphics/SVG/1.1/DTD/svg11.dtd"><svg width="100%" height="100%" viewBox="0 0 267 267" version="1.1" xmlns="http://www.w3.org/2000/svg" xmlns:xlink="http://www.w3.org/1999/xlink" xml:space="preserve" xmlns:serif="http://www.serif.com/" style="fill-rule:evenodd;clip-rule:evenodd;stroke-linejoin:round;stroke-miterlimit:2;"><g><path d="M173.617,79.167l6.947,-0c6.858,-0 12.5,5.642 12.5,12.5c0,0.437 -0.022,0.873 -0.068,1.308l-2.713,25.775c-2.474,0 -4.677,-1.615 -5.42,-3.975l-11.246,-35.608Zm-83.334,-0l-11.25,35.608c-0.741,2.36 -2.943,3.976 -5.416,3.975l-2.717,-25.775c-0.046,-0.435 -0.069,-0.871 -0.069,-1.308c0,-6.858 5.643,-12.5 12.5,-12.5l6.952,-0Z" style="fill-rule:nonzero;"/><path d="M93.275,97.658c-0.532,1.046 -1.611,1.708 -2.785,1.708c-1.714,-0 -3.125,-1.411 -3.125,-3.125c0,-0.477 0.109,-0.947 0.318,-1.374c2.477,-5.031 5.558,-9.741 9.175,-14.025c3.555,-4.172 7.78,-7.723 12.5,-10.509c0.493,-0.304 1.061,-0.465 1.641,-0.465c1.714,0 3.125,1.411 3.125,3.125c-0,1.122 -0.604,2.16 -1.578,2.715c-4.128,2.435 -7.822,5.54 -10.929,9.188c-3.289,3.899 -6.091,8.185 -8.342,12.762Zm26.517,-26.825c-1.715,0 -3.125,-1.41 -3.125,-3.125c-0,-1.714 1.41,-3.125 3.125,-3.125c1.714,0 3.125,1.411 3.125,3.125c-0,1.715 -1.411,3.125 -3.125,3.125Z" style="fill:#fff;fill-opacity:0.2;fill-rule:nonzero;"/></g></svg>