<?xml version="1.0" encoding="UTF-8" standalone="no"?><!DOCTYPE svg PUBLIC "-//W3C//DTD SVG 1.1//EN" "http://www.w3.org/Graphics/SVG/1.1/DTD/svg11.dtd"><svg width="100%" height="100%" viewBox="0 0 267 267" version="1.1" xmlns="http://www.w3.org/2000/svg" xmlns:xlink="http://www.w3.org/1999/xlink" xml:space="preserve" xmlns:serif="http://www.serif.com/" style="fill-rule:evenodd;clip-rule:evenodd;stroke-linejoin:round;stroke-miterlimit:2;"><path d="M93.275,97.658c-0.524,1.07 -1.616,1.751 -2.807,1.751c-1.714,0 -3.125,-1.41 -3.125,-3.125c0,-0.492 0.117,-0.978 0.34,-1.417c2.477,-5.031 5.558,-9.741 9.175,-14.025c3.555,-4.172 7.78,-7.723 12.5,-10.509c0.472,-0.268 1.005,-0.41 1.548,-0.41c1.714,0 3.125,1.411 3.125,3.125c-0,1.083 -0.563,2.092 -1.485,2.66c-4.128,2.435 -7.822,5.54 -10.929,9.188c-3.289,3.899 -6.091,8.185 -8.342,12.762Zm26.517,-26.825c-1.715,0 -3.125,-1.41 -3.125,-3.125c-0,-1.714 1.41,-3.125 3.125,-3.125c1.714,0 3.125,1.411 3.125,3.125c-0,1.715 -1.411,3.125 -3.125,3.125Z" style="fill:#fff;fill-opacity:0.2;fill-rule:nonzero;"/></svg>