<?xml version="1.0" encoding="UTF-8" standalone="no"?><!DOCTYPE svg PUBLIC "-//W3C//DTD SVG 1.1//EN" "http://www.w3.org/Graphics/SVG/1.1/DTD/svg11.dtd"><svg width="100%" height="100%" viewBox="0 0 267 267" version="1.1" xmlns="http://www.w3.org/2000/svg" xmlns:xlink="http://www.w3.org/1999/xlink" xml:space="preserve" xmlns:serif="http://www.serif.com/" style="fill-rule:evenodd;clip-rule:evenodd;stroke-linejoin:round;stroke-miterlimit:2;"><path d="M79.15,90.85c8.596,-21.5 29.617,-36.683 54.183,-36.683c24.567,-0 45.584,15.187 54.184,36.683c0.329,0.263 0.654,0.529 0.979,0.8c0.702,0.576 1.197,1.367 1.408,2.25l2.613,11c0.036,0.155 0.054,0.314 0.054,0.473c0,1.143 -0.94,2.084 -2.083,2.084c-0.428,-0 -0.846,-0.132 -1.196,-0.378c-18.505,-13.054 -37.159,-19.579 -55.959,-19.579c-18.804,0 -37.437,6.529 -55.904,19.592c-0.351,0.247 -0.77,0.38 -1.2,0.38c-1.143,-0 -2.083,-0.94 -2.083,-2.083c-0,-0.159 0.018,-0.318 0.054,-0.472l2.567,-11c0.206,-0.893 0.701,-1.693 1.408,-2.275l0.975,-0.792Z" style="fill-rule:nonzero;"/><path d="M133.333,70.833c19.913,0 38.3,6.938 55.167,20.817c0.701,0.577 1.194,1.367 1.404,2.25l2.613,11c0.036,0.155 0.054,0.314 0.054,0.473c0,1.143 -0.94,2.084 -2.083,2.084c-0.428,-0 -0.846,-0.132 -1.196,-0.378c-18.505,-13.054 -37.159,-19.579 -55.959,-19.579c-18.804,0 -37.437,6.529 -55.904,19.592c-0.351,0.247 -0.77,0.38 -1.2,0.38c-1.143,-0 -2.083,-0.94 -2.083,-2.083c-0,-0.159 0.018,-0.318 0.054,-0.472l2.567,-11c0.206,-0.893 0.701,-1.693 1.408,-2.275c16.867,-13.875 35.25,-20.809 55.158,-20.809Z" style="fill-opacity:0.25;fill-rule:nonzero;"/></svg>