<?xml version="1.0" encoding="UTF-8" standalone="no"?><!DOCTYPE svg PUBLIC "-//W3C//DTD SVG 1.1//EN" "http://www.w3.org/Graphics/SVG/1.1/DTD/svg11.dtd"><svg width="100%" height="100%" viewBox="0 0 267 267" version="1.1" xmlns="http://www.w3.org/2000/svg" xmlns:xlink="http://www.w3.org/1999/xlink" xml:space="preserve" xmlns:serif="http://www.serif.com/" style="fill-rule:evenodd;clip-rule:evenodd;stroke-linejoin:round;stroke-miterlimit:2;"><path d="M191.667,116.667c-9.071,-10.079 -15.217,-23.084 -18.438,-39.013c-9.383,15.059 -21.987,25.979 -37.812,32.763c-19.446,8.333 -39.584,9.721 -60.417,4.166l-0,2.196c-2.982,0.329 -5.841,1.372 -8.333,3.042l-0,-5.238c-0,-37.97 29.845,-68.75 66.666,-68.75c36.821,0 66.667,30.78 66.667,68.75l-0,5.242c-2.492,-1.67 -5.351,-2.713 -8.333,-3.042l-0,-0.116Zm-37.5,88.804l-0,-13.467c16.916,-6.489 29.89,-20.484 35.083,-37.841l0.333,0.004c3.709,0.005 7.336,-1.095 10.417,-3.159l-0,44.825c-12.971,5.046 -28.25,8.259 -45.833,9.638Zm-41.667,-0c-17.583,-1.379 -32.863,-4.592 -45.833,-9.638l-0,-44.825c3.175,2.127 6.928,3.229 10.75,3.155c5.192,17.357 18.167,31.352 35.083,37.841l-0,13.467Z" style="fill-rule:nonzero;"/></svg>