<?xml version="1.0" encoding="UTF-8" standalone="no"?><!DOCTYPE svg PUBLIC "-//W3C//DTD SVG 1.1//EN" "http://www.w3.org/Graphics/SVG/1.1/DTD/svg11.dtd"><svg width="100%" height="100%" viewBox="0 0 267 267" version="1.1" xmlns="http://www.w3.org/2000/svg" xmlns:xlink="http://www.w3.org/1999/xlink" xml:space="preserve" xmlns:serif="http://www.serif.com/" style="fill-rule:evenodd;clip-rule:evenodd;stroke-linejoin:round;stroke-miterlimit:2;"><path d="M191.667,116.667c-5.884,-6.542 -10.542,-14.309 -13.959,-23.313c-13.3,4.525 -28.091,6.788 -44.375,6.788c-20.2,-0 -38.104,-3.484 -53.708,-10.442c-3.062,7.211 -4.635,14.966 -4.625,22.8l0,4.279c-2.982,0.329 -5.841,1.372 -8.333,3.042l-0,-5.729c-0,-37.7 29.846,-68.259 66.666,-68.259c36.821,0 66.667,30.559 66.667,68.259l0,5.733c-2.492,-1.67 -5.351,-2.713 -8.333,-3.042l-0,-0.116Zm-37.5,83.587l-0,-8.254c16.914,-6.487 29.888,-20.479 35.083,-37.833l0.333,-0c3.709,0.005 7.336,-1.095 10.417,-3.159l0,26.567c0,1.987 -0.083,3.954 -0.246,5.896c-15.196,8.516 -30.391,14.108 -45.587,16.783Zm-41.667,-0.004c-15.196,-2.667 -30.392,-8.262 -45.587,-16.779c-0.164,-1.961 -0.246,-3.928 -0.246,-5.896l-0,-26.567c3.175,2.127 6.928,3.229 10.75,3.155c5.192,17.357 18.167,31.352 35.083,37.841l0,8.246Z" style="fill-rule:nonzero;"/></svg>