<?xml version="1.0" encoding="UTF-8" standalone="no"?><!DOCTYPE svg PUBLIC "-//W3C//DTD SVG 1.1//EN" "http://www.w3.org/Graphics/SVG/1.1/DTD/svg11.dtd"><svg width="100%" height="100%" viewBox="0 0 267 267" version="1.1" xmlns="http://www.w3.org/2000/svg" xmlns:xlink="http://www.w3.org/1999/xlink" xml:space="preserve" xmlns:serif="http://www.serif.com/" style="fill-rule:evenodd;clip-rule:evenodd;stroke-linejoin:round;stroke-miterlimit:2;"><g><g><path d="M133.333,79.175c16.171,0 31.45,-1.567 45.834,17.575l-7.917,27.054c-2.546,5.113 -6.817,6.492 -10.262,3.313c-8.709,-8.038 -17.926,-12.054 -27.655,-12.054c-9.729,-0 -18.945,4.016 -27.654,12.054c-3.446,3.179 -7.716,1.8 -10.258,-3.313l-7.921,-27.054c14.383,-19.142 29.663,-17.575 45.833,-17.575Z" style="fill-opacity:0.2;fill-rule:nonzero;"/><path d="M122.05,55.025c2.07,-4.343 6.472,-7.121 11.283,-7.121c4.812,0 9.213,2.778 11.284,7.121c25.416,3.988 45.037,21.817 47.05,52.963c-5.356,-2.221 -10.872,-4.034 -16.5,-5.425l-3.917,2.508c-2.536,2.96 -6.826,3.765 -10.263,1.925c-8.708,-4.667 -17.924,-6.996 -27.654,-6.996c-9.729,0 -18.945,2.333 -27.654,6.996c-3.435,1.838 -7.723,1.033 -10.258,-1.925l-3.917,-2.508c-5.63,1.39 -11.147,3.204 -16.504,5.424c2.013,-31.145 21.633,-48.975 47.05,-52.958l0,-0.004Z" style="fill-rule:nonzero;"/><path d="M91.5,102.563c-5.629,1.391 -11.144,3.204 -16.5,5.425c2.304,-35.625 27.633,-53.821 58.333,-53.821c30.7,-0 56.03,18.2 58.334,53.821c-5.356,-2.221 -10.872,-4.034 -16.5,-5.425l4,-2.563c-14.384,-11.112 -29.663,-16.667 -45.834,-16.667c-16.17,0 -31.45,5.555 -45.833,16.667l4,2.563Z" style="fill-opacity:0.28;fill-rule:nonzero;"/></g><path d="M172.7,104.142l-1.454,0.929c-2.535,2.958 -6.823,3.763 -10.258,1.925c-8.709,-4.667 -17.926,-6.996 -27.655,-6.996c-9.729,0 -18.945,2.333 -27.654,6.996c-3.435,1.838 -7.723,1.033 -10.258,-1.925l-1.454,-0.929c3.608,0.283 9.095,-1.996 11.712,-3.396c8.708,-4.667 17.925,-6.996 27.654,-6.996c9.729,0 18.946,2.333 27.654,6.996c2.617,1.4 8.105,3.679 11.713,3.396Z" style="fill:#fff;fill-opacity:0.2;fill-rule:nonzero;"/></g></svg>