<?xml version="1.0" encoding="UTF-8" standalone="no"?><!DOCTYPE svg PUBLIC "-//W3C//DTD SVG 1.1//EN" "http://www.w3.org/Graphics/SVG/1.1/DTD/svg11.dtd"><svg width="100%" height="100%" viewBox="0 0 267 267" version="1.1" xmlns="http://www.w3.org/2000/svg" xmlns:xlink="http://www.w3.org/1999/xlink" xml:space="preserve" xmlns:serif="http://www.serif.com/" style="fill-rule:evenodd;clip-rule:evenodd;stroke-linejoin:round;stroke-miterlimit:2;"><path d="M191.667,116.667c-0.03,-0.032 -0.059,-0.064 -0.088,-0.096c-0.424,0.066 -0.852,0.099 -1.281,0.099c-4.571,-0 -8.333,-3.762 -8.333,-8.333c0,-1.27 0.29,-2.522 0.847,-3.662c-0.984,0.394 -2.035,0.597 -3.096,0.597c-4.572,-0 -8.334,-3.762 -8.334,-8.334c0,-0.331 0.02,-0.663 0.06,-0.992c-1.325,3.026 -4.33,4.991 -7.634,4.991c-2.328,-0 -4.552,-0.975 -6.129,-2.687l-0.05,0.021l0,0.176c0,4.572 -3.762,8.334 -8.333,8.334c-3.034,-0 -5.837,-1.657 -7.3,-4.314c-0.403,4.257 -4.02,7.549 -8.297,7.549c-3.754,-0 -7.066,-2.537 -8.045,-6.162c-1.23,3.221 -4.337,5.36 -7.785,5.36c-4.39,-0 -8.065,-3.469 -8.319,-7.851c-0.182,-0.031 -0.364,-0.061 -0.546,-0.092c-1.534,2.369 -4.172,3.804 -6.995,3.804c-4.405,-0 -8.088,-3.493 -8.321,-7.892c-1.163,-0.427 -2.316,-0.88 -3.459,-1.358c0.049,0.367 0.074,0.738 0.074,1.109c0,4.571 -3.762,8.333 -8.333,8.333c-1.06,-0 -2.111,-0.202 -3.095,-0.596c0.556,1.139 0.845,2.39 0.845,3.657c0,3.197 -1.839,6.123 -4.72,7.51l0,0.941c-9.475,1.022 -16.74,9.113 -16.74,18.642c0,10.286 8.465,18.75 18.75,18.75c0.136,0 0.271,-0.001 0.407,-0.004c5.194,17.356 18.168,31.349 35.083,37.837l0,12.758c-1.03,-0.817 -1.944,-1.77 -2.717,-2.833c-2.016,-0.571 -4.004,-1.208 -5.958,-1.917c-3.695,1.364 -7.792,1.157 -11.329,-0.575c-3.69,-1.793 -6.445,-5.078 -7.567,-9.025c-1.399,-0.941 -2.77,-1.924 -4.112,-2.945c-4.178,0.459 -8.355,-0.93 -11.425,-3.8c-3.296,-3.068 -4.973,-7.507 -4.529,-11.988c-0.709,-0.904 -1.392,-1.825 -2.063,-2.754c-4.539,-0.525 -8.569,-3.175 -10.85,-7.133c-2.487,-4.304 -2.585,-9.6 -0.258,-13.992c-0.192,-0.542 -0.384,-1.083 -0.567,-1.625c-5.831,-1.997 -9.773,-7.514 -9.773,-13.678c-0,-4.326 1.942,-8.432 5.286,-11.176l-0,-0.038c-4.372,-2.604 -7.058,-7.332 -7.058,-12.42c0,-5.873 3.579,-11.187 9.02,-13.396c-2.411,-2.659 -3.748,-6.123 -3.748,-9.712c0,-7.464 5.779,-13.763 13.215,-14.405c-0.896,-1.916 -1.36,-4.006 -1.36,-6.122c-0,-7.931 6.527,-14.458 14.458,-14.458c1.026,0 2.049,0.109 3.052,0.326c-0.092,-0.661 -0.139,-1.327 -0.139,-1.994c0,-7.932 6.527,-14.459 14.459,-14.459c2.483,0 4.924,0.64 7.088,1.857c1.133,-6.968 7.211,-12.139 14.271,-12.139c3.962,0 7.755,1.629 10.483,4.501c2.437,-4.915 7.469,-8.037 12.954,-8.037c5.486,0 10.518,3.122 12.955,8.037c2.728,-2.872 6.521,-4.501 10.483,-4.501c7.059,0 13.138,5.171 14.271,12.139c2.164,-1.217 4.605,-1.857 7.088,-1.857c7.931,0 14.458,6.527 14.458,14.459c0,0.667 -0.046,1.333 -0.138,1.994c1.002,-0.216 2.024,-0.325 3.049,-0.325c7.932,-0 14.459,6.526 14.459,14.458c-0,2.114 -0.464,4.202 -1.358,6.117c7.437,0.64 13.218,6.94 13.218,14.405c-0,3.591 -1.338,7.056 -3.751,9.716c5.441,2.209 9.019,7.523 9.019,13.396c0,5.088 -2.686,9.816 -7.057,12.42l0,0.042c3.344,2.745 5.286,6.85 5.286,11.176c-0,6.164 -3.942,11.681 -9.773,13.678c-0.184,0.542 -0.375,1.083 -0.567,1.621c2.327,4.392 2.229,9.688 -0.258,13.992c-2.282,3.958 -6.312,6.608 -10.85,7.133c-0.667,0.929 -1.359,1.85 -2.063,2.754c0.444,4.481 -1.233,8.92 -4.529,11.988c-3.071,2.87 -7.247,4.259 -11.425,3.8c-1.342,1.02 -2.713,2 -4.112,2.945c-1.123,3.947 -3.877,7.232 -7.567,9.025c-3.538,1.732 -7.635,1.939 -11.329,0.575c-1.954,0.709 -3.942,1.346 -5.959,1.917c-0.773,1.063 -1.687,2.016 -2.716,2.833l-0,-12.758c16.916,-6.489 29.89,-20.484 35.083,-37.841l0.333,0.004c0.011,-0 0.022,-0 0.033,-0c10.286,-0 18.75,-8.464 18.75,-18.75c0,-9.515 -7.242,-17.597 -16.699,-18.638l-0,-0.112Z" style="fill-rule:nonzero;"/></svg>