<?xml version="1.0" encoding="UTF-8" standalone="no"?><!DOCTYPE svg PUBLIC "-//W3C//DTD SVG 1.1//EN" "http://www.w3.org/Graphics/SVG/1.1/DTD/svg11.dtd"><svg width="100%" height="100%" viewBox="0 0 267 267" version="1.1" xmlns="http://www.w3.org/2000/svg" xmlns:xlink="http://www.w3.org/1999/xlink" xml:space="preserve" xmlns:serif="http://www.serif.com/" style="fill-rule:evenodd;clip-rule:evenodd;stroke-linejoin:round;stroke-miterlimit:2;"><g><path d="M185.6,86.571c-9.542,-19.208 -29.362,-32.404 -52.267,-32.404c-22.904,-0 -42.725,13.2 -52.266,32.404c-1.564,-3.428 -0.617,-7.51 2.295,-9.9l0,-0.021c-2.519,-1.501 -4.067,-4.226 -4.067,-7.159c0,-3.384 2.061,-6.446 5.197,-7.72c-1.392,-1.533 -2.164,-3.531 -2.164,-5.601c0,-4.304 3.334,-7.936 7.622,-8.303c-0.517,-1.105 -0.784,-2.31 -0.784,-3.53c-0,-4.571 3.761,-8.333 8.333,-8.333c0.591,-0 1.181,0.063 1.759,0.188c-0.053,-0.381 -0.079,-0.765 -0.079,-1.149c-0,-4.571 3.762,-8.333 8.333,-8.333c1.43,-0 2.837,0.368 4.084,1.069c0.652,-4.017 4.156,-6.997 8.225,-6.997c2.285,-0 4.473,0.94 6.046,2.597c1.404,-2.833 4.304,-4.633 7.466,-4.633c3.162,0 6.063,1.8 7.467,4.633c1.573,-1.657 3.76,-2.597 6.045,-2.597c4.07,-0 7.574,2.98 8.226,6.997c1.247,-0.701 2.654,-1.069 4.084,-1.069c4.572,-0 8.333,3.761 8.333,8.333c0,0.386 -0.026,0.771 -0.08,1.153c0.579,-0.125 1.17,-0.189 1.762,-0.189c4.572,0 8.333,3.762 8.333,8.334c0,1.218 -0.267,2.422 -0.782,3.526c4.286,0.369 7.618,4 7.618,8.302c-0,2.071 -0.772,4.069 -2.164,5.602c3.137,1.273 5.199,4.336 5.199,7.721c0,2.932 -1.547,5.656 -4.066,7.158l0,0.021c2.911,2.391 3.856,6.473 2.292,9.9Z" style="fill-rule:nonzero;"/><path d="M191.392,106.8c-8.775,-21.117 -29.6,-35.967 -53.892,-35.967l-8.333,0c-24.292,0 -45.117,14.85 -53.892,35.967c2.862,-29.542 27.767,-52.633 58.058,-52.633c30.292,-0 55.196,23.091 58.059,52.633Z" style="fill:#f55d81;fill-rule:nonzero;"/></g></svg>