<?xml version="1.0" encoding="UTF-8" standalone="no"?><!DOCTYPE svg PUBLIC "-//W3C//DTD SVG 1.1//EN" "http://www.w3.org/Graphics/SVG/1.1/DTD/svg11.dtd"><svg width="100%" height="100%" viewBox="0 0 267 267" version="1.1" xmlns="http://www.w3.org/2000/svg" xmlns:xlink="http://www.w3.org/1999/xlink" xml:space="preserve" xmlns:serif="http://www.serif.com/" style="fill-rule:evenodd;clip-rule:evenodd;stroke-linejoin:round;stroke-miterlimit:2;"><path d="M140.8,37.5c1.088,-3.463 4.32,-5.835 7.95,-5.835c3.63,0 6.862,2.372 7.95,5.835l2.325,0c1.32,-3.037 4.331,-5.011 7.642,-5.011c4.369,-0 8.034,3.435 8.316,7.794c0.313,0.125 0.625,0.263 0.934,0.396c1.497,-1.249 3.387,-1.933 5.336,-1.933c4.572,0 8.334,3.762 8.334,8.333c-0,1.09 -0.214,2.168 -0.629,3.175l0.634,0.746c0.545,-0.11 1.099,-0.166 1.655,-0.166c4.572,-0 8.334,3.762 8.334,8.333c-0,2.283 -0.938,4.469 -2.593,6.041c0.175,0.65 0.333,1.309 0.475,1.971c3.272,1.202 5.46,4.336 5.46,7.822c-0,3.458 -2.152,6.572 -5.385,7.795l-0.196,1.35c2.893,1.381 4.742,4.314 4.742,7.52c0,3.242 -1.892,6.202 -4.834,7.563c0.478,1.121 0.705,2.333 0.663,3.55c1.081,1.335 1.671,3.002 1.671,4.721c0,3.834 -2.94,7.082 -6.755,7.463l-1.162,7.954c-1.834,-2.746 -3.509,-6.167 -5.038,-10.271c-0.881,-0.932 -1.508,-2.074 -1.821,-3.317c-3.588,-2.502 -4.623,-7.427 -2.345,-11.162c-0.031,-0.136 -0.062,-0.273 -0.092,-0.409c-3.184,-1.249 -5.29,-4.337 -5.29,-7.757c-0,-1.587 0.453,-3.142 1.306,-4.48c-3.283,1.939 -7.5,1.381 -10.166,-1.346c-1.216,3.248 -4.337,5.413 -7.805,5.413c-3.376,-0 -6.433,-2.051 -7.712,-5.175l-1.3,0.133c-1.313,3.052 -4.332,5.04 -7.655,5.04c-2.984,-0 -5.75,-1.604 -7.232,-4.194l-0.959,0.012c-1.484,2.583 -4.245,4.18 -7.224,4.18c-3.146,-0 -6.034,-1.781 -7.446,-4.592c-0.57,-0.04 -1.14,-0.083 -1.709,-0.129c-1.385,2.883 -4.313,4.725 -7.512,4.725c-3.468,-0 -6.589,-2.165 -7.804,-5.413c-1.565,1.598 -3.709,2.499 -5.946,2.499c-2.655,0 -5.156,-1.271 -6.721,-3.416c-0.031,0.216 -0.063,0.431 -0.096,0.646c1.69,1.576 2.651,3.785 2.651,6.096c0,3.529 -2.242,6.693 -5.572,7.863c0.918,1.371 1.409,2.985 1.409,4.635c-0,4.157 -3.11,7.71 -7.23,8.26c-2.172,4.217 -4.63,8.279 -7.358,12.159l-0.783,-8.013c-3.618,-0.584 -6.305,-3.739 -6.305,-7.404c0,-3.131 1.96,-5.946 4.896,-7.033l-0.05,-0.525c-4.173,-0.495 -7.352,-4.073 -7.352,-8.276c0,-3.604 2.339,-6.819 5.769,-7.928l-0.054,-0.6c-3.807,-0.839 -6.542,-4.241 -6.542,-8.139c0,-4.003 2.885,-7.468 6.821,-8.195c0.054,-0.246 0.111,-0.492 0.171,-0.737c-2.287,-1.549 -3.66,-4.138 -3.66,-6.9c0,-4.571 3.762,-8.333 8.334,-8.333c0.472,0 0.944,0.04 1.409,0.12c-0.378,-0.967 -0.572,-1.997 -0.572,-3.036c-0,-4.571 3.761,-8.333 8.333,-8.333c1.809,0 3.569,0.589 5.014,1.678c-0.007,-0.146 -0.011,-0.292 -0.011,-0.438c-0,-4.571 3.761,-8.333 8.333,-8.333c3.325,0 6.345,1.99 7.657,5.046c0.073,-0.005 0.145,-0.009 0.217,-0.013c1.08,-3.476 4.318,-5.861 7.958,-5.861c3.63,0 6.862,2.373 7.95,5.836l0.767,0c1.088,-3.463 4.32,-5.835 7.95,-5.835c3.63,0 6.862,2.372 7.95,5.835l1.6,0Z" style="fill-rule:nonzero;"/></svg>