<?xml version="1.0" encoding="UTF-8" standalone="no"?><!DOCTYPE svg PUBLIC "-//W3C//DTD SVG 1.1//EN" "http://www.w3.org/Graphics/SVG/1.1/DTD/svg11.dtd"><svg width="100%" height="100%" viewBox="0 0 267 267" version="1.1" xmlns="http://www.w3.org/2000/svg" xmlns:xlink="http://www.w3.org/1999/xlink" xml:space="preserve" xmlns:serif="http://www.serif.com/" style="fill-rule:evenodd;clip-rule:evenodd;stroke-linejoin:round;stroke-miterlimit:2;"><g><path d="M191.667,116.667c-7.529,-8.367 -13.042,-18.75 -16.542,-31.142c-7.792,9.513 -18.942,15.029 -33.458,16.558c-24.3,2.559 -45.071,-1.362 -62.304,-11.758c-2.891,7.035 -4.373,14.569 -4.363,22.175l0,4.279c-2.982,0.329 -5.841,1.372 -8.333,3.042l-0,-5.238c-0,-37.97 29.846,-68.75 66.666,-68.75c36.821,0 66.667,30.78 66.667,68.75l0,5.242c-2.492,-1.67 -5.351,-2.713 -8.333,-3.042l-0,-0.116Zm8.333,34.337l0,27.521c0,30.467 -19.217,56.304 -45.833,65.329l-0,-51.854c16.916,-6.489 29.89,-20.484 35.083,-37.842l0.333,0.004c3.709,0.006 7.336,-1.094 10.417,-3.158Zm-86.958,93.029c-26.896,-8.854 -46.375,-34.833 -46.375,-65.508l-0,-27.517c3.175,2.127 6.928,3.229 10.75,3.154c5.192,17.358 18.167,31.353 35.083,37.842l0,22.767c0.213,9.816 0.396,19.571 0.542,29.262Z" style="fill:#e16381;fill-rule:nonzero;"/><path d="M191.667,116.667c-7.529,-8.367 -13.042,-18.75 -16.542,-31.142c-7.792,9.513 -18.942,15.029 -33.458,16.558c-24.3,2.559 -45.071,-1.362 -62.304,-11.758c-2.891,7.035 -4.373,14.569 -4.363,22.175l0,4.279c-2.982,0.329 -5.841,1.372 -8.333,3.042l-0,-5.238c-0,-37.97 29.846,-68.75 66.666,-68.75c36.821,0 66.667,30.78 66.667,68.75l0,5.242c-2.492,-1.67 -5.351,-2.713 -8.333,-3.042l-0,-0.116Z" style="fill:#fff;fill-opacity:0.26;fill-rule:nonzero;"/></g></svg>