<?xml version="1.0" encoding="UTF-8" standalone="no"?><!DOCTYPE svg PUBLIC "-//W3C//DTD SVG 1.1//EN" "http://www.w3.org/Graphics/SVG/1.1/DTD/svg11.dtd"><svg width="100%" height="100%" viewBox="0 0 267 267" version="1.1" xmlns="http://www.w3.org/2000/svg" xmlns:xlink="http://www.w3.org/1999/xlink" xml:space="preserve" xmlns:serif="http://www.serif.com/" style="fill-rule:evenodd;clip-rule:evenodd;stroke-linejoin:round;stroke-miterlimit:2;"><g><path d="M191.667,112.5l-0,8.333c-5.513,-14.641 -12.75,-22.454 -15.663,-25c-4.367,-3.82 -10.325,-7.479 -13.958,-15.546c-2.375,-5.283 -1.975,-12.249 -1.638,-19.47c19.196,10.056 31.266,30.013 31.259,51.683Zm-116.667,0l0,8.333c5.513,-14.641 12.75,-22.454 15.663,-25c4.366,-3.82 10.325,-7.479 13.958,-15.546c2.375,-5.283 1.975,-12.249 1.637,-19.47c-19.195,10.056 -31.265,30.013 -31.258,51.683Z" style="fill:url(#_Linear1);fill-rule:nonzero;"/><path d="M116.571,55.108l50.096,-5.108c0.968,2.905 1.461,5.947 1.461,9.008c0,15.63 -12.861,28.492 -28.491,28.492l-25.9,0c-6.857,0 -12.499,-5.643 -12.499,-12.5l-0.001,-2.917c0.002,-8.709 6.67,-16.09 15.334,-16.975Z" style="fill-rule:nonzero;"/></g><defs><linearGradient id="_Linear1" x1="0" y1="0" x2="1" y2="0" gradientUnits="userSpaceOnUse" gradientTransform="matrix(3.67496e-15,60.0167,-60.0167,3.67496e-15,133.333,60.8167)"><stop offset="0" style="stop-color:#000;stop-opacity:1"/><stop offset="1" style="stop-color:#000;stop-opacity:0"/></linearGradient></defs></svg>