<?xml version="1.0" encoding="UTF-8" standalone="no"?><!DOCTYPE svg PUBLIC "-//W3C//DTD SVG 1.1//EN" "http://www.w3.org/Graphics/SVG/1.1/DTD/svg11.dtd"><svg width="100%" height="100%" viewBox="0 0 267 267" version="1.1" xmlns="http://www.w3.org/2000/svg" xmlns:xlink="http://www.w3.org/1999/xlink" xml:space="preserve" xmlns:serif="http://www.serif.com/" style="fill-rule:evenodd;clip-rule:evenodd;stroke-linejoin:round;stroke-miterlimit:2;"><g><path d="M133.475,41.667c11.442,-0 17.571,5.987 20.175,8.55c2.346,2.25 4.033,5.471 4.633,8.916l2.763,17.375c1.475,8.092 -2.909,15.271 -10.525,17.025c-6.771,1.534 -12.521,2.3 -17.188,2.3c-4.716,0 -10.637,-0.8 -17.683,-2.4c-7.633,-1.762 -11.808,-9.166 -9.896,-17.27l3.275,-17.5c0.654,-3.035 2.149,-5.825 4.313,-8.05c2.6,-2.675 8.691,-8.946 20.133,-8.946Z" style="fill-rule:nonzero;"/><path d="M153.65,50.217c2.346,2.25 4.033,5.471 4.633,8.916l2.763,17.375c1.475,8.092 -2.909,15.271 -10.525,17.025c-6.771,1.534 -12.521,2.3 -17.188,2.3c-4.716,0 -10.637,-0.8 -17.683,-2.4c-7.633,-1.762 -11.808,-9.166 -9.896,-17.27l3.275,-17.5c0.654,-3.035 2.149,-5.825 4.313,-8.05c1.57,-1.685 3.316,-3.196 5.208,-4.509c-1.317,2.034 -6.05,4.113 -6.05,10.146l-0,14.583c-1.342,6.855 3.042,13.142 8.404,14.638c4.946,1.354 9.108,2.029 12.421,2.029c3.279,0 7.321,-0.65 12.075,-1.946c5.354,-1.483 9.8,-7.875 8.767,-14.721l-0,-12.5c-0,-6.25 -4.605,-10.6 -6.25,-12.5c-0.176,-0.206 -0.365,-0.401 -0.567,-0.583c3.025,1.75 5.063,3.75 6.3,4.967Z" style="fill:#fff;fill-opacity:0.26;fill-rule:nonzero;"/></g></svg>