<?xml version="1.0" encoding="UTF-8" standalone="no"?><!DOCTYPE svg PUBLIC "-//W3C//DTD SVG 1.1//EN" "http://www.w3.org/Graphics/SVG/1.1/DTD/svg11.dtd"><svg width="100%" height="100%" viewBox="0 0 267 267" version="1.1" xmlns="http://www.w3.org/2000/svg" xmlns:xlink="http://www.w3.org/1999/xlink" xml:space="preserve" xmlns:serif="http://www.serif.com/" style="fill-rule:evenodd;clip-rule:evenodd;stroke-linejoin:round;stroke-miterlimit:2;"><g><path d="M170.838,57.65c0.233,-11.167 9.541,-20.15 20.995,-20.15c11.596,0 21,9.213 21,20.583c0,0.33 -0.012,0.659 -0.029,0.988c0.075,13.337 2.95,29.5 8.034,40.929c-9.4,-2.525 -18.059,-6.75 -25.917,-12.096c3.369,8.319 5.094,17.213 5.079,26.188l0,5.733c-2.492,-1.67 -5.351,-2.713 -8.333,-3.042l-0,-0.116c-7.529,-8.367 -13.042,-18.75 -16.542,-31.142c-7.792,9.513 -18.942,15.029 -33.458,16.558c-24.3,2.559 -45.071,-1.362 -62.304,-11.758c-2.891,7.035 -4.373,14.569 -4.363,22.175l0,4.279c-2.982,0.329 -5.841,1.372 -8.333,3.042l-0,-5.729c-0,-9.279 1.808,-18.125 5.083,-26.188c-7.858,5.346 -16.517,9.571 -25.917,12.096c5.084,-11.429 7.959,-27.592 8.034,-40.929c-0.017,-0.33 -0.025,-0.661 -0.025,-0.992c-0,-11.366 9.4,-20.579 20.991,-20.579c11.45,0 20.759,8.983 20.992,20.15c10.688,-7.458 23.6,-11.817 37.508,-11.817c13.909,0 26.821,4.359 37.505,11.817Z" style="fill:#362c47;fill-rule:nonzero;"/><path d="M170.888,56.592c17.5,12.346 29.112,34.104 29.112,58.883l0,4.35c-2.492,-1.67 -5.351,-2.713 -8.333,-3.042l-0,-0.116c-7.529,-8.367 -13.042,-18.75 -16.542,-31.142c-7.792,9.513 -18.942,15.029 -33.458,16.558c-24.3,2.559 -45.071,-1.362 -62.304,-11.758c-2.891,7.035 -4.373,14.569 -4.363,22.175l0,4.279c-2.982,0.329 -5.841,1.372 -8.333,3.042l-0,-4.346c-0,-24.779 11.616,-46.542 29.112,-58.883c0.025,0.35 0.042,0.704 0.05,1.058c10.684,-7.458 23.596,-11.817 37.504,-11.817c13.909,0 26.821,4.359 37.505,11.817c0.008,-0.354 0.025,-0.708 0.05,-1.058Z" style="fill:#fff;fill-opacity:0.26;fill-rule:nonzero;"/><path d="M75,66.667c-0,-0.001 -0,-0.001 -0,-0.001c-0,-11.429 9.405,-20.833 20.833,-20.833c4.797,-0 9.45,1.656 13.167,4.688c-12.942,5.2 -23.912,14.417 -31.437,26.162c-1.686,-3.069 -2.568,-6.515 -2.563,-10.016Zm95.833,-20.834c0.002,0 0.003,0 0.004,0c11.429,0 20.833,9.405 20.833,20.834c0,3.501 -0.882,6.946 -2.566,10.016c-7.525,-11.741 -18.5,-20.962 -31.437,-26.162c3.714,-3.038 8.369,-4.695 13.166,-4.688Z" style="fill:#f55d81;fill-rule:nonzero;"/></g></svg>