<?xml version="1.0" encoding="UTF-8" standalone="no"?><!DOCTYPE svg PUBLIC "-//W3C//DTD SVG 1.1//EN" "http://www.w3.org/Graphics/SVG/1.1/DTD/svg11.dtd"><svg width="100%" height="100%" viewBox="0 0 267 267" version="1.1" xmlns="http://www.w3.org/2000/svg" xmlns:xlink="http://www.w3.org/1999/xlink" xml:space="preserve" xmlns:serif="http://www.serif.com/" style="fill-rule:evenodd;clip-rule:evenodd;stroke-linejoin:round;stroke-miterlimit:2;"><g><path d="M74.125,114.825l-2.967,-27.458c-0.145,-1.34 -0.217,-2.686 -0.217,-4.034c-0,-20.57 16.926,-37.498 37.497,-37.5l70.729,0c0.004,5.198 -1.045,10.344 -3.084,15.125c13.391,6.013 21.242,20.265 19.167,34.796l-3.583,25.079l-0.009,-0.004l0,17.592c-0.07,4.813 -0.737,9.6 -1.983,14.25l-10.513,2.246c-0.286,0.061 -0.578,0.092 -0.871,0.092c-2.285,-0 -4.166,-1.881 -4.166,-4.167c-0,-0.286 0.029,-0.571 0.087,-0.85l7.913,-37.975c-6.558,-8.721 -11.158,-21.842 -13.808,-39.355c-6.296,6.525 -14.699,10.621 -23.717,11.559c-7.596,0.796 -14.129,1.196 -19.6,1.196c-12.5,-0 -23.613,-2.084 -33.333,-6.25c-0,10.791 -2.775,21.241 -8.321,31.345l8.225,39.48c0.058,0.279 0.088,0.564 0.088,0.85c-0,2.286 -1.881,4.167 -4.167,4.167c-0.293,-0 -0.585,-0.031 -0.871,-0.092l-10.509,-2.242c-1.248,-4.651 -1.915,-9.439 -1.987,-14.254l-0,-23.596Z" style="fill-rule:nonzero;"/><path d="M83.346,110.513l8.225,39.479c0.058,0.279 0.088,0.564 0.088,0.85c-0,2.286 -1.881,4.167 -4.167,4.167c-0.293,-0 -0.585,-0.031 -0.871,-0.092l-10.508,-2.242c-1.249,-4.651 -1.916,-9.439 -1.988,-14.254l0,-23.6l-2.967,-27.459c-0.144,-1.338 -0.217,-2.683 -0.217,-4.029c0,-20.57 16.926,-37.498 37.497,-37.5l70.729,0c0.011,10.011 -3.884,19.641 -10.85,26.829c-6.296,6.525 -14.699,10.621 -23.717,11.559c-7.596,0.796 -14.129,1.196 -19.6,1.196c-12.5,-0 -23.613,-2.084 -33.333,-6.25c-0,10.791 -2.775,21.241 -8.321,31.345Zm108.312,10.317l0,17.592c-0.07,4.813 -0.737,9.6 -1.983,14.25l-10.512,2.246c-0.287,0.061 -0.579,0.092 -0.872,0.092c-2.285,-0 -4.166,-1.881 -4.166,-4.167c-0,-0.286 0.029,-0.571 0.088,-0.85l7.912,-37.975c-4.787,-6.367 -8.529,-15.075 -11.233,-26.125c6.632,-4.605 11.66,-11.172 14.375,-18.775c7.776,7.35 11.504,18.045 9.983,28.637l-3.583,25.079l-0.009,-0.004Z" style="fill:#fff;fill-opacity:0.26;fill-rule:nonzero;"/></g></svg>