<?xml version="1.0" encoding="UTF-8" standalone="no"?><!DOCTYPE svg PUBLIC "-//W3C//DTD SVG 1.1//EN" "http://www.w3.org/Graphics/SVG/1.1/DTD/svg11.dtd"><svg width="100%" height="100%" viewBox="0 0 267 267" version="1.1" xmlns="http://www.w3.org/2000/svg" xmlns:xlink="http://www.w3.org/1999/xlink" xml:space="preserve" xmlns:serif="http://www.serif.com/" style="fill-rule:evenodd;clip-rule:evenodd;stroke-linejoin:round;stroke-miterlimit:2;"><path d="M154.167,58c21.929,8.383 37.5,29.625 37.5,54.5l-0,4.167c-3.696,-8.625 -8.092,-15.463 -13.188,-20.525c-7.642,-7.596 -13.896,-2.892 -18.858,-10.509c-3.313,-5.079 -5.129,-14.291 -5.454,-27.637l-0,0.004Z" style="fill-opacity:0.3;fill-rule:nonzero;"/><path d="M60.696,196.6c-3.681,2.229 -7.905,3.406 -12.208,3.4l-4.738,0c11.554,-10.567 19.008,-24.146 22.363,-40.737c0.195,-2.634 0.379,-5.384 0.554,-8.25c3.176,2.125 6.929,3.225 10.75,3.15c5.192,17.357 18.167,31.352 35.083,37.841l0,12.163c0.002,0.178 0.004,0.355 0.004,0.533c-0,21.493 -17.686,39.179 -39.18,39.179c-0.051,0 -0.102,0 -0.153,0l-33.588,-0.129c11.113,-22.85 18.054,-38.288 20.834,-46.304c0.096,-0.275 0.187,-0.554 0.279,-0.846Zm75.358,-92.058c-17.446,13.791 -69.387,9.025 -69.387,35.325l-0,-25.284c-0,-37.971 29.846,-68.75 66.666,-68.75c20.167,0 23.68,11.029 22.738,25.959c-0.784,12.458 -2.571,18.941 -20.017,32.745l0,0.005Z" style="fill-rule:nonzero;"/></svg>