<?xml version="1.0" encoding="UTF-8" standalone="no"?><!DOCTYPE svg PUBLIC "-//W3C//DTD SVG 1.1//EN" "http://www.w3.org/Graphics/SVG/1.1/DTD/svg11.dtd"><svg width="100%" height="100%" viewBox="0 0 267 267" version="1.1" xmlns="http://www.w3.org/2000/svg" xmlns:xlink="http://www.w3.org/1999/xlink" xml:space="preserve" xmlns:serif="http://www.serif.com/" style="fill-rule:evenodd;clip-rule:evenodd;stroke-linejoin:round;stroke-miterlimit:2;"><g><path d="M92.5,70.842c-0.546,-2.696 -0.833,-5.484 -0.833,-8.342c-0,-23.012 18.654,-41.667 41.666,-41.667c23.013,0 41.667,18.655 41.667,41.667c0,2.858 -0.287,5.646 -0.833,8.342c-10.525,-10.317 -24.938,-16.675 -40.834,-16.675c-15.895,-0 -30.308,6.358 -40.833,16.675Z" style="fill-rule:nonzero;"/><path d="M191.392,106.8c-8.775,-21.117 -29.6,-35.967 -53.892,-35.967l-8.333,0c-24.292,0 -45.117,14.85 -53.892,35.967c2.862,-29.542 27.767,-52.633 58.058,-52.633c30.292,-0 55.196,23.091 58.059,52.633Z" style="fill:#f55d81;fill-rule:nonzero;"/></g></svg>